G04 #@! TF.GenerationSoftware,KiCad,Pcbnew,5.0.0*
G04 #@! TF.CreationDate,2018-09-18T18:54:09-07:00*
G04 #@! TF.ProjectId,gpio-expander,6770696F2D657870616E6465722E6B69,rev?*
G04 #@! TF.SameCoordinates,Original*
G04 #@! TF.FileFunction,Paste,Top*
G04 #@! TF.FilePolarity,Positive*
%FSLAX46Y46*%
G04 Gerber Fmt 4.6, Leading zero omitted, Abs format (unit mm)*
G04 Created by KiCad (PCBNEW 5.0.0) date Tue Sep 18 18:54:09 2018*
%MOMM*%
%LPD*%
G01*
G04 APERTURE LIST*
%ADD10R,1.250000X1.500000*%
%ADD11R,1.200000X0.750000*%
%ADD12R,1.500000X1.250000*%
%ADD13R,1.600000X0.300000*%
%ADD14R,0.800000X0.500000*%
%ADD15R,0.800000X0.400000*%
%ADD16R,0.500000X0.800000*%
%ADD17R,0.400000X0.800000*%
G04 APERTURE END LIST*
D10*
G04 #@! TO.C,C4*
X149600000Y-91450000D03*
X149600000Y-88950000D03*
G04 #@! TD*
D11*
G04 #@! TO.C,C1*
X139900000Y-103200000D03*
X138000000Y-103200000D03*
G04 #@! TD*
D10*
G04 #@! TO.C,C3*
X137200000Y-107800000D03*
X137200000Y-105300000D03*
G04 #@! TD*
D12*
G04 #@! TO.C,C2*
X153200000Y-109600000D03*
X155700000Y-109600000D03*
G04 #@! TD*
D13*
G04 #@! TO.C,U1*
X143200000Y-102750000D03*
X148800000Y-102750000D03*
X143200000Y-102100000D03*
X148800000Y-102100000D03*
X143200000Y-101450000D03*
X148800000Y-101450000D03*
X143200000Y-100800000D03*
X148800000Y-100800000D03*
X143200000Y-100150000D03*
X148800000Y-100150000D03*
X143200000Y-99500000D03*
X148800000Y-99500000D03*
X143200000Y-98850000D03*
X148800000Y-98850000D03*
X143200000Y-98200000D03*
X148800000Y-98200000D03*
X143200000Y-97550000D03*
X148800000Y-97550000D03*
X143200000Y-96900000D03*
X148800000Y-96900000D03*
X143200000Y-96250000D03*
X148800000Y-96250000D03*
X143200000Y-95600000D03*
X148800000Y-95600000D03*
G04 #@! TD*
D14*
G04 #@! TO.C,RN2*
X141100000Y-107200000D03*
D15*
X141100000Y-106400000D03*
D14*
X141100000Y-104800000D03*
D15*
X141100000Y-105600000D03*
D14*
X139300000Y-107200000D03*
D15*
X139300000Y-105600000D03*
X139300000Y-106400000D03*
D14*
X139300000Y-104800000D03*
G04 #@! TD*
D16*
G04 #@! TO.C,RN1*
X136600000Y-100500000D03*
D17*
X138200000Y-100500000D03*
X137400000Y-100500000D03*
D16*
X139000000Y-100500000D03*
D17*
X137400000Y-98700000D03*
D16*
X136600000Y-98700000D03*
D17*
X138200000Y-98700000D03*
D16*
X139000000Y-98700000D03*
G04 #@! TD*
M02*
