G04 #@! TF.GenerationSoftware,KiCad,Pcbnew,5.0.0*
G04 #@! TF.CreationDate,2018-09-18T18:54:09-07:00*
G04 #@! TF.ProjectId,gpio-expander,6770696F2D657870616E6465722E6B69,rev?*
G04 #@! TF.SameCoordinates,Original*
G04 #@! TF.FileFunction,Copper,L2,Bot,Signal*
G04 #@! TF.FilePolarity,Positive*
%FSLAX46Y46*%
G04 Gerber Fmt 4.6, Leading zero omitted, Abs format (unit mm)*
G04 Created by KiCad (PCBNEW 5.0.0) date Tue Sep 18 18:54:09 2018*
%MOMM*%
%LPD*%
G01*
G04 APERTURE LIST*
G04 #@! TA.AperFunction,ComponentPad*
%ADD10R,1.700000X1.700000*%
G04 #@! TD*
G04 #@! TA.AperFunction,ComponentPad*
%ADD11O,1.700000X1.700000*%
G04 #@! TD*
G04 #@! TA.AperFunction,ComponentPad*
%ADD12R,1.350000X1.350000*%
G04 #@! TD*
G04 #@! TA.AperFunction,ComponentPad*
%ADD13O,1.350000X1.350000*%
G04 #@! TD*
G04 #@! TA.AperFunction,ViaPad*
%ADD14C,0.800000*%
G04 #@! TD*
G04 #@! TA.AperFunction,Conductor*
%ADD15C,0.250000*%
G04 #@! TD*
G04 #@! TA.AperFunction,Conductor*
%ADD16C,0.254000*%
G04 #@! TD*
G04 APERTURE END LIST*
D10*
G04 #@! TO.P,J2,1*
G04 #@! TO.N,+3V3*
X153200000Y-106800000D03*
D11*
G04 #@! TO.P,J2,2*
G04 #@! TO.N,GND*
X155740000Y-106800000D03*
G04 #@! TO.P,J2,3*
G04 #@! TO.N,/P00*
X153200000Y-104260000D03*
G04 #@! TO.P,J2,4*
G04 #@! TO.N,/P01*
X155740000Y-104260000D03*
G04 #@! TO.P,J2,5*
G04 #@! TO.N,/P02*
X153200000Y-101720000D03*
G04 #@! TO.P,J2,6*
G04 #@! TO.N,/P03*
X155740000Y-101720000D03*
G04 #@! TO.P,J2,7*
G04 #@! TO.N,/P04*
X153200000Y-99180000D03*
G04 #@! TO.P,J2,8*
G04 #@! TO.N,/P05*
X155740000Y-99180000D03*
G04 #@! TO.P,J2,9*
G04 #@! TO.N,/P06*
X153200000Y-96640000D03*
G04 #@! TO.P,J2,10*
G04 #@! TO.N,/P07*
X155740000Y-96640000D03*
G04 #@! TO.P,J2,11*
G04 #@! TO.N,/P10*
X153200000Y-94100000D03*
G04 #@! TO.P,J2,12*
G04 #@! TO.N,/P11*
X155740000Y-94100000D03*
G04 #@! TO.P,J2,13*
G04 #@! TO.N,GND*
X153200000Y-91560000D03*
G04 #@! TO.P,J2,14*
X155740000Y-91560000D03*
G04 #@! TD*
D12*
G04 #@! TO.P,J1,1*
G04 #@! TO.N,GND*
X133600000Y-93800000D03*
D13*
G04 #@! TO.P,J1,2*
X133600000Y-95800000D03*
G04 #@! TO.P,J1,3*
G04 #@! TO.N,/~INT*
X133600000Y-97800000D03*
G04 #@! TO.P,J1,4*
G04 #@! TO.N,/SCL*
X133600000Y-99800000D03*
G04 #@! TO.P,J1,5*
G04 #@! TO.N,/SDA*
X133600000Y-101800000D03*
G04 #@! TO.P,J1,6*
G04 #@! TO.N,+3V3*
X133600000Y-103800000D03*
G04 #@! TD*
D10*
G04 #@! TO.P,J3,1*
G04 #@! TO.N,+3V3*
X146600000Y-91400000D03*
D11*
G04 #@! TO.P,J3,2*
G04 #@! TO.N,GND*
X146600000Y-88860000D03*
G04 #@! TO.P,J3,3*
G04 #@! TO.N,/P12*
X144060000Y-91400000D03*
G04 #@! TO.P,J3,4*
G04 #@! TO.N,/P13*
X144060000Y-88860000D03*
G04 #@! TO.P,J3,5*
G04 #@! TO.N,/P14*
X141520000Y-91400000D03*
G04 #@! TO.P,J3,6*
G04 #@! TO.N,/P15*
X141520000Y-88860000D03*
G04 #@! TO.P,J3,7*
G04 #@! TO.N,/P16*
X138980000Y-91400000D03*
G04 #@! TO.P,J3,8*
G04 #@! TO.N,/P17*
X138980000Y-88860000D03*
G04 #@! TD*
D14*
G04 #@! TO.N,GND*
X147000000Y-95800000D03*
X146000000Y-110600000D03*
X144800000Y-106800000D03*
X136400000Y-103400000D03*
X150000000Y-110600000D03*
X137200000Y-109400000D03*
G04 #@! TO.N,/~INT*
X145600000Y-102000000D03*
X136086133Y-101746450D03*
G04 #@! TO.N,/SCL*
X135718978Y-99322499D03*
G04 #@! TD*
D15*
G04 #@! TO.N,/~INT*
X145600000Y-102000000D02*
X136339683Y-102000000D01*
X136339683Y-102000000D02*
X136086133Y-101746450D01*
G04 #@! TO.N,/SCL*
X134077501Y-99322499D02*
X133600000Y-99800000D01*
X135718978Y-99322499D02*
X134077501Y-99322499D01*
G04 #@! TD*
D16*
G04 #@! TO.N,GND*
G36*
X155559192Y-85380578D02*
X156294389Y-85581705D01*
X156982351Y-85909846D01*
X157601331Y-86354628D01*
X158131761Y-86901988D01*
X158556884Y-87534639D01*
X158863251Y-88232561D01*
X159042499Y-88979183D01*
X159090001Y-89626044D01*
X159090000Y-108968382D01*
X159019422Y-109759193D01*
X158818295Y-110494389D01*
X158490152Y-111182355D01*
X158045374Y-111801328D01*
X157498012Y-112331761D01*
X156865362Y-112756883D01*
X156167439Y-113063251D01*
X155420819Y-113242499D01*
X154773970Y-113290000D01*
X135631618Y-113290000D01*
X134840807Y-113219422D01*
X134105611Y-113018295D01*
X133417645Y-112690152D01*
X132798672Y-112245374D01*
X132268239Y-111698012D01*
X131843117Y-111065362D01*
X131536749Y-110367439D01*
X131357501Y-109620819D01*
X131310000Y-108973970D01*
X131310000Y-97800000D01*
X132283662Y-97800000D01*
X132308955Y-98056805D01*
X132383862Y-98303741D01*
X132505505Y-98531318D01*
X132669208Y-98730792D01*
X132753539Y-98800000D01*
X132669208Y-98869208D01*
X132505505Y-99068682D01*
X132383862Y-99296259D01*
X132308955Y-99543195D01*
X132283662Y-99800000D01*
X132308955Y-100056805D01*
X132383862Y-100303741D01*
X132505505Y-100531318D01*
X132669208Y-100730792D01*
X132753539Y-100800000D01*
X132669208Y-100869208D01*
X132505505Y-101068682D01*
X132383862Y-101296259D01*
X132308955Y-101543195D01*
X132283662Y-101800000D01*
X132308955Y-102056805D01*
X132383862Y-102303741D01*
X132505505Y-102531318D01*
X132669208Y-102730792D01*
X132753539Y-102800000D01*
X132669208Y-102869208D01*
X132505505Y-103068682D01*
X132383862Y-103296259D01*
X132308955Y-103543195D01*
X132283662Y-103800000D01*
X132308955Y-104056805D01*
X132383862Y-104303741D01*
X132505505Y-104531318D01*
X132669208Y-104730792D01*
X132868682Y-104894495D01*
X133096259Y-105016138D01*
X133343195Y-105091045D01*
X133535649Y-105110000D01*
X133664351Y-105110000D01*
X133856805Y-105091045D01*
X134103741Y-105016138D01*
X134331318Y-104894495D01*
X134530792Y-104730792D01*
X134694495Y-104531318D01*
X134816138Y-104303741D01*
X134891045Y-104056805D01*
X134916338Y-103800000D01*
X134891045Y-103543195D01*
X134816138Y-103296259D01*
X134694495Y-103068682D01*
X134530792Y-102869208D01*
X134446461Y-102800000D01*
X134530792Y-102730792D01*
X134694495Y-102531318D01*
X134816138Y-102303741D01*
X134891045Y-102056805D01*
X134916338Y-101800000D01*
X134901024Y-101644511D01*
X135051133Y-101644511D01*
X135051133Y-101848389D01*
X135090907Y-102048348D01*
X135168928Y-102236706D01*
X135282196Y-102406224D01*
X135426359Y-102550387D01*
X135595877Y-102663655D01*
X135784235Y-102741676D01*
X135984194Y-102781450D01*
X136188072Y-102781450D01*
X136298042Y-102759576D01*
X136302350Y-102760000D01*
X136302360Y-102760000D01*
X136339683Y-102763676D01*
X136377006Y-102760000D01*
X144896289Y-102760000D01*
X144940226Y-102803937D01*
X145109744Y-102917205D01*
X145298102Y-102995226D01*
X145498061Y-103035000D01*
X145701939Y-103035000D01*
X145901898Y-102995226D01*
X146090256Y-102917205D01*
X146259774Y-102803937D01*
X146403937Y-102659774D01*
X146517205Y-102490256D01*
X146595226Y-102301898D01*
X146635000Y-102101939D01*
X146635000Y-101898061D01*
X146595226Y-101698102D01*
X146517205Y-101509744D01*
X146403937Y-101340226D01*
X146259774Y-101196063D01*
X146090256Y-101082795D01*
X145901898Y-101004774D01*
X145701939Y-100965000D01*
X145498061Y-100965000D01*
X145298102Y-101004774D01*
X145109744Y-101082795D01*
X144940226Y-101196063D01*
X144896289Y-101240000D01*
X136992518Y-101240000D01*
X136890070Y-101086676D01*
X136745907Y-100942513D01*
X136576389Y-100829245D01*
X136388031Y-100751224D01*
X136188072Y-100711450D01*
X135984194Y-100711450D01*
X135784235Y-100751224D01*
X135595877Y-100829245D01*
X135426359Y-100942513D01*
X135282196Y-101086676D01*
X135168928Y-101256194D01*
X135090907Y-101444552D01*
X135051133Y-101644511D01*
X134901024Y-101644511D01*
X134891045Y-101543195D01*
X134816138Y-101296259D01*
X134694495Y-101068682D01*
X134530792Y-100869208D01*
X134446461Y-100800000D01*
X134530792Y-100730792D01*
X134694495Y-100531318D01*
X134816138Y-100303741D01*
X134883251Y-100082499D01*
X135015267Y-100082499D01*
X135059204Y-100126436D01*
X135228722Y-100239704D01*
X135417080Y-100317725D01*
X135617039Y-100357499D01*
X135820917Y-100357499D01*
X136020876Y-100317725D01*
X136209234Y-100239704D01*
X136378752Y-100126436D01*
X136522915Y-99982273D01*
X136636183Y-99812755D01*
X136714204Y-99624397D01*
X136753978Y-99424438D01*
X136753978Y-99220560D01*
X136714204Y-99020601D01*
X136636183Y-98832243D01*
X136522915Y-98662725D01*
X136378752Y-98518562D01*
X136209234Y-98405294D01*
X136020876Y-98327273D01*
X135820917Y-98287499D01*
X135617039Y-98287499D01*
X135417080Y-98327273D01*
X135228722Y-98405294D01*
X135059204Y-98518562D01*
X135015267Y-98562499D01*
X134668906Y-98562499D01*
X134694495Y-98531318D01*
X134816138Y-98303741D01*
X134891045Y-98056805D01*
X134916338Y-97800000D01*
X134891045Y-97543195D01*
X134816138Y-97296259D01*
X134694495Y-97068682D01*
X134530792Y-96869208D01*
X134442352Y-96796628D01*
X134578303Y-96671227D01*
X134729473Y-96463629D01*
X134837238Y-96230528D01*
X134867910Y-96129400D01*
X134744224Y-95927000D01*
X133727000Y-95927000D01*
X133727000Y-95947000D01*
X133473000Y-95947000D01*
X133473000Y-95927000D01*
X132455776Y-95927000D01*
X132332090Y-96129400D01*
X132362762Y-96230528D01*
X132470527Y-96463629D01*
X132621697Y-96671227D01*
X132757648Y-96796628D01*
X132669208Y-96869208D01*
X132505505Y-97068682D01*
X132383862Y-97296259D01*
X132308955Y-97543195D01*
X132283662Y-97800000D01*
X131310000Y-97800000D01*
X131310000Y-94085750D01*
X132290000Y-94085750D01*
X132290000Y-94537542D01*
X132314403Y-94660223D01*
X132362270Y-94775785D01*
X132431763Y-94879789D01*
X132520211Y-94968237D01*
X132569149Y-95000936D01*
X132470527Y-95136371D01*
X132362762Y-95369472D01*
X132332090Y-95470600D01*
X132455776Y-95673000D01*
X133473000Y-95673000D01*
X133473000Y-93927000D01*
X133727000Y-93927000D01*
X133727000Y-95673000D01*
X134744224Y-95673000D01*
X134867910Y-95470600D01*
X134837238Y-95369472D01*
X134729473Y-95136371D01*
X134630851Y-95000936D01*
X134679789Y-94968237D01*
X134768237Y-94879789D01*
X134837730Y-94775785D01*
X134885597Y-94660223D01*
X134910000Y-94537542D01*
X134910000Y-94100000D01*
X151707815Y-94100000D01*
X151736487Y-94391111D01*
X151821401Y-94671034D01*
X151959294Y-94929014D01*
X152144866Y-95155134D01*
X152370986Y-95340706D01*
X152425791Y-95370000D01*
X152370986Y-95399294D01*
X152144866Y-95584866D01*
X151959294Y-95810986D01*
X151821401Y-96068966D01*
X151736487Y-96348889D01*
X151707815Y-96640000D01*
X151736487Y-96931111D01*
X151821401Y-97211034D01*
X151959294Y-97469014D01*
X152144866Y-97695134D01*
X152370986Y-97880706D01*
X152425791Y-97910000D01*
X152370986Y-97939294D01*
X152144866Y-98124866D01*
X151959294Y-98350986D01*
X151821401Y-98608966D01*
X151736487Y-98888889D01*
X151707815Y-99180000D01*
X151736487Y-99471111D01*
X151821401Y-99751034D01*
X151959294Y-100009014D01*
X152144866Y-100235134D01*
X152370986Y-100420706D01*
X152425791Y-100450000D01*
X152370986Y-100479294D01*
X152144866Y-100664866D01*
X151959294Y-100890986D01*
X151821401Y-101148966D01*
X151736487Y-101428889D01*
X151707815Y-101720000D01*
X151736487Y-102011111D01*
X151821401Y-102291034D01*
X151959294Y-102549014D01*
X152144866Y-102775134D01*
X152370986Y-102960706D01*
X152425791Y-102990000D01*
X152370986Y-103019294D01*
X152144866Y-103204866D01*
X151959294Y-103430986D01*
X151821401Y-103688966D01*
X151736487Y-103968889D01*
X151707815Y-104260000D01*
X151736487Y-104551111D01*
X151821401Y-104831034D01*
X151959294Y-105089014D01*
X152144866Y-105315134D01*
X152174687Y-105339607D01*
X152105820Y-105360498D01*
X151995506Y-105419463D01*
X151898815Y-105498815D01*
X151819463Y-105595506D01*
X151760498Y-105705820D01*
X151724188Y-105825518D01*
X151711928Y-105950000D01*
X151711928Y-107650000D01*
X151724188Y-107774482D01*
X151760498Y-107894180D01*
X151819463Y-108004494D01*
X151898815Y-108101185D01*
X151995506Y-108180537D01*
X152105820Y-108239502D01*
X152225518Y-108275812D01*
X152350000Y-108288072D01*
X154050000Y-108288072D01*
X154174482Y-108275812D01*
X154294180Y-108239502D01*
X154404494Y-108180537D01*
X154501185Y-108101185D01*
X154580537Y-108004494D01*
X154639502Y-107894180D01*
X154662498Y-107818374D01*
X154858645Y-107995178D01*
X155108748Y-108144157D01*
X155383109Y-108241481D01*
X155613000Y-108120814D01*
X155613000Y-106927000D01*
X155867000Y-106927000D01*
X155867000Y-108120814D01*
X156096891Y-108241481D01*
X156371252Y-108144157D01*
X156621355Y-107995178D01*
X156837588Y-107800269D01*
X157011641Y-107566920D01*
X157136825Y-107304099D01*
X157181476Y-107156890D01*
X157060155Y-106927000D01*
X155867000Y-106927000D01*
X155613000Y-106927000D01*
X155593000Y-106927000D01*
X155593000Y-106673000D01*
X155613000Y-106673000D01*
X155613000Y-106653000D01*
X155867000Y-106653000D01*
X155867000Y-106673000D01*
X157060155Y-106673000D01*
X157181476Y-106443110D01*
X157136825Y-106295901D01*
X157011641Y-106033080D01*
X156837588Y-105799731D01*
X156621355Y-105604822D01*
X156504477Y-105535201D01*
X156569014Y-105500706D01*
X156795134Y-105315134D01*
X156980706Y-105089014D01*
X157118599Y-104831034D01*
X157203513Y-104551111D01*
X157232185Y-104260000D01*
X157203513Y-103968889D01*
X157118599Y-103688966D01*
X156980706Y-103430986D01*
X156795134Y-103204866D01*
X156569014Y-103019294D01*
X156514209Y-102990000D01*
X156569014Y-102960706D01*
X156795134Y-102775134D01*
X156980706Y-102549014D01*
X157118599Y-102291034D01*
X157203513Y-102011111D01*
X157232185Y-101720000D01*
X157203513Y-101428889D01*
X157118599Y-101148966D01*
X156980706Y-100890986D01*
X156795134Y-100664866D01*
X156569014Y-100479294D01*
X156514209Y-100450000D01*
X156569014Y-100420706D01*
X156795134Y-100235134D01*
X156980706Y-100009014D01*
X157118599Y-99751034D01*
X157203513Y-99471111D01*
X157232185Y-99180000D01*
X157203513Y-98888889D01*
X157118599Y-98608966D01*
X156980706Y-98350986D01*
X156795134Y-98124866D01*
X156569014Y-97939294D01*
X156514209Y-97910000D01*
X156569014Y-97880706D01*
X156795134Y-97695134D01*
X156980706Y-97469014D01*
X157118599Y-97211034D01*
X157203513Y-96931111D01*
X157232185Y-96640000D01*
X157203513Y-96348889D01*
X157118599Y-96068966D01*
X156980706Y-95810986D01*
X156795134Y-95584866D01*
X156569014Y-95399294D01*
X156514209Y-95370000D01*
X156569014Y-95340706D01*
X156795134Y-95155134D01*
X156980706Y-94929014D01*
X157118599Y-94671034D01*
X157203513Y-94391111D01*
X157232185Y-94100000D01*
X157203513Y-93808889D01*
X157118599Y-93528966D01*
X156980706Y-93270986D01*
X156795134Y-93044866D01*
X156569014Y-92859294D01*
X156504477Y-92824799D01*
X156621355Y-92755178D01*
X156837588Y-92560269D01*
X157011641Y-92326920D01*
X157136825Y-92064099D01*
X157181476Y-91916890D01*
X157060155Y-91687000D01*
X155867000Y-91687000D01*
X155867000Y-91707000D01*
X155613000Y-91707000D01*
X155613000Y-91687000D01*
X153327000Y-91687000D01*
X153327000Y-91707000D01*
X153073000Y-91707000D01*
X153073000Y-91687000D01*
X151879845Y-91687000D01*
X151758524Y-91916890D01*
X151803175Y-92064099D01*
X151928359Y-92326920D01*
X152102412Y-92560269D01*
X152318645Y-92755178D01*
X152435523Y-92824799D01*
X152370986Y-92859294D01*
X152144866Y-93044866D01*
X151959294Y-93270986D01*
X151821401Y-93528966D01*
X151736487Y-93808889D01*
X151707815Y-94100000D01*
X134910000Y-94100000D01*
X134910000Y-94085750D01*
X134751250Y-93927000D01*
X133727000Y-93927000D01*
X133473000Y-93927000D01*
X132448750Y-93927000D01*
X132290000Y-94085750D01*
X131310000Y-94085750D01*
X131310000Y-93062458D01*
X132290000Y-93062458D01*
X132290000Y-93514250D01*
X132448750Y-93673000D01*
X133473000Y-93673000D01*
X133473000Y-92648750D01*
X133727000Y-92648750D01*
X133727000Y-93673000D01*
X134751250Y-93673000D01*
X134910000Y-93514250D01*
X134910000Y-93062458D01*
X134885597Y-92939777D01*
X134837730Y-92824215D01*
X134768237Y-92720211D01*
X134679789Y-92631763D01*
X134575785Y-92562270D01*
X134460223Y-92514403D01*
X134337542Y-92490000D01*
X133885750Y-92490000D01*
X133727000Y-92648750D01*
X133473000Y-92648750D01*
X133314250Y-92490000D01*
X132862458Y-92490000D01*
X132739777Y-92514403D01*
X132624215Y-92562270D01*
X132520211Y-92631763D01*
X132431763Y-92720211D01*
X132362270Y-92824215D01*
X132314403Y-92939777D01*
X132290000Y-93062458D01*
X131310000Y-93062458D01*
X131310000Y-89631618D01*
X131378865Y-88860000D01*
X137487815Y-88860000D01*
X137516487Y-89151111D01*
X137601401Y-89431034D01*
X137739294Y-89689014D01*
X137924866Y-89915134D01*
X138150986Y-90100706D01*
X138205791Y-90130000D01*
X138150986Y-90159294D01*
X137924866Y-90344866D01*
X137739294Y-90570986D01*
X137601401Y-90828966D01*
X137516487Y-91108889D01*
X137487815Y-91400000D01*
X137516487Y-91691111D01*
X137601401Y-91971034D01*
X137739294Y-92229014D01*
X137924866Y-92455134D01*
X138150986Y-92640706D01*
X138408966Y-92778599D01*
X138688889Y-92863513D01*
X138907050Y-92885000D01*
X139052950Y-92885000D01*
X139271111Y-92863513D01*
X139551034Y-92778599D01*
X139809014Y-92640706D01*
X140035134Y-92455134D01*
X140220706Y-92229014D01*
X140250000Y-92174209D01*
X140279294Y-92229014D01*
X140464866Y-92455134D01*
X140690986Y-92640706D01*
X140948966Y-92778599D01*
X141228889Y-92863513D01*
X141447050Y-92885000D01*
X141592950Y-92885000D01*
X141811111Y-92863513D01*
X142091034Y-92778599D01*
X142349014Y-92640706D01*
X142575134Y-92455134D01*
X142760706Y-92229014D01*
X142790000Y-92174209D01*
X142819294Y-92229014D01*
X143004866Y-92455134D01*
X143230986Y-92640706D01*
X143488966Y-92778599D01*
X143768889Y-92863513D01*
X143987050Y-92885000D01*
X144132950Y-92885000D01*
X144351111Y-92863513D01*
X144631034Y-92778599D01*
X144889014Y-92640706D01*
X145115134Y-92455134D01*
X145139607Y-92425313D01*
X145160498Y-92494180D01*
X145219463Y-92604494D01*
X145298815Y-92701185D01*
X145395506Y-92780537D01*
X145505820Y-92839502D01*
X145625518Y-92875812D01*
X145750000Y-92888072D01*
X147450000Y-92888072D01*
X147574482Y-92875812D01*
X147694180Y-92839502D01*
X147804494Y-92780537D01*
X147901185Y-92701185D01*
X147980537Y-92604494D01*
X148039502Y-92494180D01*
X148075812Y-92374482D01*
X148088072Y-92250000D01*
X148088072Y-91203110D01*
X151758524Y-91203110D01*
X151879845Y-91433000D01*
X153073000Y-91433000D01*
X153073000Y-90239186D01*
X153327000Y-90239186D01*
X153327000Y-91433000D01*
X155613000Y-91433000D01*
X155613000Y-90239186D01*
X155867000Y-90239186D01*
X155867000Y-91433000D01*
X157060155Y-91433000D01*
X157181476Y-91203110D01*
X157136825Y-91055901D01*
X157011641Y-90793080D01*
X156837588Y-90559731D01*
X156621355Y-90364822D01*
X156371252Y-90215843D01*
X156096891Y-90118519D01*
X155867000Y-90239186D01*
X155613000Y-90239186D01*
X155383109Y-90118519D01*
X155108748Y-90215843D01*
X154858645Y-90364822D01*
X154642412Y-90559731D01*
X154470000Y-90790880D01*
X154297588Y-90559731D01*
X154081355Y-90364822D01*
X153831252Y-90215843D01*
X153556891Y-90118519D01*
X153327000Y-90239186D01*
X153073000Y-90239186D01*
X152843109Y-90118519D01*
X152568748Y-90215843D01*
X152318645Y-90364822D01*
X152102412Y-90559731D01*
X151928359Y-90793080D01*
X151803175Y-91055901D01*
X151758524Y-91203110D01*
X148088072Y-91203110D01*
X148088072Y-90550000D01*
X148075812Y-90425518D01*
X148039502Y-90305820D01*
X147980537Y-90195506D01*
X147901185Y-90098815D01*
X147804494Y-90019463D01*
X147694180Y-89960498D01*
X147618374Y-89937502D01*
X147795178Y-89741355D01*
X147944157Y-89491252D01*
X148041481Y-89216891D01*
X147920814Y-88987000D01*
X146727000Y-88987000D01*
X146727000Y-89007000D01*
X146473000Y-89007000D01*
X146473000Y-88987000D01*
X146453000Y-88987000D01*
X146453000Y-88733000D01*
X146473000Y-88733000D01*
X146473000Y-87539845D01*
X146727000Y-87539845D01*
X146727000Y-88733000D01*
X147920814Y-88733000D01*
X148041481Y-88503109D01*
X147944157Y-88228748D01*
X147795178Y-87978645D01*
X147600269Y-87762412D01*
X147366920Y-87588359D01*
X147104099Y-87463175D01*
X146956890Y-87418524D01*
X146727000Y-87539845D01*
X146473000Y-87539845D01*
X146243110Y-87418524D01*
X146095901Y-87463175D01*
X145833080Y-87588359D01*
X145599731Y-87762412D01*
X145404822Y-87978645D01*
X145335201Y-88095523D01*
X145300706Y-88030986D01*
X145115134Y-87804866D01*
X144889014Y-87619294D01*
X144631034Y-87481401D01*
X144351111Y-87396487D01*
X144132950Y-87375000D01*
X143987050Y-87375000D01*
X143768889Y-87396487D01*
X143488966Y-87481401D01*
X143230986Y-87619294D01*
X143004866Y-87804866D01*
X142819294Y-88030986D01*
X142790000Y-88085791D01*
X142760706Y-88030986D01*
X142575134Y-87804866D01*
X142349014Y-87619294D01*
X142091034Y-87481401D01*
X141811111Y-87396487D01*
X141592950Y-87375000D01*
X141447050Y-87375000D01*
X141228889Y-87396487D01*
X140948966Y-87481401D01*
X140690986Y-87619294D01*
X140464866Y-87804866D01*
X140279294Y-88030986D01*
X140250000Y-88085791D01*
X140220706Y-88030986D01*
X140035134Y-87804866D01*
X139809014Y-87619294D01*
X139551034Y-87481401D01*
X139271111Y-87396487D01*
X139052950Y-87375000D01*
X138907050Y-87375000D01*
X138688889Y-87396487D01*
X138408966Y-87481401D01*
X138150986Y-87619294D01*
X137924866Y-87804866D01*
X137739294Y-88030986D01*
X137601401Y-88288966D01*
X137516487Y-88568889D01*
X137487815Y-88860000D01*
X131378865Y-88860000D01*
X131380578Y-88840808D01*
X131581705Y-88105611D01*
X131909846Y-87417649D01*
X132354628Y-86798669D01*
X132901988Y-86268239D01*
X133534639Y-85843116D01*
X134232561Y-85536749D01*
X134979183Y-85357501D01*
X135626030Y-85310000D01*
X154768382Y-85310000D01*
X155559192Y-85380578D01*
X155559192Y-85380578D01*
G37*
X155559192Y-85380578D02*
X156294389Y-85581705D01*
X156982351Y-85909846D01*
X157601331Y-86354628D01*
X158131761Y-86901988D01*
X158556884Y-87534639D01*
X158863251Y-88232561D01*
X159042499Y-88979183D01*
X159090001Y-89626044D01*
X159090000Y-108968382D01*
X159019422Y-109759193D01*
X158818295Y-110494389D01*
X158490152Y-111182355D01*
X158045374Y-111801328D01*
X157498012Y-112331761D01*
X156865362Y-112756883D01*
X156167439Y-113063251D01*
X155420819Y-113242499D01*
X154773970Y-113290000D01*
X135631618Y-113290000D01*
X134840807Y-113219422D01*
X134105611Y-113018295D01*
X133417645Y-112690152D01*
X132798672Y-112245374D01*
X132268239Y-111698012D01*
X131843117Y-111065362D01*
X131536749Y-110367439D01*
X131357501Y-109620819D01*
X131310000Y-108973970D01*
X131310000Y-97800000D01*
X132283662Y-97800000D01*
X132308955Y-98056805D01*
X132383862Y-98303741D01*
X132505505Y-98531318D01*
X132669208Y-98730792D01*
X132753539Y-98800000D01*
X132669208Y-98869208D01*
X132505505Y-99068682D01*
X132383862Y-99296259D01*
X132308955Y-99543195D01*
X132283662Y-99800000D01*
X132308955Y-100056805D01*
X132383862Y-100303741D01*
X132505505Y-100531318D01*
X132669208Y-100730792D01*
X132753539Y-100800000D01*
X132669208Y-100869208D01*
X132505505Y-101068682D01*
X132383862Y-101296259D01*
X132308955Y-101543195D01*
X132283662Y-101800000D01*
X132308955Y-102056805D01*
X132383862Y-102303741D01*
X132505505Y-102531318D01*
X132669208Y-102730792D01*
X132753539Y-102800000D01*
X132669208Y-102869208D01*
X132505505Y-103068682D01*
X132383862Y-103296259D01*
X132308955Y-103543195D01*
X132283662Y-103800000D01*
X132308955Y-104056805D01*
X132383862Y-104303741D01*
X132505505Y-104531318D01*
X132669208Y-104730792D01*
X132868682Y-104894495D01*
X133096259Y-105016138D01*
X133343195Y-105091045D01*
X133535649Y-105110000D01*
X133664351Y-105110000D01*
X133856805Y-105091045D01*
X134103741Y-105016138D01*
X134331318Y-104894495D01*
X134530792Y-104730792D01*
X134694495Y-104531318D01*
X134816138Y-104303741D01*
X134891045Y-104056805D01*
X134916338Y-103800000D01*
X134891045Y-103543195D01*
X134816138Y-103296259D01*
X134694495Y-103068682D01*
X134530792Y-102869208D01*
X134446461Y-102800000D01*
X134530792Y-102730792D01*
X134694495Y-102531318D01*
X134816138Y-102303741D01*
X134891045Y-102056805D01*
X134916338Y-101800000D01*
X134901024Y-101644511D01*
X135051133Y-101644511D01*
X135051133Y-101848389D01*
X135090907Y-102048348D01*
X135168928Y-102236706D01*
X135282196Y-102406224D01*
X135426359Y-102550387D01*
X135595877Y-102663655D01*
X135784235Y-102741676D01*
X135984194Y-102781450D01*
X136188072Y-102781450D01*
X136298042Y-102759576D01*
X136302350Y-102760000D01*
X136302360Y-102760000D01*
X136339683Y-102763676D01*
X136377006Y-102760000D01*
X144896289Y-102760000D01*
X144940226Y-102803937D01*
X145109744Y-102917205D01*
X145298102Y-102995226D01*
X145498061Y-103035000D01*
X145701939Y-103035000D01*
X145901898Y-102995226D01*
X146090256Y-102917205D01*
X146259774Y-102803937D01*
X146403937Y-102659774D01*
X146517205Y-102490256D01*
X146595226Y-102301898D01*
X146635000Y-102101939D01*
X146635000Y-101898061D01*
X146595226Y-101698102D01*
X146517205Y-101509744D01*
X146403937Y-101340226D01*
X146259774Y-101196063D01*
X146090256Y-101082795D01*
X145901898Y-101004774D01*
X145701939Y-100965000D01*
X145498061Y-100965000D01*
X145298102Y-101004774D01*
X145109744Y-101082795D01*
X144940226Y-101196063D01*
X144896289Y-101240000D01*
X136992518Y-101240000D01*
X136890070Y-101086676D01*
X136745907Y-100942513D01*
X136576389Y-100829245D01*
X136388031Y-100751224D01*
X136188072Y-100711450D01*
X135984194Y-100711450D01*
X135784235Y-100751224D01*
X135595877Y-100829245D01*
X135426359Y-100942513D01*
X135282196Y-101086676D01*
X135168928Y-101256194D01*
X135090907Y-101444552D01*
X135051133Y-101644511D01*
X134901024Y-101644511D01*
X134891045Y-101543195D01*
X134816138Y-101296259D01*
X134694495Y-101068682D01*
X134530792Y-100869208D01*
X134446461Y-100800000D01*
X134530792Y-100730792D01*
X134694495Y-100531318D01*
X134816138Y-100303741D01*
X134883251Y-100082499D01*
X135015267Y-100082499D01*
X135059204Y-100126436D01*
X135228722Y-100239704D01*
X135417080Y-100317725D01*
X135617039Y-100357499D01*
X135820917Y-100357499D01*
X136020876Y-100317725D01*
X136209234Y-100239704D01*
X136378752Y-100126436D01*
X136522915Y-99982273D01*
X136636183Y-99812755D01*
X136714204Y-99624397D01*
X136753978Y-99424438D01*
X136753978Y-99220560D01*
X136714204Y-99020601D01*
X136636183Y-98832243D01*
X136522915Y-98662725D01*
X136378752Y-98518562D01*
X136209234Y-98405294D01*
X136020876Y-98327273D01*
X135820917Y-98287499D01*
X135617039Y-98287499D01*
X135417080Y-98327273D01*
X135228722Y-98405294D01*
X135059204Y-98518562D01*
X135015267Y-98562499D01*
X134668906Y-98562499D01*
X134694495Y-98531318D01*
X134816138Y-98303741D01*
X134891045Y-98056805D01*
X134916338Y-97800000D01*
X134891045Y-97543195D01*
X134816138Y-97296259D01*
X134694495Y-97068682D01*
X134530792Y-96869208D01*
X134442352Y-96796628D01*
X134578303Y-96671227D01*
X134729473Y-96463629D01*
X134837238Y-96230528D01*
X134867910Y-96129400D01*
X134744224Y-95927000D01*
X133727000Y-95927000D01*
X133727000Y-95947000D01*
X133473000Y-95947000D01*
X133473000Y-95927000D01*
X132455776Y-95927000D01*
X132332090Y-96129400D01*
X132362762Y-96230528D01*
X132470527Y-96463629D01*
X132621697Y-96671227D01*
X132757648Y-96796628D01*
X132669208Y-96869208D01*
X132505505Y-97068682D01*
X132383862Y-97296259D01*
X132308955Y-97543195D01*
X132283662Y-97800000D01*
X131310000Y-97800000D01*
X131310000Y-94085750D01*
X132290000Y-94085750D01*
X132290000Y-94537542D01*
X132314403Y-94660223D01*
X132362270Y-94775785D01*
X132431763Y-94879789D01*
X132520211Y-94968237D01*
X132569149Y-95000936D01*
X132470527Y-95136371D01*
X132362762Y-95369472D01*
X132332090Y-95470600D01*
X132455776Y-95673000D01*
X133473000Y-95673000D01*
X133473000Y-93927000D01*
X133727000Y-93927000D01*
X133727000Y-95673000D01*
X134744224Y-95673000D01*
X134867910Y-95470600D01*
X134837238Y-95369472D01*
X134729473Y-95136371D01*
X134630851Y-95000936D01*
X134679789Y-94968237D01*
X134768237Y-94879789D01*
X134837730Y-94775785D01*
X134885597Y-94660223D01*
X134910000Y-94537542D01*
X134910000Y-94100000D01*
X151707815Y-94100000D01*
X151736487Y-94391111D01*
X151821401Y-94671034D01*
X151959294Y-94929014D01*
X152144866Y-95155134D01*
X152370986Y-95340706D01*
X152425791Y-95370000D01*
X152370986Y-95399294D01*
X152144866Y-95584866D01*
X151959294Y-95810986D01*
X151821401Y-96068966D01*
X151736487Y-96348889D01*
X151707815Y-96640000D01*
X151736487Y-96931111D01*
X151821401Y-97211034D01*
X151959294Y-97469014D01*
X152144866Y-97695134D01*
X152370986Y-97880706D01*
X152425791Y-97910000D01*
X152370986Y-97939294D01*
X152144866Y-98124866D01*
X151959294Y-98350986D01*
X151821401Y-98608966D01*
X151736487Y-98888889D01*
X151707815Y-99180000D01*
X151736487Y-99471111D01*
X151821401Y-99751034D01*
X151959294Y-100009014D01*
X152144866Y-100235134D01*
X152370986Y-100420706D01*
X152425791Y-100450000D01*
X152370986Y-100479294D01*
X152144866Y-100664866D01*
X151959294Y-100890986D01*
X151821401Y-101148966D01*
X151736487Y-101428889D01*
X151707815Y-101720000D01*
X151736487Y-102011111D01*
X151821401Y-102291034D01*
X151959294Y-102549014D01*
X152144866Y-102775134D01*
X152370986Y-102960706D01*
X152425791Y-102990000D01*
X152370986Y-103019294D01*
X152144866Y-103204866D01*
X151959294Y-103430986D01*
X151821401Y-103688966D01*
X151736487Y-103968889D01*
X151707815Y-104260000D01*
X151736487Y-104551111D01*
X151821401Y-104831034D01*
X151959294Y-105089014D01*
X152144866Y-105315134D01*
X152174687Y-105339607D01*
X152105820Y-105360498D01*
X151995506Y-105419463D01*
X151898815Y-105498815D01*
X151819463Y-105595506D01*
X151760498Y-105705820D01*
X151724188Y-105825518D01*
X151711928Y-105950000D01*
X151711928Y-107650000D01*
X151724188Y-107774482D01*
X151760498Y-107894180D01*
X151819463Y-108004494D01*
X151898815Y-108101185D01*
X151995506Y-108180537D01*
X152105820Y-108239502D01*
X152225518Y-108275812D01*
X152350000Y-108288072D01*
X154050000Y-108288072D01*
X154174482Y-108275812D01*
X154294180Y-108239502D01*
X154404494Y-108180537D01*
X154501185Y-108101185D01*
X154580537Y-108004494D01*
X154639502Y-107894180D01*
X154662498Y-107818374D01*
X154858645Y-107995178D01*
X155108748Y-108144157D01*
X155383109Y-108241481D01*
X155613000Y-108120814D01*
X155613000Y-106927000D01*
X155867000Y-106927000D01*
X155867000Y-108120814D01*
X156096891Y-108241481D01*
X156371252Y-108144157D01*
X156621355Y-107995178D01*
X156837588Y-107800269D01*
X157011641Y-107566920D01*
X157136825Y-107304099D01*
X157181476Y-107156890D01*
X157060155Y-106927000D01*
X155867000Y-106927000D01*
X155613000Y-106927000D01*
X155593000Y-106927000D01*
X155593000Y-106673000D01*
X155613000Y-106673000D01*
X155613000Y-106653000D01*
X155867000Y-106653000D01*
X155867000Y-106673000D01*
X157060155Y-106673000D01*
X157181476Y-106443110D01*
X157136825Y-106295901D01*
X157011641Y-106033080D01*
X156837588Y-105799731D01*
X156621355Y-105604822D01*
X156504477Y-105535201D01*
X156569014Y-105500706D01*
X156795134Y-105315134D01*
X156980706Y-105089014D01*
X157118599Y-104831034D01*
X157203513Y-104551111D01*
X157232185Y-104260000D01*
X157203513Y-103968889D01*
X157118599Y-103688966D01*
X156980706Y-103430986D01*
X156795134Y-103204866D01*
X156569014Y-103019294D01*
X156514209Y-102990000D01*
X156569014Y-102960706D01*
X156795134Y-102775134D01*
X156980706Y-102549014D01*
X157118599Y-102291034D01*
X157203513Y-102011111D01*
X157232185Y-101720000D01*
X157203513Y-101428889D01*
X157118599Y-101148966D01*
X156980706Y-100890986D01*
X156795134Y-100664866D01*
X156569014Y-100479294D01*
X156514209Y-100450000D01*
X156569014Y-100420706D01*
X156795134Y-100235134D01*
X156980706Y-100009014D01*
X157118599Y-99751034D01*
X157203513Y-99471111D01*
X157232185Y-99180000D01*
X157203513Y-98888889D01*
X157118599Y-98608966D01*
X156980706Y-98350986D01*
X156795134Y-98124866D01*
X156569014Y-97939294D01*
X156514209Y-97910000D01*
X156569014Y-97880706D01*
X156795134Y-97695134D01*
X156980706Y-97469014D01*
X157118599Y-97211034D01*
X157203513Y-96931111D01*
X157232185Y-96640000D01*
X157203513Y-96348889D01*
X157118599Y-96068966D01*
X156980706Y-95810986D01*
X156795134Y-95584866D01*
X156569014Y-95399294D01*
X156514209Y-95370000D01*
X156569014Y-95340706D01*
X156795134Y-95155134D01*
X156980706Y-94929014D01*
X157118599Y-94671034D01*
X157203513Y-94391111D01*
X157232185Y-94100000D01*
X157203513Y-93808889D01*
X157118599Y-93528966D01*
X156980706Y-93270986D01*
X156795134Y-93044866D01*
X156569014Y-92859294D01*
X156504477Y-92824799D01*
X156621355Y-92755178D01*
X156837588Y-92560269D01*
X157011641Y-92326920D01*
X157136825Y-92064099D01*
X157181476Y-91916890D01*
X157060155Y-91687000D01*
X155867000Y-91687000D01*
X155867000Y-91707000D01*
X155613000Y-91707000D01*
X155613000Y-91687000D01*
X153327000Y-91687000D01*
X153327000Y-91707000D01*
X153073000Y-91707000D01*
X153073000Y-91687000D01*
X151879845Y-91687000D01*
X151758524Y-91916890D01*
X151803175Y-92064099D01*
X151928359Y-92326920D01*
X152102412Y-92560269D01*
X152318645Y-92755178D01*
X152435523Y-92824799D01*
X152370986Y-92859294D01*
X152144866Y-93044866D01*
X151959294Y-93270986D01*
X151821401Y-93528966D01*
X151736487Y-93808889D01*
X151707815Y-94100000D01*
X134910000Y-94100000D01*
X134910000Y-94085750D01*
X134751250Y-93927000D01*
X133727000Y-93927000D01*
X133473000Y-93927000D01*
X132448750Y-93927000D01*
X132290000Y-94085750D01*
X131310000Y-94085750D01*
X131310000Y-93062458D01*
X132290000Y-93062458D01*
X132290000Y-93514250D01*
X132448750Y-93673000D01*
X133473000Y-93673000D01*
X133473000Y-92648750D01*
X133727000Y-92648750D01*
X133727000Y-93673000D01*
X134751250Y-93673000D01*
X134910000Y-93514250D01*
X134910000Y-93062458D01*
X134885597Y-92939777D01*
X134837730Y-92824215D01*
X134768237Y-92720211D01*
X134679789Y-92631763D01*
X134575785Y-92562270D01*
X134460223Y-92514403D01*
X134337542Y-92490000D01*
X133885750Y-92490000D01*
X133727000Y-92648750D01*
X133473000Y-92648750D01*
X133314250Y-92490000D01*
X132862458Y-92490000D01*
X132739777Y-92514403D01*
X132624215Y-92562270D01*
X132520211Y-92631763D01*
X132431763Y-92720211D01*
X132362270Y-92824215D01*
X132314403Y-92939777D01*
X132290000Y-93062458D01*
X131310000Y-93062458D01*
X131310000Y-89631618D01*
X131378865Y-88860000D01*
X137487815Y-88860000D01*
X137516487Y-89151111D01*
X137601401Y-89431034D01*
X137739294Y-89689014D01*
X137924866Y-89915134D01*
X138150986Y-90100706D01*
X138205791Y-90130000D01*
X138150986Y-90159294D01*
X137924866Y-90344866D01*
X137739294Y-90570986D01*
X137601401Y-90828966D01*
X137516487Y-91108889D01*
X137487815Y-91400000D01*
X137516487Y-91691111D01*
X137601401Y-91971034D01*
X137739294Y-92229014D01*
X137924866Y-92455134D01*
X138150986Y-92640706D01*
X138408966Y-92778599D01*
X138688889Y-92863513D01*
X138907050Y-92885000D01*
X139052950Y-92885000D01*
X139271111Y-92863513D01*
X139551034Y-92778599D01*
X139809014Y-92640706D01*
X140035134Y-92455134D01*
X140220706Y-92229014D01*
X140250000Y-92174209D01*
X140279294Y-92229014D01*
X140464866Y-92455134D01*
X140690986Y-92640706D01*
X140948966Y-92778599D01*
X141228889Y-92863513D01*
X141447050Y-92885000D01*
X141592950Y-92885000D01*
X141811111Y-92863513D01*
X142091034Y-92778599D01*
X142349014Y-92640706D01*
X142575134Y-92455134D01*
X142760706Y-92229014D01*
X142790000Y-92174209D01*
X142819294Y-92229014D01*
X143004866Y-92455134D01*
X143230986Y-92640706D01*
X143488966Y-92778599D01*
X143768889Y-92863513D01*
X143987050Y-92885000D01*
X144132950Y-92885000D01*
X144351111Y-92863513D01*
X144631034Y-92778599D01*
X144889014Y-92640706D01*
X145115134Y-92455134D01*
X145139607Y-92425313D01*
X145160498Y-92494180D01*
X145219463Y-92604494D01*
X145298815Y-92701185D01*
X145395506Y-92780537D01*
X145505820Y-92839502D01*
X145625518Y-92875812D01*
X145750000Y-92888072D01*
X147450000Y-92888072D01*
X147574482Y-92875812D01*
X147694180Y-92839502D01*
X147804494Y-92780537D01*
X147901185Y-92701185D01*
X147980537Y-92604494D01*
X148039502Y-92494180D01*
X148075812Y-92374482D01*
X148088072Y-92250000D01*
X148088072Y-91203110D01*
X151758524Y-91203110D01*
X151879845Y-91433000D01*
X153073000Y-91433000D01*
X153073000Y-90239186D01*
X153327000Y-90239186D01*
X153327000Y-91433000D01*
X155613000Y-91433000D01*
X155613000Y-90239186D01*
X155867000Y-90239186D01*
X155867000Y-91433000D01*
X157060155Y-91433000D01*
X157181476Y-91203110D01*
X157136825Y-91055901D01*
X157011641Y-90793080D01*
X156837588Y-90559731D01*
X156621355Y-90364822D01*
X156371252Y-90215843D01*
X156096891Y-90118519D01*
X155867000Y-90239186D01*
X155613000Y-90239186D01*
X155383109Y-90118519D01*
X155108748Y-90215843D01*
X154858645Y-90364822D01*
X154642412Y-90559731D01*
X154470000Y-90790880D01*
X154297588Y-90559731D01*
X154081355Y-90364822D01*
X153831252Y-90215843D01*
X153556891Y-90118519D01*
X153327000Y-90239186D01*
X153073000Y-90239186D01*
X152843109Y-90118519D01*
X152568748Y-90215843D01*
X152318645Y-90364822D01*
X152102412Y-90559731D01*
X151928359Y-90793080D01*
X151803175Y-91055901D01*
X151758524Y-91203110D01*
X148088072Y-91203110D01*
X148088072Y-90550000D01*
X148075812Y-90425518D01*
X148039502Y-90305820D01*
X147980537Y-90195506D01*
X147901185Y-90098815D01*
X147804494Y-90019463D01*
X147694180Y-89960498D01*
X147618374Y-89937502D01*
X147795178Y-89741355D01*
X147944157Y-89491252D01*
X148041481Y-89216891D01*
X147920814Y-88987000D01*
X146727000Y-88987000D01*
X146727000Y-89007000D01*
X146473000Y-89007000D01*
X146473000Y-88987000D01*
X146453000Y-88987000D01*
X146453000Y-88733000D01*
X146473000Y-88733000D01*
X146473000Y-87539845D01*
X146727000Y-87539845D01*
X146727000Y-88733000D01*
X147920814Y-88733000D01*
X148041481Y-88503109D01*
X147944157Y-88228748D01*
X147795178Y-87978645D01*
X147600269Y-87762412D01*
X147366920Y-87588359D01*
X147104099Y-87463175D01*
X146956890Y-87418524D01*
X146727000Y-87539845D01*
X146473000Y-87539845D01*
X146243110Y-87418524D01*
X146095901Y-87463175D01*
X145833080Y-87588359D01*
X145599731Y-87762412D01*
X145404822Y-87978645D01*
X145335201Y-88095523D01*
X145300706Y-88030986D01*
X145115134Y-87804866D01*
X144889014Y-87619294D01*
X144631034Y-87481401D01*
X144351111Y-87396487D01*
X144132950Y-87375000D01*
X143987050Y-87375000D01*
X143768889Y-87396487D01*
X143488966Y-87481401D01*
X143230986Y-87619294D01*
X143004866Y-87804866D01*
X142819294Y-88030986D01*
X142790000Y-88085791D01*
X142760706Y-88030986D01*
X142575134Y-87804866D01*
X142349014Y-87619294D01*
X142091034Y-87481401D01*
X141811111Y-87396487D01*
X141592950Y-87375000D01*
X141447050Y-87375000D01*
X141228889Y-87396487D01*
X140948966Y-87481401D01*
X140690986Y-87619294D01*
X140464866Y-87804866D01*
X140279294Y-88030986D01*
X140250000Y-88085791D01*
X140220706Y-88030986D01*
X140035134Y-87804866D01*
X139809014Y-87619294D01*
X139551034Y-87481401D01*
X139271111Y-87396487D01*
X139052950Y-87375000D01*
X138907050Y-87375000D01*
X138688889Y-87396487D01*
X138408966Y-87481401D01*
X138150986Y-87619294D01*
X137924866Y-87804866D01*
X137739294Y-88030986D01*
X137601401Y-88288966D01*
X137516487Y-88568889D01*
X137487815Y-88860000D01*
X131378865Y-88860000D01*
X131380578Y-88840808D01*
X131581705Y-88105611D01*
X131909846Y-87417649D01*
X132354628Y-86798669D01*
X132901988Y-86268239D01*
X133534639Y-85843116D01*
X134232561Y-85536749D01*
X134979183Y-85357501D01*
X135626030Y-85310000D01*
X154768382Y-85310000D01*
X155559192Y-85380578D01*
G04 #@! TD*
M02*
