G04 #@! TF.GenerationSoftware,KiCad,Pcbnew,5.0.0*
G04 #@! TF.CreationDate,2018-09-18T18:54:09-07:00*
G04 #@! TF.ProjectId,gpio-expander,6770696F2D657870616E6465722E6B69,rev?*
G04 #@! TF.SameCoordinates,Original*
G04 #@! TF.FileFunction,Legend,Bot*
G04 #@! TF.FilePolarity,Positive*
%FSLAX46Y46*%
G04 Gerber Fmt 4.6, Leading zero omitted, Abs format (unit mm)*
G04 Created by KiCad (PCBNEW 5.0.0) date Tue Sep 18 18:54:09 2018*
%MOMM*%
%LPD*%
G01*
G04 APERTURE LIST*
%ADD10C,0.120000*%
G04 APERTURE END LIST*
D10*
G04 #@! TO.C,J2*
X157180000Y-108130000D02*
X157180000Y-90230000D01*
X157180000Y-90230000D02*
X159840000Y-90230000D01*
X159840000Y-90230000D02*
X159840000Y-108130000D01*
X159840000Y-108130000D02*
X157180000Y-108130000D01*
X159840000Y-107180000D02*
X165840000Y-107180000D01*
X165840000Y-107180000D02*
X165840000Y-106420000D01*
X165840000Y-106420000D02*
X159840000Y-106420000D01*
X159840000Y-107120000D02*
X165840000Y-107120000D01*
X159840000Y-107000000D02*
X165840000Y-107000000D01*
X159840000Y-106880000D02*
X165840000Y-106880000D01*
X159840000Y-106760000D02*
X165840000Y-106760000D01*
X159840000Y-106640000D02*
X165840000Y-106640000D01*
X159840000Y-106520000D02*
X165840000Y-106520000D01*
X156782929Y-107180000D02*
X157180000Y-107180000D01*
X156782929Y-106420000D02*
X157180000Y-106420000D01*
X154310000Y-107180000D02*
X154697071Y-107180000D01*
X154310000Y-106420000D02*
X154697071Y-106420000D01*
X157180000Y-105530000D02*
X159840000Y-105530000D01*
X159840000Y-104640000D02*
X165840000Y-104640000D01*
X165840000Y-104640000D02*
X165840000Y-103880000D01*
X165840000Y-103880000D02*
X159840000Y-103880000D01*
X156782929Y-104640000D02*
X157180000Y-104640000D01*
X156782929Y-103880000D02*
X157180000Y-103880000D01*
X154242929Y-104640000D02*
X154697071Y-104640000D01*
X154242929Y-103880000D02*
X154697071Y-103880000D01*
X157180000Y-102990000D02*
X159840000Y-102990000D01*
X159840000Y-102100000D02*
X165840000Y-102100000D01*
X165840000Y-102100000D02*
X165840000Y-101340000D01*
X165840000Y-101340000D02*
X159840000Y-101340000D01*
X156782929Y-102100000D02*
X157180000Y-102100000D01*
X156782929Y-101340000D02*
X157180000Y-101340000D01*
X154242929Y-102100000D02*
X154697071Y-102100000D01*
X154242929Y-101340000D02*
X154697071Y-101340000D01*
X157180000Y-100450000D02*
X159840000Y-100450000D01*
X159840000Y-99560000D02*
X165840000Y-99560000D01*
X165840000Y-99560000D02*
X165840000Y-98800000D01*
X165840000Y-98800000D02*
X159840000Y-98800000D01*
X156782929Y-99560000D02*
X157180000Y-99560000D01*
X156782929Y-98800000D02*
X157180000Y-98800000D01*
X154242929Y-99560000D02*
X154697071Y-99560000D01*
X154242929Y-98800000D02*
X154697071Y-98800000D01*
X157180000Y-97910000D02*
X159840000Y-97910000D01*
X159840000Y-97020000D02*
X165840000Y-97020000D01*
X165840000Y-97020000D02*
X165840000Y-96260000D01*
X165840000Y-96260000D02*
X159840000Y-96260000D01*
X156782929Y-97020000D02*
X157180000Y-97020000D01*
X156782929Y-96260000D02*
X157180000Y-96260000D01*
X154242929Y-97020000D02*
X154697071Y-97020000D01*
X154242929Y-96260000D02*
X154697071Y-96260000D01*
X157180000Y-95370000D02*
X159840000Y-95370000D01*
X159840000Y-94480000D02*
X165840000Y-94480000D01*
X165840000Y-94480000D02*
X165840000Y-93720000D01*
X165840000Y-93720000D02*
X159840000Y-93720000D01*
X156782929Y-94480000D02*
X157180000Y-94480000D01*
X156782929Y-93720000D02*
X157180000Y-93720000D01*
X154242929Y-94480000D02*
X154697071Y-94480000D01*
X154242929Y-93720000D02*
X154697071Y-93720000D01*
X157180000Y-92830000D02*
X159840000Y-92830000D01*
X159840000Y-91940000D02*
X165840000Y-91940000D01*
X165840000Y-91940000D02*
X165840000Y-91180000D01*
X165840000Y-91180000D02*
X159840000Y-91180000D01*
X156782929Y-91940000D02*
X157180000Y-91940000D01*
X156782929Y-91180000D02*
X157180000Y-91180000D01*
X154242929Y-91940000D02*
X154697071Y-91940000D01*
X154242929Y-91180000D02*
X154697071Y-91180000D01*
X151930000Y-106800000D02*
X151930000Y-108070000D01*
X151930000Y-108070000D02*
X153200000Y-108070000D01*
G04 #@! TO.C,J1*
X132160000Y-92740000D02*
X132160000Y-104860000D01*
X132160000Y-104860000D02*
X130540000Y-104860000D01*
X130540000Y-104860000D02*
X130540000Y-92740000D01*
X130540000Y-92740000D02*
X132160000Y-92740000D01*
X130540000Y-93490000D02*
X126340000Y-93490000D01*
X126340000Y-93490000D02*
X126340000Y-94110000D01*
X126340000Y-94110000D02*
X130540000Y-94110000D01*
X130540000Y-93550000D02*
X126340000Y-93550000D01*
X130540000Y-93670000D02*
X126340000Y-93670000D01*
X130540000Y-93790000D02*
X126340000Y-93790000D01*
X130540000Y-93910000D02*
X126340000Y-93910000D01*
X130540000Y-94030000D02*
X126340000Y-94030000D01*
X132665000Y-93490000D02*
X132160000Y-93490000D01*
X132665000Y-94110000D02*
X132160000Y-94110000D01*
X132160000Y-94800000D02*
X130540000Y-94800000D01*
X130540000Y-95490000D02*
X126340000Y-95490000D01*
X126340000Y-95490000D02*
X126340000Y-96110000D01*
X126340000Y-96110000D02*
X130540000Y-96110000D01*
X132717886Y-95490000D02*
X132160000Y-95490000D01*
X132717886Y-96110000D02*
X132160000Y-96110000D01*
X132160000Y-96800000D02*
X130540000Y-96800000D01*
X130540000Y-97490000D02*
X126340000Y-97490000D01*
X126340000Y-97490000D02*
X126340000Y-98110000D01*
X126340000Y-98110000D02*
X130540000Y-98110000D01*
X132717886Y-97490000D02*
X132160000Y-97490000D01*
X132717886Y-98110000D02*
X132160000Y-98110000D01*
X132160000Y-98800000D02*
X130540000Y-98800000D01*
X130540000Y-99490000D02*
X126340000Y-99490000D01*
X126340000Y-99490000D02*
X126340000Y-100110000D01*
X126340000Y-100110000D02*
X130540000Y-100110000D01*
X132717886Y-99490000D02*
X132160000Y-99490000D01*
X132717886Y-100110000D02*
X132160000Y-100110000D01*
X132160000Y-100800000D02*
X130540000Y-100800000D01*
X130540000Y-101490000D02*
X126340000Y-101490000D01*
X126340000Y-101490000D02*
X126340000Y-102110000D01*
X126340000Y-102110000D02*
X130540000Y-102110000D01*
X132717886Y-101490000D02*
X132160000Y-101490000D01*
X132717886Y-102110000D02*
X132160000Y-102110000D01*
X132160000Y-102800000D02*
X130540000Y-102800000D01*
X130540000Y-103490000D02*
X126340000Y-103490000D01*
X126340000Y-103490000D02*
X126340000Y-104110000D01*
X126340000Y-104110000D02*
X130540000Y-104110000D01*
X132717886Y-103490000D02*
X132160000Y-103490000D01*
X132717886Y-104110000D02*
X132160000Y-104110000D01*
X134600000Y-93800000D02*
X134600000Y-92800000D01*
X134600000Y-92800000D02*
X133600000Y-92800000D01*
G04 #@! TO.C,J3*
X147930000Y-87420000D02*
X137650000Y-87420000D01*
X137650000Y-87420000D02*
X137650000Y-84760000D01*
X137650000Y-84760000D02*
X147930000Y-84760000D01*
X147930000Y-84760000D02*
X147930000Y-87420000D01*
X146980000Y-84760000D02*
X146980000Y-78760000D01*
X146980000Y-78760000D02*
X146220000Y-78760000D01*
X146220000Y-78760000D02*
X146220000Y-84760000D01*
X146920000Y-84760000D02*
X146920000Y-78760000D01*
X146800000Y-84760000D02*
X146800000Y-78760000D01*
X146680000Y-84760000D02*
X146680000Y-78760000D01*
X146560000Y-84760000D02*
X146560000Y-78760000D01*
X146440000Y-84760000D02*
X146440000Y-78760000D01*
X146320000Y-84760000D02*
X146320000Y-78760000D01*
X146980000Y-87817071D02*
X146980000Y-87420000D01*
X146220000Y-87817071D02*
X146220000Y-87420000D01*
X146980000Y-90290000D02*
X146980000Y-89902929D01*
X146220000Y-90290000D02*
X146220000Y-89902929D01*
X145330000Y-87420000D02*
X145330000Y-84760000D01*
X144440000Y-84760000D02*
X144440000Y-78760000D01*
X144440000Y-78760000D02*
X143680000Y-78760000D01*
X143680000Y-78760000D02*
X143680000Y-84760000D01*
X144440000Y-87817071D02*
X144440000Y-87420000D01*
X143680000Y-87817071D02*
X143680000Y-87420000D01*
X144440000Y-90357071D02*
X144440000Y-89902929D01*
X143680000Y-90357071D02*
X143680000Y-89902929D01*
X142790000Y-87420000D02*
X142790000Y-84760000D01*
X141900000Y-84760000D02*
X141900000Y-78760000D01*
X141900000Y-78760000D02*
X141140000Y-78760000D01*
X141140000Y-78760000D02*
X141140000Y-84760000D01*
X141900000Y-87817071D02*
X141900000Y-87420000D01*
X141140000Y-87817071D02*
X141140000Y-87420000D01*
X141900000Y-90357071D02*
X141900000Y-89902929D01*
X141140000Y-90357071D02*
X141140000Y-89902929D01*
X140250000Y-87420000D02*
X140250000Y-84760000D01*
X139360000Y-84760000D02*
X139360000Y-78760000D01*
X139360000Y-78760000D02*
X138600000Y-78760000D01*
X138600000Y-78760000D02*
X138600000Y-84760000D01*
X139360000Y-87817071D02*
X139360000Y-87420000D01*
X138600000Y-87817071D02*
X138600000Y-87420000D01*
X139360000Y-90357071D02*
X139360000Y-89902929D01*
X138600000Y-90357071D02*
X138600000Y-89902929D01*
X146600000Y-92670000D02*
X147870000Y-92670000D01*
X147870000Y-92670000D02*
X147870000Y-91400000D01*
G04 #@! TD*
M02*
