G04 #@! TF.GenerationSoftware,KiCad,Pcbnew,5.0.0-5.0.0*
G04 #@! TF.CreationDate,2018-10-02T18:17:12-07:00*
G04 #@! TF.ProjectId,gpio-expander,6770696F2D657870616E6465722E6B69,rev?*
G04 #@! TF.SameCoordinates,Original*
G04 #@! TF.FileFunction,Soldermask,Top*
G04 #@! TF.FilePolarity,Negative*
%FSLAX46Y46*%
G04 Gerber Fmt 4.6, Leading zero omitted, Abs format (unit mm)*
G04 Created by KiCad (PCBNEW 5.0.0-5.0.0) date Tue Oct  2 18:17:12 2018*
%MOMM*%
%LPD*%
G01*
G04 APERTURE LIST*
%ADD10C,2.900000*%
%ADD11R,2.100000X2.100000*%
%ADD12O,2.100000X2.100000*%
%ADD13C,2.540000*%
%ADD14R,1.160000X1.650000*%
%ADD15C,0.100000*%
%ADD16C,1.375000*%
%ADD17C,1.275000*%
%ADD18R,0.900000X1.200000*%
%ADD19R,0.800000X1.200000*%
%ADD20R,2.000000X0.700000*%
G04 APERTURE END LIST*
D10*
G04 #@! TO.C,MH1*
X157000000Y-111000000D03*
G04 #@! TD*
G04 #@! TO.C,MH2*
X157000000Y-87500000D03*
G04 #@! TD*
D11*
G04 #@! TO.C,J1*
X133250000Y-87850000D03*
D12*
X133250000Y-90390000D03*
X133250000Y-92930000D03*
X133250000Y-95470000D03*
X133250000Y-98010000D03*
X133250000Y-100550000D03*
X133250000Y-103090000D03*
X133250000Y-105630000D03*
X133250000Y-108170000D03*
X133250000Y-110710000D03*
G04 #@! TD*
D13*
G04 #@! TO.C,FID4*
X136800000Y-106500000D03*
G04 #@! TD*
G04 #@! TO.C,FID1*
X152650000Y-88150000D03*
G04 #@! TD*
D14*
G04 #@! TO.C,SW1*
X149370000Y-112315000D03*
X149370000Y-106165000D03*
X148100000Y-112315000D03*
X148100000Y-106165000D03*
X146830000Y-112315000D03*
X146830000Y-106165000D03*
X145560000Y-112315000D03*
X145560000Y-106165000D03*
X144290000Y-112315000D03*
X144290000Y-106165000D03*
X143020000Y-112315000D03*
X143020000Y-106165000D03*
G04 #@! TD*
D15*
G04 #@! TO.C,C4*
G36*
X150189943Y-88576655D02*
X150223312Y-88581605D01*
X150256035Y-88589802D01*
X150287797Y-88601166D01*
X150318293Y-88615590D01*
X150347227Y-88632932D01*
X150374323Y-88653028D01*
X150399318Y-88675682D01*
X150421972Y-88700677D01*
X150442068Y-88727773D01*
X150459410Y-88756707D01*
X150473834Y-88787203D01*
X150485198Y-88818965D01*
X150493395Y-88851688D01*
X150498345Y-88885057D01*
X150500000Y-88918750D01*
X150500000Y-89606250D01*
X150498345Y-89639943D01*
X150493395Y-89673312D01*
X150485198Y-89706035D01*
X150473834Y-89737797D01*
X150459410Y-89768293D01*
X150442068Y-89797227D01*
X150421972Y-89824323D01*
X150399318Y-89849318D01*
X150374323Y-89871972D01*
X150347227Y-89892068D01*
X150318293Y-89909410D01*
X150287797Y-89923834D01*
X150256035Y-89935198D01*
X150223312Y-89943395D01*
X150189943Y-89948345D01*
X150156250Y-89950000D01*
X149043750Y-89950000D01*
X149010057Y-89948345D01*
X148976688Y-89943395D01*
X148943965Y-89935198D01*
X148912203Y-89923834D01*
X148881707Y-89909410D01*
X148852773Y-89892068D01*
X148825677Y-89871972D01*
X148800682Y-89849318D01*
X148778028Y-89824323D01*
X148757932Y-89797227D01*
X148740590Y-89768293D01*
X148726166Y-89737797D01*
X148714802Y-89706035D01*
X148706605Y-89673312D01*
X148701655Y-89639943D01*
X148700000Y-89606250D01*
X148700000Y-88918750D01*
X148701655Y-88885057D01*
X148706605Y-88851688D01*
X148714802Y-88818965D01*
X148726166Y-88787203D01*
X148740590Y-88756707D01*
X148757932Y-88727773D01*
X148778028Y-88700677D01*
X148800682Y-88675682D01*
X148825677Y-88653028D01*
X148852773Y-88632932D01*
X148881707Y-88615590D01*
X148912203Y-88601166D01*
X148943965Y-88589802D01*
X148976688Y-88581605D01*
X149010057Y-88576655D01*
X149043750Y-88575000D01*
X150156250Y-88575000D01*
X150189943Y-88576655D01*
X150189943Y-88576655D01*
G37*
D16*
X149600000Y-89262500D03*
D15*
G36*
X150189943Y-90451655D02*
X150223312Y-90456605D01*
X150256035Y-90464802D01*
X150287797Y-90476166D01*
X150318293Y-90490590D01*
X150347227Y-90507932D01*
X150374323Y-90528028D01*
X150399318Y-90550682D01*
X150421972Y-90575677D01*
X150442068Y-90602773D01*
X150459410Y-90631707D01*
X150473834Y-90662203D01*
X150485198Y-90693965D01*
X150493395Y-90726688D01*
X150498345Y-90760057D01*
X150500000Y-90793750D01*
X150500000Y-91481250D01*
X150498345Y-91514943D01*
X150493395Y-91548312D01*
X150485198Y-91581035D01*
X150473834Y-91612797D01*
X150459410Y-91643293D01*
X150442068Y-91672227D01*
X150421972Y-91699323D01*
X150399318Y-91724318D01*
X150374323Y-91746972D01*
X150347227Y-91767068D01*
X150318293Y-91784410D01*
X150287797Y-91798834D01*
X150256035Y-91810198D01*
X150223312Y-91818395D01*
X150189943Y-91823345D01*
X150156250Y-91825000D01*
X149043750Y-91825000D01*
X149010057Y-91823345D01*
X148976688Y-91818395D01*
X148943965Y-91810198D01*
X148912203Y-91798834D01*
X148881707Y-91784410D01*
X148852773Y-91767068D01*
X148825677Y-91746972D01*
X148800682Y-91724318D01*
X148778028Y-91699323D01*
X148757932Y-91672227D01*
X148740590Y-91643293D01*
X148726166Y-91612797D01*
X148714802Y-91581035D01*
X148706605Y-91548312D01*
X148701655Y-91514943D01*
X148700000Y-91481250D01*
X148700000Y-90793750D01*
X148701655Y-90760057D01*
X148706605Y-90726688D01*
X148714802Y-90693965D01*
X148726166Y-90662203D01*
X148740590Y-90631707D01*
X148757932Y-90602773D01*
X148778028Y-90575677D01*
X148800682Y-90550682D01*
X148825677Y-90528028D01*
X148852773Y-90507932D01*
X148881707Y-90490590D01*
X148912203Y-90476166D01*
X148943965Y-90464802D01*
X148976688Y-90456605D01*
X149010057Y-90451655D01*
X149043750Y-90450000D01*
X150156250Y-90450000D01*
X150189943Y-90451655D01*
X150189943Y-90451655D01*
G37*
D16*
X149600000Y-91137500D03*
G04 #@! TD*
D15*
G04 #@! TO.C,C3*
G36*
X139289943Y-103801655D02*
X139323312Y-103806605D01*
X139356035Y-103814802D01*
X139387797Y-103826166D01*
X139418293Y-103840590D01*
X139447227Y-103857932D01*
X139474323Y-103878028D01*
X139499318Y-103900682D01*
X139521972Y-103925677D01*
X139542068Y-103952773D01*
X139559410Y-103981707D01*
X139573834Y-104012203D01*
X139585198Y-104043965D01*
X139593395Y-104076688D01*
X139598345Y-104110057D01*
X139600000Y-104143750D01*
X139600000Y-105256250D01*
X139598345Y-105289943D01*
X139593395Y-105323312D01*
X139585198Y-105356035D01*
X139573834Y-105387797D01*
X139559410Y-105418293D01*
X139542068Y-105447227D01*
X139521972Y-105474323D01*
X139499318Y-105499318D01*
X139474323Y-105521972D01*
X139447227Y-105542068D01*
X139418293Y-105559410D01*
X139387797Y-105573834D01*
X139356035Y-105585198D01*
X139323312Y-105593395D01*
X139289943Y-105598345D01*
X139256250Y-105600000D01*
X138568750Y-105600000D01*
X138535057Y-105598345D01*
X138501688Y-105593395D01*
X138468965Y-105585198D01*
X138437203Y-105573834D01*
X138406707Y-105559410D01*
X138377773Y-105542068D01*
X138350677Y-105521972D01*
X138325682Y-105499318D01*
X138303028Y-105474323D01*
X138282932Y-105447227D01*
X138265590Y-105418293D01*
X138251166Y-105387797D01*
X138239802Y-105356035D01*
X138231605Y-105323312D01*
X138226655Y-105289943D01*
X138225000Y-105256250D01*
X138225000Y-104143750D01*
X138226655Y-104110057D01*
X138231605Y-104076688D01*
X138239802Y-104043965D01*
X138251166Y-104012203D01*
X138265590Y-103981707D01*
X138282932Y-103952773D01*
X138303028Y-103925677D01*
X138325682Y-103900682D01*
X138350677Y-103878028D01*
X138377773Y-103857932D01*
X138406707Y-103840590D01*
X138437203Y-103826166D01*
X138468965Y-103814802D01*
X138501688Y-103806605D01*
X138535057Y-103801655D01*
X138568750Y-103800000D01*
X139256250Y-103800000D01*
X139289943Y-103801655D01*
X139289943Y-103801655D01*
G37*
D16*
X138912500Y-104700000D03*
D15*
G36*
X141164943Y-103801655D02*
X141198312Y-103806605D01*
X141231035Y-103814802D01*
X141262797Y-103826166D01*
X141293293Y-103840590D01*
X141322227Y-103857932D01*
X141349323Y-103878028D01*
X141374318Y-103900682D01*
X141396972Y-103925677D01*
X141417068Y-103952773D01*
X141434410Y-103981707D01*
X141448834Y-104012203D01*
X141460198Y-104043965D01*
X141468395Y-104076688D01*
X141473345Y-104110057D01*
X141475000Y-104143750D01*
X141475000Y-105256250D01*
X141473345Y-105289943D01*
X141468395Y-105323312D01*
X141460198Y-105356035D01*
X141448834Y-105387797D01*
X141434410Y-105418293D01*
X141417068Y-105447227D01*
X141396972Y-105474323D01*
X141374318Y-105499318D01*
X141349323Y-105521972D01*
X141322227Y-105542068D01*
X141293293Y-105559410D01*
X141262797Y-105573834D01*
X141231035Y-105585198D01*
X141198312Y-105593395D01*
X141164943Y-105598345D01*
X141131250Y-105600000D01*
X140443750Y-105600000D01*
X140410057Y-105598345D01*
X140376688Y-105593395D01*
X140343965Y-105585198D01*
X140312203Y-105573834D01*
X140281707Y-105559410D01*
X140252773Y-105542068D01*
X140225677Y-105521972D01*
X140200682Y-105499318D01*
X140178028Y-105474323D01*
X140157932Y-105447227D01*
X140140590Y-105418293D01*
X140126166Y-105387797D01*
X140114802Y-105356035D01*
X140106605Y-105323312D01*
X140101655Y-105289943D01*
X140100000Y-105256250D01*
X140100000Y-104143750D01*
X140101655Y-104110057D01*
X140106605Y-104076688D01*
X140114802Y-104043965D01*
X140126166Y-104012203D01*
X140140590Y-103981707D01*
X140157932Y-103952773D01*
X140178028Y-103925677D01*
X140200682Y-103900682D01*
X140225677Y-103878028D01*
X140252773Y-103857932D01*
X140281707Y-103840590D01*
X140312203Y-103826166D01*
X140343965Y-103814802D01*
X140376688Y-103806605D01*
X140410057Y-103801655D01*
X140443750Y-103800000D01*
X141131250Y-103800000D01*
X141164943Y-103801655D01*
X141164943Y-103801655D01*
G37*
D16*
X140787500Y-104700000D03*
G04 #@! TD*
D15*
G04 #@! TO.C,C1*
G36*
X139774993Y-102326535D02*
X139805935Y-102331125D01*
X139836278Y-102338725D01*
X139865730Y-102349263D01*
X139894008Y-102362638D01*
X139920838Y-102378719D01*
X139945963Y-102397353D01*
X139969140Y-102418360D01*
X139990147Y-102441537D01*
X140008781Y-102466662D01*
X140024862Y-102493492D01*
X140038237Y-102521770D01*
X140048775Y-102551222D01*
X140056375Y-102581565D01*
X140060965Y-102612507D01*
X140062500Y-102643750D01*
X140062500Y-103356250D01*
X140060965Y-103387493D01*
X140056375Y-103418435D01*
X140048775Y-103448778D01*
X140038237Y-103478230D01*
X140024862Y-103506508D01*
X140008781Y-103533338D01*
X139990147Y-103558463D01*
X139969140Y-103581640D01*
X139945963Y-103602647D01*
X139920838Y-103621281D01*
X139894008Y-103637362D01*
X139865730Y-103650737D01*
X139836278Y-103661275D01*
X139805935Y-103668875D01*
X139774993Y-103673465D01*
X139743750Y-103675000D01*
X139106250Y-103675000D01*
X139075007Y-103673465D01*
X139044065Y-103668875D01*
X139013722Y-103661275D01*
X138984270Y-103650737D01*
X138955992Y-103637362D01*
X138929162Y-103621281D01*
X138904037Y-103602647D01*
X138880860Y-103581640D01*
X138859853Y-103558463D01*
X138841219Y-103533338D01*
X138825138Y-103506508D01*
X138811763Y-103478230D01*
X138801225Y-103448778D01*
X138793625Y-103418435D01*
X138789035Y-103387493D01*
X138787500Y-103356250D01*
X138787500Y-102643750D01*
X138789035Y-102612507D01*
X138793625Y-102581565D01*
X138801225Y-102551222D01*
X138811763Y-102521770D01*
X138825138Y-102493492D01*
X138841219Y-102466662D01*
X138859853Y-102441537D01*
X138880860Y-102418360D01*
X138904037Y-102397353D01*
X138929162Y-102378719D01*
X138955992Y-102362638D01*
X138984270Y-102349263D01*
X139013722Y-102338725D01*
X139044065Y-102331125D01*
X139075007Y-102326535D01*
X139106250Y-102325000D01*
X139743750Y-102325000D01*
X139774993Y-102326535D01*
X139774993Y-102326535D01*
G37*
D17*
X139425000Y-103000000D03*
D15*
G36*
X141349993Y-102326535D02*
X141380935Y-102331125D01*
X141411278Y-102338725D01*
X141440730Y-102349263D01*
X141469008Y-102362638D01*
X141495838Y-102378719D01*
X141520963Y-102397353D01*
X141544140Y-102418360D01*
X141565147Y-102441537D01*
X141583781Y-102466662D01*
X141599862Y-102493492D01*
X141613237Y-102521770D01*
X141623775Y-102551222D01*
X141631375Y-102581565D01*
X141635965Y-102612507D01*
X141637500Y-102643750D01*
X141637500Y-103356250D01*
X141635965Y-103387493D01*
X141631375Y-103418435D01*
X141623775Y-103448778D01*
X141613237Y-103478230D01*
X141599862Y-103506508D01*
X141583781Y-103533338D01*
X141565147Y-103558463D01*
X141544140Y-103581640D01*
X141520963Y-103602647D01*
X141495838Y-103621281D01*
X141469008Y-103637362D01*
X141440730Y-103650737D01*
X141411278Y-103661275D01*
X141380935Y-103668875D01*
X141349993Y-103673465D01*
X141318750Y-103675000D01*
X140681250Y-103675000D01*
X140650007Y-103673465D01*
X140619065Y-103668875D01*
X140588722Y-103661275D01*
X140559270Y-103650737D01*
X140530992Y-103637362D01*
X140504162Y-103621281D01*
X140479037Y-103602647D01*
X140455860Y-103581640D01*
X140434853Y-103558463D01*
X140416219Y-103533338D01*
X140400138Y-103506508D01*
X140386763Y-103478230D01*
X140376225Y-103448778D01*
X140368625Y-103418435D01*
X140364035Y-103387493D01*
X140362500Y-103356250D01*
X140362500Y-102643750D01*
X140364035Y-102612507D01*
X140368625Y-102581565D01*
X140376225Y-102551222D01*
X140386763Y-102521770D01*
X140400138Y-102493492D01*
X140416219Y-102466662D01*
X140434853Y-102441537D01*
X140455860Y-102418360D01*
X140479037Y-102397353D01*
X140504162Y-102378719D01*
X140530992Y-102362638D01*
X140559270Y-102349263D01*
X140588722Y-102338725D01*
X140619065Y-102331125D01*
X140650007Y-102326535D01*
X140681250Y-102325000D01*
X141318750Y-102325000D01*
X141349993Y-102326535D01*
X141349993Y-102326535D01*
G37*
D17*
X141000000Y-103000000D03*
G04 #@! TD*
D15*
G04 #@! TO.C,C2*
G36*
X153877443Y-108701655D02*
X153910812Y-108706605D01*
X153943535Y-108714802D01*
X153975297Y-108726166D01*
X154005793Y-108740590D01*
X154034727Y-108757932D01*
X154061823Y-108778028D01*
X154086818Y-108800682D01*
X154109472Y-108825677D01*
X154129568Y-108852773D01*
X154146910Y-108881707D01*
X154161334Y-108912203D01*
X154172698Y-108943965D01*
X154180895Y-108976688D01*
X154185845Y-109010057D01*
X154187500Y-109043750D01*
X154187500Y-110156250D01*
X154185845Y-110189943D01*
X154180895Y-110223312D01*
X154172698Y-110256035D01*
X154161334Y-110287797D01*
X154146910Y-110318293D01*
X154129568Y-110347227D01*
X154109472Y-110374323D01*
X154086818Y-110399318D01*
X154061823Y-110421972D01*
X154034727Y-110442068D01*
X154005793Y-110459410D01*
X153975297Y-110473834D01*
X153943535Y-110485198D01*
X153910812Y-110493395D01*
X153877443Y-110498345D01*
X153843750Y-110500000D01*
X153156250Y-110500000D01*
X153122557Y-110498345D01*
X153089188Y-110493395D01*
X153056465Y-110485198D01*
X153024703Y-110473834D01*
X152994207Y-110459410D01*
X152965273Y-110442068D01*
X152938177Y-110421972D01*
X152913182Y-110399318D01*
X152890528Y-110374323D01*
X152870432Y-110347227D01*
X152853090Y-110318293D01*
X152838666Y-110287797D01*
X152827302Y-110256035D01*
X152819105Y-110223312D01*
X152814155Y-110189943D01*
X152812500Y-110156250D01*
X152812500Y-109043750D01*
X152814155Y-109010057D01*
X152819105Y-108976688D01*
X152827302Y-108943965D01*
X152838666Y-108912203D01*
X152853090Y-108881707D01*
X152870432Y-108852773D01*
X152890528Y-108825677D01*
X152913182Y-108800682D01*
X152938177Y-108778028D01*
X152965273Y-108757932D01*
X152994207Y-108740590D01*
X153024703Y-108726166D01*
X153056465Y-108714802D01*
X153089188Y-108706605D01*
X153122557Y-108701655D01*
X153156250Y-108700000D01*
X153843750Y-108700000D01*
X153877443Y-108701655D01*
X153877443Y-108701655D01*
G37*
D16*
X153500000Y-109600000D03*
D15*
G36*
X152002443Y-108701655D02*
X152035812Y-108706605D01*
X152068535Y-108714802D01*
X152100297Y-108726166D01*
X152130793Y-108740590D01*
X152159727Y-108757932D01*
X152186823Y-108778028D01*
X152211818Y-108800682D01*
X152234472Y-108825677D01*
X152254568Y-108852773D01*
X152271910Y-108881707D01*
X152286334Y-108912203D01*
X152297698Y-108943965D01*
X152305895Y-108976688D01*
X152310845Y-109010057D01*
X152312500Y-109043750D01*
X152312500Y-110156250D01*
X152310845Y-110189943D01*
X152305895Y-110223312D01*
X152297698Y-110256035D01*
X152286334Y-110287797D01*
X152271910Y-110318293D01*
X152254568Y-110347227D01*
X152234472Y-110374323D01*
X152211818Y-110399318D01*
X152186823Y-110421972D01*
X152159727Y-110442068D01*
X152130793Y-110459410D01*
X152100297Y-110473834D01*
X152068535Y-110485198D01*
X152035812Y-110493395D01*
X152002443Y-110498345D01*
X151968750Y-110500000D01*
X151281250Y-110500000D01*
X151247557Y-110498345D01*
X151214188Y-110493395D01*
X151181465Y-110485198D01*
X151149703Y-110473834D01*
X151119207Y-110459410D01*
X151090273Y-110442068D01*
X151063177Y-110421972D01*
X151038182Y-110399318D01*
X151015528Y-110374323D01*
X150995432Y-110347227D01*
X150978090Y-110318293D01*
X150963666Y-110287797D01*
X150952302Y-110256035D01*
X150944105Y-110223312D01*
X150939155Y-110189943D01*
X150937500Y-110156250D01*
X150937500Y-109043750D01*
X150939155Y-109010057D01*
X150944105Y-108976688D01*
X150952302Y-108943965D01*
X150963666Y-108912203D01*
X150978090Y-108881707D01*
X150995432Y-108852773D01*
X151015528Y-108825677D01*
X151038182Y-108800682D01*
X151063177Y-108778028D01*
X151090273Y-108757932D01*
X151119207Y-108740590D01*
X151149703Y-108726166D01*
X151181465Y-108714802D01*
X151214188Y-108706605D01*
X151247557Y-108701655D01*
X151281250Y-108700000D01*
X151968750Y-108700000D01*
X152002443Y-108701655D01*
X152002443Y-108701655D01*
G37*
D16*
X151625000Y-109600000D03*
G04 #@! TD*
D18*
G04 #@! TO.C,RN2*
X138000000Y-111500000D03*
D19*
X138800000Y-111500000D03*
D18*
X140400000Y-111500000D03*
D19*
X139600000Y-111500000D03*
D18*
X138000000Y-109700000D03*
D19*
X139600000Y-109700000D03*
X138800000Y-109700000D03*
D18*
X140400000Y-109700000D03*
G04 #@! TD*
G04 #@! TO.C,RN1*
X139000000Y-98700000D03*
D19*
X138200000Y-98700000D03*
D18*
X136600000Y-98700000D03*
D19*
X137400000Y-98700000D03*
D18*
X139000000Y-100500000D03*
D19*
X137400000Y-100500000D03*
X138200000Y-100500000D03*
D18*
X136600000Y-100500000D03*
G04 #@! TD*
D12*
G04 #@! TO.C,J2*
X155740000Y-91560000D03*
X153200000Y-91560000D03*
X155740000Y-94100000D03*
X153200000Y-94100000D03*
X155740000Y-96640000D03*
X153200000Y-96640000D03*
X155740000Y-99180000D03*
X153200000Y-99180000D03*
X155740000Y-101720000D03*
X153200000Y-101720000D03*
X155740000Y-104260000D03*
X153200000Y-104260000D03*
X155740000Y-106800000D03*
D11*
X153200000Y-106800000D03*
G04 #@! TD*
D20*
G04 #@! TO.C,U1*
X148800000Y-95600000D03*
X143200000Y-95600000D03*
X148800000Y-96250000D03*
X143200000Y-96250000D03*
X148800000Y-96900000D03*
X143200000Y-96900000D03*
X148800000Y-97550000D03*
X143200000Y-97550000D03*
X148800000Y-98200000D03*
X143200000Y-98200000D03*
X148800000Y-98850000D03*
X143200000Y-98850000D03*
X148800000Y-99500000D03*
X143200000Y-99500000D03*
X148800000Y-100150000D03*
X143200000Y-100150000D03*
X148800000Y-100800000D03*
X143200000Y-100800000D03*
X148800000Y-101450000D03*
X143200000Y-101450000D03*
X148800000Y-102100000D03*
X143200000Y-102100000D03*
X148800000Y-102750000D03*
X143200000Y-102750000D03*
G04 #@! TD*
D12*
G04 #@! TO.C,J3*
X138980000Y-88860000D03*
X138980000Y-91400000D03*
X141520000Y-88860000D03*
X141520000Y-91400000D03*
X144060000Y-88860000D03*
X144060000Y-91400000D03*
X146600000Y-88860000D03*
D11*
X146600000Y-91400000D03*
G04 #@! TD*
M02*
