G04 #@! TF.GenerationSoftware,KiCad,Pcbnew,5.0.0*
G04 #@! TF.CreationDate,2018-09-18T18:54:09-07:00*
G04 #@! TF.ProjectId,gpio-expander,6770696F2D657870616E6465722E6B69,rev?*
G04 #@! TF.SameCoordinates,Original*
G04 #@! TF.FileFunction,Legend,Top*
G04 #@! TF.FilePolarity,Positive*
%FSLAX46Y46*%
G04 Gerber Fmt 4.6, Leading zero omitted, Abs format (unit mm)*
G04 Created by KiCad (PCBNEW 5.0.0) date Tue Sep 18 18:54:09 2018*
%MOMM*%
%LPD*%
G01*
G04 APERTURE LIST*
%ADD10C,0.100000*%
%ADD11C,0.150000*%
%ADD12C,0.300000*%
%ADD13C,0.120000*%
G04 APERTURE END LIST*
D10*
X133428571Y-86485714D02*
X133390476Y-86523809D01*
X133276190Y-86561904D01*
X133199999Y-86561904D01*
X133085714Y-86523809D01*
X133009523Y-86447619D01*
X132971428Y-86371428D01*
X132933333Y-86219047D01*
X132933333Y-86104761D01*
X132971428Y-85952380D01*
X133009523Y-85876190D01*
X133085714Y-85800000D01*
X133199999Y-85761904D01*
X133276190Y-85761904D01*
X133390476Y-85800000D01*
X133428571Y-85838095D01*
X133885714Y-86561904D02*
X133809523Y-86523809D01*
X133771428Y-86485714D01*
X133733333Y-86409523D01*
X133733333Y-86180952D01*
X133771428Y-86104761D01*
X133809523Y-86066666D01*
X133885714Y-86028571D01*
X133999999Y-86028571D01*
X134076190Y-86066666D01*
X134114285Y-86104761D01*
X134152380Y-86180952D01*
X134152380Y-86409523D01*
X134114285Y-86485714D01*
X134076190Y-86523809D01*
X133999999Y-86561904D01*
X133885714Y-86561904D01*
X134495238Y-86028571D02*
X134495238Y-86828571D01*
X134495238Y-86066666D02*
X134571428Y-86028571D01*
X134723809Y-86028571D01*
X134800000Y-86066666D01*
X134838095Y-86104761D01*
X134876190Y-86180952D01*
X134876190Y-86409523D01*
X134838095Y-86485714D01*
X134800000Y-86523809D01*
X134723809Y-86561904D01*
X134571428Y-86561904D01*
X134495238Y-86523809D01*
X135142857Y-86028571D02*
X135333333Y-86561904D01*
X135523809Y-86028571D02*
X135333333Y-86561904D01*
X135257142Y-86752380D01*
X135219047Y-86790476D01*
X135142857Y-86828571D01*
X135828571Y-86561904D02*
X135828571Y-86028571D01*
X135828571Y-86180952D02*
X135866666Y-86104761D01*
X135904761Y-86066666D01*
X135980952Y-86028571D01*
X136057142Y-86028571D01*
X136323809Y-86561904D02*
X136323809Y-86028571D01*
X136323809Y-85761904D02*
X136285714Y-85800000D01*
X136323809Y-85838095D01*
X136361904Y-85800000D01*
X136323809Y-85761904D01*
X136323809Y-85838095D01*
X137047619Y-86028571D02*
X137047619Y-86676190D01*
X137009523Y-86752380D01*
X136971428Y-86790476D01*
X136895238Y-86828571D01*
X136780952Y-86828571D01*
X136704761Y-86790476D01*
X137047619Y-86523809D02*
X136971428Y-86561904D01*
X136819047Y-86561904D01*
X136742857Y-86523809D01*
X136704761Y-86485714D01*
X136666666Y-86409523D01*
X136666666Y-86180952D01*
X136704761Y-86104761D01*
X136742857Y-86066666D01*
X136819047Y-86028571D01*
X136971428Y-86028571D01*
X137047619Y-86066666D01*
X137428571Y-86561904D02*
X137428571Y-85761904D01*
X137771428Y-86561904D02*
X137771428Y-86142857D01*
X137733333Y-86066666D01*
X137657142Y-86028571D01*
X137542857Y-86028571D01*
X137466666Y-86066666D01*
X137428571Y-86104761D01*
X138038095Y-86028571D02*
X138342857Y-86028571D01*
X138152380Y-85761904D02*
X138152380Y-86447619D01*
X138190476Y-86523809D01*
X138266666Y-86561904D01*
X138342857Y-86561904D01*
X139447619Y-86866666D02*
X139409523Y-86828571D01*
X139333333Y-86714285D01*
X139295238Y-86638095D01*
X139257142Y-86523809D01*
X139219047Y-86333333D01*
X139219047Y-86180952D01*
X139257142Y-85990476D01*
X139295238Y-85876190D01*
X139333333Y-85800000D01*
X139409523Y-85685714D01*
X139447619Y-85647619D01*
X140209523Y-86485714D02*
X140171428Y-86523809D01*
X140057142Y-86561904D01*
X139980952Y-86561904D01*
X139866666Y-86523809D01*
X139790476Y-86447619D01*
X139752380Y-86371428D01*
X139714285Y-86219047D01*
X139714285Y-86104761D01*
X139752380Y-85952380D01*
X139790476Y-85876190D01*
X139866666Y-85800000D01*
X139980952Y-85761904D01*
X140057142Y-85761904D01*
X140171428Y-85800000D01*
X140209523Y-85838095D01*
X140476190Y-86866666D02*
X140514285Y-86828571D01*
X140590476Y-86714285D01*
X140628571Y-86638095D01*
X140666666Y-86523809D01*
X140704761Y-86333333D01*
X140704761Y-86180952D01*
X140666666Y-85990476D01*
X140628571Y-85876190D01*
X140590476Y-85800000D01*
X140514285Y-85685714D01*
X140476190Y-85647619D01*
X141657142Y-85838095D02*
X141695238Y-85800000D01*
X141771428Y-85761904D01*
X141961904Y-85761904D01*
X142038095Y-85800000D01*
X142076190Y-85838095D01*
X142114285Y-85914285D01*
X142114285Y-85990476D01*
X142076190Y-86104761D01*
X141619047Y-86561904D01*
X142114285Y-86561904D01*
X142609523Y-85761904D02*
X142685714Y-85761904D01*
X142761904Y-85800000D01*
X142800000Y-85838095D01*
X142838095Y-85914285D01*
X142876190Y-86066666D01*
X142876190Y-86257142D01*
X142838095Y-86409523D01*
X142800000Y-86485714D01*
X142761904Y-86523809D01*
X142685714Y-86561904D01*
X142609523Y-86561904D01*
X142533333Y-86523809D01*
X142495238Y-86485714D01*
X142457142Y-86409523D01*
X142419047Y-86257142D01*
X142419047Y-86066666D01*
X142457142Y-85914285D01*
X142495238Y-85838095D01*
X142533333Y-85800000D01*
X142609523Y-85761904D01*
X143638095Y-86561904D02*
X143180952Y-86561904D01*
X143409523Y-86561904D02*
X143409523Y-85761904D01*
X143333333Y-85876190D01*
X143257142Y-85952380D01*
X143180952Y-85990476D01*
X144095238Y-86104761D02*
X144019047Y-86066666D01*
X143980952Y-86028571D01*
X143942857Y-85952380D01*
X143942857Y-85914285D01*
X143980952Y-85838095D01*
X144019047Y-85800000D01*
X144095238Y-85761904D01*
X144247619Y-85761904D01*
X144323809Y-85800000D01*
X144361904Y-85838095D01*
X144400000Y-85914285D01*
X144400000Y-85952380D01*
X144361904Y-86028571D01*
X144323809Y-86066666D01*
X144247619Y-86104761D01*
X144095238Y-86104761D01*
X144019047Y-86142857D01*
X143980952Y-86180952D01*
X143942857Y-86257142D01*
X143942857Y-86409523D01*
X143980952Y-86485714D01*
X144019047Y-86523809D01*
X144095238Y-86561904D01*
X144247619Y-86561904D01*
X144323809Y-86523809D01*
X144361904Y-86485714D01*
X144400000Y-86409523D01*
X144400000Y-86257142D01*
X144361904Y-86180952D01*
X144323809Y-86142857D01*
X144247619Y-86104761D01*
X145352380Y-86561904D02*
X145352380Y-85761904D01*
X145352380Y-86066666D02*
X145428571Y-86028571D01*
X145580952Y-86028571D01*
X145657142Y-86066666D01*
X145695238Y-86104761D01*
X145733333Y-86180952D01*
X145733333Y-86409523D01*
X145695238Y-86485714D01*
X145657142Y-86523809D01*
X145580952Y-86561904D01*
X145428571Y-86561904D01*
X145352380Y-86523809D01*
X146000000Y-86028571D02*
X146190476Y-86561904D01*
X146380952Y-86028571D02*
X146190476Y-86561904D01*
X146114285Y-86752380D01*
X146076190Y-86790476D01*
X146000000Y-86828571D01*
X147257142Y-86333333D02*
X147638095Y-86333333D01*
X147180952Y-86561904D02*
X147447619Y-85761904D01*
X147714285Y-86561904D01*
X148323809Y-86561904D02*
X148323809Y-86142857D01*
X148285714Y-86066666D01*
X148209523Y-86028571D01*
X148057142Y-86028571D01*
X147980952Y-86066666D01*
X148323809Y-86523809D02*
X148247619Y-86561904D01*
X148057142Y-86561904D01*
X147980952Y-86523809D01*
X147942857Y-86447619D01*
X147942857Y-86371428D01*
X147980952Y-86295238D01*
X148057142Y-86257142D01*
X148247619Y-86257142D01*
X148323809Y-86219047D01*
X148704761Y-86561904D02*
X148704761Y-86028571D01*
X148704761Y-86180952D02*
X148742857Y-86104761D01*
X148780952Y-86066666D01*
X148857142Y-86028571D01*
X148933333Y-86028571D01*
X149314285Y-86561904D02*
X149238095Y-86523809D01*
X149200000Y-86485714D01*
X149161904Y-86409523D01*
X149161904Y-86180952D01*
X149200000Y-86104761D01*
X149238095Y-86066666D01*
X149314285Y-86028571D01*
X149428571Y-86028571D01*
X149504761Y-86066666D01*
X149542857Y-86104761D01*
X149580952Y-86180952D01*
X149580952Y-86409523D01*
X149542857Y-86485714D01*
X149504761Y-86523809D01*
X149428571Y-86561904D01*
X149314285Y-86561904D01*
X149923809Y-86028571D02*
X149923809Y-86561904D01*
X149923809Y-86104761D02*
X149961904Y-86066666D01*
X150038095Y-86028571D01*
X150152380Y-86028571D01*
X150228571Y-86066666D01*
X150266666Y-86142857D01*
X150266666Y-86561904D01*
X151180952Y-85761904D02*
X151371428Y-86561904D01*
X151523809Y-85990476D01*
X151676190Y-86561904D01*
X151866666Y-85761904D01*
X152171428Y-86561904D02*
X152171428Y-86028571D01*
X152171428Y-85761904D02*
X152133333Y-85800000D01*
X152171428Y-85838095D01*
X152209523Y-85800000D01*
X152171428Y-85761904D01*
X152171428Y-85838095D01*
X152666666Y-86561904D02*
X152590476Y-86523809D01*
X152552380Y-86447619D01*
X152552380Y-85761904D01*
X153085714Y-86561904D02*
X153009523Y-86523809D01*
X152971428Y-86447619D01*
X152971428Y-85761904D01*
X153390476Y-86561904D02*
X153390476Y-86028571D01*
X153390476Y-85761904D02*
X153352380Y-85800000D01*
X153390476Y-85838095D01*
X153428571Y-85800000D01*
X153390476Y-85761904D01*
X153390476Y-85838095D01*
X154114285Y-86561904D02*
X154114285Y-86142857D01*
X154076190Y-86066666D01*
X154000000Y-86028571D01*
X153847619Y-86028571D01*
X153771428Y-86066666D01*
X154114285Y-86523809D02*
X154038095Y-86561904D01*
X153847619Y-86561904D01*
X153771428Y-86523809D01*
X153733333Y-86447619D01*
X153733333Y-86371428D01*
X153771428Y-86295238D01*
X153847619Y-86257142D01*
X154038095Y-86257142D01*
X154114285Y-86219047D01*
X154495238Y-86561904D02*
X154495238Y-86028571D01*
X154495238Y-86104761D02*
X154533333Y-86066666D01*
X154609523Y-86028571D01*
X154723809Y-86028571D01*
X154800000Y-86066666D01*
X154838095Y-86142857D01*
X154838095Y-86561904D01*
X154838095Y-86142857D02*
X154876190Y-86066666D01*
X154952380Y-86028571D01*
X155066666Y-86028571D01*
X155142857Y-86066666D01*
X155180952Y-86142857D01*
X155180952Y-86561904D01*
X155523809Y-86523809D02*
X155600000Y-86561904D01*
X155752380Y-86561904D01*
X155828571Y-86523809D01*
X155866666Y-86447619D01*
X155866666Y-86409523D01*
X155828571Y-86333333D01*
X155752380Y-86295238D01*
X155638095Y-86295238D01*
X155561904Y-86257142D01*
X155523809Y-86180952D01*
X155523809Y-86142857D01*
X155561904Y-86066666D01*
X155638095Y-86028571D01*
X155752380Y-86028571D01*
X155828571Y-86066666D01*
X137514285Y-112452380D02*
X138133333Y-112452380D01*
X137800000Y-112833333D01*
X137942857Y-112833333D01*
X138038095Y-112880952D01*
X138085714Y-112928571D01*
X138133333Y-113023809D01*
X138133333Y-113261904D01*
X138085714Y-113357142D01*
X138038095Y-113404761D01*
X137942857Y-113452380D01*
X137657142Y-113452380D01*
X137561904Y-113404761D01*
X137514285Y-113357142D01*
X138419047Y-112452380D02*
X138752380Y-113452380D01*
X139085714Y-112452380D01*
X140180952Y-113452380D02*
X140180952Y-112452380D01*
X140609523Y-112547619D02*
X140657142Y-112500000D01*
X140752380Y-112452380D01*
X140990476Y-112452380D01*
X141085714Y-112500000D01*
X141133333Y-112547619D01*
X141180952Y-112642857D01*
X141180952Y-112738095D01*
X141133333Y-112880952D01*
X140561904Y-113452380D01*
X141180952Y-113452380D01*
X142180952Y-113357142D02*
X142133333Y-113404761D01*
X141990476Y-113452380D01*
X141895238Y-113452380D01*
X141752380Y-113404761D01*
X141657142Y-113309523D01*
X141609523Y-113214285D01*
X141561904Y-113023809D01*
X141561904Y-112880952D01*
X141609523Y-112690476D01*
X141657142Y-112595238D01*
X141752380Y-112500000D01*
X141895238Y-112452380D01*
X141990476Y-112452380D01*
X142133333Y-112500000D01*
X142180952Y-112547619D01*
X143895238Y-112500000D02*
X143800000Y-112452380D01*
X143657142Y-112452380D01*
X143514285Y-112500000D01*
X143419047Y-112595238D01*
X143371428Y-112690476D01*
X143323809Y-112880952D01*
X143323809Y-113023809D01*
X143371428Y-113214285D01*
X143419047Y-113309523D01*
X143514285Y-113404761D01*
X143657142Y-113452380D01*
X143752380Y-113452380D01*
X143895238Y-113404761D01*
X143942857Y-113357142D01*
X143942857Y-113023809D01*
X143752380Y-113023809D01*
X144371428Y-113452380D02*
X144371428Y-112452380D01*
X144752380Y-112452380D01*
X144847619Y-112500000D01*
X144895238Y-112547619D01*
X144942857Y-112642857D01*
X144942857Y-112785714D01*
X144895238Y-112880952D01*
X144847619Y-112928571D01*
X144752380Y-112976190D01*
X144371428Y-112976190D01*
X145371428Y-113452380D02*
X145371428Y-112452380D01*
X146038095Y-112452380D02*
X146228571Y-112452380D01*
X146323809Y-112500000D01*
X146419047Y-112595238D01*
X146466666Y-112785714D01*
X146466666Y-113119047D01*
X146419047Y-113309523D01*
X146323809Y-113404761D01*
X146228571Y-113452380D01*
X146038095Y-113452380D01*
X145942857Y-113404761D01*
X145847619Y-113309523D01*
X145800000Y-113119047D01*
X145800000Y-112785714D01*
X145847619Y-112595238D01*
X145942857Y-112500000D01*
X146038095Y-112452380D01*
X147657142Y-112928571D02*
X147990476Y-112928571D01*
X148133333Y-113452380D02*
X147657142Y-113452380D01*
X147657142Y-112452380D01*
X148133333Y-112452380D01*
X148466666Y-113452380D02*
X148990476Y-112785714D01*
X148466666Y-112785714D02*
X148990476Y-113452380D01*
X149371428Y-112785714D02*
X149371428Y-113785714D01*
X149371428Y-112833333D02*
X149466666Y-112785714D01*
X149657142Y-112785714D01*
X149752380Y-112833333D01*
X149800000Y-112880952D01*
X149847619Y-112976190D01*
X149847619Y-113261904D01*
X149800000Y-113357142D01*
X149752380Y-113404761D01*
X149657142Y-113452380D01*
X149466666Y-113452380D01*
X149371428Y-113404761D01*
X150704761Y-113452380D02*
X150704761Y-112928571D01*
X150657142Y-112833333D01*
X150561904Y-112785714D01*
X150371428Y-112785714D01*
X150276190Y-112833333D01*
X150704761Y-113404761D02*
X150609523Y-113452380D01*
X150371428Y-113452380D01*
X150276190Y-113404761D01*
X150228571Y-113309523D01*
X150228571Y-113214285D01*
X150276190Y-113119047D01*
X150371428Y-113071428D01*
X150609523Y-113071428D01*
X150704761Y-113023809D01*
X151180952Y-112785714D02*
X151180952Y-113452380D01*
X151180952Y-112880952D02*
X151228571Y-112833333D01*
X151323809Y-112785714D01*
X151466666Y-112785714D01*
X151561904Y-112833333D01*
X151609523Y-112928571D01*
X151609523Y-113452380D01*
X152514285Y-113452380D02*
X152514285Y-112452380D01*
X152514285Y-113404761D02*
X152419047Y-113452380D01*
X152228571Y-113452380D01*
X152133333Y-113404761D01*
X152085714Y-113357142D01*
X152038095Y-113261904D01*
X152038095Y-112976190D01*
X152085714Y-112880952D01*
X152133333Y-112833333D01*
X152228571Y-112785714D01*
X152419047Y-112785714D01*
X152514285Y-112833333D01*
X153371428Y-113404761D02*
X153276190Y-113452380D01*
X153085714Y-113452380D01*
X152990476Y-113404761D01*
X152942857Y-113309523D01*
X152942857Y-112928571D01*
X152990476Y-112833333D01*
X153085714Y-112785714D01*
X153276190Y-112785714D01*
X153371428Y-112833333D01*
X153419047Y-112928571D01*
X153419047Y-113023809D01*
X152942857Y-113119047D01*
X153847619Y-113452380D02*
X153847619Y-112785714D01*
X153847619Y-112976190D02*
X153895238Y-112880952D01*
X153942857Y-112833333D01*
X154038095Y-112785714D01*
X154133333Y-112785714D01*
D11*
X142680952Y-93652380D02*
X143252380Y-93652380D01*
X142966666Y-94652380D02*
X142966666Y-93652380D01*
X144157142Y-94557142D02*
X144109523Y-94604761D01*
X143966666Y-94652380D01*
X143871428Y-94652380D01*
X143728571Y-94604761D01*
X143633333Y-94509523D01*
X143585714Y-94414285D01*
X143538095Y-94223809D01*
X143538095Y-94080952D01*
X143585714Y-93890476D01*
X143633333Y-93795238D01*
X143728571Y-93700000D01*
X143871428Y-93652380D01*
X143966666Y-93652380D01*
X144109523Y-93700000D01*
X144157142Y-93747619D01*
X144538095Y-94366666D02*
X145014285Y-94366666D01*
X144442857Y-94652380D02*
X144776190Y-93652380D01*
X145109523Y-94652380D01*
X145490476Y-94652380D02*
X145680952Y-94652380D01*
X145776190Y-94604761D01*
X145823809Y-94557142D01*
X145919047Y-94414285D01*
X145966666Y-94223809D01*
X145966666Y-93842857D01*
X145919047Y-93747619D01*
X145871428Y-93700000D01*
X145776190Y-93652380D01*
X145585714Y-93652380D01*
X145490476Y-93700000D01*
X145442857Y-93747619D01*
X145395238Y-93842857D01*
X145395238Y-94080952D01*
X145442857Y-94176190D01*
X145490476Y-94223809D01*
X145585714Y-94271428D01*
X145776190Y-94271428D01*
X145871428Y-94223809D01*
X145919047Y-94176190D01*
X145966666Y-94080952D01*
X146871428Y-93652380D02*
X146395238Y-93652380D01*
X146347619Y-94128571D01*
X146395238Y-94080952D01*
X146490476Y-94033333D01*
X146728571Y-94033333D01*
X146823809Y-94080952D01*
X146871428Y-94128571D01*
X146919047Y-94223809D01*
X146919047Y-94461904D01*
X146871428Y-94557142D01*
X146823809Y-94604761D01*
X146728571Y-94652380D01*
X146490476Y-94652380D01*
X146395238Y-94604761D01*
X146347619Y-94557142D01*
X147823809Y-93652380D02*
X147347619Y-93652380D01*
X147300000Y-94128571D01*
X147347619Y-94080952D01*
X147442857Y-94033333D01*
X147680952Y-94033333D01*
X147776190Y-94080952D01*
X147823809Y-94128571D01*
X147871428Y-94223809D01*
X147871428Y-94461904D01*
X147823809Y-94557142D01*
X147776190Y-94604761D01*
X147680952Y-94652380D01*
X147442857Y-94652380D01*
X147347619Y-94604761D01*
X147300000Y-94557142D01*
X148776190Y-93652380D02*
X148300000Y-93652380D01*
X148252380Y-94128571D01*
X148300000Y-94080952D01*
X148395238Y-94033333D01*
X148633333Y-94033333D01*
X148728571Y-94080952D01*
X148776190Y-94128571D01*
X148823809Y-94223809D01*
X148823809Y-94461904D01*
X148776190Y-94557142D01*
X148728571Y-94604761D01*
X148633333Y-94652380D01*
X148395238Y-94652380D01*
X148300000Y-94604761D01*
X148252380Y-94557142D01*
D12*
X148928571Y-106650000D02*
X149642857Y-106650000D01*
X148785714Y-107078571D02*
X149285714Y-105578571D01*
X149785714Y-107078571D01*
X150214285Y-105721428D02*
X150285714Y-105650000D01*
X150428571Y-105578571D01*
X150785714Y-105578571D01*
X150928571Y-105650000D01*
X151000000Y-105721428D01*
X151071428Y-105864285D01*
X151071428Y-106007142D01*
X151000000Y-106221428D01*
X150142857Y-107078571D01*
X151071428Y-107078571D01*
X145728571Y-106650000D02*
X146442857Y-106650000D01*
X145585714Y-107078571D02*
X146085714Y-105578571D01*
X146585714Y-107078571D01*
X147871428Y-107078571D02*
X147014285Y-107078571D01*
X147442857Y-107078571D02*
X147442857Y-105578571D01*
X147300000Y-105792857D01*
X147157142Y-105935714D01*
X147014285Y-106007142D01*
X142328571Y-106650000D02*
X143042857Y-106650000D01*
X142185714Y-107078571D02*
X142685714Y-105578571D01*
X143185714Y-107078571D01*
X143971428Y-105578571D02*
X144114285Y-105578571D01*
X144257142Y-105650000D01*
X144328571Y-105721428D01*
X144400000Y-105864285D01*
X144471428Y-106150000D01*
X144471428Y-106507142D01*
X144400000Y-106792857D01*
X144328571Y-106935714D01*
X144257142Y-107007142D01*
X144114285Y-107078571D01*
X143971428Y-107078571D01*
X143828571Y-107007142D01*
X143757142Y-106935714D01*
X143685714Y-106792857D01*
X143614285Y-106507142D01*
X143614285Y-106150000D01*
X143685714Y-105864285D01*
X143757142Y-105721428D01*
X143828571Y-105650000D01*
X143971428Y-105578571D01*
D10*
X134571428Y-103857142D02*
X135180952Y-103857142D01*
X134876190Y-104161904D02*
X134876190Y-103552380D01*
X135485714Y-103361904D02*
X135980952Y-103361904D01*
X135714285Y-103666666D01*
X135828571Y-103666666D01*
X135904761Y-103704761D01*
X135942857Y-103742857D01*
X135980952Y-103819047D01*
X135980952Y-104009523D01*
X135942857Y-104085714D01*
X135904761Y-104123809D01*
X135828571Y-104161904D01*
X135600000Y-104161904D01*
X135523809Y-104123809D01*
X135485714Y-104085714D01*
X136209523Y-103361904D02*
X136476190Y-104161904D01*
X136742857Y-103361904D01*
X134628571Y-102323809D02*
X134742857Y-102361904D01*
X134933333Y-102361904D01*
X135009523Y-102323809D01*
X135047619Y-102285714D01*
X135085714Y-102209523D01*
X135085714Y-102133333D01*
X135047619Y-102057142D01*
X135009523Y-102019047D01*
X134933333Y-101980952D01*
X134780952Y-101942857D01*
X134704761Y-101904761D01*
X134666666Y-101866666D01*
X134628571Y-101790476D01*
X134628571Y-101714285D01*
X134666666Y-101638095D01*
X134704761Y-101600000D01*
X134780952Y-101561904D01*
X134971428Y-101561904D01*
X135085714Y-101600000D01*
X135428571Y-102361904D02*
X135428571Y-101561904D01*
X135619047Y-101561904D01*
X135733333Y-101600000D01*
X135809523Y-101676190D01*
X135847619Y-101752380D01*
X135885714Y-101904761D01*
X135885714Y-102019047D01*
X135847619Y-102171428D01*
X135809523Y-102247619D01*
X135733333Y-102323809D01*
X135619047Y-102361904D01*
X135428571Y-102361904D01*
X136190476Y-102133333D02*
X136571428Y-102133333D01*
X136114285Y-102361904D02*
X136380952Y-101561904D01*
X136647619Y-102361904D01*
X134676190Y-99047619D02*
X134638095Y-99161904D01*
X134638095Y-99352380D01*
X134676190Y-99428571D01*
X134714285Y-99466666D01*
X134790476Y-99504761D01*
X134866666Y-99504761D01*
X134942857Y-99466666D01*
X134980952Y-99428571D01*
X135019047Y-99352380D01*
X135057142Y-99200000D01*
X135095238Y-99123809D01*
X135133333Y-99085714D01*
X135209523Y-99047619D01*
X135285714Y-99047619D01*
X135361904Y-99085714D01*
X135400000Y-99123809D01*
X135438095Y-99200000D01*
X135438095Y-99390476D01*
X135400000Y-99504761D01*
X134714285Y-100304761D02*
X134676190Y-100266666D01*
X134638095Y-100152380D01*
X134638095Y-100076190D01*
X134676190Y-99961904D01*
X134752380Y-99885714D01*
X134828571Y-99847619D01*
X134980952Y-99809523D01*
X135095238Y-99809523D01*
X135247619Y-99847619D01*
X135323809Y-99885714D01*
X135400000Y-99961904D01*
X135438095Y-100076190D01*
X135438095Y-100152380D01*
X135400000Y-100266666D01*
X135361904Y-100304761D01*
X134638095Y-101028571D02*
X134638095Y-100647619D01*
X135438095Y-100647619D01*
X134685714Y-96894000D02*
X135066666Y-96894000D01*
X134876190Y-97961904D02*
X134876190Y-97161904D01*
X135066666Y-96894000D02*
X135904761Y-96894000D01*
X135257142Y-97961904D02*
X135257142Y-97161904D01*
X135714285Y-97961904D01*
X135714285Y-97161904D01*
X135904761Y-96894000D02*
X136514285Y-96894000D01*
X135980952Y-97161904D02*
X136438095Y-97161904D01*
X136209523Y-97961904D02*
X136209523Y-97161904D01*
X135190476Y-95400000D02*
X135114285Y-95361904D01*
X135000000Y-95361904D01*
X134885714Y-95400000D01*
X134809523Y-95476190D01*
X134771428Y-95552380D01*
X134733333Y-95704761D01*
X134733333Y-95819047D01*
X134771428Y-95971428D01*
X134809523Y-96047619D01*
X134885714Y-96123809D01*
X135000000Y-96161904D01*
X135076190Y-96161904D01*
X135190476Y-96123809D01*
X135228571Y-96085714D01*
X135228571Y-95819047D01*
X135076190Y-95819047D01*
X135571428Y-96161904D02*
X135571428Y-95361904D01*
X136028571Y-96161904D01*
X136028571Y-95361904D01*
X136409523Y-96161904D02*
X136409523Y-95361904D01*
X136600000Y-95361904D01*
X136714285Y-95400000D01*
X136790476Y-95476190D01*
X136828571Y-95552380D01*
X136866666Y-95704761D01*
X136866666Y-95819047D01*
X136828571Y-95971428D01*
X136790476Y-96047619D01*
X136714285Y-96123809D01*
X136600000Y-96161904D01*
X136409523Y-96161904D01*
X135190476Y-93400000D02*
X135114285Y-93361904D01*
X135000000Y-93361904D01*
X134885714Y-93400000D01*
X134809523Y-93476190D01*
X134771428Y-93552380D01*
X134733333Y-93704761D01*
X134733333Y-93819047D01*
X134771428Y-93971428D01*
X134809523Y-94047619D01*
X134885714Y-94123809D01*
X135000000Y-94161904D01*
X135076190Y-94161904D01*
X135190476Y-94123809D01*
X135228571Y-94085714D01*
X135228571Y-93819047D01*
X135076190Y-93819047D01*
X135571428Y-94161904D02*
X135571428Y-93361904D01*
X136028571Y-94161904D01*
X136028571Y-93361904D01*
X136409523Y-94161904D02*
X136409523Y-93361904D01*
X136600000Y-93361904D01*
X136714285Y-93400000D01*
X136790476Y-93476190D01*
X136828571Y-93552380D01*
X136866666Y-93704761D01*
X136866666Y-93819047D01*
X136828571Y-93971428D01*
X136790476Y-94047619D01*
X136714285Y-94123809D01*
X136600000Y-94161904D01*
X136409523Y-94161904D01*
D13*
G04 #@! TO.C,C4*
X148750000Y-89700000D02*
X148750000Y-90700000D01*
X150450000Y-90700000D02*
X150450000Y-89700000D01*
G04 #@! TO.C,C1*
X139300000Y-103800000D02*
X138600000Y-103800000D01*
X138600000Y-102600000D02*
X139300000Y-102600000D01*
G04 #@! TO.C,C3*
X136350000Y-106050000D02*
X136350000Y-107050000D01*
X138050000Y-107050000D02*
X138050000Y-106050000D01*
G04 #@! TO.C,C2*
X154950000Y-108750000D02*
X153950000Y-108750000D01*
X153950000Y-110450000D02*
X154950000Y-110450000D01*
D11*
G04 #@! TO.C,U1*
X150100000Y-102600000D02*
X149300000Y-103400000D01*
X149300000Y-103400000D02*
X141900000Y-103400000D01*
X141900000Y-103400000D02*
X141900000Y-94950000D01*
X141900000Y-94950000D02*
X150100000Y-94950000D01*
X150100000Y-94950000D02*
X150100000Y-102600000D01*
D13*
G04 #@! TO.C,RN2*
X140700000Y-104320000D02*
X139700000Y-104320000D01*
X140700000Y-107680000D02*
X139700000Y-107680000D01*
G04 #@! TO.C,RN1*
X139480000Y-99100000D02*
X139480000Y-100100000D01*
X136120000Y-99100000D02*
X136120000Y-100100000D01*
G04 #@! TO.C,JP3*
X144400000Y-110325000D02*
X142400000Y-110325000D01*
X144400000Y-107525000D02*
X144400000Y-110325000D01*
X142400000Y-107525000D02*
X144400000Y-107525000D01*
X142400000Y-110325000D02*
X142400000Y-107525000D01*
G04 #@! TO.C,JP2*
X145800000Y-110200000D02*
X145800000Y-107400000D01*
X145800000Y-107400000D02*
X147800000Y-107400000D01*
X147800000Y-107400000D02*
X147800000Y-110200000D01*
X147800000Y-110200000D02*
X145800000Y-110200000D01*
G04 #@! TO.C,JP1*
X151000000Y-110200000D02*
X149000000Y-110200000D01*
X151000000Y-107400000D02*
X151000000Y-110200000D01*
X149000000Y-107400000D02*
X151000000Y-107400000D01*
X149000000Y-110200000D02*
X149000000Y-107400000D01*
G04 #@! TO.C,C4*
D11*
X151233333Y-90557142D02*
X151185714Y-90604761D01*
X151042857Y-90652380D01*
X150947619Y-90652380D01*
X150804761Y-90604761D01*
X150709523Y-90509523D01*
X150661904Y-90414285D01*
X150614285Y-90223809D01*
X150614285Y-90080952D01*
X150661904Y-89890476D01*
X150709523Y-89795238D01*
X150804761Y-89700000D01*
X150947619Y-89652380D01*
X151042857Y-89652380D01*
X151185714Y-89700000D01*
X151233333Y-89747619D01*
X152090476Y-89985714D02*
X152090476Y-90652380D01*
X151852380Y-89604761D02*
X151614285Y-90319047D01*
X152233333Y-90319047D01*
G04 #@! TO.C,J2*
X154066666Y-88852380D02*
X154066666Y-89566666D01*
X154019047Y-89709523D01*
X153923809Y-89804761D01*
X153780952Y-89852380D01*
X153685714Y-89852380D01*
X154495238Y-88947619D02*
X154542857Y-88900000D01*
X154638095Y-88852380D01*
X154876190Y-88852380D01*
X154971428Y-88900000D01*
X155019047Y-88947619D01*
X155066666Y-89042857D01*
X155066666Y-89138095D01*
X155019047Y-89280952D01*
X154447619Y-89852380D01*
X155066666Y-89852380D01*
G04 #@! TO.C,C1*
X138833333Y-102357142D02*
X138785714Y-102404761D01*
X138642857Y-102452380D01*
X138547619Y-102452380D01*
X138404761Y-102404761D01*
X138309523Y-102309523D01*
X138261904Y-102214285D01*
X138214285Y-102023809D01*
X138214285Y-101880952D01*
X138261904Y-101690476D01*
X138309523Y-101595238D01*
X138404761Y-101500000D01*
X138547619Y-101452380D01*
X138642857Y-101452380D01*
X138785714Y-101500000D01*
X138833333Y-101547619D01*
X139785714Y-102452380D02*
X139214285Y-102452380D01*
X139500000Y-102452380D02*
X139500000Y-101452380D01*
X139404761Y-101595238D01*
X139309523Y-101690476D01*
X139214285Y-101738095D01*
G04 #@! TO.C,C3*
X135033333Y-106957142D02*
X134985714Y-107004761D01*
X134842857Y-107052380D01*
X134747619Y-107052380D01*
X134604761Y-107004761D01*
X134509523Y-106909523D01*
X134461904Y-106814285D01*
X134414285Y-106623809D01*
X134414285Y-106480952D01*
X134461904Y-106290476D01*
X134509523Y-106195238D01*
X134604761Y-106100000D01*
X134747619Y-106052380D01*
X134842857Y-106052380D01*
X134985714Y-106100000D01*
X135033333Y-106147619D01*
X135366666Y-106052380D02*
X135985714Y-106052380D01*
X135652380Y-106433333D01*
X135795238Y-106433333D01*
X135890476Y-106480952D01*
X135938095Y-106528571D01*
X135985714Y-106623809D01*
X135985714Y-106861904D01*
X135938095Y-106957142D01*
X135890476Y-107004761D01*
X135795238Y-107052380D01*
X135509523Y-107052380D01*
X135414285Y-107004761D01*
X135366666Y-106957142D01*
G04 #@! TO.C,C2*
X154233333Y-111557142D02*
X154185714Y-111604761D01*
X154042857Y-111652380D01*
X153947619Y-111652380D01*
X153804761Y-111604761D01*
X153709523Y-111509523D01*
X153661904Y-111414285D01*
X153614285Y-111223809D01*
X153614285Y-111080952D01*
X153661904Y-110890476D01*
X153709523Y-110795238D01*
X153804761Y-110700000D01*
X153947619Y-110652380D01*
X154042857Y-110652380D01*
X154185714Y-110700000D01*
X154233333Y-110747619D01*
X154614285Y-110747619D02*
X154661904Y-110700000D01*
X154757142Y-110652380D01*
X154995238Y-110652380D01*
X155090476Y-110700000D01*
X155138095Y-110747619D01*
X155185714Y-110842857D01*
X155185714Y-110938095D01*
X155138095Y-111080952D01*
X154566666Y-111652380D01*
X155185714Y-111652380D01*
G04 #@! TO.C,J1*
X133266666Y-90852380D02*
X133266666Y-91566666D01*
X133219047Y-91709523D01*
X133123809Y-91804761D01*
X132980952Y-91852380D01*
X132885714Y-91852380D01*
X134266666Y-91852380D02*
X133695238Y-91852380D01*
X133980952Y-91852380D02*
X133980952Y-90852380D01*
X133885714Y-90995238D01*
X133790476Y-91090476D01*
X133695238Y-91138095D01*
G04 #@! TO.C,U1*
X145238095Y-103852380D02*
X145238095Y-104661904D01*
X145285714Y-104757142D01*
X145333333Y-104804761D01*
X145428571Y-104852380D01*
X145619047Y-104852380D01*
X145714285Y-104804761D01*
X145761904Y-104757142D01*
X145809523Y-104661904D01*
X145809523Y-103852380D01*
X146809523Y-104852380D02*
X146238095Y-104852380D01*
X146523809Y-104852380D02*
X146523809Y-103852380D01*
X146428571Y-103995238D01*
X146333333Y-104090476D01*
X146238095Y-104138095D01*
G04 #@! TO.C,J3*
X136266666Y-89652380D02*
X136266666Y-90366666D01*
X136219047Y-90509523D01*
X136123809Y-90604761D01*
X135980952Y-90652380D01*
X135885714Y-90652380D01*
X136647619Y-89652380D02*
X137266666Y-89652380D01*
X136933333Y-90033333D01*
X137076190Y-90033333D01*
X137171428Y-90080952D01*
X137219047Y-90128571D01*
X137266666Y-90223809D01*
X137266666Y-90461904D01*
X137219047Y-90557142D01*
X137171428Y-90604761D01*
X137076190Y-90652380D01*
X136790476Y-90652380D01*
X136695238Y-90604761D01*
X136647619Y-90557142D01*
G04 #@! TO.C,RN2*
X139509523Y-109052380D02*
X139176190Y-108576190D01*
X138938095Y-109052380D02*
X138938095Y-108052380D01*
X139319047Y-108052380D01*
X139414285Y-108100000D01*
X139461904Y-108147619D01*
X139509523Y-108242857D01*
X139509523Y-108385714D01*
X139461904Y-108480952D01*
X139414285Y-108528571D01*
X139319047Y-108576190D01*
X138938095Y-108576190D01*
X139938095Y-109052380D02*
X139938095Y-108052380D01*
X140509523Y-109052380D01*
X140509523Y-108052380D01*
X140938095Y-108147619D02*
X140985714Y-108100000D01*
X141080952Y-108052380D01*
X141319047Y-108052380D01*
X141414285Y-108100000D01*
X141461904Y-108147619D01*
X141509523Y-108242857D01*
X141509523Y-108338095D01*
X141461904Y-108480952D01*
X140890476Y-109052380D01*
X141509523Y-109052380D01*
G04 #@! TO.C,RN1*
X139109523Y-97852380D02*
X138776190Y-97376190D01*
X138538095Y-97852380D02*
X138538095Y-96852380D01*
X138919047Y-96852380D01*
X139014285Y-96900000D01*
X139061904Y-96947619D01*
X139109523Y-97042857D01*
X139109523Y-97185714D01*
X139061904Y-97280952D01*
X139014285Y-97328571D01*
X138919047Y-97376190D01*
X138538095Y-97376190D01*
X139538095Y-97852380D02*
X139538095Y-96852380D01*
X140109523Y-97852380D01*
X140109523Y-96852380D01*
X141109523Y-97852380D02*
X140538095Y-97852380D01*
X140823809Y-97852380D02*
X140823809Y-96852380D01*
X140728571Y-96995238D01*
X140633333Y-97090476D01*
X140538095Y-97138095D01*
G04 #@! TO.C,JP3*
X142566666Y-111252380D02*
X142566666Y-111966666D01*
X142519047Y-112109523D01*
X142423809Y-112204761D01*
X142280952Y-112252380D01*
X142185714Y-112252380D01*
X143042857Y-112252380D02*
X143042857Y-111252380D01*
X143423809Y-111252380D01*
X143519047Y-111300000D01*
X143566666Y-111347619D01*
X143614285Y-111442857D01*
X143614285Y-111585714D01*
X143566666Y-111680952D01*
X143519047Y-111728571D01*
X143423809Y-111776190D01*
X143042857Y-111776190D01*
X143947619Y-111252380D02*
X144566666Y-111252380D01*
X144233333Y-111633333D01*
X144376190Y-111633333D01*
X144471428Y-111680952D01*
X144519047Y-111728571D01*
X144566666Y-111823809D01*
X144566666Y-112061904D01*
X144519047Y-112157142D01*
X144471428Y-112204761D01*
X144376190Y-112252380D01*
X144090476Y-112252380D01*
X143995238Y-112204761D01*
X143947619Y-112157142D01*
G04 #@! TO.C,JP2*
X145966666Y-111252380D02*
X145966666Y-111966666D01*
X145919047Y-112109523D01*
X145823809Y-112204761D01*
X145680952Y-112252380D01*
X145585714Y-112252380D01*
X146442857Y-112252380D02*
X146442857Y-111252380D01*
X146823809Y-111252380D01*
X146919047Y-111300000D01*
X146966666Y-111347619D01*
X147014285Y-111442857D01*
X147014285Y-111585714D01*
X146966666Y-111680952D01*
X146919047Y-111728571D01*
X146823809Y-111776190D01*
X146442857Y-111776190D01*
X147395238Y-111347619D02*
X147442857Y-111300000D01*
X147538095Y-111252380D01*
X147776190Y-111252380D01*
X147871428Y-111300000D01*
X147919047Y-111347619D01*
X147966666Y-111442857D01*
X147966666Y-111538095D01*
X147919047Y-111680952D01*
X147347619Y-112252380D01*
X147966666Y-112252380D01*
G04 #@! TO.C,JP1*
X149166666Y-111252380D02*
X149166666Y-111966666D01*
X149119047Y-112109523D01*
X149023809Y-112204761D01*
X148880952Y-112252380D01*
X148785714Y-112252380D01*
X149642857Y-112252380D02*
X149642857Y-111252380D01*
X150023809Y-111252380D01*
X150119047Y-111300000D01*
X150166666Y-111347619D01*
X150214285Y-111442857D01*
X150214285Y-111585714D01*
X150166666Y-111680952D01*
X150119047Y-111728571D01*
X150023809Y-111776190D01*
X149642857Y-111776190D01*
X151166666Y-112252380D02*
X150595238Y-112252380D01*
X150880952Y-112252380D02*
X150880952Y-111252380D01*
X150785714Y-111395238D01*
X150690476Y-111490476D01*
X150595238Y-111538095D01*
G04 #@! TD*
M02*
