M48
;DRILL file {KiCad 5.0.0-5.0.0} date Thu Oct 11 16:37:46 2018
;FORMAT={3:3/ absolute / metric / suppress leading zeros}
FMAT,2
METRIC,TZ
T1C0.400
T2C1.000
T3C2.500
%
G90
G05
M71
T1
X134950Y-104150
X135500Y-92700
X135500Y-96800
X137629Y-107950
X139500Y-109550
X142250Y-104150
X145225Y-103959
X150200Y-95525
T2
X138980Y-88860
X138980Y-91400
X141520Y-88860
X141520Y-91400
X144060Y-88860
X144060Y-91400
X146600Y-88860
X146600Y-91400
X153200Y-91560
X153200Y-94100
X153200Y-96640
X153200Y-99180
X153200Y-101720
X153200Y-104260
X153200Y-106800
X155740Y-91560
X155740Y-94100
X155740Y-96640
X155740Y-99180
X155740Y-101720
X155740Y-104260
X155740Y-106800
X133250Y-87850
X133250Y-90390
X133250Y-92930
X133250Y-95470
X133250Y-98010
X133250Y-100550
X133250Y-103090
X133250Y-105630
X133250Y-108170
X133250Y-110710
T3
X157000Y-87500
X156950Y-111000
T0
M30
