G04 #@! TF.GenerationSoftware,KiCad,Pcbnew,5.0.0-5.0.0*
G04 #@! TF.CreationDate,2018-10-02T18:17:12-07:00*
G04 #@! TF.ProjectId,gpio-expander,6770696F2D657870616E6465722E6B69,rev?*
G04 #@! TF.SameCoordinates,Original*
G04 #@! TF.FileFunction,Legend,Bot*
G04 #@! TF.FilePolarity,Positive*
%FSLAX46Y46*%
G04 Gerber Fmt 4.6, Leading zero omitted, Abs format (unit mm)*
G04 Created by KiCad (PCBNEW 5.0.0-5.0.0) date Tue Oct  2 18:17:12 2018*
%MOMM*%
%LPD*%
G01*
G04 APERTURE LIST*
%ADD10C,0.300000*%
%ADD11C,0.200000*%
%ADD12C,0.120000*%
%ADD13C,0.150000*%
G04 APERTURE END LIST*
D10*
X137528571Y-94042857D02*
X136814285Y-93542857D01*
X137528571Y-93185714D02*
X136028571Y-93185714D01*
X136028571Y-93757142D01*
X136100000Y-93900000D01*
X136171428Y-93971428D01*
X136314285Y-94042857D01*
X136528571Y-94042857D01*
X136671428Y-93971428D01*
X136742857Y-93900000D01*
X136814285Y-93757142D01*
X136814285Y-93185714D01*
X137457142Y-95257142D02*
X137528571Y-95114285D01*
X137528571Y-94828571D01*
X137457142Y-94685714D01*
X137314285Y-94614285D01*
X136742857Y-94614285D01*
X136600000Y-94685714D01*
X136528571Y-94828571D01*
X136528571Y-95114285D01*
X136600000Y-95257142D01*
X136742857Y-95328571D01*
X136885714Y-95328571D01*
X137028571Y-94614285D01*
X136528571Y-95828571D02*
X137528571Y-96185714D01*
X136528571Y-96542857D01*
X137528571Y-99042857D02*
X137528571Y-98185714D01*
X137528571Y-98614285D02*
X136028571Y-98614285D01*
X136242857Y-98471428D01*
X136385714Y-98328571D01*
X136457142Y-98185714D01*
X137385714Y-99685714D02*
X137457142Y-99757142D01*
X137528571Y-99685714D01*
X137457142Y-99614285D01*
X137385714Y-99685714D01*
X137528571Y-99685714D01*
X136171428Y-100328571D02*
X136100000Y-100400000D01*
X136028571Y-100542857D01*
X136028571Y-100900000D01*
X136100000Y-101042857D01*
X136171428Y-101114285D01*
X136314285Y-101185714D01*
X136457142Y-101185714D01*
X136671428Y-101114285D01*
X137528571Y-100257142D01*
X137528571Y-101185714D01*
D11*
X154871428Y-113292857D02*
X154871428Y-112092857D01*
X154357142Y-112207142D02*
X154300000Y-112150000D01*
X154185714Y-112092857D01*
X153900000Y-112092857D01*
X153785714Y-112150000D01*
X153728571Y-112207142D01*
X153671428Y-112321428D01*
X153671428Y-112435714D01*
X153728571Y-112607142D01*
X154414285Y-113292857D01*
X153671428Y-113292857D01*
X152471428Y-113178571D02*
X152528571Y-113235714D01*
X152700000Y-113292857D01*
X152814285Y-113292857D01*
X152985714Y-113235714D01*
X153100000Y-113121428D01*
X153157142Y-113007142D01*
X153214285Y-112778571D01*
X153214285Y-112607142D01*
X153157142Y-112378571D01*
X153100000Y-112264285D01*
X152985714Y-112150000D01*
X152814285Y-112092857D01*
X152700000Y-112092857D01*
X152528571Y-112150000D01*
X152471428Y-112207142D01*
X151100000Y-112950000D02*
X150528571Y-112950000D01*
X151214285Y-113292857D02*
X150814285Y-112092857D01*
X150414285Y-113292857D01*
X149500000Y-113292857D02*
X149500000Y-112092857D01*
X149500000Y-113235714D02*
X149614285Y-113292857D01*
X149842857Y-113292857D01*
X149957142Y-113235714D01*
X150014285Y-113178571D01*
X150071428Y-113064285D01*
X150071428Y-112721428D01*
X150014285Y-112607142D01*
X149957142Y-112550000D01*
X149842857Y-112492857D01*
X149614285Y-112492857D01*
X149500000Y-112550000D01*
X148414285Y-113292857D02*
X148414285Y-112092857D01*
X148414285Y-113235714D02*
X148528571Y-113292857D01*
X148757142Y-113292857D01*
X148871428Y-113235714D01*
X148928571Y-113178571D01*
X148985714Y-113064285D01*
X148985714Y-112721428D01*
X148928571Y-112607142D01*
X148871428Y-112550000D01*
X148757142Y-112492857D01*
X148528571Y-112492857D01*
X148414285Y-112550000D01*
X147842857Y-113292857D02*
X147842857Y-112492857D01*
X147842857Y-112721428D02*
X147785714Y-112607142D01*
X147728571Y-112550000D01*
X147614285Y-112492857D01*
X147500000Y-112492857D01*
X146642857Y-113235714D02*
X146757142Y-113292857D01*
X146985714Y-113292857D01*
X147100000Y-113235714D01*
X147157142Y-113121428D01*
X147157142Y-112664285D01*
X147100000Y-112550000D01*
X146985714Y-112492857D01*
X146757142Y-112492857D01*
X146642857Y-112550000D01*
X146585714Y-112664285D01*
X146585714Y-112778571D01*
X147157142Y-112892857D01*
X146128571Y-113235714D02*
X146014285Y-113292857D01*
X145785714Y-113292857D01*
X145671428Y-113235714D01*
X145614285Y-113121428D01*
X145614285Y-113064285D01*
X145671428Y-112950000D01*
X145785714Y-112892857D01*
X145957142Y-112892857D01*
X146071428Y-112835714D01*
X146128571Y-112721428D01*
X146128571Y-112664285D01*
X146071428Y-112550000D01*
X145957142Y-112492857D01*
X145785714Y-112492857D01*
X145671428Y-112550000D01*
X145157142Y-113235714D02*
X145042857Y-113292857D01*
X144814285Y-113292857D01*
X144700000Y-113235714D01*
X144642857Y-113121428D01*
X144642857Y-113064285D01*
X144700000Y-112950000D01*
X144814285Y-112892857D01*
X144985714Y-112892857D01*
X145100000Y-112835714D01*
X145157142Y-112721428D01*
X145157142Y-112664285D01*
X145100000Y-112550000D01*
X144985714Y-112492857D01*
X144814285Y-112492857D01*
X144700000Y-112550000D01*
X144128571Y-113178571D02*
X144071428Y-113235714D01*
X144128571Y-113292857D01*
X144185714Y-113235714D01*
X144128571Y-113178571D01*
X144128571Y-113292857D01*
X144128571Y-112550000D02*
X144071428Y-112607142D01*
X144128571Y-112664285D01*
X144185714Y-112607142D01*
X144128571Y-112550000D01*
X144128571Y-112664285D01*
X142414285Y-112092857D02*
X142300000Y-112092857D01*
X142185714Y-112150000D01*
X142128571Y-112207142D01*
X142071428Y-112321428D01*
X142014285Y-112550000D01*
X142014285Y-112835714D01*
X142071428Y-113064285D01*
X142128571Y-113178571D01*
X142185714Y-113235714D01*
X142300000Y-113292857D01*
X142414285Y-113292857D01*
X142528571Y-113235714D01*
X142585714Y-113178571D01*
X142642857Y-113064285D01*
X142700000Y-112835714D01*
X142700000Y-112550000D01*
X142642857Y-112321428D01*
X142585714Y-112207142D01*
X142528571Y-112150000D01*
X142414285Y-112092857D01*
X141614285Y-113292857D02*
X140985714Y-112492857D01*
X141614285Y-112492857D02*
X140985714Y-113292857D01*
X140585714Y-112207142D02*
X140528571Y-112150000D01*
X140414285Y-112092857D01*
X140128571Y-112092857D01*
X140014285Y-112150000D01*
X139957142Y-112207142D01*
X139900000Y-112321428D01*
X139900000Y-112435714D01*
X139957142Y-112607142D01*
X140642857Y-113292857D01*
X139900000Y-113292857D01*
X139157142Y-112092857D02*
X139042857Y-112092857D01*
X138928571Y-112150000D01*
X138871428Y-112207142D01*
X138814285Y-112321428D01*
X138757142Y-112550000D01*
X138757142Y-112835714D01*
X138814285Y-113064285D01*
X138871428Y-113178571D01*
X138928571Y-113235714D01*
X139042857Y-113292857D01*
X139157142Y-113292857D01*
X139271428Y-113235714D01*
X139328571Y-113178571D01*
X139385714Y-113064285D01*
X139442857Y-112835714D01*
X139442857Y-112550000D01*
X139385714Y-112321428D01*
X139328571Y-112207142D01*
X139271428Y-112150000D01*
X139157142Y-112092857D01*
X138242857Y-112835714D02*
X137328571Y-112835714D01*
X136528571Y-112092857D02*
X136414285Y-112092857D01*
X136300000Y-112150000D01*
X136242857Y-112207142D01*
X136185714Y-112321428D01*
X136128571Y-112550000D01*
X136128571Y-112835714D01*
X136185714Y-113064285D01*
X136242857Y-113178571D01*
X136300000Y-113235714D01*
X136414285Y-113292857D01*
X136528571Y-113292857D01*
X136642857Y-113235714D01*
X136700000Y-113178571D01*
X136757142Y-113064285D01*
X136814285Y-112835714D01*
X136814285Y-112550000D01*
X136757142Y-112321428D01*
X136700000Y-112207142D01*
X136642857Y-112150000D01*
X136528571Y-112092857D01*
X135728571Y-113292857D02*
X135100000Y-112492857D01*
X135728571Y-112492857D02*
X135100000Y-113292857D01*
X134700000Y-112207142D02*
X134642857Y-112150000D01*
X134528571Y-112092857D01*
X134242857Y-112092857D01*
X134128571Y-112150000D01*
X134071428Y-112207142D01*
X134014285Y-112321428D01*
X134014285Y-112435714D01*
X134071428Y-112607142D01*
X134757142Y-113292857D01*
X134014285Y-113292857D01*
X133614285Y-112092857D02*
X132814285Y-112092857D01*
X133328571Y-113292857D01*
D10*
X151519285Y-91957142D02*
X151305000Y-92028571D01*
X150947857Y-92028571D01*
X150805000Y-91957142D01*
X150733571Y-91885714D01*
X150662142Y-91742857D01*
X150662142Y-91600000D01*
X150733571Y-91457142D01*
X150805000Y-91385714D01*
X150947857Y-91314285D01*
X151233571Y-91242857D01*
X151376428Y-91171428D01*
X151447857Y-91100000D01*
X151519285Y-90957142D01*
X151519285Y-90814285D01*
X151447857Y-90671428D01*
X151376428Y-90600000D01*
X151233571Y-90528571D01*
X150876428Y-90528571D01*
X150662142Y-90600000D01*
X150162142Y-90528571D02*
X149805000Y-92028571D01*
X149519285Y-90957142D01*
X149233571Y-92028571D01*
X148876428Y-90528571D01*
X148305000Y-91885714D02*
X148233571Y-91957142D01*
X148305000Y-92028571D01*
X148376428Y-91957142D01*
X148305000Y-91885714D01*
X148305000Y-92028571D01*
X148305000Y-91100000D02*
X148233571Y-91171428D01*
X148305000Y-91242857D01*
X148376428Y-91171428D01*
X148305000Y-91100000D01*
X148305000Y-91242857D01*
X150662142Y-94578571D02*
X151519285Y-94578571D01*
X151090714Y-94578571D02*
X151090714Y-93078571D01*
X151233571Y-93292857D01*
X151376428Y-93435714D01*
X151519285Y-93507142D01*
X150019285Y-94435714D02*
X149947857Y-94507142D01*
X150019285Y-94578571D01*
X150090714Y-94507142D01*
X150019285Y-94435714D01*
X150019285Y-94578571D01*
X150019285Y-93650000D02*
X149947857Y-93721428D01*
X150019285Y-93792857D01*
X150090714Y-93721428D01*
X150019285Y-93650000D01*
X150019285Y-93792857D01*
X148162142Y-94578571D02*
X148162142Y-93078571D01*
X147447857Y-94578571D02*
X147447857Y-93078571D01*
X146590714Y-94578571D01*
X146590714Y-93078571D01*
X146090714Y-93078571D02*
X145233571Y-93078571D01*
X145662142Y-94578571D02*
X145662142Y-93078571D01*
X143590714Y-94578571D02*
X143590714Y-93078571D01*
X143019285Y-93078571D01*
X142876428Y-93150000D01*
X142805000Y-93221428D01*
X142733571Y-93364285D01*
X142733571Y-93578571D01*
X142805000Y-93721428D01*
X142876428Y-93792857D01*
X143019285Y-93864285D01*
X143590714Y-93864285D01*
X142090714Y-93078571D02*
X142090714Y-94292857D01*
X142019285Y-94435714D01*
X141947857Y-94507142D01*
X141805000Y-94578571D01*
X141519285Y-94578571D01*
X141376428Y-94507142D01*
X141305000Y-94435714D01*
X141233571Y-94292857D01*
X141233571Y-93078571D01*
X151519285Y-95771428D02*
X151447857Y-95700000D01*
X151305000Y-95628571D01*
X150947857Y-95628571D01*
X150805000Y-95700000D01*
X150733571Y-95771428D01*
X150662142Y-95914285D01*
X150662142Y-96057142D01*
X150733571Y-96271428D01*
X151590714Y-97128571D01*
X150662142Y-97128571D01*
X150019285Y-96985714D02*
X149947857Y-97057142D01*
X150019285Y-97128571D01*
X150090714Y-97057142D01*
X150019285Y-96985714D01*
X150019285Y-97128571D01*
X150019285Y-96200000D02*
X149947857Y-96271428D01*
X150019285Y-96342857D01*
X150090714Y-96271428D01*
X150019285Y-96200000D01*
X150019285Y-96342857D01*
X148233571Y-97057142D02*
X148019285Y-97128571D01*
X147662142Y-97128571D01*
X147519285Y-97057142D01*
X147447857Y-96985714D01*
X147376428Y-96842857D01*
X147376428Y-96700000D01*
X147447857Y-96557142D01*
X147519285Y-96485714D01*
X147662142Y-96414285D01*
X147947857Y-96342857D01*
X148090714Y-96271428D01*
X148162142Y-96200000D01*
X148233571Y-96057142D01*
X148233571Y-95914285D01*
X148162142Y-95771428D01*
X148090714Y-95700000D01*
X147947857Y-95628571D01*
X147590714Y-95628571D01*
X147376428Y-95700000D01*
X146733571Y-97128571D02*
X146733571Y-95628571D01*
X146376428Y-95628571D01*
X146162142Y-95700000D01*
X146019285Y-95842857D01*
X145947857Y-95985714D01*
X145876428Y-96271428D01*
X145876428Y-96485714D01*
X145947857Y-96771428D01*
X146019285Y-96914285D01*
X146162142Y-97057142D01*
X146376428Y-97128571D01*
X146733571Y-97128571D01*
X145305000Y-96700000D02*
X144590714Y-96700000D01*
X145447857Y-97128571D02*
X144947857Y-95628571D01*
X144447857Y-97128571D01*
X142805000Y-97128571D02*
X142805000Y-95628571D01*
X142233571Y-95628571D01*
X142090714Y-95700000D01*
X142019285Y-95771428D01*
X141947857Y-95914285D01*
X141947857Y-96128571D01*
X142019285Y-96271428D01*
X142090714Y-96342857D01*
X142233571Y-96414285D01*
X142805000Y-96414285D01*
X141305000Y-95628571D02*
X141305000Y-96842857D01*
X141233571Y-96985714D01*
X141162142Y-97057142D01*
X141019285Y-97128571D01*
X140733571Y-97128571D01*
X140590714Y-97057142D01*
X140519285Y-96985714D01*
X140447857Y-96842857D01*
X140447857Y-95628571D01*
X151590714Y-98178571D02*
X150662142Y-98178571D01*
X151162142Y-98750000D01*
X150947857Y-98750000D01*
X150805000Y-98821428D01*
X150733571Y-98892857D01*
X150662142Y-99035714D01*
X150662142Y-99392857D01*
X150733571Y-99535714D01*
X150805000Y-99607142D01*
X150947857Y-99678571D01*
X151376428Y-99678571D01*
X151519285Y-99607142D01*
X151590714Y-99535714D01*
X150019285Y-99535714D02*
X149947857Y-99607142D01*
X150019285Y-99678571D01*
X150090714Y-99607142D01*
X150019285Y-99535714D01*
X150019285Y-99678571D01*
X150019285Y-98750000D02*
X149947857Y-98821428D01*
X150019285Y-98892857D01*
X150090714Y-98821428D01*
X150019285Y-98750000D01*
X150019285Y-98892857D01*
X148233571Y-99607142D02*
X148019285Y-99678571D01*
X147662142Y-99678571D01*
X147519285Y-99607142D01*
X147447857Y-99535714D01*
X147376428Y-99392857D01*
X147376428Y-99250000D01*
X147447857Y-99107142D01*
X147519285Y-99035714D01*
X147662142Y-98964285D01*
X147947857Y-98892857D01*
X148090714Y-98821428D01*
X148162142Y-98750000D01*
X148233571Y-98607142D01*
X148233571Y-98464285D01*
X148162142Y-98321428D01*
X148090714Y-98250000D01*
X147947857Y-98178571D01*
X147590714Y-98178571D01*
X147376428Y-98250000D01*
X145876428Y-99535714D02*
X145947857Y-99607142D01*
X146162142Y-99678571D01*
X146305000Y-99678571D01*
X146519285Y-99607142D01*
X146662142Y-99464285D01*
X146733571Y-99321428D01*
X146805000Y-99035714D01*
X146805000Y-98821428D01*
X146733571Y-98535714D01*
X146662142Y-98392857D01*
X146519285Y-98250000D01*
X146305000Y-98178571D01*
X146162142Y-98178571D01*
X145947857Y-98250000D01*
X145876428Y-98321428D01*
X144519285Y-99678571D02*
X145233571Y-99678571D01*
X145233571Y-98178571D01*
X142876428Y-99678571D02*
X142876428Y-98178571D01*
X142305000Y-98178571D01*
X142162142Y-98250000D01*
X142090714Y-98321428D01*
X142019285Y-98464285D01*
X142019285Y-98678571D01*
X142090714Y-98821428D01*
X142162142Y-98892857D01*
X142305000Y-98964285D01*
X142876428Y-98964285D01*
X141376428Y-98178571D02*
X141376428Y-99392857D01*
X141305000Y-99535714D01*
X141233571Y-99607142D01*
X141090714Y-99678571D01*
X140805000Y-99678571D01*
X140662142Y-99607142D01*
X140590714Y-99535714D01*
X140519285Y-99392857D01*
X140519285Y-98178571D01*
X150805000Y-101228571D02*
X150805000Y-102228571D01*
X151162142Y-100657142D02*
X151519285Y-101728571D01*
X150590714Y-101728571D01*
X150019285Y-102085714D02*
X149947857Y-102157142D01*
X150019285Y-102228571D01*
X150090714Y-102157142D01*
X150019285Y-102085714D01*
X150019285Y-102228571D01*
X150019285Y-101300000D02*
X149947857Y-101371428D01*
X150019285Y-101442857D01*
X150090714Y-101371428D01*
X150019285Y-101300000D01*
X150019285Y-101442857D01*
X148233571Y-101800000D02*
X147519285Y-101800000D01*
X148376428Y-102228571D02*
X147876428Y-100728571D01*
X147376428Y-102228571D01*
X146947857Y-100871428D02*
X146876428Y-100800000D01*
X146733571Y-100728571D01*
X146376428Y-100728571D01*
X146233571Y-100800000D01*
X146162142Y-100871428D01*
X146090714Y-101014285D01*
X146090714Y-101157142D01*
X146162142Y-101371428D01*
X147019285Y-102228571D01*
X146090714Y-102228571D01*
X150733571Y-103278571D02*
X151447857Y-103278571D01*
X151519285Y-103992857D01*
X151447857Y-103921428D01*
X151305000Y-103850000D01*
X150947857Y-103850000D01*
X150805000Y-103921428D01*
X150733571Y-103992857D01*
X150662142Y-104135714D01*
X150662142Y-104492857D01*
X150733571Y-104635714D01*
X150805000Y-104707142D01*
X150947857Y-104778571D01*
X151305000Y-104778571D01*
X151447857Y-104707142D01*
X151519285Y-104635714D01*
X150019285Y-104635714D02*
X149947857Y-104707142D01*
X150019285Y-104778571D01*
X150090714Y-104707142D01*
X150019285Y-104635714D01*
X150019285Y-104778571D01*
X150019285Y-103850000D02*
X149947857Y-103921428D01*
X150019285Y-103992857D01*
X150090714Y-103921428D01*
X150019285Y-103850000D01*
X150019285Y-103992857D01*
X148233571Y-104350000D02*
X147519285Y-104350000D01*
X148376428Y-104778571D02*
X147876428Y-103278571D01*
X147376428Y-104778571D01*
X146090714Y-104778571D02*
X146947857Y-104778571D01*
X146519285Y-104778571D02*
X146519285Y-103278571D01*
X146662142Y-103492857D01*
X146805000Y-103635714D01*
X146947857Y-103707142D01*
X150805000Y-105828571D02*
X151090714Y-105828571D01*
X151233571Y-105900000D01*
X151305000Y-105971428D01*
X151447857Y-106185714D01*
X151519285Y-106471428D01*
X151519285Y-107042857D01*
X151447857Y-107185714D01*
X151376428Y-107257142D01*
X151233571Y-107328571D01*
X150947857Y-107328571D01*
X150805000Y-107257142D01*
X150733571Y-107185714D01*
X150662142Y-107042857D01*
X150662142Y-106685714D01*
X150733571Y-106542857D01*
X150805000Y-106471428D01*
X150947857Y-106400000D01*
X151233571Y-106400000D01*
X151376428Y-106471428D01*
X151447857Y-106542857D01*
X151519285Y-106685714D01*
X150019285Y-107185714D02*
X149947857Y-107257142D01*
X150019285Y-107328571D01*
X150090714Y-107257142D01*
X150019285Y-107185714D01*
X150019285Y-107328571D01*
X150019285Y-106400000D02*
X149947857Y-106471428D01*
X150019285Y-106542857D01*
X150090714Y-106471428D01*
X150019285Y-106400000D01*
X150019285Y-106542857D01*
X148233571Y-106900000D02*
X147519285Y-106900000D01*
X148376428Y-107328571D02*
X147876428Y-105828571D01*
X147376428Y-107328571D01*
X146590714Y-105828571D02*
X146447857Y-105828571D01*
X146305000Y-105900000D01*
X146233571Y-105971428D01*
X146162142Y-106114285D01*
X146090714Y-106400000D01*
X146090714Y-106757142D01*
X146162142Y-107042857D01*
X146233571Y-107185714D01*
X146305000Y-107257142D01*
X146447857Y-107328571D01*
X146590714Y-107328571D01*
X146733571Y-107257142D01*
X146805000Y-107185714D01*
X146876428Y-107042857D01*
X146947857Y-106757142D01*
X146947857Y-106400000D01*
X146876428Y-106114285D01*
X146805000Y-105971428D01*
X146733571Y-105900000D01*
X146590714Y-105828571D01*
D11*
X144228571Y-103492857D02*
X143485714Y-103492857D01*
X143885714Y-103950000D01*
X143714285Y-103950000D01*
X143600000Y-104007142D01*
X143542857Y-104064285D01*
X143485714Y-104178571D01*
X143485714Y-104464285D01*
X143542857Y-104578571D01*
X143600000Y-104635714D01*
X143714285Y-104692857D01*
X144057142Y-104692857D01*
X144171428Y-104635714D01*
X144228571Y-104578571D01*
X143142857Y-103492857D02*
X142742857Y-104692857D01*
X142342857Y-103492857D01*
X141028571Y-104692857D02*
X141028571Y-103492857D01*
X140514285Y-103607142D02*
X140457142Y-103550000D01*
X140342857Y-103492857D01*
X140057142Y-103492857D01*
X139942857Y-103550000D01*
X139885714Y-103607142D01*
X139828571Y-103721428D01*
X139828571Y-103835714D01*
X139885714Y-104007142D01*
X140571428Y-104692857D01*
X139828571Y-104692857D01*
X138628571Y-104578571D02*
X138685714Y-104635714D01*
X138857142Y-104692857D01*
X138971428Y-104692857D01*
X139142857Y-104635714D01*
X139257142Y-104521428D01*
X139314285Y-104407142D01*
X139371428Y-104178571D01*
X139371428Y-104007142D01*
X139314285Y-103778571D01*
X139257142Y-103664285D01*
X139142857Y-103550000D01*
X138971428Y-103492857D01*
X138857142Y-103492857D01*
X138685714Y-103550000D01*
X138628571Y-103607142D01*
X142600000Y-105550000D02*
X142714285Y-105492857D01*
X142885714Y-105492857D01*
X143057142Y-105550000D01*
X143171428Y-105664285D01*
X143228571Y-105778571D01*
X143285714Y-106007142D01*
X143285714Y-106178571D01*
X143228571Y-106407142D01*
X143171428Y-106521428D01*
X143057142Y-106635714D01*
X142885714Y-106692857D01*
X142771428Y-106692857D01*
X142600000Y-106635714D01*
X142542857Y-106578571D01*
X142542857Y-106178571D01*
X142771428Y-106178571D01*
X142028571Y-106692857D02*
X142028571Y-105492857D01*
X141571428Y-105492857D01*
X141457142Y-105550000D01*
X141400000Y-105607142D01*
X141342857Y-105721428D01*
X141342857Y-105892857D01*
X141400000Y-106007142D01*
X141457142Y-106064285D01*
X141571428Y-106121428D01*
X142028571Y-106121428D01*
X140828571Y-106692857D02*
X140828571Y-105492857D01*
X140028571Y-105492857D02*
X139800000Y-105492857D01*
X139685714Y-105550000D01*
X139571428Y-105664285D01*
X139514285Y-105892857D01*
X139514285Y-106292857D01*
X139571428Y-106521428D01*
X139685714Y-106635714D01*
X139800000Y-106692857D01*
X140028571Y-106692857D01*
X140142857Y-106635714D01*
X140257142Y-106521428D01*
X140314285Y-106292857D01*
X140314285Y-105892857D01*
X140257142Y-105664285D01*
X140142857Y-105550000D01*
X140028571Y-105492857D01*
X145200000Y-108064285D02*
X144800000Y-108064285D01*
X144628571Y-108692857D02*
X145200000Y-108692857D01*
X145200000Y-107492857D01*
X144628571Y-107492857D01*
X144228571Y-108692857D02*
X143600000Y-107892857D01*
X144228571Y-107892857D02*
X143600000Y-108692857D01*
X143142857Y-107892857D02*
X143142857Y-109092857D01*
X143142857Y-107950000D02*
X143028571Y-107892857D01*
X142800000Y-107892857D01*
X142685714Y-107950000D01*
X142628571Y-108007142D01*
X142571428Y-108121428D01*
X142571428Y-108464285D01*
X142628571Y-108578571D01*
X142685714Y-108635714D01*
X142800000Y-108692857D01*
X143028571Y-108692857D01*
X143142857Y-108635714D01*
X141542857Y-108692857D02*
X141542857Y-108064285D01*
X141600000Y-107950000D01*
X141714285Y-107892857D01*
X141942857Y-107892857D01*
X142057142Y-107950000D01*
X141542857Y-108635714D02*
X141657142Y-108692857D01*
X141942857Y-108692857D01*
X142057142Y-108635714D01*
X142114285Y-108521428D01*
X142114285Y-108407142D01*
X142057142Y-108292857D01*
X141942857Y-108235714D01*
X141657142Y-108235714D01*
X141542857Y-108178571D01*
X140971428Y-107892857D02*
X140971428Y-108692857D01*
X140971428Y-108007142D02*
X140914285Y-107950000D01*
X140800000Y-107892857D01*
X140628571Y-107892857D01*
X140514285Y-107950000D01*
X140457142Y-108064285D01*
X140457142Y-108692857D01*
X139371428Y-108692857D02*
X139371428Y-107492857D01*
X139371428Y-108635714D02*
X139485714Y-108692857D01*
X139714285Y-108692857D01*
X139828571Y-108635714D01*
X139885714Y-108578571D01*
X139942857Y-108464285D01*
X139942857Y-108121428D01*
X139885714Y-108007142D01*
X139828571Y-107950000D01*
X139714285Y-107892857D01*
X139485714Y-107892857D01*
X139371428Y-107950000D01*
X138342857Y-108635714D02*
X138457142Y-108692857D01*
X138685714Y-108692857D01*
X138800000Y-108635714D01*
X138857142Y-108521428D01*
X138857142Y-108064285D01*
X138800000Y-107950000D01*
X138685714Y-107892857D01*
X138457142Y-107892857D01*
X138342857Y-107950000D01*
X138285714Y-108064285D01*
X138285714Y-108178571D01*
X138857142Y-108292857D01*
X137771428Y-108692857D02*
X137771428Y-107892857D01*
X137771428Y-108121428D02*
X137714285Y-108007142D01*
X137657142Y-107950000D01*
X137542857Y-107892857D01*
X137428571Y-107892857D01*
D12*
G04 #@! TO.C,J1*
X131810000Y-86520000D02*
X131810000Y-112040000D01*
X131810000Y-112040000D02*
X129150000Y-112040000D01*
X129150000Y-112040000D02*
X129150000Y-86520000D01*
X129150000Y-86520000D02*
X131810000Y-86520000D01*
X129150000Y-87470000D02*
X123150000Y-87470000D01*
X123150000Y-87470000D02*
X123150000Y-88230000D01*
X123150000Y-88230000D02*
X129150000Y-88230000D01*
X129150000Y-87530000D02*
X123150000Y-87530000D01*
X129150000Y-87650000D02*
X123150000Y-87650000D01*
X129150000Y-87770000D02*
X123150000Y-87770000D01*
X129150000Y-87890000D02*
X123150000Y-87890000D01*
X129150000Y-88010000D02*
X123150000Y-88010000D01*
X129150000Y-88130000D02*
X123150000Y-88130000D01*
X132140000Y-87470000D02*
X131810000Y-87470000D01*
X132140000Y-88230000D02*
X131810000Y-88230000D01*
X131810000Y-89120000D02*
X129150000Y-89120000D01*
X129150000Y-90010000D02*
X123150000Y-90010000D01*
X123150000Y-90010000D02*
X123150000Y-90770000D01*
X123150000Y-90770000D02*
X129150000Y-90770000D01*
X132207071Y-90010000D02*
X131810000Y-90010000D01*
X132207071Y-90770000D02*
X131810000Y-90770000D01*
X131810000Y-91660000D02*
X129150000Y-91660000D01*
X129150000Y-92550000D02*
X123150000Y-92550000D01*
X123150000Y-92550000D02*
X123150000Y-93310000D01*
X123150000Y-93310000D02*
X129150000Y-93310000D01*
X132207071Y-92550000D02*
X131810000Y-92550000D01*
X132207071Y-93310000D02*
X131810000Y-93310000D01*
X131810000Y-94200000D02*
X129150000Y-94200000D01*
X129150000Y-95090000D02*
X123150000Y-95090000D01*
X123150000Y-95090000D02*
X123150000Y-95850000D01*
X123150000Y-95850000D02*
X129150000Y-95850000D01*
X132207071Y-95090000D02*
X131810000Y-95090000D01*
X132207071Y-95850000D02*
X131810000Y-95850000D01*
X131810000Y-96740000D02*
X129150000Y-96740000D01*
X129150000Y-97630000D02*
X123150000Y-97630000D01*
X123150000Y-97630000D02*
X123150000Y-98390000D01*
X123150000Y-98390000D02*
X129150000Y-98390000D01*
X132207071Y-97630000D02*
X131810000Y-97630000D01*
X132207071Y-98390000D02*
X131810000Y-98390000D01*
X131810000Y-99280000D02*
X129150000Y-99280000D01*
X129150000Y-100170000D02*
X123150000Y-100170000D01*
X123150000Y-100170000D02*
X123150000Y-100930000D01*
X123150000Y-100930000D02*
X129150000Y-100930000D01*
X132207071Y-100170000D02*
X131810000Y-100170000D01*
X132207071Y-100930000D02*
X131810000Y-100930000D01*
X131810000Y-101820000D02*
X129150000Y-101820000D01*
X129150000Y-102710000D02*
X123150000Y-102710000D01*
X123150000Y-102710000D02*
X123150000Y-103470000D01*
X123150000Y-103470000D02*
X129150000Y-103470000D01*
X132207071Y-102710000D02*
X131810000Y-102710000D01*
X132207071Y-103470000D02*
X131810000Y-103470000D01*
X131810000Y-104360000D02*
X129150000Y-104360000D01*
X129150000Y-105250000D02*
X123150000Y-105250000D01*
X123150000Y-105250000D02*
X123150000Y-106010000D01*
X123150000Y-106010000D02*
X129150000Y-106010000D01*
X132207071Y-105250000D02*
X131810000Y-105250000D01*
X132207071Y-106010000D02*
X131810000Y-106010000D01*
X131810000Y-106900000D02*
X129150000Y-106900000D01*
X129150000Y-107790000D02*
X123150000Y-107790000D01*
X123150000Y-107790000D02*
X123150000Y-108550000D01*
X123150000Y-108550000D02*
X129150000Y-108550000D01*
X132207071Y-107790000D02*
X131810000Y-107790000D01*
X132207071Y-108550000D02*
X131810000Y-108550000D01*
X131810000Y-109440000D02*
X129150000Y-109440000D01*
X129150000Y-110330000D02*
X123150000Y-110330000D01*
X123150000Y-110330000D02*
X123150000Y-111090000D01*
X123150000Y-111090000D02*
X129150000Y-111090000D01*
X132207071Y-110330000D02*
X131810000Y-110330000D01*
X132207071Y-111090000D02*
X131810000Y-111090000D01*
X134520000Y-87850000D02*
X134520000Y-86580000D01*
X134520000Y-86580000D02*
X133250000Y-86580000D01*
G04 #@! TO.C,J2*
X151930000Y-108070000D02*
X153200000Y-108070000D01*
X151930000Y-106800000D02*
X151930000Y-108070000D01*
X154242929Y-91180000D02*
X154697071Y-91180000D01*
X154242929Y-91940000D02*
X154697071Y-91940000D01*
X156782929Y-91180000D02*
X157180000Y-91180000D01*
X156782929Y-91940000D02*
X157180000Y-91940000D01*
X165840000Y-91180000D02*
X159840000Y-91180000D01*
X165840000Y-91940000D02*
X165840000Y-91180000D01*
X159840000Y-91940000D02*
X165840000Y-91940000D01*
X157180000Y-92830000D02*
X159840000Y-92830000D01*
X154242929Y-93720000D02*
X154697071Y-93720000D01*
X154242929Y-94480000D02*
X154697071Y-94480000D01*
X156782929Y-93720000D02*
X157180000Y-93720000D01*
X156782929Y-94480000D02*
X157180000Y-94480000D01*
X165840000Y-93720000D02*
X159840000Y-93720000D01*
X165840000Y-94480000D02*
X165840000Y-93720000D01*
X159840000Y-94480000D02*
X165840000Y-94480000D01*
X157180000Y-95370000D02*
X159840000Y-95370000D01*
X154242929Y-96260000D02*
X154697071Y-96260000D01*
X154242929Y-97020000D02*
X154697071Y-97020000D01*
X156782929Y-96260000D02*
X157180000Y-96260000D01*
X156782929Y-97020000D02*
X157180000Y-97020000D01*
X165840000Y-96260000D02*
X159840000Y-96260000D01*
X165840000Y-97020000D02*
X165840000Y-96260000D01*
X159840000Y-97020000D02*
X165840000Y-97020000D01*
X157180000Y-97910000D02*
X159840000Y-97910000D01*
X154242929Y-98800000D02*
X154697071Y-98800000D01*
X154242929Y-99560000D02*
X154697071Y-99560000D01*
X156782929Y-98800000D02*
X157180000Y-98800000D01*
X156782929Y-99560000D02*
X157180000Y-99560000D01*
X165840000Y-98800000D02*
X159840000Y-98800000D01*
X165840000Y-99560000D02*
X165840000Y-98800000D01*
X159840000Y-99560000D02*
X165840000Y-99560000D01*
X157180000Y-100450000D02*
X159840000Y-100450000D01*
X154242929Y-101340000D02*
X154697071Y-101340000D01*
X154242929Y-102100000D02*
X154697071Y-102100000D01*
X156782929Y-101340000D02*
X157180000Y-101340000D01*
X156782929Y-102100000D02*
X157180000Y-102100000D01*
X165840000Y-101340000D02*
X159840000Y-101340000D01*
X165840000Y-102100000D02*
X165840000Y-101340000D01*
X159840000Y-102100000D02*
X165840000Y-102100000D01*
X157180000Y-102990000D02*
X159840000Y-102990000D01*
X154242929Y-103880000D02*
X154697071Y-103880000D01*
X154242929Y-104640000D02*
X154697071Y-104640000D01*
X156782929Y-103880000D02*
X157180000Y-103880000D01*
X156782929Y-104640000D02*
X157180000Y-104640000D01*
X165840000Y-103880000D02*
X159840000Y-103880000D01*
X165840000Y-104640000D02*
X165840000Y-103880000D01*
X159840000Y-104640000D02*
X165840000Y-104640000D01*
X157180000Y-105530000D02*
X159840000Y-105530000D01*
X154310000Y-106420000D02*
X154697071Y-106420000D01*
X154310000Y-107180000D02*
X154697071Y-107180000D01*
X156782929Y-106420000D02*
X157180000Y-106420000D01*
X156782929Y-107180000D02*
X157180000Y-107180000D01*
X159840000Y-106520000D02*
X165840000Y-106520000D01*
X159840000Y-106640000D02*
X165840000Y-106640000D01*
X159840000Y-106760000D02*
X165840000Y-106760000D01*
X159840000Y-106880000D02*
X165840000Y-106880000D01*
X159840000Y-107000000D02*
X165840000Y-107000000D01*
X159840000Y-107120000D02*
X165840000Y-107120000D01*
X165840000Y-106420000D02*
X159840000Y-106420000D01*
X165840000Y-107180000D02*
X165840000Y-106420000D01*
X159840000Y-107180000D02*
X165840000Y-107180000D01*
X159840000Y-108130000D02*
X157180000Y-108130000D01*
X159840000Y-90230000D02*
X159840000Y-108130000D01*
X157180000Y-90230000D02*
X159840000Y-90230000D01*
X157180000Y-108130000D02*
X157180000Y-90230000D01*
G04 #@! TO.C,J3*
X147870000Y-92670000D02*
X147870000Y-91400000D01*
X146600000Y-92670000D02*
X147870000Y-92670000D01*
X138600000Y-90357071D02*
X138600000Y-89902929D01*
X139360000Y-90357071D02*
X139360000Y-89902929D01*
X138600000Y-87817071D02*
X138600000Y-87420000D01*
X139360000Y-87817071D02*
X139360000Y-87420000D01*
X138600000Y-78760000D02*
X138600000Y-84760000D01*
X139360000Y-78760000D02*
X138600000Y-78760000D01*
X139360000Y-84760000D02*
X139360000Y-78760000D01*
X140250000Y-87420000D02*
X140250000Y-84760000D01*
X141140000Y-90357071D02*
X141140000Y-89902929D01*
X141900000Y-90357071D02*
X141900000Y-89902929D01*
X141140000Y-87817071D02*
X141140000Y-87420000D01*
X141900000Y-87817071D02*
X141900000Y-87420000D01*
X141140000Y-78760000D02*
X141140000Y-84760000D01*
X141900000Y-78760000D02*
X141140000Y-78760000D01*
X141900000Y-84760000D02*
X141900000Y-78760000D01*
X142790000Y-87420000D02*
X142790000Y-84760000D01*
X143680000Y-90357071D02*
X143680000Y-89902929D01*
X144440000Y-90357071D02*
X144440000Y-89902929D01*
X143680000Y-87817071D02*
X143680000Y-87420000D01*
X144440000Y-87817071D02*
X144440000Y-87420000D01*
X143680000Y-78760000D02*
X143680000Y-84760000D01*
X144440000Y-78760000D02*
X143680000Y-78760000D01*
X144440000Y-84760000D02*
X144440000Y-78760000D01*
X145330000Y-87420000D02*
X145330000Y-84760000D01*
X146220000Y-90290000D02*
X146220000Y-89902929D01*
X146980000Y-90290000D02*
X146980000Y-89902929D01*
X146220000Y-87817071D02*
X146220000Y-87420000D01*
X146980000Y-87817071D02*
X146980000Y-87420000D01*
X146320000Y-84760000D02*
X146320000Y-78760000D01*
X146440000Y-84760000D02*
X146440000Y-78760000D01*
X146560000Y-84760000D02*
X146560000Y-78760000D01*
X146680000Y-84760000D02*
X146680000Y-78760000D01*
X146800000Y-84760000D02*
X146800000Y-78760000D01*
X146920000Y-84760000D02*
X146920000Y-78760000D01*
X146220000Y-78760000D02*
X146220000Y-84760000D01*
X146980000Y-78760000D02*
X146220000Y-78760000D01*
X146980000Y-84760000D02*
X146980000Y-78760000D01*
X147930000Y-84760000D02*
X147930000Y-87420000D01*
X137650000Y-84760000D02*
X147930000Y-84760000D01*
X137650000Y-87420000D02*
X137650000Y-84760000D01*
X147930000Y-87420000D02*
X137650000Y-87420000D01*
G04 #@! TO.C,J1*
D13*
X133933333Y-85402380D02*
X133933333Y-86116666D01*
X133980952Y-86259523D01*
X134076190Y-86354761D01*
X134219047Y-86402380D01*
X134314285Y-86402380D01*
X132933333Y-86402380D02*
X133504761Y-86402380D01*
X133219047Y-86402380D02*
X133219047Y-85402380D01*
X133314285Y-85545238D01*
X133409523Y-85640476D01*
X133504761Y-85688095D01*
G04 #@! TO.C,J2*
X153533333Y-108552380D02*
X153533333Y-109266666D01*
X153580952Y-109409523D01*
X153676190Y-109504761D01*
X153819047Y-109552380D01*
X153914285Y-109552380D01*
X153104761Y-108647619D02*
X153057142Y-108600000D01*
X152961904Y-108552380D01*
X152723809Y-108552380D01*
X152628571Y-108600000D01*
X152580952Y-108647619D01*
X152533333Y-108742857D01*
X152533333Y-108838095D01*
X152580952Y-108980952D01*
X153152380Y-109552380D01*
X152533333Y-109552380D01*
G04 #@! TO.C,J3*
X149433333Y-87952380D02*
X149433333Y-88666666D01*
X149480952Y-88809523D01*
X149576190Y-88904761D01*
X149719047Y-88952380D01*
X149814285Y-88952380D01*
X149052380Y-87952380D02*
X148433333Y-87952380D01*
X148766666Y-88333333D01*
X148623809Y-88333333D01*
X148528571Y-88380952D01*
X148480952Y-88428571D01*
X148433333Y-88523809D01*
X148433333Y-88761904D01*
X148480952Y-88857142D01*
X148528571Y-88904761D01*
X148623809Y-88952380D01*
X148909523Y-88952380D01*
X149004761Y-88904761D01*
X149052380Y-88857142D01*
G04 #@! TD*
M02*
