G04 #@! TF.GenerationSoftware,KiCad,Pcbnew,5.0.0-5.0.0*
G04 #@! TF.CreationDate,2018-10-02T18:17:12-07:00*
G04 #@! TF.ProjectId,gpio-expander,6770696F2D657870616E6465722E6B69,rev?*
G04 #@! TF.SameCoordinates,Original*
G04 #@! TF.FileFunction,Copper,L2,Bot,Signal*
G04 #@! TF.FilePolarity,Positive*
%FSLAX46Y46*%
G04 Gerber Fmt 4.6, Leading zero omitted, Abs format (unit mm)*
G04 Created by KiCad (PCBNEW 5.0.0-5.0.0) date Tue Oct  2 18:17:12 2018*
%MOMM*%
%LPD*%
G01*
G04 APERTURE LIST*
G04 #@! TA.AperFunction,ComponentPad*
%ADD10R,1.700000X1.700000*%
G04 #@! TD*
G04 #@! TA.AperFunction,ComponentPad*
%ADD11O,1.700000X1.700000*%
G04 #@! TD*
G04 #@! TA.AperFunction,BGAPad,CuDef*
%ADD12C,1.000000*%
G04 #@! TD*
G04 #@! TA.AperFunction,ViaPad*
%ADD13C,0.800000*%
G04 #@! TD*
G04 #@! TA.AperFunction,Conductor*
%ADD14C,0.500000*%
G04 #@! TD*
G04 #@! TA.AperFunction,Conductor*
%ADD15C,0.250000*%
G04 #@! TD*
G04 #@! TA.AperFunction,Conductor*
%ADD16C,0.254000*%
G04 #@! TD*
G04 APERTURE END LIST*
D10*
G04 #@! TO.P,J1,1*
G04 #@! TO.N,GND*
X133250000Y-87850000D03*
D11*
G04 #@! TO.P,J1,2*
G04 #@! TO.N,/~INT*
X133250000Y-90390000D03*
G04 #@! TO.P,J1,3*
G04 #@! TO.N,/SCL*
X133250000Y-92930000D03*
G04 #@! TO.P,J1,4*
G04 #@! TO.N,/SDA*
X133250000Y-95470000D03*
G04 #@! TO.P,J1,5*
G04 #@! TO.N,+3V3*
X133250000Y-98010000D03*
G04 #@! TO.P,J1,6*
G04 #@! TO.N,GND*
X133250000Y-100550000D03*
G04 #@! TO.P,J1,7*
G04 #@! TO.N,/~INT*
X133250000Y-103090000D03*
G04 #@! TO.P,J1,8*
G04 #@! TO.N,/SCL*
X133250000Y-105630000D03*
G04 #@! TO.P,J1,9*
G04 #@! TO.N,/SDA*
X133250000Y-108170000D03*
G04 #@! TO.P,J1,10*
G04 #@! TO.N,+3V3*
X133250000Y-110710000D03*
G04 #@! TD*
D12*
G04 #@! TO.P,FID3,~*
G04 #@! TO.N,N/C*
X136800000Y-106500000D03*
G04 #@! TD*
G04 #@! TO.P,FID2,~*
G04 #@! TO.N,N/C*
X152650000Y-88150000D03*
G04 #@! TD*
D11*
G04 #@! TO.P,J2,14*
G04 #@! TO.N,GND*
X155740000Y-91560000D03*
G04 #@! TO.P,J2,13*
X153200000Y-91560000D03*
G04 #@! TO.P,J2,12*
G04 #@! TO.N,/P11*
X155740000Y-94100000D03*
G04 #@! TO.P,J2,11*
G04 #@! TO.N,/P10*
X153200000Y-94100000D03*
G04 #@! TO.P,J2,10*
G04 #@! TO.N,/P07*
X155740000Y-96640000D03*
G04 #@! TO.P,J2,9*
G04 #@! TO.N,/P06*
X153200000Y-96640000D03*
G04 #@! TO.P,J2,8*
G04 #@! TO.N,/P05*
X155740000Y-99180000D03*
G04 #@! TO.P,J2,7*
G04 #@! TO.N,/P04*
X153200000Y-99180000D03*
G04 #@! TO.P,J2,6*
G04 #@! TO.N,/P03*
X155740000Y-101720000D03*
G04 #@! TO.P,J2,5*
G04 #@! TO.N,/P02*
X153200000Y-101720000D03*
G04 #@! TO.P,J2,4*
G04 #@! TO.N,/P01*
X155740000Y-104260000D03*
G04 #@! TO.P,J2,3*
G04 #@! TO.N,/P00*
X153200000Y-104260000D03*
G04 #@! TO.P,J2,2*
G04 #@! TO.N,GND*
X155740000Y-106800000D03*
D10*
G04 #@! TO.P,J2,1*
G04 #@! TO.N,+3V3*
X153200000Y-106800000D03*
G04 #@! TD*
D11*
G04 #@! TO.P,J3,8*
G04 #@! TO.N,/P17*
X138980000Y-88860000D03*
G04 #@! TO.P,J3,7*
G04 #@! TO.N,/P16*
X138980000Y-91400000D03*
G04 #@! TO.P,J3,6*
G04 #@! TO.N,/P15*
X141520000Y-88860000D03*
G04 #@! TO.P,J3,5*
G04 #@! TO.N,/P14*
X141520000Y-91400000D03*
G04 #@! TO.P,J3,4*
G04 #@! TO.N,/P13*
X144060000Y-88860000D03*
G04 #@! TO.P,J3,3*
G04 #@! TO.N,/P12*
X144060000Y-91400000D03*
G04 #@! TO.P,J3,2*
G04 #@! TO.N,GND*
X146600000Y-88860000D03*
D10*
G04 #@! TO.P,J3,1*
G04 #@! TO.N,+3V3*
X146600000Y-91400000D03*
G04 #@! TD*
D13*
G04 #@! TO.N,GND*
X147100000Y-95600002D03*
X141000002Y-110599998D03*
X138300000Y-103400000D03*
G04 #@! TO.N,/~INT*
X144700000Y-99750000D03*
G04 #@! TO.N,/SCL*
X135500000Y-98924990D03*
G04 #@! TO.N,/A1*
X150299998Y-102900000D03*
X149699990Y-104700000D03*
G04 #@! TO.N,/A0*
X148012340Y-103712340D03*
X149000000Y-107400002D03*
G04 #@! TO.N,/SCL_PU*
X137644870Y-97267061D03*
X144265500Y-105016567D03*
G04 #@! TO.N,/~INT_PU*
X143000000Y-105000014D03*
X136675010Y-97510773D03*
G04 #@! TO.N,/SDA_PU*
X138644673Y-97287545D03*
X144499998Y-103900000D03*
G04 #@! TD*
D14*
G04 #@! TO.N,GND*
X147800000Y-98400000D02*
X147800000Y-97600000D01*
X147800000Y-98400000D02*
X148800000Y-98400000D01*
D15*
G04 #@! TO.N,/~INT*
X135610000Y-92750000D02*
X135110000Y-92250000D01*
X135110000Y-92250000D02*
X133250000Y-90390000D01*
X135950000Y-93090000D02*
X135110000Y-92250000D01*
X135950000Y-96200000D02*
X135950000Y-93090000D01*
X135950000Y-96350000D02*
X135950000Y-94850000D01*
X144300001Y-99350001D02*
X144700000Y-99750000D01*
X141300000Y-96350000D02*
X144300001Y-99350001D01*
X135950000Y-96350000D02*
X141300000Y-96350000D01*
X136225002Y-98351998D02*
X135950000Y-98076996D01*
X135950000Y-98076996D02*
X135950000Y-96350000D01*
X135825002Y-99650000D02*
X136225002Y-99250000D01*
X134650000Y-99250000D02*
X135050000Y-99650000D01*
X136225002Y-99250000D02*
X136225002Y-98351998D01*
X135050000Y-99650000D02*
X135825002Y-99650000D01*
X133250000Y-103090000D02*
X131850000Y-101690000D01*
X131850000Y-99900000D02*
X132500000Y-99250000D01*
X131850000Y-101690000D02*
X131850000Y-99900000D01*
X132500000Y-99250000D02*
X134650000Y-99250000D01*
G04 #@! TO.N,/SDA*
X133250000Y-108170000D02*
X131399989Y-106319989D01*
X132400001Y-96319999D02*
X133250000Y-95470000D01*
X131399989Y-97320011D02*
X132400001Y-96319999D01*
X131399989Y-106319989D02*
X131399989Y-97320011D01*
G04 #@! TO.N,/SCL*
X135500000Y-98359305D02*
X135500000Y-98924990D01*
X135500000Y-95180000D02*
X135500000Y-98359305D01*
X133250000Y-92930000D02*
X135500000Y-95180000D01*
G04 #@! TO.N,/A1*
X150299998Y-102900000D02*
X150299998Y-104099992D01*
X150299998Y-104099992D02*
X149699990Y-104700000D01*
G04 #@! TO.N,/A0*
X148012340Y-106412342D02*
X149000000Y-107400002D01*
X148012340Y-103712340D02*
X148012340Y-106412342D01*
G04 #@! TO.N,/SCL_PU*
X143450011Y-103563600D02*
X143450011Y-104201078D01*
X137644870Y-97758460D02*
X143450011Y-103563600D01*
X143865501Y-104616568D02*
X144265500Y-105016567D01*
X137644870Y-97267061D02*
X137644870Y-97758460D01*
X143450011Y-104201078D02*
X143865501Y-104616568D01*
G04 #@! TO.N,/~INT_PU*
X136760773Y-97510773D02*
X136675010Y-97510773D01*
X143000000Y-103750000D02*
X136760773Y-97510773D01*
X143000000Y-105000014D02*
X143000000Y-103750000D01*
G04 #@! TO.N,/SDA_PU*
X138644673Y-97287545D02*
X138644673Y-98044673D01*
X144499998Y-103899998D02*
X144499998Y-103900000D01*
X138644673Y-98044673D02*
X144499998Y-103899998D01*
G04 #@! TD*
D16*
G04 #@! TO.N,GND*
G36*
X155559192Y-85380578D02*
X156294389Y-85581705D01*
X156496671Y-85678189D01*
X156450166Y-85687439D01*
X156107118Y-85829534D01*
X155798382Y-86035825D01*
X155535825Y-86298382D01*
X155329534Y-86607118D01*
X155187439Y-86950166D01*
X155115000Y-87314344D01*
X155115000Y-87685656D01*
X155187439Y-88049834D01*
X155329534Y-88392882D01*
X155535825Y-88701618D01*
X155798382Y-88964175D01*
X156107118Y-89170466D01*
X156450166Y-89312561D01*
X156814344Y-89385000D01*
X157185656Y-89385000D01*
X157549834Y-89312561D01*
X157892882Y-89170466D01*
X158201618Y-88964175D01*
X158464175Y-88701618D01*
X158670466Y-88392882D01*
X158798228Y-88084436D01*
X158863251Y-88232561D01*
X159042499Y-88979183D01*
X159090001Y-89626044D01*
X159090000Y-108968382D01*
X159019422Y-109759193D01*
X158820068Y-110487907D01*
X158812561Y-110450166D01*
X158670466Y-110107118D01*
X158464175Y-109798382D01*
X158201618Y-109535825D01*
X157892882Y-109329534D01*
X157549834Y-109187439D01*
X157185656Y-109115000D01*
X156814344Y-109115000D01*
X156450166Y-109187439D01*
X156107118Y-109329534D01*
X155798382Y-109535825D01*
X155535825Y-109798382D01*
X155329534Y-110107118D01*
X155187439Y-110450166D01*
X155115000Y-110814344D01*
X155115000Y-111185656D01*
X155187439Y-111549834D01*
X155329534Y-111892882D01*
X155535825Y-112201618D01*
X155798382Y-112464175D01*
X156107118Y-112670466D01*
X156450166Y-112812561D01*
X156648605Y-112852033D01*
X156167439Y-113063251D01*
X155420819Y-113242499D01*
X154773970Y-113290000D01*
X135631618Y-113290000D01*
X134840807Y-113219422D01*
X134105611Y-113018295D01*
X133417645Y-112690152D01*
X132798672Y-112245374D01*
X132612122Y-112052870D01*
X132678966Y-112088599D01*
X132958889Y-112173513D01*
X133177050Y-112195000D01*
X133322950Y-112195000D01*
X133541111Y-112173513D01*
X133821034Y-112088599D01*
X134079014Y-111950706D01*
X134305134Y-111765134D01*
X134490706Y-111539014D01*
X134628599Y-111281034D01*
X134713513Y-111001111D01*
X134742185Y-110710000D01*
X134713513Y-110418889D01*
X134628599Y-110138966D01*
X134490706Y-109880986D01*
X134305134Y-109654866D01*
X134079014Y-109469294D01*
X134024209Y-109440000D01*
X134079014Y-109410706D01*
X134305134Y-109225134D01*
X134490706Y-108999014D01*
X134628599Y-108741034D01*
X134713513Y-108461111D01*
X134742185Y-108170000D01*
X134713513Y-107878889D01*
X134628599Y-107598966D01*
X134490706Y-107340986D01*
X134305134Y-107114866D01*
X134079014Y-106929294D01*
X134024209Y-106900000D01*
X134079014Y-106870706D01*
X134305134Y-106685134D01*
X134490706Y-106459014D01*
X134542342Y-106362408D01*
X135403000Y-106362408D01*
X135403000Y-106637592D01*
X135456686Y-106907490D01*
X135561995Y-107161727D01*
X135714880Y-107390535D01*
X135909465Y-107585120D01*
X136138273Y-107738005D01*
X136392510Y-107843314D01*
X136662408Y-107897000D01*
X136937592Y-107897000D01*
X137207490Y-107843314D01*
X137461727Y-107738005D01*
X137690535Y-107585120D01*
X137885120Y-107390535D01*
X138038005Y-107161727D01*
X138143314Y-106907490D01*
X138197000Y-106637592D01*
X138197000Y-106362408D01*
X138143314Y-106092510D01*
X138038005Y-105838273D01*
X137885120Y-105609465D01*
X137690535Y-105414880D01*
X137461727Y-105261995D01*
X137207490Y-105156686D01*
X136937592Y-105103000D01*
X136662408Y-105103000D01*
X136392510Y-105156686D01*
X136138273Y-105261995D01*
X135909465Y-105414880D01*
X135714880Y-105609465D01*
X135561995Y-105838273D01*
X135456686Y-106092510D01*
X135403000Y-106362408D01*
X134542342Y-106362408D01*
X134628599Y-106201034D01*
X134713513Y-105921111D01*
X134742185Y-105630000D01*
X134713513Y-105338889D01*
X134628599Y-105058966D01*
X134490706Y-104800986D01*
X134305134Y-104574866D01*
X134079014Y-104389294D01*
X134024209Y-104360000D01*
X134079014Y-104330706D01*
X134305134Y-104145134D01*
X134490706Y-103919014D01*
X134628599Y-103661034D01*
X134713513Y-103381111D01*
X134742185Y-103090000D01*
X134713513Y-102798889D01*
X134628599Y-102518966D01*
X134490706Y-102260986D01*
X134305134Y-102034866D01*
X134079014Y-101849294D01*
X134014477Y-101814799D01*
X134131355Y-101745178D01*
X134347588Y-101550269D01*
X134521641Y-101316920D01*
X134646825Y-101054099D01*
X134691476Y-100906890D01*
X134570155Y-100677000D01*
X133377000Y-100677000D01*
X133377000Y-100697000D01*
X133123000Y-100697000D01*
X133123000Y-100677000D01*
X133103000Y-100677000D01*
X133103000Y-100423000D01*
X133123000Y-100423000D01*
X133123000Y-100403000D01*
X133377000Y-100403000D01*
X133377000Y-100423000D01*
X134570155Y-100423000D01*
X134639196Y-100292175D01*
X134757753Y-100355546D01*
X134901014Y-100399003D01*
X135012667Y-100410000D01*
X135012676Y-100410000D01*
X135049999Y-100413676D01*
X135087322Y-100410000D01*
X135787680Y-100410000D01*
X135825002Y-100413676D01*
X135862324Y-100410000D01*
X135862335Y-100410000D01*
X135973988Y-100399003D01*
X136117249Y-100355546D01*
X136249278Y-100284974D01*
X136365003Y-100190001D01*
X136388805Y-100160998D01*
X136736005Y-99813799D01*
X136765003Y-99790001D01*
X136859976Y-99674276D01*
X136930548Y-99542247D01*
X136974005Y-99398986D01*
X136985002Y-99287333D01*
X136985002Y-99287324D01*
X136988678Y-99250001D01*
X136985002Y-99212678D01*
X136985002Y-98809803D01*
X142240001Y-104064804D01*
X142240001Y-104296302D01*
X142196063Y-104340240D01*
X142082795Y-104509758D01*
X142004774Y-104698116D01*
X141965000Y-104898075D01*
X141965000Y-105101953D01*
X142004774Y-105301912D01*
X142082795Y-105490270D01*
X142196063Y-105659788D01*
X142340226Y-105803951D01*
X142509744Y-105917219D01*
X142698102Y-105995240D01*
X142898061Y-106035014D01*
X143101939Y-106035014D01*
X143301898Y-105995240D01*
X143490256Y-105917219D01*
X143620363Y-105830284D01*
X143775244Y-105933772D01*
X143963602Y-106011793D01*
X144163561Y-106051567D01*
X144367439Y-106051567D01*
X144567398Y-106011793D01*
X144755756Y-105933772D01*
X144925274Y-105820504D01*
X145069437Y-105676341D01*
X145182705Y-105506823D01*
X145260726Y-105318465D01*
X145300500Y-105118506D01*
X145300500Y-104914628D01*
X145260726Y-104714669D01*
X145228014Y-104635695D01*
X145303935Y-104559774D01*
X145417203Y-104390256D01*
X145495224Y-104201898D01*
X145534998Y-104001939D01*
X145534998Y-103798061D01*
X145497671Y-103610401D01*
X146977340Y-103610401D01*
X146977340Y-103814279D01*
X147017114Y-104014238D01*
X147095135Y-104202596D01*
X147208403Y-104372114D01*
X147252340Y-104416051D01*
X147252341Y-106375010D01*
X147248664Y-106412342D01*
X147263338Y-106561327D01*
X147306794Y-106704588D01*
X147377366Y-106836618D01*
X147448541Y-106923344D01*
X147472340Y-106952343D01*
X147501338Y-106976141D01*
X147965000Y-107439803D01*
X147965000Y-107501941D01*
X148004774Y-107701900D01*
X148082795Y-107890258D01*
X148196063Y-108059776D01*
X148340226Y-108203939D01*
X148509744Y-108317207D01*
X148698102Y-108395228D01*
X148898061Y-108435002D01*
X149101939Y-108435002D01*
X149301898Y-108395228D01*
X149490256Y-108317207D01*
X149659774Y-108203939D01*
X149803937Y-108059776D01*
X149917205Y-107890258D01*
X149995226Y-107701900D01*
X150035000Y-107501941D01*
X150035000Y-107298063D01*
X149995226Y-107098104D01*
X149917205Y-106909746D01*
X149803937Y-106740228D01*
X149659774Y-106596065D01*
X149490256Y-106482797D01*
X149301898Y-106404776D01*
X149101939Y-106365002D01*
X149039801Y-106365002D01*
X148772340Y-106097541D01*
X148772340Y-105165040D01*
X148782785Y-105190256D01*
X148896053Y-105359774D01*
X149040216Y-105503937D01*
X149209734Y-105617205D01*
X149398092Y-105695226D01*
X149598051Y-105735000D01*
X149801929Y-105735000D01*
X150001888Y-105695226D01*
X150190246Y-105617205D01*
X150359764Y-105503937D01*
X150503927Y-105359774D01*
X150617195Y-105190256D01*
X150695216Y-105001898D01*
X150734990Y-104801939D01*
X150734990Y-104739803D01*
X150811006Y-104663787D01*
X150839999Y-104639993D01*
X150863793Y-104611000D01*
X150863797Y-104610996D01*
X150934971Y-104524269D01*
X150939243Y-104516277D01*
X151005544Y-104392239D01*
X151049001Y-104248978D01*
X151059998Y-104137325D01*
X151059998Y-104137316D01*
X151063674Y-104099993D01*
X151059998Y-104062670D01*
X151059998Y-103603711D01*
X151103935Y-103559774D01*
X151217203Y-103390256D01*
X151295224Y-103201898D01*
X151334998Y-103001939D01*
X151334998Y-102798061D01*
X151295224Y-102598102D01*
X151217203Y-102409744D01*
X151103935Y-102240226D01*
X150959772Y-102096063D01*
X150790254Y-101982795D01*
X150601896Y-101904774D01*
X150401937Y-101865000D01*
X150198059Y-101865000D01*
X149998100Y-101904774D01*
X149809742Y-101982795D01*
X149640224Y-102096063D01*
X149496061Y-102240226D01*
X149382793Y-102409744D01*
X149304772Y-102598102D01*
X149264998Y-102798061D01*
X149264998Y-103001939D01*
X149304772Y-103201898D01*
X149382793Y-103390256D01*
X149496061Y-103559774D01*
X149539999Y-103603712D01*
X149539999Y-103676547D01*
X149398092Y-103704774D01*
X149209734Y-103782795D01*
X149040216Y-103896063D01*
X149028802Y-103907477D01*
X149047340Y-103814279D01*
X149047340Y-103610401D01*
X149007566Y-103410442D01*
X148929545Y-103222084D01*
X148816277Y-103052566D01*
X148672114Y-102908403D01*
X148502596Y-102795135D01*
X148314238Y-102717114D01*
X148114279Y-102677340D01*
X147910401Y-102677340D01*
X147710442Y-102717114D01*
X147522084Y-102795135D01*
X147352566Y-102908403D01*
X147208403Y-103052566D01*
X147095135Y-103222084D01*
X147017114Y-103410442D01*
X146977340Y-103610401D01*
X145497671Y-103610401D01*
X145495224Y-103598102D01*
X145417203Y-103409744D01*
X145303935Y-103240226D01*
X145159772Y-103096063D01*
X144990254Y-102982795D01*
X144801896Y-102904774D01*
X144601937Y-102865000D01*
X144539802Y-102865000D01*
X139518108Y-97843307D01*
X139561878Y-97777801D01*
X139639899Y-97589443D01*
X139679673Y-97389484D01*
X139679673Y-97185606D01*
X139664634Y-97110000D01*
X140985199Y-97110000D01*
X143665000Y-99789802D01*
X143665000Y-99851939D01*
X143704774Y-100051898D01*
X143782795Y-100240256D01*
X143896063Y-100409774D01*
X144040226Y-100553937D01*
X144209744Y-100667205D01*
X144398102Y-100745226D01*
X144598061Y-100785000D01*
X144801939Y-100785000D01*
X145001898Y-100745226D01*
X145190256Y-100667205D01*
X145359774Y-100553937D01*
X145503937Y-100409774D01*
X145617205Y-100240256D01*
X145695226Y-100051898D01*
X145735000Y-99851939D01*
X145735000Y-99648061D01*
X145695226Y-99448102D01*
X145617205Y-99259744D01*
X145503937Y-99090226D01*
X145359774Y-98946063D01*
X145190256Y-98832795D01*
X145001898Y-98754774D01*
X144801939Y-98715000D01*
X144739802Y-98715000D01*
X141863804Y-95839003D01*
X141840001Y-95809999D01*
X141724276Y-95715026D01*
X141592247Y-95644454D01*
X141448986Y-95600997D01*
X141337333Y-95590000D01*
X141337322Y-95590000D01*
X141300000Y-95586324D01*
X141262678Y-95590000D01*
X136710000Y-95590000D01*
X136710000Y-94100000D01*
X151707815Y-94100000D01*
X151736487Y-94391111D01*
X151821401Y-94671034D01*
X151959294Y-94929014D01*
X152144866Y-95155134D01*
X152370986Y-95340706D01*
X152425791Y-95370000D01*
X152370986Y-95399294D01*
X152144866Y-95584866D01*
X151959294Y-95810986D01*
X151821401Y-96068966D01*
X151736487Y-96348889D01*
X151707815Y-96640000D01*
X151736487Y-96931111D01*
X151821401Y-97211034D01*
X151959294Y-97469014D01*
X152144866Y-97695134D01*
X152370986Y-97880706D01*
X152425791Y-97910000D01*
X152370986Y-97939294D01*
X152144866Y-98124866D01*
X151959294Y-98350986D01*
X151821401Y-98608966D01*
X151736487Y-98888889D01*
X151707815Y-99180000D01*
X151736487Y-99471111D01*
X151821401Y-99751034D01*
X151959294Y-100009014D01*
X152144866Y-100235134D01*
X152370986Y-100420706D01*
X152425791Y-100450000D01*
X152370986Y-100479294D01*
X152144866Y-100664866D01*
X151959294Y-100890986D01*
X151821401Y-101148966D01*
X151736487Y-101428889D01*
X151707815Y-101720000D01*
X151736487Y-102011111D01*
X151821401Y-102291034D01*
X151959294Y-102549014D01*
X152144866Y-102775134D01*
X152370986Y-102960706D01*
X152425791Y-102990000D01*
X152370986Y-103019294D01*
X152144866Y-103204866D01*
X151959294Y-103430986D01*
X151821401Y-103688966D01*
X151736487Y-103968889D01*
X151707815Y-104260000D01*
X151736487Y-104551111D01*
X151821401Y-104831034D01*
X151959294Y-105089014D01*
X152144866Y-105315134D01*
X152174687Y-105339607D01*
X152105820Y-105360498D01*
X151995506Y-105419463D01*
X151898815Y-105498815D01*
X151819463Y-105595506D01*
X151760498Y-105705820D01*
X151724188Y-105825518D01*
X151711928Y-105950000D01*
X151711928Y-107650000D01*
X151724188Y-107774482D01*
X151760498Y-107894180D01*
X151819463Y-108004494D01*
X151898815Y-108101185D01*
X151995506Y-108180537D01*
X152105820Y-108239502D01*
X152225518Y-108275812D01*
X152350000Y-108288072D01*
X154050000Y-108288072D01*
X154174482Y-108275812D01*
X154294180Y-108239502D01*
X154404494Y-108180537D01*
X154501185Y-108101185D01*
X154580537Y-108004494D01*
X154639502Y-107894180D01*
X154662498Y-107818374D01*
X154858645Y-107995178D01*
X155108748Y-108144157D01*
X155383109Y-108241481D01*
X155613000Y-108120814D01*
X155613000Y-106927000D01*
X155867000Y-106927000D01*
X155867000Y-108120814D01*
X156096891Y-108241481D01*
X156371252Y-108144157D01*
X156621355Y-107995178D01*
X156837588Y-107800269D01*
X157011641Y-107566920D01*
X157136825Y-107304099D01*
X157181476Y-107156890D01*
X157060155Y-106927000D01*
X155867000Y-106927000D01*
X155613000Y-106927000D01*
X155593000Y-106927000D01*
X155593000Y-106673000D01*
X155613000Y-106673000D01*
X155613000Y-106653000D01*
X155867000Y-106653000D01*
X155867000Y-106673000D01*
X157060155Y-106673000D01*
X157181476Y-106443110D01*
X157136825Y-106295901D01*
X157011641Y-106033080D01*
X156837588Y-105799731D01*
X156621355Y-105604822D01*
X156504477Y-105535201D01*
X156569014Y-105500706D01*
X156795134Y-105315134D01*
X156980706Y-105089014D01*
X157118599Y-104831034D01*
X157203513Y-104551111D01*
X157232185Y-104260000D01*
X157203513Y-103968889D01*
X157118599Y-103688966D01*
X156980706Y-103430986D01*
X156795134Y-103204866D01*
X156569014Y-103019294D01*
X156514209Y-102990000D01*
X156569014Y-102960706D01*
X156795134Y-102775134D01*
X156980706Y-102549014D01*
X157118599Y-102291034D01*
X157203513Y-102011111D01*
X157232185Y-101720000D01*
X157203513Y-101428889D01*
X157118599Y-101148966D01*
X156980706Y-100890986D01*
X156795134Y-100664866D01*
X156569014Y-100479294D01*
X156514209Y-100450000D01*
X156569014Y-100420706D01*
X156795134Y-100235134D01*
X156980706Y-100009014D01*
X157118599Y-99751034D01*
X157203513Y-99471111D01*
X157232185Y-99180000D01*
X157203513Y-98888889D01*
X157118599Y-98608966D01*
X156980706Y-98350986D01*
X156795134Y-98124866D01*
X156569014Y-97939294D01*
X156514209Y-97910000D01*
X156569014Y-97880706D01*
X156795134Y-97695134D01*
X156980706Y-97469014D01*
X157118599Y-97211034D01*
X157203513Y-96931111D01*
X157232185Y-96640000D01*
X157203513Y-96348889D01*
X157118599Y-96068966D01*
X156980706Y-95810986D01*
X156795134Y-95584866D01*
X156569014Y-95399294D01*
X156514209Y-95370000D01*
X156569014Y-95340706D01*
X156795134Y-95155134D01*
X156980706Y-94929014D01*
X157118599Y-94671034D01*
X157203513Y-94391111D01*
X157232185Y-94100000D01*
X157203513Y-93808889D01*
X157118599Y-93528966D01*
X156980706Y-93270986D01*
X156795134Y-93044866D01*
X156569014Y-92859294D01*
X156504477Y-92824799D01*
X156621355Y-92755178D01*
X156837588Y-92560269D01*
X157011641Y-92326920D01*
X157136825Y-92064099D01*
X157181476Y-91916890D01*
X157060155Y-91687000D01*
X155867000Y-91687000D01*
X155867000Y-91707000D01*
X155613000Y-91707000D01*
X155613000Y-91687000D01*
X153327000Y-91687000D01*
X153327000Y-91707000D01*
X153073000Y-91707000D01*
X153073000Y-91687000D01*
X151879845Y-91687000D01*
X151758524Y-91916890D01*
X151803175Y-92064099D01*
X151928359Y-92326920D01*
X152102412Y-92560269D01*
X152318645Y-92755178D01*
X152435523Y-92824799D01*
X152370986Y-92859294D01*
X152144866Y-93044866D01*
X151959294Y-93270986D01*
X151821401Y-93528966D01*
X151736487Y-93808889D01*
X151707815Y-94100000D01*
X136710000Y-94100000D01*
X136710000Y-93127322D01*
X136713676Y-93089999D01*
X136710000Y-93052676D01*
X136710000Y-93052667D01*
X136699003Y-92941014D01*
X136655546Y-92797753D01*
X136584974Y-92665724D01*
X136531868Y-92601014D01*
X136513799Y-92578996D01*
X136513795Y-92578992D01*
X136490001Y-92549999D01*
X136461008Y-92526205D01*
X135673803Y-91739002D01*
X135673799Y-91738997D01*
X134690797Y-90755995D01*
X134713513Y-90681111D01*
X134742185Y-90390000D01*
X134713513Y-90098889D01*
X134628599Y-89818966D01*
X134490706Y-89560986D01*
X134305134Y-89334866D01*
X134277447Y-89312144D01*
X134285223Y-89310597D01*
X134400785Y-89262730D01*
X134504789Y-89193237D01*
X134593237Y-89104789D01*
X134662730Y-89000785D01*
X134710597Y-88885223D01*
X134715614Y-88860000D01*
X137487815Y-88860000D01*
X137516487Y-89151111D01*
X137601401Y-89431034D01*
X137739294Y-89689014D01*
X137924866Y-89915134D01*
X138150986Y-90100706D01*
X138205791Y-90130000D01*
X138150986Y-90159294D01*
X137924866Y-90344866D01*
X137739294Y-90570986D01*
X137601401Y-90828966D01*
X137516487Y-91108889D01*
X137487815Y-91400000D01*
X137516487Y-91691111D01*
X137601401Y-91971034D01*
X137739294Y-92229014D01*
X137924866Y-92455134D01*
X138150986Y-92640706D01*
X138408966Y-92778599D01*
X138688889Y-92863513D01*
X138907050Y-92885000D01*
X139052950Y-92885000D01*
X139271111Y-92863513D01*
X139551034Y-92778599D01*
X139809014Y-92640706D01*
X140035134Y-92455134D01*
X140220706Y-92229014D01*
X140250000Y-92174209D01*
X140279294Y-92229014D01*
X140464866Y-92455134D01*
X140690986Y-92640706D01*
X140948966Y-92778599D01*
X141228889Y-92863513D01*
X141447050Y-92885000D01*
X141592950Y-92885000D01*
X141811111Y-92863513D01*
X142091034Y-92778599D01*
X142349014Y-92640706D01*
X142575134Y-92455134D01*
X142760706Y-92229014D01*
X142790000Y-92174209D01*
X142819294Y-92229014D01*
X143004866Y-92455134D01*
X143230986Y-92640706D01*
X143488966Y-92778599D01*
X143768889Y-92863513D01*
X143987050Y-92885000D01*
X144132950Y-92885000D01*
X144351111Y-92863513D01*
X144631034Y-92778599D01*
X144889014Y-92640706D01*
X145115134Y-92455134D01*
X145139607Y-92425313D01*
X145160498Y-92494180D01*
X145219463Y-92604494D01*
X145298815Y-92701185D01*
X145395506Y-92780537D01*
X145505820Y-92839502D01*
X145625518Y-92875812D01*
X145750000Y-92888072D01*
X147450000Y-92888072D01*
X147574482Y-92875812D01*
X147694180Y-92839502D01*
X147804494Y-92780537D01*
X147901185Y-92701185D01*
X147980537Y-92604494D01*
X148039502Y-92494180D01*
X148075812Y-92374482D01*
X148088072Y-92250000D01*
X148088072Y-91203110D01*
X151758524Y-91203110D01*
X151879845Y-91433000D01*
X153073000Y-91433000D01*
X153073000Y-90239186D01*
X153327000Y-90239186D01*
X153327000Y-91433000D01*
X155613000Y-91433000D01*
X155613000Y-90239186D01*
X155867000Y-90239186D01*
X155867000Y-91433000D01*
X157060155Y-91433000D01*
X157181476Y-91203110D01*
X157136825Y-91055901D01*
X157011641Y-90793080D01*
X156837588Y-90559731D01*
X156621355Y-90364822D01*
X156371252Y-90215843D01*
X156096891Y-90118519D01*
X155867000Y-90239186D01*
X155613000Y-90239186D01*
X155383109Y-90118519D01*
X155108748Y-90215843D01*
X154858645Y-90364822D01*
X154642412Y-90559731D01*
X154470000Y-90790880D01*
X154297588Y-90559731D01*
X154081355Y-90364822D01*
X153831252Y-90215843D01*
X153556891Y-90118519D01*
X153327000Y-90239186D01*
X153073000Y-90239186D01*
X152843109Y-90118519D01*
X152568748Y-90215843D01*
X152318645Y-90364822D01*
X152102412Y-90559731D01*
X151928359Y-90793080D01*
X151803175Y-91055901D01*
X151758524Y-91203110D01*
X148088072Y-91203110D01*
X148088072Y-90550000D01*
X148075812Y-90425518D01*
X148039502Y-90305820D01*
X147980537Y-90195506D01*
X147901185Y-90098815D01*
X147804494Y-90019463D01*
X147694180Y-89960498D01*
X147618374Y-89937502D01*
X147795178Y-89741355D01*
X147944157Y-89491252D01*
X148041481Y-89216891D01*
X147920814Y-88987000D01*
X146727000Y-88987000D01*
X146727000Y-89007000D01*
X146473000Y-89007000D01*
X146473000Y-88987000D01*
X146453000Y-88987000D01*
X146453000Y-88733000D01*
X146473000Y-88733000D01*
X146473000Y-87539845D01*
X146727000Y-87539845D01*
X146727000Y-88733000D01*
X147920814Y-88733000D01*
X148041481Y-88503109D01*
X147944157Y-88228748D01*
X147815290Y-88012408D01*
X151253000Y-88012408D01*
X151253000Y-88287592D01*
X151306686Y-88557490D01*
X151411995Y-88811727D01*
X151564880Y-89040535D01*
X151759465Y-89235120D01*
X151988273Y-89388005D01*
X152242510Y-89493314D01*
X152512408Y-89547000D01*
X152787592Y-89547000D01*
X153057490Y-89493314D01*
X153311727Y-89388005D01*
X153540535Y-89235120D01*
X153735120Y-89040535D01*
X153888005Y-88811727D01*
X153993314Y-88557490D01*
X154047000Y-88287592D01*
X154047000Y-88012408D01*
X153993314Y-87742510D01*
X153888005Y-87488273D01*
X153735120Y-87259465D01*
X153540535Y-87064880D01*
X153311727Y-86911995D01*
X153057490Y-86806686D01*
X152787592Y-86753000D01*
X152512408Y-86753000D01*
X152242510Y-86806686D01*
X151988273Y-86911995D01*
X151759465Y-87064880D01*
X151564880Y-87259465D01*
X151411995Y-87488273D01*
X151306686Y-87742510D01*
X151253000Y-88012408D01*
X147815290Y-88012408D01*
X147795178Y-87978645D01*
X147600269Y-87762412D01*
X147366920Y-87588359D01*
X147104099Y-87463175D01*
X146956890Y-87418524D01*
X146727000Y-87539845D01*
X146473000Y-87539845D01*
X146243110Y-87418524D01*
X146095901Y-87463175D01*
X145833080Y-87588359D01*
X145599731Y-87762412D01*
X145404822Y-87978645D01*
X145335201Y-88095523D01*
X145300706Y-88030986D01*
X145115134Y-87804866D01*
X144889014Y-87619294D01*
X144631034Y-87481401D01*
X144351111Y-87396487D01*
X144132950Y-87375000D01*
X143987050Y-87375000D01*
X143768889Y-87396487D01*
X143488966Y-87481401D01*
X143230986Y-87619294D01*
X143004866Y-87804866D01*
X142819294Y-88030986D01*
X142790000Y-88085791D01*
X142760706Y-88030986D01*
X142575134Y-87804866D01*
X142349014Y-87619294D01*
X142091034Y-87481401D01*
X141811111Y-87396487D01*
X141592950Y-87375000D01*
X141447050Y-87375000D01*
X141228889Y-87396487D01*
X140948966Y-87481401D01*
X140690986Y-87619294D01*
X140464866Y-87804866D01*
X140279294Y-88030986D01*
X140250000Y-88085791D01*
X140220706Y-88030986D01*
X140035134Y-87804866D01*
X139809014Y-87619294D01*
X139551034Y-87481401D01*
X139271111Y-87396487D01*
X139052950Y-87375000D01*
X138907050Y-87375000D01*
X138688889Y-87396487D01*
X138408966Y-87481401D01*
X138150986Y-87619294D01*
X137924866Y-87804866D01*
X137739294Y-88030986D01*
X137601401Y-88288966D01*
X137516487Y-88568889D01*
X137487815Y-88860000D01*
X134715614Y-88860000D01*
X134735000Y-88762542D01*
X134735000Y-88135750D01*
X134576250Y-87977000D01*
X133377000Y-87977000D01*
X133377000Y-87997000D01*
X133123000Y-87997000D01*
X133123000Y-87977000D01*
X131923750Y-87977000D01*
X131765000Y-88135750D01*
X131765000Y-88762542D01*
X131789403Y-88885223D01*
X131837270Y-89000785D01*
X131906763Y-89104789D01*
X131995211Y-89193237D01*
X132099215Y-89262730D01*
X132214777Y-89310597D01*
X132222553Y-89312144D01*
X132194866Y-89334866D01*
X132009294Y-89560986D01*
X131871401Y-89818966D01*
X131786487Y-90098889D01*
X131757815Y-90390000D01*
X131786487Y-90681111D01*
X131871401Y-90961034D01*
X132009294Y-91219014D01*
X132194866Y-91445134D01*
X132420986Y-91630706D01*
X132475791Y-91660000D01*
X132420986Y-91689294D01*
X132194866Y-91874866D01*
X132009294Y-92100986D01*
X131871401Y-92358966D01*
X131786487Y-92638889D01*
X131757815Y-92930000D01*
X131786487Y-93221111D01*
X131871401Y-93501034D01*
X132009294Y-93759014D01*
X132194866Y-93985134D01*
X132420986Y-94170706D01*
X132475791Y-94200000D01*
X132420986Y-94229294D01*
X132194866Y-94414866D01*
X132009294Y-94640986D01*
X131871401Y-94898966D01*
X131786487Y-95178889D01*
X131757815Y-95470000D01*
X131786487Y-95761111D01*
X131809203Y-95835995D01*
X131310000Y-96335199D01*
X131310000Y-89631618D01*
X131380578Y-88840808D01*
X131581705Y-88105611D01*
X131815726Y-87614976D01*
X131923750Y-87723000D01*
X133123000Y-87723000D01*
X133123000Y-86523750D01*
X133377000Y-86523750D01*
X133377000Y-87723000D01*
X134576250Y-87723000D01*
X134735000Y-87564250D01*
X134735000Y-86937458D01*
X134710597Y-86814777D01*
X134662730Y-86699215D01*
X134593237Y-86595211D01*
X134504789Y-86506763D01*
X134400785Y-86437270D01*
X134285223Y-86389403D01*
X134162542Y-86365000D01*
X133535750Y-86365000D01*
X133377000Y-86523750D01*
X133123000Y-86523750D01*
X132964250Y-86365000D01*
X132802139Y-86365000D01*
X132901988Y-86268239D01*
X133534639Y-85843116D01*
X134232561Y-85536749D01*
X134979183Y-85357501D01*
X135626030Y-85310000D01*
X154768382Y-85310000D01*
X155559192Y-85380578D01*
X155559192Y-85380578D01*
G37*
X155559192Y-85380578D02*
X156294389Y-85581705D01*
X156496671Y-85678189D01*
X156450166Y-85687439D01*
X156107118Y-85829534D01*
X155798382Y-86035825D01*
X155535825Y-86298382D01*
X155329534Y-86607118D01*
X155187439Y-86950166D01*
X155115000Y-87314344D01*
X155115000Y-87685656D01*
X155187439Y-88049834D01*
X155329534Y-88392882D01*
X155535825Y-88701618D01*
X155798382Y-88964175D01*
X156107118Y-89170466D01*
X156450166Y-89312561D01*
X156814344Y-89385000D01*
X157185656Y-89385000D01*
X157549834Y-89312561D01*
X157892882Y-89170466D01*
X158201618Y-88964175D01*
X158464175Y-88701618D01*
X158670466Y-88392882D01*
X158798228Y-88084436D01*
X158863251Y-88232561D01*
X159042499Y-88979183D01*
X159090001Y-89626044D01*
X159090000Y-108968382D01*
X159019422Y-109759193D01*
X158820068Y-110487907D01*
X158812561Y-110450166D01*
X158670466Y-110107118D01*
X158464175Y-109798382D01*
X158201618Y-109535825D01*
X157892882Y-109329534D01*
X157549834Y-109187439D01*
X157185656Y-109115000D01*
X156814344Y-109115000D01*
X156450166Y-109187439D01*
X156107118Y-109329534D01*
X155798382Y-109535825D01*
X155535825Y-109798382D01*
X155329534Y-110107118D01*
X155187439Y-110450166D01*
X155115000Y-110814344D01*
X155115000Y-111185656D01*
X155187439Y-111549834D01*
X155329534Y-111892882D01*
X155535825Y-112201618D01*
X155798382Y-112464175D01*
X156107118Y-112670466D01*
X156450166Y-112812561D01*
X156648605Y-112852033D01*
X156167439Y-113063251D01*
X155420819Y-113242499D01*
X154773970Y-113290000D01*
X135631618Y-113290000D01*
X134840807Y-113219422D01*
X134105611Y-113018295D01*
X133417645Y-112690152D01*
X132798672Y-112245374D01*
X132612122Y-112052870D01*
X132678966Y-112088599D01*
X132958889Y-112173513D01*
X133177050Y-112195000D01*
X133322950Y-112195000D01*
X133541111Y-112173513D01*
X133821034Y-112088599D01*
X134079014Y-111950706D01*
X134305134Y-111765134D01*
X134490706Y-111539014D01*
X134628599Y-111281034D01*
X134713513Y-111001111D01*
X134742185Y-110710000D01*
X134713513Y-110418889D01*
X134628599Y-110138966D01*
X134490706Y-109880986D01*
X134305134Y-109654866D01*
X134079014Y-109469294D01*
X134024209Y-109440000D01*
X134079014Y-109410706D01*
X134305134Y-109225134D01*
X134490706Y-108999014D01*
X134628599Y-108741034D01*
X134713513Y-108461111D01*
X134742185Y-108170000D01*
X134713513Y-107878889D01*
X134628599Y-107598966D01*
X134490706Y-107340986D01*
X134305134Y-107114866D01*
X134079014Y-106929294D01*
X134024209Y-106900000D01*
X134079014Y-106870706D01*
X134305134Y-106685134D01*
X134490706Y-106459014D01*
X134542342Y-106362408D01*
X135403000Y-106362408D01*
X135403000Y-106637592D01*
X135456686Y-106907490D01*
X135561995Y-107161727D01*
X135714880Y-107390535D01*
X135909465Y-107585120D01*
X136138273Y-107738005D01*
X136392510Y-107843314D01*
X136662408Y-107897000D01*
X136937592Y-107897000D01*
X137207490Y-107843314D01*
X137461727Y-107738005D01*
X137690535Y-107585120D01*
X137885120Y-107390535D01*
X138038005Y-107161727D01*
X138143314Y-106907490D01*
X138197000Y-106637592D01*
X138197000Y-106362408D01*
X138143314Y-106092510D01*
X138038005Y-105838273D01*
X137885120Y-105609465D01*
X137690535Y-105414880D01*
X137461727Y-105261995D01*
X137207490Y-105156686D01*
X136937592Y-105103000D01*
X136662408Y-105103000D01*
X136392510Y-105156686D01*
X136138273Y-105261995D01*
X135909465Y-105414880D01*
X135714880Y-105609465D01*
X135561995Y-105838273D01*
X135456686Y-106092510D01*
X135403000Y-106362408D01*
X134542342Y-106362408D01*
X134628599Y-106201034D01*
X134713513Y-105921111D01*
X134742185Y-105630000D01*
X134713513Y-105338889D01*
X134628599Y-105058966D01*
X134490706Y-104800986D01*
X134305134Y-104574866D01*
X134079014Y-104389294D01*
X134024209Y-104360000D01*
X134079014Y-104330706D01*
X134305134Y-104145134D01*
X134490706Y-103919014D01*
X134628599Y-103661034D01*
X134713513Y-103381111D01*
X134742185Y-103090000D01*
X134713513Y-102798889D01*
X134628599Y-102518966D01*
X134490706Y-102260986D01*
X134305134Y-102034866D01*
X134079014Y-101849294D01*
X134014477Y-101814799D01*
X134131355Y-101745178D01*
X134347588Y-101550269D01*
X134521641Y-101316920D01*
X134646825Y-101054099D01*
X134691476Y-100906890D01*
X134570155Y-100677000D01*
X133377000Y-100677000D01*
X133377000Y-100697000D01*
X133123000Y-100697000D01*
X133123000Y-100677000D01*
X133103000Y-100677000D01*
X133103000Y-100423000D01*
X133123000Y-100423000D01*
X133123000Y-100403000D01*
X133377000Y-100403000D01*
X133377000Y-100423000D01*
X134570155Y-100423000D01*
X134639196Y-100292175D01*
X134757753Y-100355546D01*
X134901014Y-100399003D01*
X135012667Y-100410000D01*
X135012676Y-100410000D01*
X135049999Y-100413676D01*
X135087322Y-100410000D01*
X135787680Y-100410000D01*
X135825002Y-100413676D01*
X135862324Y-100410000D01*
X135862335Y-100410000D01*
X135973988Y-100399003D01*
X136117249Y-100355546D01*
X136249278Y-100284974D01*
X136365003Y-100190001D01*
X136388805Y-100160998D01*
X136736005Y-99813799D01*
X136765003Y-99790001D01*
X136859976Y-99674276D01*
X136930548Y-99542247D01*
X136974005Y-99398986D01*
X136985002Y-99287333D01*
X136985002Y-99287324D01*
X136988678Y-99250001D01*
X136985002Y-99212678D01*
X136985002Y-98809803D01*
X142240001Y-104064804D01*
X142240001Y-104296302D01*
X142196063Y-104340240D01*
X142082795Y-104509758D01*
X142004774Y-104698116D01*
X141965000Y-104898075D01*
X141965000Y-105101953D01*
X142004774Y-105301912D01*
X142082795Y-105490270D01*
X142196063Y-105659788D01*
X142340226Y-105803951D01*
X142509744Y-105917219D01*
X142698102Y-105995240D01*
X142898061Y-106035014D01*
X143101939Y-106035014D01*
X143301898Y-105995240D01*
X143490256Y-105917219D01*
X143620363Y-105830284D01*
X143775244Y-105933772D01*
X143963602Y-106011793D01*
X144163561Y-106051567D01*
X144367439Y-106051567D01*
X144567398Y-106011793D01*
X144755756Y-105933772D01*
X144925274Y-105820504D01*
X145069437Y-105676341D01*
X145182705Y-105506823D01*
X145260726Y-105318465D01*
X145300500Y-105118506D01*
X145300500Y-104914628D01*
X145260726Y-104714669D01*
X145228014Y-104635695D01*
X145303935Y-104559774D01*
X145417203Y-104390256D01*
X145495224Y-104201898D01*
X145534998Y-104001939D01*
X145534998Y-103798061D01*
X145497671Y-103610401D01*
X146977340Y-103610401D01*
X146977340Y-103814279D01*
X147017114Y-104014238D01*
X147095135Y-104202596D01*
X147208403Y-104372114D01*
X147252340Y-104416051D01*
X147252341Y-106375010D01*
X147248664Y-106412342D01*
X147263338Y-106561327D01*
X147306794Y-106704588D01*
X147377366Y-106836618D01*
X147448541Y-106923344D01*
X147472340Y-106952343D01*
X147501338Y-106976141D01*
X147965000Y-107439803D01*
X147965000Y-107501941D01*
X148004774Y-107701900D01*
X148082795Y-107890258D01*
X148196063Y-108059776D01*
X148340226Y-108203939D01*
X148509744Y-108317207D01*
X148698102Y-108395228D01*
X148898061Y-108435002D01*
X149101939Y-108435002D01*
X149301898Y-108395228D01*
X149490256Y-108317207D01*
X149659774Y-108203939D01*
X149803937Y-108059776D01*
X149917205Y-107890258D01*
X149995226Y-107701900D01*
X150035000Y-107501941D01*
X150035000Y-107298063D01*
X149995226Y-107098104D01*
X149917205Y-106909746D01*
X149803937Y-106740228D01*
X149659774Y-106596065D01*
X149490256Y-106482797D01*
X149301898Y-106404776D01*
X149101939Y-106365002D01*
X149039801Y-106365002D01*
X148772340Y-106097541D01*
X148772340Y-105165040D01*
X148782785Y-105190256D01*
X148896053Y-105359774D01*
X149040216Y-105503937D01*
X149209734Y-105617205D01*
X149398092Y-105695226D01*
X149598051Y-105735000D01*
X149801929Y-105735000D01*
X150001888Y-105695226D01*
X150190246Y-105617205D01*
X150359764Y-105503937D01*
X150503927Y-105359774D01*
X150617195Y-105190256D01*
X150695216Y-105001898D01*
X150734990Y-104801939D01*
X150734990Y-104739803D01*
X150811006Y-104663787D01*
X150839999Y-104639993D01*
X150863793Y-104611000D01*
X150863797Y-104610996D01*
X150934971Y-104524269D01*
X150939243Y-104516277D01*
X151005544Y-104392239D01*
X151049001Y-104248978D01*
X151059998Y-104137325D01*
X151059998Y-104137316D01*
X151063674Y-104099993D01*
X151059998Y-104062670D01*
X151059998Y-103603711D01*
X151103935Y-103559774D01*
X151217203Y-103390256D01*
X151295224Y-103201898D01*
X151334998Y-103001939D01*
X151334998Y-102798061D01*
X151295224Y-102598102D01*
X151217203Y-102409744D01*
X151103935Y-102240226D01*
X150959772Y-102096063D01*
X150790254Y-101982795D01*
X150601896Y-101904774D01*
X150401937Y-101865000D01*
X150198059Y-101865000D01*
X149998100Y-101904774D01*
X149809742Y-101982795D01*
X149640224Y-102096063D01*
X149496061Y-102240226D01*
X149382793Y-102409744D01*
X149304772Y-102598102D01*
X149264998Y-102798061D01*
X149264998Y-103001939D01*
X149304772Y-103201898D01*
X149382793Y-103390256D01*
X149496061Y-103559774D01*
X149539999Y-103603712D01*
X149539999Y-103676547D01*
X149398092Y-103704774D01*
X149209734Y-103782795D01*
X149040216Y-103896063D01*
X149028802Y-103907477D01*
X149047340Y-103814279D01*
X149047340Y-103610401D01*
X149007566Y-103410442D01*
X148929545Y-103222084D01*
X148816277Y-103052566D01*
X148672114Y-102908403D01*
X148502596Y-102795135D01*
X148314238Y-102717114D01*
X148114279Y-102677340D01*
X147910401Y-102677340D01*
X147710442Y-102717114D01*
X147522084Y-102795135D01*
X147352566Y-102908403D01*
X147208403Y-103052566D01*
X147095135Y-103222084D01*
X147017114Y-103410442D01*
X146977340Y-103610401D01*
X145497671Y-103610401D01*
X145495224Y-103598102D01*
X145417203Y-103409744D01*
X145303935Y-103240226D01*
X145159772Y-103096063D01*
X144990254Y-102982795D01*
X144801896Y-102904774D01*
X144601937Y-102865000D01*
X144539802Y-102865000D01*
X139518108Y-97843307D01*
X139561878Y-97777801D01*
X139639899Y-97589443D01*
X139679673Y-97389484D01*
X139679673Y-97185606D01*
X139664634Y-97110000D01*
X140985199Y-97110000D01*
X143665000Y-99789802D01*
X143665000Y-99851939D01*
X143704774Y-100051898D01*
X143782795Y-100240256D01*
X143896063Y-100409774D01*
X144040226Y-100553937D01*
X144209744Y-100667205D01*
X144398102Y-100745226D01*
X144598061Y-100785000D01*
X144801939Y-100785000D01*
X145001898Y-100745226D01*
X145190256Y-100667205D01*
X145359774Y-100553937D01*
X145503937Y-100409774D01*
X145617205Y-100240256D01*
X145695226Y-100051898D01*
X145735000Y-99851939D01*
X145735000Y-99648061D01*
X145695226Y-99448102D01*
X145617205Y-99259744D01*
X145503937Y-99090226D01*
X145359774Y-98946063D01*
X145190256Y-98832795D01*
X145001898Y-98754774D01*
X144801939Y-98715000D01*
X144739802Y-98715000D01*
X141863804Y-95839003D01*
X141840001Y-95809999D01*
X141724276Y-95715026D01*
X141592247Y-95644454D01*
X141448986Y-95600997D01*
X141337333Y-95590000D01*
X141337322Y-95590000D01*
X141300000Y-95586324D01*
X141262678Y-95590000D01*
X136710000Y-95590000D01*
X136710000Y-94100000D01*
X151707815Y-94100000D01*
X151736487Y-94391111D01*
X151821401Y-94671034D01*
X151959294Y-94929014D01*
X152144866Y-95155134D01*
X152370986Y-95340706D01*
X152425791Y-95370000D01*
X152370986Y-95399294D01*
X152144866Y-95584866D01*
X151959294Y-95810986D01*
X151821401Y-96068966D01*
X151736487Y-96348889D01*
X151707815Y-96640000D01*
X151736487Y-96931111D01*
X151821401Y-97211034D01*
X151959294Y-97469014D01*
X152144866Y-97695134D01*
X152370986Y-97880706D01*
X152425791Y-97910000D01*
X152370986Y-97939294D01*
X152144866Y-98124866D01*
X151959294Y-98350986D01*
X151821401Y-98608966D01*
X151736487Y-98888889D01*
X151707815Y-99180000D01*
X151736487Y-99471111D01*
X151821401Y-99751034D01*
X151959294Y-100009014D01*
X152144866Y-100235134D01*
X152370986Y-100420706D01*
X152425791Y-100450000D01*
X152370986Y-100479294D01*
X152144866Y-100664866D01*
X151959294Y-100890986D01*
X151821401Y-101148966D01*
X151736487Y-101428889D01*
X151707815Y-101720000D01*
X151736487Y-102011111D01*
X151821401Y-102291034D01*
X151959294Y-102549014D01*
X152144866Y-102775134D01*
X152370986Y-102960706D01*
X152425791Y-102990000D01*
X152370986Y-103019294D01*
X152144866Y-103204866D01*
X151959294Y-103430986D01*
X151821401Y-103688966D01*
X151736487Y-103968889D01*
X151707815Y-104260000D01*
X151736487Y-104551111D01*
X151821401Y-104831034D01*
X151959294Y-105089014D01*
X152144866Y-105315134D01*
X152174687Y-105339607D01*
X152105820Y-105360498D01*
X151995506Y-105419463D01*
X151898815Y-105498815D01*
X151819463Y-105595506D01*
X151760498Y-105705820D01*
X151724188Y-105825518D01*
X151711928Y-105950000D01*
X151711928Y-107650000D01*
X151724188Y-107774482D01*
X151760498Y-107894180D01*
X151819463Y-108004494D01*
X151898815Y-108101185D01*
X151995506Y-108180537D01*
X152105820Y-108239502D01*
X152225518Y-108275812D01*
X152350000Y-108288072D01*
X154050000Y-108288072D01*
X154174482Y-108275812D01*
X154294180Y-108239502D01*
X154404494Y-108180537D01*
X154501185Y-108101185D01*
X154580537Y-108004494D01*
X154639502Y-107894180D01*
X154662498Y-107818374D01*
X154858645Y-107995178D01*
X155108748Y-108144157D01*
X155383109Y-108241481D01*
X155613000Y-108120814D01*
X155613000Y-106927000D01*
X155867000Y-106927000D01*
X155867000Y-108120814D01*
X156096891Y-108241481D01*
X156371252Y-108144157D01*
X156621355Y-107995178D01*
X156837588Y-107800269D01*
X157011641Y-107566920D01*
X157136825Y-107304099D01*
X157181476Y-107156890D01*
X157060155Y-106927000D01*
X155867000Y-106927000D01*
X155613000Y-106927000D01*
X155593000Y-106927000D01*
X155593000Y-106673000D01*
X155613000Y-106673000D01*
X155613000Y-106653000D01*
X155867000Y-106653000D01*
X155867000Y-106673000D01*
X157060155Y-106673000D01*
X157181476Y-106443110D01*
X157136825Y-106295901D01*
X157011641Y-106033080D01*
X156837588Y-105799731D01*
X156621355Y-105604822D01*
X156504477Y-105535201D01*
X156569014Y-105500706D01*
X156795134Y-105315134D01*
X156980706Y-105089014D01*
X157118599Y-104831034D01*
X157203513Y-104551111D01*
X157232185Y-104260000D01*
X157203513Y-103968889D01*
X157118599Y-103688966D01*
X156980706Y-103430986D01*
X156795134Y-103204866D01*
X156569014Y-103019294D01*
X156514209Y-102990000D01*
X156569014Y-102960706D01*
X156795134Y-102775134D01*
X156980706Y-102549014D01*
X157118599Y-102291034D01*
X157203513Y-102011111D01*
X157232185Y-101720000D01*
X157203513Y-101428889D01*
X157118599Y-101148966D01*
X156980706Y-100890986D01*
X156795134Y-100664866D01*
X156569014Y-100479294D01*
X156514209Y-100450000D01*
X156569014Y-100420706D01*
X156795134Y-100235134D01*
X156980706Y-100009014D01*
X157118599Y-99751034D01*
X157203513Y-99471111D01*
X157232185Y-99180000D01*
X157203513Y-98888889D01*
X157118599Y-98608966D01*
X156980706Y-98350986D01*
X156795134Y-98124866D01*
X156569014Y-97939294D01*
X156514209Y-97910000D01*
X156569014Y-97880706D01*
X156795134Y-97695134D01*
X156980706Y-97469014D01*
X157118599Y-97211034D01*
X157203513Y-96931111D01*
X157232185Y-96640000D01*
X157203513Y-96348889D01*
X157118599Y-96068966D01*
X156980706Y-95810986D01*
X156795134Y-95584866D01*
X156569014Y-95399294D01*
X156514209Y-95370000D01*
X156569014Y-95340706D01*
X156795134Y-95155134D01*
X156980706Y-94929014D01*
X157118599Y-94671034D01*
X157203513Y-94391111D01*
X157232185Y-94100000D01*
X157203513Y-93808889D01*
X157118599Y-93528966D01*
X156980706Y-93270986D01*
X156795134Y-93044866D01*
X156569014Y-92859294D01*
X156504477Y-92824799D01*
X156621355Y-92755178D01*
X156837588Y-92560269D01*
X157011641Y-92326920D01*
X157136825Y-92064099D01*
X157181476Y-91916890D01*
X157060155Y-91687000D01*
X155867000Y-91687000D01*
X155867000Y-91707000D01*
X155613000Y-91707000D01*
X155613000Y-91687000D01*
X153327000Y-91687000D01*
X153327000Y-91707000D01*
X153073000Y-91707000D01*
X153073000Y-91687000D01*
X151879845Y-91687000D01*
X151758524Y-91916890D01*
X151803175Y-92064099D01*
X151928359Y-92326920D01*
X152102412Y-92560269D01*
X152318645Y-92755178D01*
X152435523Y-92824799D01*
X152370986Y-92859294D01*
X152144866Y-93044866D01*
X151959294Y-93270986D01*
X151821401Y-93528966D01*
X151736487Y-93808889D01*
X151707815Y-94100000D01*
X136710000Y-94100000D01*
X136710000Y-93127322D01*
X136713676Y-93089999D01*
X136710000Y-93052676D01*
X136710000Y-93052667D01*
X136699003Y-92941014D01*
X136655546Y-92797753D01*
X136584974Y-92665724D01*
X136531868Y-92601014D01*
X136513799Y-92578996D01*
X136513795Y-92578992D01*
X136490001Y-92549999D01*
X136461008Y-92526205D01*
X135673803Y-91739002D01*
X135673799Y-91738997D01*
X134690797Y-90755995D01*
X134713513Y-90681111D01*
X134742185Y-90390000D01*
X134713513Y-90098889D01*
X134628599Y-89818966D01*
X134490706Y-89560986D01*
X134305134Y-89334866D01*
X134277447Y-89312144D01*
X134285223Y-89310597D01*
X134400785Y-89262730D01*
X134504789Y-89193237D01*
X134593237Y-89104789D01*
X134662730Y-89000785D01*
X134710597Y-88885223D01*
X134715614Y-88860000D01*
X137487815Y-88860000D01*
X137516487Y-89151111D01*
X137601401Y-89431034D01*
X137739294Y-89689014D01*
X137924866Y-89915134D01*
X138150986Y-90100706D01*
X138205791Y-90130000D01*
X138150986Y-90159294D01*
X137924866Y-90344866D01*
X137739294Y-90570986D01*
X137601401Y-90828966D01*
X137516487Y-91108889D01*
X137487815Y-91400000D01*
X137516487Y-91691111D01*
X137601401Y-91971034D01*
X137739294Y-92229014D01*
X137924866Y-92455134D01*
X138150986Y-92640706D01*
X138408966Y-92778599D01*
X138688889Y-92863513D01*
X138907050Y-92885000D01*
X139052950Y-92885000D01*
X139271111Y-92863513D01*
X139551034Y-92778599D01*
X139809014Y-92640706D01*
X140035134Y-92455134D01*
X140220706Y-92229014D01*
X140250000Y-92174209D01*
X140279294Y-92229014D01*
X140464866Y-92455134D01*
X140690986Y-92640706D01*
X140948966Y-92778599D01*
X141228889Y-92863513D01*
X141447050Y-92885000D01*
X141592950Y-92885000D01*
X141811111Y-92863513D01*
X142091034Y-92778599D01*
X142349014Y-92640706D01*
X142575134Y-92455134D01*
X142760706Y-92229014D01*
X142790000Y-92174209D01*
X142819294Y-92229014D01*
X143004866Y-92455134D01*
X143230986Y-92640706D01*
X143488966Y-92778599D01*
X143768889Y-92863513D01*
X143987050Y-92885000D01*
X144132950Y-92885000D01*
X144351111Y-92863513D01*
X144631034Y-92778599D01*
X144889014Y-92640706D01*
X145115134Y-92455134D01*
X145139607Y-92425313D01*
X145160498Y-92494180D01*
X145219463Y-92604494D01*
X145298815Y-92701185D01*
X145395506Y-92780537D01*
X145505820Y-92839502D01*
X145625518Y-92875812D01*
X145750000Y-92888072D01*
X147450000Y-92888072D01*
X147574482Y-92875812D01*
X147694180Y-92839502D01*
X147804494Y-92780537D01*
X147901185Y-92701185D01*
X147980537Y-92604494D01*
X148039502Y-92494180D01*
X148075812Y-92374482D01*
X148088072Y-92250000D01*
X148088072Y-91203110D01*
X151758524Y-91203110D01*
X151879845Y-91433000D01*
X153073000Y-91433000D01*
X153073000Y-90239186D01*
X153327000Y-90239186D01*
X153327000Y-91433000D01*
X155613000Y-91433000D01*
X155613000Y-90239186D01*
X155867000Y-90239186D01*
X155867000Y-91433000D01*
X157060155Y-91433000D01*
X157181476Y-91203110D01*
X157136825Y-91055901D01*
X157011641Y-90793080D01*
X156837588Y-90559731D01*
X156621355Y-90364822D01*
X156371252Y-90215843D01*
X156096891Y-90118519D01*
X155867000Y-90239186D01*
X155613000Y-90239186D01*
X155383109Y-90118519D01*
X155108748Y-90215843D01*
X154858645Y-90364822D01*
X154642412Y-90559731D01*
X154470000Y-90790880D01*
X154297588Y-90559731D01*
X154081355Y-90364822D01*
X153831252Y-90215843D01*
X153556891Y-90118519D01*
X153327000Y-90239186D01*
X153073000Y-90239186D01*
X152843109Y-90118519D01*
X152568748Y-90215843D01*
X152318645Y-90364822D01*
X152102412Y-90559731D01*
X151928359Y-90793080D01*
X151803175Y-91055901D01*
X151758524Y-91203110D01*
X148088072Y-91203110D01*
X148088072Y-90550000D01*
X148075812Y-90425518D01*
X148039502Y-90305820D01*
X147980537Y-90195506D01*
X147901185Y-90098815D01*
X147804494Y-90019463D01*
X147694180Y-89960498D01*
X147618374Y-89937502D01*
X147795178Y-89741355D01*
X147944157Y-89491252D01*
X148041481Y-89216891D01*
X147920814Y-88987000D01*
X146727000Y-88987000D01*
X146727000Y-89007000D01*
X146473000Y-89007000D01*
X146473000Y-88987000D01*
X146453000Y-88987000D01*
X146453000Y-88733000D01*
X146473000Y-88733000D01*
X146473000Y-87539845D01*
X146727000Y-87539845D01*
X146727000Y-88733000D01*
X147920814Y-88733000D01*
X148041481Y-88503109D01*
X147944157Y-88228748D01*
X147815290Y-88012408D01*
X151253000Y-88012408D01*
X151253000Y-88287592D01*
X151306686Y-88557490D01*
X151411995Y-88811727D01*
X151564880Y-89040535D01*
X151759465Y-89235120D01*
X151988273Y-89388005D01*
X152242510Y-89493314D01*
X152512408Y-89547000D01*
X152787592Y-89547000D01*
X153057490Y-89493314D01*
X153311727Y-89388005D01*
X153540535Y-89235120D01*
X153735120Y-89040535D01*
X153888005Y-88811727D01*
X153993314Y-88557490D01*
X154047000Y-88287592D01*
X154047000Y-88012408D01*
X153993314Y-87742510D01*
X153888005Y-87488273D01*
X153735120Y-87259465D01*
X153540535Y-87064880D01*
X153311727Y-86911995D01*
X153057490Y-86806686D01*
X152787592Y-86753000D01*
X152512408Y-86753000D01*
X152242510Y-86806686D01*
X151988273Y-86911995D01*
X151759465Y-87064880D01*
X151564880Y-87259465D01*
X151411995Y-87488273D01*
X151306686Y-87742510D01*
X151253000Y-88012408D01*
X147815290Y-88012408D01*
X147795178Y-87978645D01*
X147600269Y-87762412D01*
X147366920Y-87588359D01*
X147104099Y-87463175D01*
X146956890Y-87418524D01*
X146727000Y-87539845D01*
X146473000Y-87539845D01*
X146243110Y-87418524D01*
X146095901Y-87463175D01*
X145833080Y-87588359D01*
X145599731Y-87762412D01*
X145404822Y-87978645D01*
X145335201Y-88095523D01*
X145300706Y-88030986D01*
X145115134Y-87804866D01*
X144889014Y-87619294D01*
X144631034Y-87481401D01*
X144351111Y-87396487D01*
X144132950Y-87375000D01*
X143987050Y-87375000D01*
X143768889Y-87396487D01*
X143488966Y-87481401D01*
X143230986Y-87619294D01*
X143004866Y-87804866D01*
X142819294Y-88030986D01*
X142790000Y-88085791D01*
X142760706Y-88030986D01*
X142575134Y-87804866D01*
X142349014Y-87619294D01*
X142091034Y-87481401D01*
X141811111Y-87396487D01*
X141592950Y-87375000D01*
X141447050Y-87375000D01*
X141228889Y-87396487D01*
X140948966Y-87481401D01*
X140690986Y-87619294D01*
X140464866Y-87804866D01*
X140279294Y-88030986D01*
X140250000Y-88085791D01*
X140220706Y-88030986D01*
X140035134Y-87804866D01*
X139809014Y-87619294D01*
X139551034Y-87481401D01*
X139271111Y-87396487D01*
X139052950Y-87375000D01*
X138907050Y-87375000D01*
X138688889Y-87396487D01*
X138408966Y-87481401D01*
X138150986Y-87619294D01*
X137924866Y-87804866D01*
X137739294Y-88030986D01*
X137601401Y-88288966D01*
X137516487Y-88568889D01*
X137487815Y-88860000D01*
X134715614Y-88860000D01*
X134735000Y-88762542D01*
X134735000Y-88135750D01*
X134576250Y-87977000D01*
X133377000Y-87977000D01*
X133377000Y-87997000D01*
X133123000Y-87997000D01*
X133123000Y-87977000D01*
X131923750Y-87977000D01*
X131765000Y-88135750D01*
X131765000Y-88762542D01*
X131789403Y-88885223D01*
X131837270Y-89000785D01*
X131906763Y-89104789D01*
X131995211Y-89193237D01*
X132099215Y-89262730D01*
X132214777Y-89310597D01*
X132222553Y-89312144D01*
X132194866Y-89334866D01*
X132009294Y-89560986D01*
X131871401Y-89818966D01*
X131786487Y-90098889D01*
X131757815Y-90390000D01*
X131786487Y-90681111D01*
X131871401Y-90961034D01*
X132009294Y-91219014D01*
X132194866Y-91445134D01*
X132420986Y-91630706D01*
X132475791Y-91660000D01*
X132420986Y-91689294D01*
X132194866Y-91874866D01*
X132009294Y-92100986D01*
X131871401Y-92358966D01*
X131786487Y-92638889D01*
X131757815Y-92930000D01*
X131786487Y-93221111D01*
X131871401Y-93501034D01*
X132009294Y-93759014D01*
X132194866Y-93985134D01*
X132420986Y-94170706D01*
X132475791Y-94200000D01*
X132420986Y-94229294D01*
X132194866Y-94414866D01*
X132009294Y-94640986D01*
X131871401Y-94898966D01*
X131786487Y-95178889D01*
X131757815Y-95470000D01*
X131786487Y-95761111D01*
X131809203Y-95835995D01*
X131310000Y-96335199D01*
X131310000Y-89631618D01*
X131380578Y-88840808D01*
X131581705Y-88105611D01*
X131815726Y-87614976D01*
X131923750Y-87723000D01*
X133123000Y-87723000D01*
X133123000Y-86523750D01*
X133377000Y-86523750D01*
X133377000Y-87723000D01*
X134576250Y-87723000D01*
X134735000Y-87564250D01*
X134735000Y-86937458D01*
X134710597Y-86814777D01*
X134662730Y-86699215D01*
X134593237Y-86595211D01*
X134504789Y-86506763D01*
X134400785Y-86437270D01*
X134285223Y-86389403D01*
X134162542Y-86365000D01*
X133535750Y-86365000D01*
X133377000Y-86523750D01*
X133123000Y-86523750D01*
X132964250Y-86365000D01*
X132802139Y-86365000D01*
X132901988Y-86268239D01*
X133534639Y-85843116D01*
X134232561Y-85536749D01*
X134979183Y-85357501D01*
X135626030Y-85310000D01*
X154768382Y-85310000D01*
X155559192Y-85380578D01*
G04 #@! TD*
M02*
