G04 #@! TF.GenerationSoftware,KiCad,Pcbnew,5.0.0-5.0.0*
G04 #@! TF.CreationDate,2018-10-11T16:36:41-07:00*
G04 #@! TF.ProjectId,gpio-expander,6770696F2D657870616E6465722E6B69,rev?*
G04 #@! TF.SameCoordinates,Original*
G04 #@! TF.FileFunction,Copper,L2,Bot,Signal*
G04 #@! TF.FilePolarity,Positive*
%FSLAX46Y46*%
G04 Gerber Fmt 4.6, Leading zero omitted, Abs format (unit mm)*
G04 Created by KiCad (PCBNEW 5.0.0-5.0.0) date Thu Oct 11 16:36:41 2018*
%MOMM*%
%LPD*%
G01*
G04 APERTURE LIST*
G04 #@! TA.AperFunction,ComponentPad*
%ADD10O,1.700000X1.700000*%
G04 #@! TD*
G04 #@! TA.AperFunction,ComponentPad*
%ADD11R,1.700000X1.700000*%
G04 #@! TD*
G04 #@! TA.AperFunction,BGAPad,CuDef*
%ADD12C,1.000000*%
G04 #@! TD*
G04 #@! TA.AperFunction,ViaPad*
%ADD13C,0.800000*%
G04 #@! TD*
G04 #@! TA.AperFunction,Conductor*
%ADD14C,1.000000*%
G04 #@! TD*
G04 #@! TA.AperFunction,Conductor*
%ADD15C,0.250000*%
G04 #@! TD*
G04 #@! TA.AperFunction,Conductor*
%ADD16C,0.254000*%
G04 #@! TD*
G04 APERTURE END LIST*
D10*
G04 #@! TO.P,J1,10*
G04 #@! TO.N,+3V3*
X133250000Y-110710000D03*
G04 #@! TO.P,J1,9*
G04 #@! TO.N,/SDA*
X133250000Y-108170000D03*
G04 #@! TO.P,J1,8*
G04 #@! TO.N,/SCL*
X133250000Y-105630000D03*
G04 #@! TO.P,J1,7*
G04 #@! TO.N,/~INT*
X133250000Y-103090000D03*
G04 #@! TO.P,J1,6*
G04 #@! TO.N,GND*
X133250000Y-100550000D03*
G04 #@! TO.P,J1,5*
G04 #@! TO.N,+3V3*
X133250000Y-98010000D03*
G04 #@! TO.P,J1,4*
G04 #@! TO.N,/SDA*
X133250000Y-95470000D03*
G04 #@! TO.P,J1,3*
G04 #@! TO.N,/SCL*
X133250000Y-92930000D03*
G04 #@! TO.P,J1,2*
G04 #@! TO.N,/~INT*
X133250000Y-90390000D03*
D11*
G04 #@! TO.P,J1,1*
G04 #@! TO.N,GND*
X133250000Y-87850000D03*
G04 #@! TD*
D12*
G04 #@! TO.P,FID3,~*
G04 #@! TO.N,N/C*
X136450000Y-112400000D03*
G04 #@! TD*
G04 #@! TO.P,FID2,~*
G04 #@! TO.N,N/C*
X152650000Y-88150000D03*
G04 #@! TD*
D10*
G04 #@! TO.P,J2,14*
G04 #@! TO.N,GND*
X155740000Y-91560000D03*
G04 #@! TO.P,J2,13*
X153200000Y-91560000D03*
G04 #@! TO.P,J2,12*
G04 #@! TO.N,/P11*
X155740000Y-94100000D03*
G04 #@! TO.P,J2,11*
G04 #@! TO.N,/P10*
X153200000Y-94100000D03*
G04 #@! TO.P,J2,10*
G04 #@! TO.N,/P07*
X155740000Y-96640000D03*
G04 #@! TO.P,J2,9*
G04 #@! TO.N,/P06*
X153200000Y-96640000D03*
G04 #@! TO.P,J2,8*
G04 #@! TO.N,/P05*
X155740000Y-99180000D03*
G04 #@! TO.P,J2,7*
G04 #@! TO.N,/P04*
X153200000Y-99180000D03*
G04 #@! TO.P,J2,6*
G04 #@! TO.N,/P03*
X155740000Y-101720000D03*
G04 #@! TO.P,J2,5*
G04 #@! TO.N,/P02*
X153200000Y-101720000D03*
G04 #@! TO.P,J2,4*
G04 #@! TO.N,/P01*
X155740000Y-104260000D03*
G04 #@! TO.P,J2,3*
G04 #@! TO.N,/P00*
X153200000Y-104260000D03*
G04 #@! TO.P,J2,2*
G04 #@! TO.N,GND*
X155740000Y-106800000D03*
D11*
G04 #@! TO.P,J2,1*
G04 #@! TO.N,+3V3*
X153200000Y-106800000D03*
G04 #@! TD*
D10*
G04 #@! TO.P,J3,8*
G04 #@! TO.N,/P17*
X138980000Y-88860000D03*
G04 #@! TO.P,J3,7*
G04 #@! TO.N,/P16*
X138980000Y-91400000D03*
G04 #@! TO.P,J3,6*
G04 #@! TO.N,/P15*
X141520000Y-88860000D03*
G04 #@! TO.P,J3,5*
G04 #@! TO.N,/P14*
X141520000Y-91400000D03*
G04 #@! TO.P,J3,4*
G04 #@! TO.N,/P13*
X144060000Y-88860000D03*
G04 #@! TO.P,J3,3*
G04 #@! TO.N,/P12*
X144060000Y-91400000D03*
G04 #@! TO.P,J3,2*
G04 #@! TO.N,GND*
X146600000Y-88860000D03*
D11*
G04 #@! TO.P,J3,1*
G04 #@! TO.N,+3V3*
X146600000Y-91400000D03*
G04 #@! TD*
D13*
G04 #@! TO.N,GND*
X134950000Y-104150000D03*
X150200000Y-95525010D03*
X139499908Y-109550000D03*
G04 #@! TO.N,+3V3*
X135500000Y-92700000D03*
X135500000Y-96800000D03*
G04 #@! TO.N,/~INT*
X145225010Y-103958854D03*
X142250000Y-104150000D03*
G04 #@! TO.N,/SCL*
X137628559Y-107949976D03*
G04 #@! TD*
D14*
G04 #@! TO.N,+3V3*
X135500000Y-92700000D02*
X135500000Y-96800000D01*
D15*
G04 #@! TO.N,/~INT*
X133250000Y-90390000D02*
X134450000Y-91590000D01*
X134450000Y-98549002D02*
X133749002Y-99250000D01*
X134450000Y-91590000D02*
X134450000Y-98549002D01*
X132400001Y-102240001D02*
X133250000Y-103090000D01*
X132074999Y-101914999D02*
X132400001Y-102240001D01*
X132074999Y-99985999D02*
X132074999Y-101914999D01*
X132810998Y-99250000D02*
X132074999Y-99985999D01*
X133749002Y-99250000D02*
X132810998Y-99250000D01*
X142250000Y-104150000D02*
X142250000Y-103090000D01*
X133250000Y-103090000D02*
X142250000Y-103090000D01*
X145216156Y-103950000D02*
X145225010Y-103958854D01*
X142250000Y-103950000D02*
X145216156Y-103950000D01*
G04 #@! TO.N,/SDA*
X133250000Y-108170000D02*
X131399989Y-106319989D01*
X132400001Y-96319999D02*
X133250000Y-95470000D01*
X131399989Y-97320011D02*
X132400001Y-96319999D01*
X131399989Y-106319989D02*
X131399989Y-97320011D01*
G04 #@! TO.N,/SCL*
X133250000Y-105630000D02*
X135569976Y-107949976D01*
X135569976Y-107949976D02*
X137628559Y-107949976D01*
G04 #@! TD*
D16*
G04 #@! TO.N,GND*
G36*
X155559192Y-85380578D02*
X156294389Y-85581705D01*
X156496671Y-85678189D01*
X156450166Y-85687439D01*
X156107118Y-85829534D01*
X155798382Y-86035825D01*
X155535825Y-86298382D01*
X155329534Y-86607118D01*
X155187439Y-86950166D01*
X155115000Y-87314344D01*
X155115000Y-87685656D01*
X155187439Y-88049834D01*
X155329534Y-88392882D01*
X155535825Y-88701618D01*
X155798382Y-88964175D01*
X156107118Y-89170466D01*
X156450166Y-89312561D01*
X156814344Y-89385000D01*
X157185656Y-89385000D01*
X157549834Y-89312561D01*
X157892882Y-89170466D01*
X158201618Y-88964175D01*
X158464175Y-88701618D01*
X158670466Y-88392882D01*
X158798228Y-88084436D01*
X158863251Y-88232561D01*
X159042499Y-88979183D01*
X159090001Y-89626044D01*
X159090000Y-108968382D01*
X159019422Y-109759193D01*
X158818295Y-110494389D01*
X158785171Y-110563835D01*
X158762561Y-110450166D01*
X158620466Y-110107118D01*
X158414175Y-109798382D01*
X158151618Y-109535825D01*
X157842882Y-109329534D01*
X157499834Y-109187439D01*
X157135656Y-109115000D01*
X156764344Y-109115000D01*
X156400166Y-109187439D01*
X156057118Y-109329534D01*
X155748382Y-109535825D01*
X155485825Y-109798382D01*
X155279534Y-110107118D01*
X155137439Y-110450166D01*
X155065000Y-110814344D01*
X155065000Y-111185656D01*
X155137439Y-111549834D01*
X155279534Y-111892882D01*
X155485825Y-112201618D01*
X155748382Y-112464175D01*
X156057118Y-112670466D01*
X156400166Y-112812561D01*
X156633014Y-112858877D01*
X156167439Y-113063251D01*
X155420819Y-113242499D01*
X154773970Y-113290000D01*
X137535477Y-113290000D01*
X137688005Y-113061727D01*
X137793314Y-112807490D01*
X137847000Y-112537592D01*
X137847000Y-112262408D01*
X137793314Y-111992510D01*
X137688005Y-111738273D01*
X137535120Y-111509465D01*
X137340535Y-111314880D01*
X137111727Y-111161995D01*
X136857490Y-111056686D01*
X136587592Y-111003000D01*
X136312408Y-111003000D01*
X136042510Y-111056686D01*
X135788273Y-111161995D01*
X135559465Y-111314880D01*
X135364880Y-111509465D01*
X135211995Y-111738273D01*
X135106686Y-111992510D01*
X135053000Y-112262408D01*
X135053000Y-112537592D01*
X135106686Y-112807490D01*
X135211995Y-113061727D01*
X135347585Y-113264651D01*
X134840807Y-113219422D01*
X134105611Y-113018295D01*
X133417645Y-112690152D01*
X132798672Y-112245374D01*
X132612122Y-112052870D01*
X132678966Y-112088599D01*
X132958889Y-112173513D01*
X133177050Y-112195000D01*
X133322950Y-112195000D01*
X133541111Y-112173513D01*
X133821034Y-112088599D01*
X134079014Y-111950706D01*
X134305134Y-111765134D01*
X134490706Y-111539014D01*
X134628599Y-111281034D01*
X134713513Y-111001111D01*
X134742185Y-110710000D01*
X134713513Y-110418889D01*
X134628599Y-110138966D01*
X134490706Y-109880986D01*
X134305134Y-109654866D01*
X134079014Y-109469294D01*
X134024209Y-109440000D01*
X134079014Y-109410706D01*
X134305134Y-109225134D01*
X134490706Y-108999014D01*
X134628599Y-108741034D01*
X134713513Y-108461111D01*
X134739765Y-108194567D01*
X135006177Y-108460979D01*
X135029975Y-108489977D01*
X135058973Y-108513775D01*
X135145700Y-108584950D01*
X135277729Y-108655522D01*
X135420990Y-108698979D01*
X135569976Y-108713653D01*
X135607309Y-108709976D01*
X136924848Y-108709976D01*
X136968785Y-108753913D01*
X137138303Y-108867181D01*
X137326661Y-108945202D01*
X137526620Y-108984976D01*
X137730498Y-108984976D01*
X137930457Y-108945202D01*
X138118815Y-108867181D01*
X138288333Y-108753913D01*
X138432496Y-108609750D01*
X138545764Y-108440232D01*
X138623785Y-108251874D01*
X138663559Y-108051915D01*
X138663559Y-107848037D01*
X138623785Y-107648078D01*
X138545764Y-107459720D01*
X138432496Y-107290202D01*
X138288333Y-107146039D01*
X138118815Y-107032771D01*
X137930457Y-106954750D01*
X137730498Y-106914976D01*
X137526620Y-106914976D01*
X137326661Y-106954750D01*
X137138303Y-107032771D01*
X136968785Y-107146039D01*
X136924848Y-107189976D01*
X135884778Y-107189976D01*
X134690797Y-105995996D01*
X134713513Y-105921111D01*
X134742185Y-105630000D01*
X134713513Y-105338889D01*
X134628599Y-105058966D01*
X134490706Y-104800986D01*
X134305134Y-104574866D01*
X134079014Y-104389294D01*
X134024209Y-104360000D01*
X134079014Y-104330706D01*
X134305134Y-104145134D01*
X134490706Y-103919014D01*
X134527595Y-103850000D01*
X141254396Y-103850000D01*
X141215000Y-104048061D01*
X141215000Y-104251939D01*
X141254774Y-104451898D01*
X141332795Y-104640256D01*
X141446063Y-104809774D01*
X141590226Y-104953937D01*
X141759744Y-105067205D01*
X141948102Y-105145226D01*
X142148061Y-105185000D01*
X142351939Y-105185000D01*
X142551898Y-105145226D01*
X142740256Y-105067205D01*
X142909774Y-104953937D01*
X143053937Y-104809774D01*
X143120604Y-104710000D01*
X144512445Y-104710000D01*
X144565236Y-104762791D01*
X144734754Y-104876059D01*
X144923112Y-104954080D01*
X145123071Y-104993854D01*
X145326949Y-104993854D01*
X145526908Y-104954080D01*
X145715266Y-104876059D01*
X145884784Y-104762791D01*
X146028947Y-104618628D01*
X146142215Y-104449110D01*
X146220236Y-104260752D01*
X146260010Y-104060793D01*
X146260010Y-103856915D01*
X146220236Y-103656956D01*
X146142215Y-103468598D01*
X146028947Y-103299080D01*
X145884784Y-103154917D01*
X145715266Y-103041649D01*
X145526908Y-102963628D01*
X145326949Y-102923854D01*
X145123071Y-102923854D01*
X144923112Y-102963628D01*
X144734754Y-103041649D01*
X144565236Y-103154917D01*
X144530153Y-103190000D01*
X143010000Y-103190000D01*
X143010000Y-103127333D01*
X143013677Y-103090000D01*
X142999003Y-102941014D01*
X142955546Y-102797753D01*
X142884974Y-102665724D01*
X142790001Y-102549999D01*
X142674276Y-102455026D01*
X142542247Y-102384454D01*
X142398986Y-102340997D01*
X142287333Y-102330000D01*
X142250000Y-102326323D01*
X142212667Y-102330000D01*
X134527595Y-102330000D01*
X134490706Y-102260986D01*
X134305134Y-102034866D01*
X134079014Y-101849294D01*
X134014477Y-101814799D01*
X134131355Y-101745178D01*
X134347588Y-101550269D01*
X134521641Y-101316920D01*
X134646825Y-101054099D01*
X134691476Y-100906890D01*
X134570155Y-100677000D01*
X133377000Y-100677000D01*
X133377000Y-100697000D01*
X133123000Y-100697000D01*
X133123000Y-100677000D01*
X133103000Y-100677000D01*
X133103000Y-100423000D01*
X133123000Y-100423000D01*
X133123000Y-100403000D01*
X133377000Y-100403000D01*
X133377000Y-100423000D01*
X134570155Y-100423000D01*
X134691476Y-100193110D01*
X134646825Y-100045901D01*
X134521641Y-99783080D01*
X134422987Y-99650816D01*
X134961002Y-99112801D01*
X134990001Y-99089003D01*
X135016332Y-99056919D01*
X135084974Y-98973279D01*
X135155546Y-98841249D01*
X135160255Y-98825724D01*
X135199003Y-98697988D01*
X135210000Y-98586335D01*
X135210000Y-98586325D01*
X135213676Y-98549002D01*
X135210000Y-98511679D01*
X135210000Y-97898100D01*
X135277502Y-97918577D01*
X135500000Y-97940491D01*
X135722499Y-97918577D01*
X135936447Y-97853676D01*
X136133623Y-97748284D01*
X136306449Y-97606449D01*
X136448284Y-97433623D01*
X136553676Y-97236447D01*
X136618577Y-97022499D01*
X136635000Y-96855752D01*
X136635000Y-94100000D01*
X151707815Y-94100000D01*
X151736487Y-94391111D01*
X151821401Y-94671034D01*
X151959294Y-94929014D01*
X152144866Y-95155134D01*
X152370986Y-95340706D01*
X152425791Y-95370000D01*
X152370986Y-95399294D01*
X152144866Y-95584866D01*
X151959294Y-95810986D01*
X151821401Y-96068966D01*
X151736487Y-96348889D01*
X151707815Y-96640000D01*
X151736487Y-96931111D01*
X151821401Y-97211034D01*
X151959294Y-97469014D01*
X152144866Y-97695134D01*
X152370986Y-97880706D01*
X152425791Y-97910000D01*
X152370986Y-97939294D01*
X152144866Y-98124866D01*
X151959294Y-98350986D01*
X151821401Y-98608966D01*
X151736487Y-98888889D01*
X151707815Y-99180000D01*
X151736487Y-99471111D01*
X151821401Y-99751034D01*
X151959294Y-100009014D01*
X152144866Y-100235134D01*
X152370986Y-100420706D01*
X152425791Y-100450000D01*
X152370986Y-100479294D01*
X152144866Y-100664866D01*
X151959294Y-100890986D01*
X151821401Y-101148966D01*
X151736487Y-101428889D01*
X151707815Y-101720000D01*
X151736487Y-102011111D01*
X151821401Y-102291034D01*
X151959294Y-102549014D01*
X152144866Y-102775134D01*
X152370986Y-102960706D01*
X152425791Y-102990000D01*
X152370986Y-103019294D01*
X152144866Y-103204866D01*
X151959294Y-103430986D01*
X151821401Y-103688966D01*
X151736487Y-103968889D01*
X151707815Y-104260000D01*
X151736487Y-104551111D01*
X151821401Y-104831034D01*
X151959294Y-105089014D01*
X152144866Y-105315134D01*
X152174687Y-105339607D01*
X152105820Y-105360498D01*
X151995506Y-105419463D01*
X151898815Y-105498815D01*
X151819463Y-105595506D01*
X151760498Y-105705820D01*
X151724188Y-105825518D01*
X151711928Y-105950000D01*
X151711928Y-107650000D01*
X151724188Y-107774482D01*
X151760498Y-107894180D01*
X151819463Y-108004494D01*
X151898815Y-108101185D01*
X151995506Y-108180537D01*
X152105820Y-108239502D01*
X152225518Y-108275812D01*
X152350000Y-108288072D01*
X154050000Y-108288072D01*
X154174482Y-108275812D01*
X154294180Y-108239502D01*
X154404494Y-108180537D01*
X154501185Y-108101185D01*
X154580537Y-108004494D01*
X154639502Y-107894180D01*
X154662498Y-107818374D01*
X154858645Y-107995178D01*
X155108748Y-108144157D01*
X155383109Y-108241481D01*
X155613000Y-108120814D01*
X155613000Y-106927000D01*
X155867000Y-106927000D01*
X155867000Y-108120814D01*
X156096891Y-108241481D01*
X156371252Y-108144157D01*
X156621355Y-107995178D01*
X156837588Y-107800269D01*
X157011641Y-107566920D01*
X157136825Y-107304099D01*
X157181476Y-107156890D01*
X157060155Y-106927000D01*
X155867000Y-106927000D01*
X155613000Y-106927000D01*
X155593000Y-106927000D01*
X155593000Y-106673000D01*
X155613000Y-106673000D01*
X155613000Y-106653000D01*
X155867000Y-106653000D01*
X155867000Y-106673000D01*
X157060155Y-106673000D01*
X157181476Y-106443110D01*
X157136825Y-106295901D01*
X157011641Y-106033080D01*
X156837588Y-105799731D01*
X156621355Y-105604822D01*
X156504477Y-105535201D01*
X156569014Y-105500706D01*
X156795134Y-105315134D01*
X156980706Y-105089014D01*
X157118599Y-104831034D01*
X157203513Y-104551111D01*
X157232185Y-104260000D01*
X157203513Y-103968889D01*
X157118599Y-103688966D01*
X156980706Y-103430986D01*
X156795134Y-103204866D01*
X156569014Y-103019294D01*
X156514209Y-102990000D01*
X156569014Y-102960706D01*
X156795134Y-102775134D01*
X156980706Y-102549014D01*
X157118599Y-102291034D01*
X157203513Y-102011111D01*
X157232185Y-101720000D01*
X157203513Y-101428889D01*
X157118599Y-101148966D01*
X156980706Y-100890986D01*
X156795134Y-100664866D01*
X156569014Y-100479294D01*
X156514209Y-100450000D01*
X156569014Y-100420706D01*
X156795134Y-100235134D01*
X156980706Y-100009014D01*
X157118599Y-99751034D01*
X157203513Y-99471111D01*
X157232185Y-99180000D01*
X157203513Y-98888889D01*
X157118599Y-98608966D01*
X156980706Y-98350986D01*
X156795134Y-98124866D01*
X156569014Y-97939294D01*
X156514209Y-97910000D01*
X156569014Y-97880706D01*
X156795134Y-97695134D01*
X156980706Y-97469014D01*
X157118599Y-97211034D01*
X157203513Y-96931111D01*
X157232185Y-96640000D01*
X157203513Y-96348889D01*
X157118599Y-96068966D01*
X156980706Y-95810986D01*
X156795134Y-95584866D01*
X156569014Y-95399294D01*
X156514209Y-95370000D01*
X156569014Y-95340706D01*
X156795134Y-95155134D01*
X156980706Y-94929014D01*
X157118599Y-94671034D01*
X157203513Y-94391111D01*
X157232185Y-94100000D01*
X157203513Y-93808889D01*
X157118599Y-93528966D01*
X156980706Y-93270986D01*
X156795134Y-93044866D01*
X156569014Y-92859294D01*
X156504477Y-92824799D01*
X156621355Y-92755178D01*
X156837588Y-92560269D01*
X157011641Y-92326920D01*
X157136825Y-92064099D01*
X157181476Y-91916890D01*
X157060155Y-91687000D01*
X155867000Y-91687000D01*
X155867000Y-91707000D01*
X155613000Y-91707000D01*
X155613000Y-91687000D01*
X153327000Y-91687000D01*
X153327000Y-91707000D01*
X153073000Y-91707000D01*
X153073000Y-91687000D01*
X151879845Y-91687000D01*
X151758524Y-91916890D01*
X151803175Y-92064099D01*
X151928359Y-92326920D01*
X152102412Y-92560269D01*
X152318645Y-92755178D01*
X152435523Y-92824799D01*
X152370986Y-92859294D01*
X152144866Y-93044866D01*
X151959294Y-93270986D01*
X151821401Y-93528966D01*
X151736487Y-93808889D01*
X151707815Y-94100000D01*
X136635000Y-94100000D01*
X136635000Y-92644248D01*
X136618577Y-92477501D01*
X136553676Y-92263553D01*
X136448284Y-92066377D01*
X136306449Y-91893551D01*
X136133623Y-91751716D01*
X135936446Y-91646324D01*
X135722498Y-91581423D01*
X135500000Y-91559509D01*
X135277501Y-91581423D01*
X135212581Y-91601116D01*
X135213676Y-91589999D01*
X135210000Y-91552676D01*
X135210000Y-91552667D01*
X135199003Y-91441014D01*
X135155546Y-91297753D01*
X135084974Y-91165724D01*
X134990001Y-91049999D01*
X134961004Y-91026202D01*
X134690797Y-90755995D01*
X134713513Y-90681111D01*
X134742185Y-90390000D01*
X134713513Y-90098889D01*
X134628599Y-89818966D01*
X134490706Y-89560986D01*
X134305134Y-89334866D01*
X134277447Y-89312144D01*
X134285223Y-89310597D01*
X134400785Y-89262730D01*
X134504789Y-89193237D01*
X134593237Y-89104789D01*
X134662730Y-89000785D01*
X134710597Y-88885223D01*
X134715614Y-88860000D01*
X137487815Y-88860000D01*
X137516487Y-89151111D01*
X137601401Y-89431034D01*
X137739294Y-89689014D01*
X137924866Y-89915134D01*
X138150986Y-90100706D01*
X138205791Y-90130000D01*
X138150986Y-90159294D01*
X137924866Y-90344866D01*
X137739294Y-90570986D01*
X137601401Y-90828966D01*
X137516487Y-91108889D01*
X137487815Y-91400000D01*
X137516487Y-91691111D01*
X137601401Y-91971034D01*
X137739294Y-92229014D01*
X137924866Y-92455134D01*
X138150986Y-92640706D01*
X138408966Y-92778599D01*
X138688889Y-92863513D01*
X138907050Y-92885000D01*
X139052950Y-92885000D01*
X139271111Y-92863513D01*
X139551034Y-92778599D01*
X139809014Y-92640706D01*
X140035134Y-92455134D01*
X140220706Y-92229014D01*
X140250000Y-92174209D01*
X140279294Y-92229014D01*
X140464866Y-92455134D01*
X140690986Y-92640706D01*
X140948966Y-92778599D01*
X141228889Y-92863513D01*
X141447050Y-92885000D01*
X141592950Y-92885000D01*
X141811111Y-92863513D01*
X142091034Y-92778599D01*
X142349014Y-92640706D01*
X142575134Y-92455134D01*
X142760706Y-92229014D01*
X142790000Y-92174209D01*
X142819294Y-92229014D01*
X143004866Y-92455134D01*
X143230986Y-92640706D01*
X143488966Y-92778599D01*
X143768889Y-92863513D01*
X143987050Y-92885000D01*
X144132950Y-92885000D01*
X144351111Y-92863513D01*
X144631034Y-92778599D01*
X144889014Y-92640706D01*
X145115134Y-92455134D01*
X145139607Y-92425313D01*
X145160498Y-92494180D01*
X145219463Y-92604494D01*
X145298815Y-92701185D01*
X145395506Y-92780537D01*
X145505820Y-92839502D01*
X145625518Y-92875812D01*
X145750000Y-92888072D01*
X147450000Y-92888072D01*
X147574482Y-92875812D01*
X147694180Y-92839502D01*
X147804494Y-92780537D01*
X147901185Y-92701185D01*
X147980537Y-92604494D01*
X148039502Y-92494180D01*
X148075812Y-92374482D01*
X148088072Y-92250000D01*
X148088072Y-91203110D01*
X151758524Y-91203110D01*
X151879845Y-91433000D01*
X153073000Y-91433000D01*
X153073000Y-90239186D01*
X153327000Y-90239186D01*
X153327000Y-91433000D01*
X155613000Y-91433000D01*
X155613000Y-90239186D01*
X155867000Y-90239186D01*
X155867000Y-91433000D01*
X157060155Y-91433000D01*
X157181476Y-91203110D01*
X157136825Y-91055901D01*
X157011641Y-90793080D01*
X156837588Y-90559731D01*
X156621355Y-90364822D01*
X156371252Y-90215843D01*
X156096891Y-90118519D01*
X155867000Y-90239186D01*
X155613000Y-90239186D01*
X155383109Y-90118519D01*
X155108748Y-90215843D01*
X154858645Y-90364822D01*
X154642412Y-90559731D01*
X154470000Y-90790880D01*
X154297588Y-90559731D01*
X154081355Y-90364822D01*
X153831252Y-90215843D01*
X153556891Y-90118519D01*
X153327000Y-90239186D01*
X153073000Y-90239186D01*
X152843109Y-90118519D01*
X152568748Y-90215843D01*
X152318645Y-90364822D01*
X152102412Y-90559731D01*
X151928359Y-90793080D01*
X151803175Y-91055901D01*
X151758524Y-91203110D01*
X148088072Y-91203110D01*
X148088072Y-90550000D01*
X148075812Y-90425518D01*
X148039502Y-90305820D01*
X147980537Y-90195506D01*
X147901185Y-90098815D01*
X147804494Y-90019463D01*
X147694180Y-89960498D01*
X147618374Y-89937502D01*
X147795178Y-89741355D01*
X147944157Y-89491252D01*
X148041481Y-89216891D01*
X147920814Y-88987000D01*
X146727000Y-88987000D01*
X146727000Y-89007000D01*
X146473000Y-89007000D01*
X146473000Y-88987000D01*
X146453000Y-88987000D01*
X146453000Y-88733000D01*
X146473000Y-88733000D01*
X146473000Y-87539845D01*
X146727000Y-87539845D01*
X146727000Y-88733000D01*
X147920814Y-88733000D01*
X148041481Y-88503109D01*
X147944157Y-88228748D01*
X147815290Y-88012408D01*
X151253000Y-88012408D01*
X151253000Y-88287592D01*
X151306686Y-88557490D01*
X151411995Y-88811727D01*
X151564880Y-89040535D01*
X151759465Y-89235120D01*
X151988273Y-89388005D01*
X152242510Y-89493314D01*
X152512408Y-89547000D01*
X152787592Y-89547000D01*
X153057490Y-89493314D01*
X153311727Y-89388005D01*
X153540535Y-89235120D01*
X153735120Y-89040535D01*
X153888005Y-88811727D01*
X153993314Y-88557490D01*
X154047000Y-88287592D01*
X154047000Y-88012408D01*
X153993314Y-87742510D01*
X153888005Y-87488273D01*
X153735120Y-87259465D01*
X153540535Y-87064880D01*
X153311727Y-86911995D01*
X153057490Y-86806686D01*
X152787592Y-86753000D01*
X152512408Y-86753000D01*
X152242510Y-86806686D01*
X151988273Y-86911995D01*
X151759465Y-87064880D01*
X151564880Y-87259465D01*
X151411995Y-87488273D01*
X151306686Y-87742510D01*
X151253000Y-88012408D01*
X147815290Y-88012408D01*
X147795178Y-87978645D01*
X147600269Y-87762412D01*
X147366920Y-87588359D01*
X147104099Y-87463175D01*
X146956890Y-87418524D01*
X146727000Y-87539845D01*
X146473000Y-87539845D01*
X146243110Y-87418524D01*
X146095901Y-87463175D01*
X145833080Y-87588359D01*
X145599731Y-87762412D01*
X145404822Y-87978645D01*
X145335201Y-88095523D01*
X145300706Y-88030986D01*
X145115134Y-87804866D01*
X144889014Y-87619294D01*
X144631034Y-87481401D01*
X144351111Y-87396487D01*
X144132950Y-87375000D01*
X143987050Y-87375000D01*
X143768889Y-87396487D01*
X143488966Y-87481401D01*
X143230986Y-87619294D01*
X143004866Y-87804866D01*
X142819294Y-88030986D01*
X142790000Y-88085791D01*
X142760706Y-88030986D01*
X142575134Y-87804866D01*
X142349014Y-87619294D01*
X142091034Y-87481401D01*
X141811111Y-87396487D01*
X141592950Y-87375000D01*
X141447050Y-87375000D01*
X141228889Y-87396487D01*
X140948966Y-87481401D01*
X140690986Y-87619294D01*
X140464866Y-87804866D01*
X140279294Y-88030986D01*
X140250000Y-88085791D01*
X140220706Y-88030986D01*
X140035134Y-87804866D01*
X139809014Y-87619294D01*
X139551034Y-87481401D01*
X139271111Y-87396487D01*
X139052950Y-87375000D01*
X138907050Y-87375000D01*
X138688889Y-87396487D01*
X138408966Y-87481401D01*
X138150986Y-87619294D01*
X137924866Y-87804866D01*
X137739294Y-88030986D01*
X137601401Y-88288966D01*
X137516487Y-88568889D01*
X137487815Y-88860000D01*
X134715614Y-88860000D01*
X134735000Y-88762542D01*
X134735000Y-88135750D01*
X134576250Y-87977000D01*
X133377000Y-87977000D01*
X133377000Y-87997000D01*
X133123000Y-87997000D01*
X133123000Y-87977000D01*
X131923750Y-87977000D01*
X131765000Y-88135750D01*
X131765000Y-88762542D01*
X131789403Y-88885223D01*
X131837270Y-89000785D01*
X131906763Y-89104789D01*
X131995211Y-89193237D01*
X132099215Y-89262730D01*
X132214777Y-89310597D01*
X132222553Y-89312144D01*
X132194866Y-89334866D01*
X132009294Y-89560986D01*
X131871401Y-89818966D01*
X131786487Y-90098889D01*
X131757815Y-90390000D01*
X131786487Y-90681111D01*
X131871401Y-90961034D01*
X132009294Y-91219014D01*
X132194866Y-91445134D01*
X132420986Y-91630706D01*
X132475791Y-91660000D01*
X132420986Y-91689294D01*
X132194866Y-91874866D01*
X132009294Y-92100986D01*
X131871401Y-92358966D01*
X131786487Y-92638889D01*
X131757815Y-92930000D01*
X131786487Y-93221111D01*
X131871401Y-93501034D01*
X132009294Y-93759014D01*
X132194866Y-93985134D01*
X132420986Y-94170706D01*
X132475791Y-94200000D01*
X132420986Y-94229294D01*
X132194866Y-94414866D01*
X132009294Y-94640986D01*
X131871401Y-94898966D01*
X131786487Y-95178889D01*
X131757815Y-95470000D01*
X131786487Y-95761111D01*
X131809203Y-95835995D01*
X131310000Y-96335199D01*
X131310000Y-89631618D01*
X131380578Y-88840808D01*
X131581705Y-88105611D01*
X131815726Y-87614976D01*
X131923750Y-87723000D01*
X133123000Y-87723000D01*
X133123000Y-86523750D01*
X133377000Y-86523750D01*
X133377000Y-87723000D01*
X134576250Y-87723000D01*
X134735000Y-87564250D01*
X134735000Y-86937458D01*
X134710597Y-86814777D01*
X134662730Y-86699215D01*
X134593237Y-86595211D01*
X134504789Y-86506763D01*
X134400785Y-86437270D01*
X134285223Y-86389403D01*
X134162542Y-86365000D01*
X133535750Y-86365000D01*
X133377000Y-86523750D01*
X133123000Y-86523750D01*
X132964250Y-86365000D01*
X132802139Y-86365000D01*
X132901988Y-86268239D01*
X133534639Y-85843116D01*
X134232561Y-85536749D01*
X134979183Y-85357501D01*
X135626030Y-85310000D01*
X154768382Y-85310000D01*
X155559192Y-85380578D01*
X155559192Y-85380578D01*
G37*
X155559192Y-85380578D02*
X156294389Y-85581705D01*
X156496671Y-85678189D01*
X156450166Y-85687439D01*
X156107118Y-85829534D01*
X155798382Y-86035825D01*
X155535825Y-86298382D01*
X155329534Y-86607118D01*
X155187439Y-86950166D01*
X155115000Y-87314344D01*
X155115000Y-87685656D01*
X155187439Y-88049834D01*
X155329534Y-88392882D01*
X155535825Y-88701618D01*
X155798382Y-88964175D01*
X156107118Y-89170466D01*
X156450166Y-89312561D01*
X156814344Y-89385000D01*
X157185656Y-89385000D01*
X157549834Y-89312561D01*
X157892882Y-89170466D01*
X158201618Y-88964175D01*
X158464175Y-88701618D01*
X158670466Y-88392882D01*
X158798228Y-88084436D01*
X158863251Y-88232561D01*
X159042499Y-88979183D01*
X159090001Y-89626044D01*
X159090000Y-108968382D01*
X159019422Y-109759193D01*
X158818295Y-110494389D01*
X158785171Y-110563835D01*
X158762561Y-110450166D01*
X158620466Y-110107118D01*
X158414175Y-109798382D01*
X158151618Y-109535825D01*
X157842882Y-109329534D01*
X157499834Y-109187439D01*
X157135656Y-109115000D01*
X156764344Y-109115000D01*
X156400166Y-109187439D01*
X156057118Y-109329534D01*
X155748382Y-109535825D01*
X155485825Y-109798382D01*
X155279534Y-110107118D01*
X155137439Y-110450166D01*
X155065000Y-110814344D01*
X155065000Y-111185656D01*
X155137439Y-111549834D01*
X155279534Y-111892882D01*
X155485825Y-112201618D01*
X155748382Y-112464175D01*
X156057118Y-112670466D01*
X156400166Y-112812561D01*
X156633014Y-112858877D01*
X156167439Y-113063251D01*
X155420819Y-113242499D01*
X154773970Y-113290000D01*
X137535477Y-113290000D01*
X137688005Y-113061727D01*
X137793314Y-112807490D01*
X137847000Y-112537592D01*
X137847000Y-112262408D01*
X137793314Y-111992510D01*
X137688005Y-111738273D01*
X137535120Y-111509465D01*
X137340535Y-111314880D01*
X137111727Y-111161995D01*
X136857490Y-111056686D01*
X136587592Y-111003000D01*
X136312408Y-111003000D01*
X136042510Y-111056686D01*
X135788273Y-111161995D01*
X135559465Y-111314880D01*
X135364880Y-111509465D01*
X135211995Y-111738273D01*
X135106686Y-111992510D01*
X135053000Y-112262408D01*
X135053000Y-112537592D01*
X135106686Y-112807490D01*
X135211995Y-113061727D01*
X135347585Y-113264651D01*
X134840807Y-113219422D01*
X134105611Y-113018295D01*
X133417645Y-112690152D01*
X132798672Y-112245374D01*
X132612122Y-112052870D01*
X132678966Y-112088599D01*
X132958889Y-112173513D01*
X133177050Y-112195000D01*
X133322950Y-112195000D01*
X133541111Y-112173513D01*
X133821034Y-112088599D01*
X134079014Y-111950706D01*
X134305134Y-111765134D01*
X134490706Y-111539014D01*
X134628599Y-111281034D01*
X134713513Y-111001111D01*
X134742185Y-110710000D01*
X134713513Y-110418889D01*
X134628599Y-110138966D01*
X134490706Y-109880986D01*
X134305134Y-109654866D01*
X134079014Y-109469294D01*
X134024209Y-109440000D01*
X134079014Y-109410706D01*
X134305134Y-109225134D01*
X134490706Y-108999014D01*
X134628599Y-108741034D01*
X134713513Y-108461111D01*
X134739765Y-108194567D01*
X135006177Y-108460979D01*
X135029975Y-108489977D01*
X135058973Y-108513775D01*
X135145700Y-108584950D01*
X135277729Y-108655522D01*
X135420990Y-108698979D01*
X135569976Y-108713653D01*
X135607309Y-108709976D01*
X136924848Y-108709976D01*
X136968785Y-108753913D01*
X137138303Y-108867181D01*
X137326661Y-108945202D01*
X137526620Y-108984976D01*
X137730498Y-108984976D01*
X137930457Y-108945202D01*
X138118815Y-108867181D01*
X138288333Y-108753913D01*
X138432496Y-108609750D01*
X138545764Y-108440232D01*
X138623785Y-108251874D01*
X138663559Y-108051915D01*
X138663559Y-107848037D01*
X138623785Y-107648078D01*
X138545764Y-107459720D01*
X138432496Y-107290202D01*
X138288333Y-107146039D01*
X138118815Y-107032771D01*
X137930457Y-106954750D01*
X137730498Y-106914976D01*
X137526620Y-106914976D01*
X137326661Y-106954750D01*
X137138303Y-107032771D01*
X136968785Y-107146039D01*
X136924848Y-107189976D01*
X135884778Y-107189976D01*
X134690797Y-105995996D01*
X134713513Y-105921111D01*
X134742185Y-105630000D01*
X134713513Y-105338889D01*
X134628599Y-105058966D01*
X134490706Y-104800986D01*
X134305134Y-104574866D01*
X134079014Y-104389294D01*
X134024209Y-104360000D01*
X134079014Y-104330706D01*
X134305134Y-104145134D01*
X134490706Y-103919014D01*
X134527595Y-103850000D01*
X141254396Y-103850000D01*
X141215000Y-104048061D01*
X141215000Y-104251939D01*
X141254774Y-104451898D01*
X141332795Y-104640256D01*
X141446063Y-104809774D01*
X141590226Y-104953937D01*
X141759744Y-105067205D01*
X141948102Y-105145226D01*
X142148061Y-105185000D01*
X142351939Y-105185000D01*
X142551898Y-105145226D01*
X142740256Y-105067205D01*
X142909774Y-104953937D01*
X143053937Y-104809774D01*
X143120604Y-104710000D01*
X144512445Y-104710000D01*
X144565236Y-104762791D01*
X144734754Y-104876059D01*
X144923112Y-104954080D01*
X145123071Y-104993854D01*
X145326949Y-104993854D01*
X145526908Y-104954080D01*
X145715266Y-104876059D01*
X145884784Y-104762791D01*
X146028947Y-104618628D01*
X146142215Y-104449110D01*
X146220236Y-104260752D01*
X146260010Y-104060793D01*
X146260010Y-103856915D01*
X146220236Y-103656956D01*
X146142215Y-103468598D01*
X146028947Y-103299080D01*
X145884784Y-103154917D01*
X145715266Y-103041649D01*
X145526908Y-102963628D01*
X145326949Y-102923854D01*
X145123071Y-102923854D01*
X144923112Y-102963628D01*
X144734754Y-103041649D01*
X144565236Y-103154917D01*
X144530153Y-103190000D01*
X143010000Y-103190000D01*
X143010000Y-103127333D01*
X143013677Y-103090000D01*
X142999003Y-102941014D01*
X142955546Y-102797753D01*
X142884974Y-102665724D01*
X142790001Y-102549999D01*
X142674276Y-102455026D01*
X142542247Y-102384454D01*
X142398986Y-102340997D01*
X142287333Y-102330000D01*
X142250000Y-102326323D01*
X142212667Y-102330000D01*
X134527595Y-102330000D01*
X134490706Y-102260986D01*
X134305134Y-102034866D01*
X134079014Y-101849294D01*
X134014477Y-101814799D01*
X134131355Y-101745178D01*
X134347588Y-101550269D01*
X134521641Y-101316920D01*
X134646825Y-101054099D01*
X134691476Y-100906890D01*
X134570155Y-100677000D01*
X133377000Y-100677000D01*
X133377000Y-100697000D01*
X133123000Y-100697000D01*
X133123000Y-100677000D01*
X133103000Y-100677000D01*
X133103000Y-100423000D01*
X133123000Y-100423000D01*
X133123000Y-100403000D01*
X133377000Y-100403000D01*
X133377000Y-100423000D01*
X134570155Y-100423000D01*
X134691476Y-100193110D01*
X134646825Y-100045901D01*
X134521641Y-99783080D01*
X134422987Y-99650816D01*
X134961002Y-99112801D01*
X134990001Y-99089003D01*
X135016332Y-99056919D01*
X135084974Y-98973279D01*
X135155546Y-98841249D01*
X135160255Y-98825724D01*
X135199003Y-98697988D01*
X135210000Y-98586335D01*
X135210000Y-98586325D01*
X135213676Y-98549002D01*
X135210000Y-98511679D01*
X135210000Y-97898100D01*
X135277502Y-97918577D01*
X135500000Y-97940491D01*
X135722499Y-97918577D01*
X135936447Y-97853676D01*
X136133623Y-97748284D01*
X136306449Y-97606449D01*
X136448284Y-97433623D01*
X136553676Y-97236447D01*
X136618577Y-97022499D01*
X136635000Y-96855752D01*
X136635000Y-94100000D01*
X151707815Y-94100000D01*
X151736487Y-94391111D01*
X151821401Y-94671034D01*
X151959294Y-94929014D01*
X152144866Y-95155134D01*
X152370986Y-95340706D01*
X152425791Y-95370000D01*
X152370986Y-95399294D01*
X152144866Y-95584866D01*
X151959294Y-95810986D01*
X151821401Y-96068966D01*
X151736487Y-96348889D01*
X151707815Y-96640000D01*
X151736487Y-96931111D01*
X151821401Y-97211034D01*
X151959294Y-97469014D01*
X152144866Y-97695134D01*
X152370986Y-97880706D01*
X152425791Y-97910000D01*
X152370986Y-97939294D01*
X152144866Y-98124866D01*
X151959294Y-98350986D01*
X151821401Y-98608966D01*
X151736487Y-98888889D01*
X151707815Y-99180000D01*
X151736487Y-99471111D01*
X151821401Y-99751034D01*
X151959294Y-100009014D01*
X152144866Y-100235134D01*
X152370986Y-100420706D01*
X152425791Y-100450000D01*
X152370986Y-100479294D01*
X152144866Y-100664866D01*
X151959294Y-100890986D01*
X151821401Y-101148966D01*
X151736487Y-101428889D01*
X151707815Y-101720000D01*
X151736487Y-102011111D01*
X151821401Y-102291034D01*
X151959294Y-102549014D01*
X152144866Y-102775134D01*
X152370986Y-102960706D01*
X152425791Y-102990000D01*
X152370986Y-103019294D01*
X152144866Y-103204866D01*
X151959294Y-103430986D01*
X151821401Y-103688966D01*
X151736487Y-103968889D01*
X151707815Y-104260000D01*
X151736487Y-104551111D01*
X151821401Y-104831034D01*
X151959294Y-105089014D01*
X152144866Y-105315134D01*
X152174687Y-105339607D01*
X152105820Y-105360498D01*
X151995506Y-105419463D01*
X151898815Y-105498815D01*
X151819463Y-105595506D01*
X151760498Y-105705820D01*
X151724188Y-105825518D01*
X151711928Y-105950000D01*
X151711928Y-107650000D01*
X151724188Y-107774482D01*
X151760498Y-107894180D01*
X151819463Y-108004494D01*
X151898815Y-108101185D01*
X151995506Y-108180537D01*
X152105820Y-108239502D01*
X152225518Y-108275812D01*
X152350000Y-108288072D01*
X154050000Y-108288072D01*
X154174482Y-108275812D01*
X154294180Y-108239502D01*
X154404494Y-108180537D01*
X154501185Y-108101185D01*
X154580537Y-108004494D01*
X154639502Y-107894180D01*
X154662498Y-107818374D01*
X154858645Y-107995178D01*
X155108748Y-108144157D01*
X155383109Y-108241481D01*
X155613000Y-108120814D01*
X155613000Y-106927000D01*
X155867000Y-106927000D01*
X155867000Y-108120814D01*
X156096891Y-108241481D01*
X156371252Y-108144157D01*
X156621355Y-107995178D01*
X156837588Y-107800269D01*
X157011641Y-107566920D01*
X157136825Y-107304099D01*
X157181476Y-107156890D01*
X157060155Y-106927000D01*
X155867000Y-106927000D01*
X155613000Y-106927000D01*
X155593000Y-106927000D01*
X155593000Y-106673000D01*
X155613000Y-106673000D01*
X155613000Y-106653000D01*
X155867000Y-106653000D01*
X155867000Y-106673000D01*
X157060155Y-106673000D01*
X157181476Y-106443110D01*
X157136825Y-106295901D01*
X157011641Y-106033080D01*
X156837588Y-105799731D01*
X156621355Y-105604822D01*
X156504477Y-105535201D01*
X156569014Y-105500706D01*
X156795134Y-105315134D01*
X156980706Y-105089014D01*
X157118599Y-104831034D01*
X157203513Y-104551111D01*
X157232185Y-104260000D01*
X157203513Y-103968889D01*
X157118599Y-103688966D01*
X156980706Y-103430986D01*
X156795134Y-103204866D01*
X156569014Y-103019294D01*
X156514209Y-102990000D01*
X156569014Y-102960706D01*
X156795134Y-102775134D01*
X156980706Y-102549014D01*
X157118599Y-102291034D01*
X157203513Y-102011111D01*
X157232185Y-101720000D01*
X157203513Y-101428889D01*
X157118599Y-101148966D01*
X156980706Y-100890986D01*
X156795134Y-100664866D01*
X156569014Y-100479294D01*
X156514209Y-100450000D01*
X156569014Y-100420706D01*
X156795134Y-100235134D01*
X156980706Y-100009014D01*
X157118599Y-99751034D01*
X157203513Y-99471111D01*
X157232185Y-99180000D01*
X157203513Y-98888889D01*
X157118599Y-98608966D01*
X156980706Y-98350986D01*
X156795134Y-98124866D01*
X156569014Y-97939294D01*
X156514209Y-97910000D01*
X156569014Y-97880706D01*
X156795134Y-97695134D01*
X156980706Y-97469014D01*
X157118599Y-97211034D01*
X157203513Y-96931111D01*
X157232185Y-96640000D01*
X157203513Y-96348889D01*
X157118599Y-96068966D01*
X156980706Y-95810986D01*
X156795134Y-95584866D01*
X156569014Y-95399294D01*
X156514209Y-95370000D01*
X156569014Y-95340706D01*
X156795134Y-95155134D01*
X156980706Y-94929014D01*
X157118599Y-94671034D01*
X157203513Y-94391111D01*
X157232185Y-94100000D01*
X157203513Y-93808889D01*
X157118599Y-93528966D01*
X156980706Y-93270986D01*
X156795134Y-93044866D01*
X156569014Y-92859294D01*
X156504477Y-92824799D01*
X156621355Y-92755178D01*
X156837588Y-92560269D01*
X157011641Y-92326920D01*
X157136825Y-92064099D01*
X157181476Y-91916890D01*
X157060155Y-91687000D01*
X155867000Y-91687000D01*
X155867000Y-91707000D01*
X155613000Y-91707000D01*
X155613000Y-91687000D01*
X153327000Y-91687000D01*
X153327000Y-91707000D01*
X153073000Y-91707000D01*
X153073000Y-91687000D01*
X151879845Y-91687000D01*
X151758524Y-91916890D01*
X151803175Y-92064099D01*
X151928359Y-92326920D01*
X152102412Y-92560269D01*
X152318645Y-92755178D01*
X152435523Y-92824799D01*
X152370986Y-92859294D01*
X152144866Y-93044866D01*
X151959294Y-93270986D01*
X151821401Y-93528966D01*
X151736487Y-93808889D01*
X151707815Y-94100000D01*
X136635000Y-94100000D01*
X136635000Y-92644248D01*
X136618577Y-92477501D01*
X136553676Y-92263553D01*
X136448284Y-92066377D01*
X136306449Y-91893551D01*
X136133623Y-91751716D01*
X135936446Y-91646324D01*
X135722498Y-91581423D01*
X135500000Y-91559509D01*
X135277501Y-91581423D01*
X135212581Y-91601116D01*
X135213676Y-91589999D01*
X135210000Y-91552676D01*
X135210000Y-91552667D01*
X135199003Y-91441014D01*
X135155546Y-91297753D01*
X135084974Y-91165724D01*
X134990001Y-91049999D01*
X134961004Y-91026202D01*
X134690797Y-90755995D01*
X134713513Y-90681111D01*
X134742185Y-90390000D01*
X134713513Y-90098889D01*
X134628599Y-89818966D01*
X134490706Y-89560986D01*
X134305134Y-89334866D01*
X134277447Y-89312144D01*
X134285223Y-89310597D01*
X134400785Y-89262730D01*
X134504789Y-89193237D01*
X134593237Y-89104789D01*
X134662730Y-89000785D01*
X134710597Y-88885223D01*
X134715614Y-88860000D01*
X137487815Y-88860000D01*
X137516487Y-89151111D01*
X137601401Y-89431034D01*
X137739294Y-89689014D01*
X137924866Y-89915134D01*
X138150986Y-90100706D01*
X138205791Y-90130000D01*
X138150986Y-90159294D01*
X137924866Y-90344866D01*
X137739294Y-90570986D01*
X137601401Y-90828966D01*
X137516487Y-91108889D01*
X137487815Y-91400000D01*
X137516487Y-91691111D01*
X137601401Y-91971034D01*
X137739294Y-92229014D01*
X137924866Y-92455134D01*
X138150986Y-92640706D01*
X138408966Y-92778599D01*
X138688889Y-92863513D01*
X138907050Y-92885000D01*
X139052950Y-92885000D01*
X139271111Y-92863513D01*
X139551034Y-92778599D01*
X139809014Y-92640706D01*
X140035134Y-92455134D01*
X140220706Y-92229014D01*
X140250000Y-92174209D01*
X140279294Y-92229014D01*
X140464866Y-92455134D01*
X140690986Y-92640706D01*
X140948966Y-92778599D01*
X141228889Y-92863513D01*
X141447050Y-92885000D01*
X141592950Y-92885000D01*
X141811111Y-92863513D01*
X142091034Y-92778599D01*
X142349014Y-92640706D01*
X142575134Y-92455134D01*
X142760706Y-92229014D01*
X142790000Y-92174209D01*
X142819294Y-92229014D01*
X143004866Y-92455134D01*
X143230986Y-92640706D01*
X143488966Y-92778599D01*
X143768889Y-92863513D01*
X143987050Y-92885000D01*
X144132950Y-92885000D01*
X144351111Y-92863513D01*
X144631034Y-92778599D01*
X144889014Y-92640706D01*
X145115134Y-92455134D01*
X145139607Y-92425313D01*
X145160498Y-92494180D01*
X145219463Y-92604494D01*
X145298815Y-92701185D01*
X145395506Y-92780537D01*
X145505820Y-92839502D01*
X145625518Y-92875812D01*
X145750000Y-92888072D01*
X147450000Y-92888072D01*
X147574482Y-92875812D01*
X147694180Y-92839502D01*
X147804494Y-92780537D01*
X147901185Y-92701185D01*
X147980537Y-92604494D01*
X148039502Y-92494180D01*
X148075812Y-92374482D01*
X148088072Y-92250000D01*
X148088072Y-91203110D01*
X151758524Y-91203110D01*
X151879845Y-91433000D01*
X153073000Y-91433000D01*
X153073000Y-90239186D01*
X153327000Y-90239186D01*
X153327000Y-91433000D01*
X155613000Y-91433000D01*
X155613000Y-90239186D01*
X155867000Y-90239186D01*
X155867000Y-91433000D01*
X157060155Y-91433000D01*
X157181476Y-91203110D01*
X157136825Y-91055901D01*
X157011641Y-90793080D01*
X156837588Y-90559731D01*
X156621355Y-90364822D01*
X156371252Y-90215843D01*
X156096891Y-90118519D01*
X155867000Y-90239186D01*
X155613000Y-90239186D01*
X155383109Y-90118519D01*
X155108748Y-90215843D01*
X154858645Y-90364822D01*
X154642412Y-90559731D01*
X154470000Y-90790880D01*
X154297588Y-90559731D01*
X154081355Y-90364822D01*
X153831252Y-90215843D01*
X153556891Y-90118519D01*
X153327000Y-90239186D01*
X153073000Y-90239186D01*
X152843109Y-90118519D01*
X152568748Y-90215843D01*
X152318645Y-90364822D01*
X152102412Y-90559731D01*
X151928359Y-90793080D01*
X151803175Y-91055901D01*
X151758524Y-91203110D01*
X148088072Y-91203110D01*
X148088072Y-90550000D01*
X148075812Y-90425518D01*
X148039502Y-90305820D01*
X147980537Y-90195506D01*
X147901185Y-90098815D01*
X147804494Y-90019463D01*
X147694180Y-89960498D01*
X147618374Y-89937502D01*
X147795178Y-89741355D01*
X147944157Y-89491252D01*
X148041481Y-89216891D01*
X147920814Y-88987000D01*
X146727000Y-88987000D01*
X146727000Y-89007000D01*
X146473000Y-89007000D01*
X146473000Y-88987000D01*
X146453000Y-88987000D01*
X146453000Y-88733000D01*
X146473000Y-88733000D01*
X146473000Y-87539845D01*
X146727000Y-87539845D01*
X146727000Y-88733000D01*
X147920814Y-88733000D01*
X148041481Y-88503109D01*
X147944157Y-88228748D01*
X147815290Y-88012408D01*
X151253000Y-88012408D01*
X151253000Y-88287592D01*
X151306686Y-88557490D01*
X151411995Y-88811727D01*
X151564880Y-89040535D01*
X151759465Y-89235120D01*
X151988273Y-89388005D01*
X152242510Y-89493314D01*
X152512408Y-89547000D01*
X152787592Y-89547000D01*
X153057490Y-89493314D01*
X153311727Y-89388005D01*
X153540535Y-89235120D01*
X153735120Y-89040535D01*
X153888005Y-88811727D01*
X153993314Y-88557490D01*
X154047000Y-88287592D01*
X154047000Y-88012408D01*
X153993314Y-87742510D01*
X153888005Y-87488273D01*
X153735120Y-87259465D01*
X153540535Y-87064880D01*
X153311727Y-86911995D01*
X153057490Y-86806686D01*
X152787592Y-86753000D01*
X152512408Y-86753000D01*
X152242510Y-86806686D01*
X151988273Y-86911995D01*
X151759465Y-87064880D01*
X151564880Y-87259465D01*
X151411995Y-87488273D01*
X151306686Y-87742510D01*
X151253000Y-88012408D01*
X147815290Y-88012408D01*
X147795178Y-87978645D01*
X147600269Y-87762412D01*
X147366920Y-87588359D01*
X147104099Y-87463175D01*
X146956890Y-87418524D01*
X146727000Y-87539845D01*
X146473000Y-87539845D01*
X146243110Y-87418524D01*
X146095901Y-87463175D01*
X145833080Y-87588359D01*
X145599731Y-87762412D01*
X145404822Y-87978645D01*
X145335201Y-88095523D01*
X145300706Y-88030986D01*
X145115134Y-87804866D01*
X144889014Y-87619294D01*
X144631034Y-87481401D01*
X144351111Y-87396487D01*
X144132950Y-87375000D01*
X143987050Y-87375000D01*
X143768889Y-87396487D01*
X143488966Y-87481401D01*
X143230986Y-87619294D01*
X143004866Y-87804866D01*
X142819294Y-88030986D01*
X142790000Y-88085791D01*
X142760706Y-88030986D01*
X142575134Y-87804866D01*
X142349014Y-87619294D01*
X142091034Y-87481401D01*
X141811111Y-87396487D01*
X141592950Y-87375000D01*
X141447050Y-87375000D01*
X141228889Y-87396487D01*
X140948966Y-87481401D01*
X140690986Y-87619294D01*
X140464866Y-87804866D01*
X140279294Y-88030986D01*
X140250000Y-88085791D01*
X140220706Y-88030986D01*
X140035134Y-87804866D01*
X139809014Y-87619294D01*
X139551034Y-87481401D01*
X139271111Y-87396487D01*
X139052950Y-87375000D01*
X138907050Y-87375000D01*
X138688889Y-87396487D01*
X138408966Y-87481401D01*
X138150986Y-87619294D01*
X137924866Y-87804866D01*
X137739294Y-88030986D01*
X137601401Y-88288966D01*
X137516487Y-88568889D01*
X137487815Y-88860000D01*
X134715614Y-88860000D01*
X134735000Y-88762542D01*
X134735000Y-88135750D01*
X134576250Y-87977000D01*
X133377000Y-87977000D01*
X133377000Y-87997000D01*
X133123000Y-87997000D01*
X133123000Y-87977000D01*
X131923750Y-87977000D01*
X131765000Y-88135750D01*
X131765000Y-88762542D01*
X131789403Y-88885223D01*
X131837270Y-89000785D01*
X131906763Y-89104789D01*
X131995211Y-89193237D01*
X132099215Y-89262730D01*
X132214777Y-89310597D01*
X132222553Y-89312144D01*
X132194866Y-89334866D01*
X132009294Y-89560986D01*
X131871401Y-89818966D01*
X131786487Y-90098889D01*
X131757815Y-90390000D01*
X131786487Y-90681111D01*
X131871401Y-90961034D01*
X132009294Y-91219014D01*
X132194866Y-91445134D01*
X132420986Y-91630706D01*
X132475791Y-91660000D01*
X132420986Y-91689294D01*
X132194866Y-91874866D01*
X132009294Y-92100986D01*
X131871401Y-92358966D01*
X131786487Y-92638889D01*
X131757815Y-92930000D01*
X131786487Y-93221111D01*
X131871401Y-93501034D01*
X132009294Y-93759014D01*
X132194866Y-93985134D01*
X132420986Y-94170706D01*
X132475791Y-94200000D01*
X132420986Y-94229294D01*
X132194866Y-94414866D01*
X132009294Y-94640986D01*
X131871401Y-94898966D01*
X131786487Y-95178889D01*
X131757815Y-95470000D01*
X131786487Y-95761111D01*
X131809203Y-95835995D01*
X131310000Y-96335199D01*
X131310000Y-89631618D01*
X131380578Y-88840808D01*
X131581705Y-88105611D01*
X131815726Y-87614976D01*
X131923750Y-87723000D01*
X133123000Y-87723000D01*
X133123000Y-86523750D01*
X133377000Y-86523750D01*
X133377000Y-87723000D01*
X134576250Y-87723000D01*
X134735000Y-87564250D01*
X134735000Y-86937458D01*
X134710597Y-86814777D01*
X134662730Y-86699215D01*
X134593237Y-86595211D01*
X134504789Y-86506763D01*
X134400785Y-86437270D01*
X134285223Y-86389403D01*
X134162542Y-86365000D01*
X133535750Y-86365000D01*
X133377000Y-86523750D01*
X133123000Y-86523750D01*
X132964250Y-86365000D01*
X132802139Y-86365000D01*
X132901988Y-86268239D01*
X133534639Y-85843116D01*
X134232561Y-85536749D01*
X134979183Y-85357501D01*
X135626030Y-85310000D01*
X154768382Y-85310000D01*
X155559192Y-85380578D01*
G04 #@! TD*
M02*
