G04 #@! TF.GenerationSoftware,KiCad,Pcbnew,5.0.0-5.0.0*
G04 #@! TF.CreationDate,2018-10-11T16:36:41-07:00*
G04 #@! TF.ProjectId,gpio-expander,6770696F2D657870616E6465722E6B69,rev?*
G04 #@! TF.SameCoordinates,Original*
G04 #@! TF.FileFunction,Soldermask,Top*
G04 #@! TF.FilePolarity,Negative*
%FSLAX46Y46*%
G04 Gerber Fmt 4.6, Leading zero omitted, Abs format (unit mm)*
G04 Created by KiCad (PCBNEW 5.0.0-5.0.0) date Thu Oct 11 16:36:41 2018*
%MOMM*%
%LPD*%
G01*
G04 APERTURE LIST*
%ADD10R,0.501600X1.001600*%
%ADD11R,1.201600X0.501600*%
%ADD12C,2.601600*%
%ADD13O,1.801600X1.801600*%
%ADD14R,1.801600X1.801600*%
%ADD15C,2.540000*%
%ADD16R,0.861600X1.351600*%
%ADD17C,0.100000*%
%ADD18C,1.076600*%
%ADD19C,0.976600*%
%ADD20R,0.901600X0.601600*%
%ADD21R,0.901600X0.501600*%
G04 APERTURE END LIST*
D10*
G04 #@! TO.C,RN1*
X140850000Y-104900000D03*
X140050000Y-104900000D03*
X140050000Y-106600000D03*
X140850000Y-106600000D03*
G04 #@! TD*
D11*
G04 #@! TO.C,U1*
X148850000Y-102750000D03*
X148850000Y-102100000D03*
X148850000Y-101450000D03*
X148850000Y-100800000D03*
X148850000Y-100150000D03*
X148850000Y-99500000D03*
X148850000Y-98850000D03*
X148850000Y-98200000D03*
X148850000Y-97550000D03*
X148850000Y-96900000D03*
X148850000Y-96250000D03*
X148850000Y-95600000D03*
X143150000Y-95600000D03*
X143150000Y-96250000D03*
X143150000Y-96900000D03*
X143150000Y-97550000D03*
X143150000Y-98200000D03*
X143150000Y-98850000D03*
X143150000Y-99500000D03*
X143150000Y-100150000D03*
X143150000Y-100800000D03*
X143150000Y-101450000D03*
X143150000Y-102100000D03*
X143150000Y-102750000D03*
G04 #@! TD*
D12*
G04 #@! TO.C,MH1*
X156950000Y-111000000D03*
G04 #@! TD*
G04 #@! TO.C,MH2*
X157000000Y-87500000D03*
G04 #@! TD*
D13*
G04 #@! TO.C,J1*
X133250000Y-110710000D03*
X133250000Y-108170000D03*
X133250000Y-105630000D03*
X133250000Y-103090000D03*
X133250000Y-100550000D03*
X133250000Y-98010000D03*
X133250000Y-95470000D03*
X133250000Y-92930000D03*
X133250000Y-90390000D03*
D14*
X133250000Y-87850000D03*
G04 #@! TD*
D15*
G04 #@! TO.C,FID4*
X136450000Y-112400000D03*
G04 #@! TD*
G04 #@! TO.C,FID1*
X152650000Y-88150000D03*
G04 #@! TD*
D16*
G04 #@! TO.C,SW1*
X143020000Y-106165000D03*
X143020000Y-112315000D03*
X144290000Y-106165000D03*
X144290000Y-112315000D03*
X145560000Y-106165000D03*
X145560000Y-112315000D03*
X146830000Y-106165000D03*
X146830000Y-112315000D03*
X148100000Y-106165000D03*
X148100000Y-112315000D03*
X149370000Y-106165000D03*
X149370000Y-112315000D03*
G04 #@! TD*
D17*
G04 #@! TO.C,C4*
G36*
X150108031Y-88725496D02*
X150134159Y-88729372D01*
X150159780Y-88735790D01*
X150184649Y-88744688D01*
X150208526Y-88755981D01*
X150231182Y-88769560D01*
X150252397Y-88785294D01*
X150271968Y-88803032D01*
X150289706Y-88822603D01*
X150305440Y-88843818D01*
X150319019Y-88866474D01*
X150330312Y-88890351D01*
X150339210Y-88915220D01*
X150345628Y-88940841D01*
X150349504Y-88966969D01*
X150350800Y-88993350D01*
X150350800Y-89531650D01*
X150349504Y-89558031D01*
X150345628Y-89584159D01*
X150339210Y-89609780D01*
X150330312Y-89634649D01*
X150319019Y-89658526D01*
X150305440Y-89681182D01*
X150289706Y-89702397D01*
X150271968Y-89721968D01*
X150252397Y-89739706D01*
X150231182Y-89755440D01*
X150208526Y-89769019D01*
X150184649Y-89780312D01*
X150159780Y-89789210D01*
X150134159Y-89795628D01*
X150108031Y-89799504D01*
X150081650Y-89800800D01*
X149118350Y-89800800D01*
X149091969Y-89799504D01*
X149065841Y-89795628D01*
X149040220Y-89789210D01*
X149015351Y-89780312D01*
X148991474Y-89769019D01*
X148968818Y-89755440D01*
X148947603Y-89739706D01*
X148928032Y-89721968D01*
X148910294Y-89702397D01*
X148894560Y-89681182D01*
X148880981Y-89658526D01*
X148869688Y-89634649D01*
X148860790Y-89609780D01*
X148854372Y-89584159D01*
X148850496Y-89558031D01*
X148849200Y-89531650D01*
X148849200Y-88993350D01*
X148850496Y-88966969D01*
X148854372Y-88940841D01*
X148860790Y-88915220D01*
X148869688Y-88890351D01*
X148880981Y-88866474D01*
X148894560Y-88843818D01*
X148910294Y-88822603D01*
X148928032Y-88803032D01*
X148947603Y-88785294D01*
X148968818Y-88769560D01*
X148991474Y-88755981D01*
X149015351Y-88744688D01*
X149040220Y-88735790D01*
X149065841Y-88729372D01*
X149091969Y-88725496D01*
X149118350Y-88724200D01*
X150081650Y-88724200D01*
X150108031Y-88725496D01*
X150108031Y-88725496D01*
G37*
D18*
X149600000Y-89262500D03*
D17*
G36*
X150108031Y-90600496D02*
X150134159Y-90604372D01*
X150159780Y-90610790D01*
X150184649Y-90619688D01*
X150208526Y-90630981D01*
X150231182Y-90644560D01*
X150252397Y-90660294D01*
X150271968Y-90678032D01*
X150289706Y-90697603D01*
X150305440Y-90718818D01*
X150319019Y-90741474D01*
X150330312Y-90765351D01*
X150339210Y-90790220D01*
X150345628Y-90815841D01*
X150349504Y-90841969D01*
X150350800Y-90868350D01*
X150350800Y-91406650D01*
X150349504Y-91433031D01*
X150345628Y-91459159D01*
X150339210Y-91484780D01*
X150330312Y-91509649D01*
X150319019Y-91533526D01*
X150305440Y-91556182D01*
X150289706Y-91577397D01*
X150271968Y-91596968D01*
X150252397Y-91614706D01*
X150231182Y-91630440D01*
X150208526Y-91644019D01*
X150184649Y-91655312D01*
X150159780Y-91664210D01*
X150134159Y-91670628D01*
X150108031Y-91674504D01*
X150081650Y-91675800D01*
X149118350Y-91675800D01*
X149091969Y-91674504D01*
X149065841Y-91670628D01*
X149040220Y-91664210D01*
X149015351Y-91655312D01*
X148991474Y-91644019D01*
X148968818Y-91630440D01*
X148947603Y-91614706D01*
X148928032Y-91596968D01*
X148910294Y-91577397D01*
X148894560Y-91556182D01*
X148880981Y-91533526D01*
X148869688Y-91509649D01*
X148860790Y-91484780D01*
X148854372Y-91459159D01*
X148850496Y-91433031D01*
X148849200Y-91406650D01*
X148849200Y-90868350D01*
X148850496Y-90841969D01*
X148854372Y-90815841D01*
X148860790Y-90790220D01*
X148869688Y-90765351D01*
X148880981Y-90741474D01*
X148894560Y-90718818D01*
X148910294Y-90697603D01*
X148928032Y-90678032D01*
X148947603Y-90660294D01*
X148968818Y-90644560D01*
X148991474Y-90630981D01*
X149015351Y-90619688D01*
X149040220Y-90610790D01*
X149065841Y-90604372D01*
X149091969Y-90600496D01*
X149118350Y-90599200D01*
X150081650Y-90599200D01*
X150108031Y-90600496D01*
X150108031Y-90600496D01*
G37*
D18*
X149600000Y-91137500D03*
G04 #@! TD*
D17*
G04 #@! TO.C,C3*
G36*
X136808031Y-101500496D02*
X136834159Y-101504372D01*
X136859780Y-101510790D01*
X136884649Y-101519688D01*
X136908526Y-101530981D01*
X136931182Y-101544560D01*
X136952397Y-101560294D01*
X136971968Y-101578032D01*
X136989706Y-101597603D01*
X137005440Y-101618818D01*
X137019019Y-101641474D01*
X137030312Y-101665351D01*
X137039210Y-101690220D01*
X137045628Y-101715841D01*
X137049504Y-101741969D01*
X137050800Y-101768350D01*
X137050800Y-102731650D01*
X137049504Y-102758031D01*
X137045628Y-102784159D01*
X137039210Y-102809780D01*
X137030312Y-102834649D01*
X137019019Y-102858526D01*
X137005440Y-102881182D01*
X136989706Y-102902397D01*
X136971968Y-102921968D01*
X136952397Y-102939706D01*
X136931182Y-102955440D01*
X136908526Y-102969019D01*
X136884649Y-102980312D01*
X136859780Y-102989210D01*
X136834159Y-102995628D01*
X136808031Y-102999504D01*
X136781650Y-103000800D01*
X136243350Y-103000800D01*
X136216969Y-102999504D01*
X136190841Y-102995628D01*
X136165220Y-102989210D01*
X136140351Y-102980312D01*
X136116474Y-102969019D01*
X136093818Y-102955440D01*
X136072603Y-102939706D01*
X136053032Y-102921968D01*
X136035294Y-102902397D01*
X136019560Y-102881182D01*
X136005981Y-102858526D01*
X135994688Y-102834649D01*
X135985790Y-102809780D01*
X135979372Y-102784159D01*
X135975496Y-102758031D01*
X135974200Y-102731650D01*
X135974200Y-101768350D01*
X135975496Y-101741969D01*
X135979372Y-101715841D01*
X135985790Y-101690220D01*
X135994688Y-101665351D01*
X136005981Y-101641474D01*
X136019560Y-101618818D01*
X136035294Y-101597603D01*
X136053032Y-101578032D01*
X136072603Y-101560294D01*
X136093818Y-101544560D01*
X136116474Y-101530981D01*
X136140351Y-101519688D01*
X136165220Y-101510790D01*
X136190841Y-101504372D01*
X136216969Y-101500496D01*
X136243350Y-101499200D01*
X136781650Y-101499200D01*
X136808031Y-101500496D01*
X136808031Y-101500496D01*
G37*
D18*
X136512500Y-102250000D03*
D17*
G36*
X138683031Y-101500496D02*
X138709159Y-101504372D01*
X138734780Y-101510790D01*
X138759649Y-101519688D01*
X138783526Y-101530981D01*
X138806182Y-101544560D01*
X138827397Y-101560294D01*
X138846968Y-101578032D01*
X138864706Y-101597603D01*
X138880440Y-101618818D01*
X138894019Y-101641474D01*
X138905312Y-101665351D01*
X138914210Y-101690220D01*
X138920628Y-101715841D01*
X138924504Y-101741969D01*
X138925800Y-101768350D01*
X138925800Y-102731650D01*
X138924504Y-102758031D01*
X138920628Y-102784159D01*
X138914210Y-102809780D01*
X138905312Y-102834649D01*
X138894019Y-102858526D01*
X138880440Y-102881182D01*
X138864706Y-102902397D01*
X138846968Y-102921968D01*
X138827397Y-102939706D01*
X138806182Y-102955440D01*
X138783526Y-102969019D01*
X138759649Y-102980312D01*
X138734780Y-102989210D01*
X138709159Y-102995628D01*
X138683031Y-102999504D01*
X138656650Y-103000800D01*
X138118350Y-103000800D01*
X138091969Y-102999504D01*
X138065841Y-102995628D01*
X138040220Y-102989210D01*
X138015351Y-102980312D01*
X137991474Y-102969019D01*
X137968818Y-102955440D01*
X137947603Y-102939706D01*
X137928032Y-102921968D01*
X137910294Y-102902397D01*
X137894560Y-102881182D01*
X137880981Y-102858526D01*
X137869688Y-102834649D01*
X137860790Y-102809780D01*
X137854372Y-102784159D01*
X137850496Y-102758031D01*
X137849200Y-102731650D01*
X137849200Y-101768350D01*
X137850496Y-101741969D01*
X137854372Y-101715841D01*
X137860790Y-101690220D01*
X137869688Y-101665351D01*
X137880981Y-101641474D01*
X137894560Y-101618818D01*
X137910294Y-101597603D01*
X137928032Y-101578032D01*
X137947603Y-101560294D01*
X137968818Y-101544560D01*
X137991474Y-101530981D01*
X138015351Y-101519688D01*
X138040220Y-101510790D01*
X138065841Y-101504372D01*
X138091969Y-101500496D01*
X138118350Y-101499200D01*
X138656650Y-101499200D01*
X138683031Y-101500496D01*
X138683031Y-101500496D01*
G37*
D18*
X138387500Y-102250000D03*
G04 #@! TD*
D17*
G04 #@! TO.C,C1*
G36*
X136680581Y-100025376D02*
X136704281Y-100028891D01*
X136727523Y-100034713D01*
X136750082Y-100042785D01*
X136771742Y-100053029D01*
X136792292Y-100065347D01*
X136811537Y-100079619D01*
X136829290Y-100095710D01*
X136845381Y-100113463D01*
X136859653Y-100132708D01*
X136871971Y-100153258D01*
X136882215Y-100174918D01*
X136890287Y-100197477D01*
X136896109Y-100220719D01*
X136899624Y-100244419D01*
X136900800Y-100268350D01*
X136900800Y-100831650D01*
X136899624Y-100855581D01*
X136896109Y-100879281D01*
X136890287Y-100902523D01*
X136882215Y-100925082D01*
X136871971Y-100946742D01*
X136859653Y-100967292D01*
X136845381Y-100986537D01*
X136829290Y-101004290D01*
X136811537Y-101020381D01*
X136792292Y-101034653D01*
X136771742Y-101046971D01*
X136750082Y-101057215D01*
X136727523Y-101065287D01*
X136704281Y-101071109D01*
X136680581Y-101074624D01*
X136656650Y-101075800D01*
X136168350Y-101075800D01*
X136144419Y-101074624D01*
X136120719Y-101071109D01*
X136097477Y-101065287D01*
X136074918Y-101057215D01*
X136053258Y-101046971D01*
X136032708Y-101034653D01*
X136013463Y-101020381D01*
X135995710Y-101004290D01*
X135979619Y-100986537D01*
X135965347Y-100967292D01*
X135953029Y-100946742D01*
X135942785Y-100925082D01*
X135934713Y-100902523D01*
X135928891Y-100879281D01*
X135925376Y-100855581D01*
X135924200Y-100831650D01*
X135924200Y-100268350D01*
X135925376Y-100244419D01*
X135928891Y-100220719D01*
X135934713Y-100197477D01*
X135942785Y-100174918D01*
X135953029Y-100153258D01*
X135965347Y-100132708D01*
X135979619Y-100113463D01*
X135995710Y-100095710D01*
X136013463Y-100079619D01*
X136032708Y-100065347D01*
X136053258Y-100053029D01*
X136074918Y-100042785D01*
X136097477Y-100034713D01*
X136120719Y-100028891D01*
X136144419Y-100025376D01*
X136168350Y-100024200D01*
X136656650Y-100024200D01*
X136680581Y-100025376D01*
X136680581Y-100025376D01*
G37*
D19*
X136412500Y-100550000D03*
D17*
G36*
X138255581Y-100025376D02*
X138279281Y-100028891D01*
X138302523Y-100034713D01*
X138325082Y-100042785D01*
X138346742Y-100053029D01*
X138367292Y-100065347D01*
X138386537Y-100079619D01*
X138404290Y-100095710D01*
X138420381Y-100113463D01*
X138434653Y-100132708D01*
X138446971Y-100153258D01*
X138457215Y-100174918D01*
X138465287Y-100197477D01*
X138471109Y-100220719D01*
X138474624Y-100244419D01*
X138475800Y-100268350D01*
X138475800Y-100831650D01*
X138474624Y-100855581D01*
X138471109Y-100879281D01*
X138465287Y-100902523D01*
X138457215Y-100925082D01*
X138446971Y-100946742D01*
X138434653Y-100967292D01*
X138420381Y-100986537D01*
X138404290Y-101004290D01*
X138386537Y-101020381D01*
X138367292Y-101034653D01*
X138346742Y-101046971D01*
X138325082Y-101057215D01*
X138302523Y-101065287D01*
X138279281Y-101071109D01*
X138255581Y-101074624D01*
X138231650Y-101075800D01*
X137743350Y-101075800D01*
X137719419Y-101074624D01*
X137695719Y-101071109D01*
X137672477Y-101065287D01*
X137649918Y-101057215D01*
X137628258Y-101046971D01*
X137607708Y-101034653D01*
X137588463Y-101020381D01*
X137570710Y-101004290D01*
X137554619Y-100986537D01*
X137540347Y-100967292D01*
X137528029Y-100946742D01*
X137517785Y-100925082D01*
X137509713Y-100902523D01*
X137503891Y-100879281D01*
X137500376Y-100855581D01*
X137499200Y-100831650D01*
X137499200Y-100268350D01*
X137500376Y-100244419D01*
X137503891Y-100220719D01*
X137509713Y-100197477D01*
X137517785Y-100174918D01*
X137528029Y-100153258D01*
X137540347Y-100132708D01*
X137554619Y-100113463D01*
X137570710Y-100095710D01*
X137588463Y-100079619D01*
X137607708Y-100065347D01*
X137628258Y-100053029D01*
X137649918Y-100042785D01*
X137672477Y-100034713D01*
X137695719Y-100028891D01*
X137719419Y-100025376D01*
X137743350Y-100024200D01*
X138231650Y-100024200D01*
X138255581Y-100025376D01*
X138255581Y-100025376D01*
G37*
D19*
X137987500Y-100550000D03*
G04 #@! TD*
D17*
G04 #@! TO.C,C2*
G36*
X153783031Y-108800496D02*
X153809159Y-108804372D01*
X153834780Y-108810790D01*
X153859649Y-108819688D01*
X153883526Y-108830981D01*
X153906182Y-108844560D01*
X153927397Y-108860294D01*
X153946968Y-108878032D01*
X153964706Y-108897603D01*
X153980440Y-108918818D01*
X153994019Y-108941474D01*
X154005312Y-108965351D01*
X154014210Y-108990220D01*
X154020628Y-109015841D01*
X154024504Y-109041969D01*
X154025800Y-109068350D01*
X154025800Y-110031650D01*
X154024504Y-110058031D01*
X154020628Y-110084159D01*
X154014210Y-110109780D01*
X154005312Y-110134649D01*
X153994019Y-110158526D01*
X153980440Y-110181182D01*
X153964706Y-110202397D01*
X153946968Y-110221968D01*
X153927397Y-110239706D01*
X153906182Y-110255440D01*
X153883526Y-110269019D01*
X153859649Y-110280312D01*
X153834780Y-110289210D01*
X153809159Y-110295628D01*
X153783031Y-110299504D01*
X153756650Y-110300800D01*
X153218350Y-110300800D01*
X153191969Y-110299504D01*
X153165841Y-110295628D01*
X153140220Y-110289210D01*
X153115351Y-110280312D01*
X153091474Y-110269019D01*
X153068818Y-110255440D01*
X153047603Y-110239706D01*
X153028032Y-110221968D01*
X153010294Y-110202397D01*
X152994560Y-110181182D01*
X152980981Y-110158526D01*
X152969688Y-110134649D01*
X152960790Y-110109780D01*
X152954372Y-110084159D01*
X152950496Y-110058031D01*
X152949200Y-110031650D01*
X152949200Y-109068350D01*
X152950496Y-109041969D01*
X152954372Y-109015841D01*
X152960790Y-108990220D01*
X152969688Y-108965351D01*
X152980981Y-108941474D01*
X152994560Y-108918818D01*
X153010294Y-108897603D01*
X153028032Y-108878032D01*
X153047603Y-108860294D01*
X153068818Y-108844560D01*
X153091474Y-108830981D01*
X153115351Y-108819688D01*
X153140220Y-108810790D01*
X153165841Y-108804372D01*
X153191969Y-108800496D01*
X153218350Y-108799200D01*
X153756650Y-108799200D01*
X153783031Y-108800496D01*
X153783031Y-108800496D01*
G37*
D18*
X153487500Y-109550000D03*
D17*
G36*
X151908031Y-108800496D02*
X151934159Y-108804372D01*
X151959780Y-108810790D01*
X151984649Y-108819688D01*
X152008526Y-108830981D01*
X152031182Y-108844560D01*
X152052397Y-108860294D01*
X152071968Y-108878032D01*
X152089706Y-108897603D01*
X152105440Y-108918818D01*
X152119019Y-108941474D01*
X152130312Y-108965351D01*
X152139210Y-108990220D01*
X152145628Y-109015841D01*
X152149504Y-109041969D01*
X152150800Y-109068350D01*
X152150800Y-110031650D01*
X152149504Y-110058031D01*
X152145628Y-110084159D01*
X152139210Y-110109780D01*
X152130312Y-110134649D01*
X152119019Y-110158526D01*
X152105440Y-110181182D01*
X152089706Y-110202397D01*
X152071968Y-110221968D01*
X152052397Y-110239706D01*
X152031182Y-110255440D01*
X152008526Y-110269019D01*
X151984649Y-110280312D01*
X151959780Y-110289210D01*
X151934159Y-110295628D01*
X151908031Y-110299504D01*
X151881650Y-110300800D01*
X151343350Y-110300800D01*
X151316969Y-110299504D01*
X151290841Y-110295628D01*
X151265220Y-110289210D01*
X151240351Y-110280312D01*
X151216474Y-110269019D01*
X151193818Y-110255440D01*
X151172603Y-110239706D01*
X151153032Y-110221968D01*
X151135294Y-110202397D01*
X151119560Y-110181182D01*
X151105981Y-110158526D01*
X151094688Y-110134649D01*
X151085790Y-110109780D01*
X151079372Y-110084159D01*
X151075496Y-110058031D01*
X151074200Y-110031650D01*
X151074200Y-109068350D01*
X151075496Y-109041969D01*
X151079372Y-109015841D01*
X151085790Y-108990220D01*
X151094688Y-108965351D01*
X151105981Y-108941474D01*
X151119560Y-108918818D01*
X151135294Y-108897603D01*
X151153032Y-108878032D01*
X151172603Y-108860294D01*
X151193818Y-108844560D01*
X151216474Y-108830981D01*
X151240351Y-108819688D01*
X151265220Y-108810790D01*
X151290841Y-108804372D01*
X151316969Y-108800496D01*
X151343350Y-108799200D01*
X151881650Y-108799200D01*
X151908031Y-108800496D01*
X151908031Y-108800496D01*
G37*
D18*
X151612500Y-109550000D03*
G04 #@! TD*
D20*
G04 #@! TO.C,RN2*
X138700000Y-107950000D03*
D21*
X138700000Y-108750000D03*
D20*
X138700000Y-110350000D03*
D21*
X138700000Y-109550000D03*
D20*
X140500000Y-107950000D03*
D21*
X140500000Y-109550000D03*
X140500000Y-108750000D03*
D20*
X140500000Y-110350000D03*
G04 #@! TD*
D13*
G04 #@! TO.C,J2*
X155740000Y-91560000D03*
X153200000Y-91560000D03*
X155740000Y-94100000D03*
X153200000Y-94100000D03*
X155740000Y-96640000D03*
X153200000Y-96640000D03*
X155740000Y-99180000D03*
X153200000Y-99180000D03*
X155740000Y-101720000D03*
X153200000Y-101720000D03*
X155740000Y-104260000D03*
X153200000Y-104260000D03*
X155740000Y-106800000D03*
D14*
X153200000Y-106800000D03*
G04 #@! TD*
D13*
G04 #@! TO.C,J3*
X138980000Y-88860000D03*
X138980000Y-91400000D03*
X141520000Y-88860000D03*
X141520000Y-91400000D03*
X144060000Y-88860000D03*
X144060000Y-91400000D03*
X146600000Y-88860000D03*
D14*
X146600000Y-91400000D03*
G04 #@! TD*
M02*
