G04 #@! TF.GenerationSoftware,KiCad,Pcbnew,5.0.0-5.0.0*
G04 #@! TF.CreationDate,2018-10-11T16:36:41-07:00*
G04 #@! TF.ProjectId,gpio-expander,6770696F2D657870616E6465722E6B69,rev?*
G04 #@! TF.SameCoordinates,Original*
G04 #@! TF.FileFunction,Legend,Top*
G04 #@! TF.FilePolarity,Positive*
%FSLAX46Y46*%
G04 Gerber Fmt 4.6, Leading zero omitted, Abs format (unit mm)*
G04 Created by KiCad (PCBNEW 5.0.0-5.0.0) date Thu Oct 11 16:36:41 2018*
%MOMM*%
%LPD*%
G01*
G04 APERTURE LIST*
%ADD10C,0.100000*%
%ADD11C,0.150000*%
%ADD12C,0.300000*%
%ADD13C,0.120000*%
G04 APERTURE END LIST*
D10*
X142702380Y-104871428D02*
X142702380Y-104271428D01*
X142940476Y-104871428D02*
X142940476Y-104271428D01*
X143226190Y-104871428D01*
X143226190Y-104271428D01*
X143821428Y-104842857D02*
X143892857Y-104871428D01*
X144011904Y-104871428D01*
X144059523Y-104842857D01*
X144083333Y-104814285D01*
X144107142Y-104757142D01*
X144107142Y-104700000D01*
X144083333Y-104642857D01*
X144059523Y-104614285D01*
X144011904Y-104585714D01*
X143916666Y-104557142D01*
X143869047Y-104528571D01*
X143845238Y-104500000D01*
X143821428Y-104442857D01*
X143821428Y-104385714D01*
X143845238Y-104328571D01*
X143869047Y-104300000D01*
X143916666Y-104271428D01*
X144035714Y-104271428D01*
X144107142Y-104300000D01*
X144321428Y-104871428D02*
X144321428Y-104271428D01*
X144440476Y-104271428D01*
X144511904Y-104300000D01*
X144559523Y-104357142D01*
X144583333Y-104414285D01*
X144607142Y-104528571D01*
X144607142Y-104614285D01*
X144583333Y-104728571D01*
X144559523Y-104785714D01*
X144511904Y-104842857D01*
X144440476Y-104871428D01*
X144321428Y-104871428D01*
X145178571Y-104842857D02*
X145250000Y-104871428D01*
X145369047Y-104871428D01*
X145416666Y-104842857D01*
X145440476Y-104814285D01*
X145464285Y-104757142D01*
X145464285Y-104700000D01*
X145440476Y-104642857D01*
X145416666Y-104614285D01*
X145369047Y-104585714D01*
X145273809Y-104557142D01*
X145226190Y-104528571D01*
X145202380Y-104500000D01*
X145178571Y-104442857D01*
X145178571Y-104385714D01*
X145202380Y-104328571D01*
X145226190Y-104300000D01*
X145273809Y-104271428D01*
X145392857Y-104271428D01*
X145464285Y-104300000D01*
X145964285Y-104814285D02*
X145940476Y-104842857D01*
X145869047Y-104871428D01*
X145821428Y-104871428D01*
X145750000Y-104842857D01*
X145702380Y-104785714D01*
X145678571Y-104728571D01*
X145654761Y-104614285D01*
X145654761Y-104528571D01*
X145678571Y-104414285D01*
X145702380Y-104357142D01*
X145750000Y-104300000D01*
X145821428Y-104271428D01*
X145869047Y-104271428D01*
X145940476Y-104300000D01*
X145964285Y-104328571D01*
X146535714Y-104700000D02*
X146773809Y-104700000D01*
X146488095Y-104871428D02*
X146654761Y-104271428D01*
X146821428Y-104871428D01*
X147083333Y-104271428D02*
X147130952Y-104271428D01*
X147178571Y-104300000D01*
X147202380Y-104328571D01*
X147226190Y-104385714D01*
X147250000Y-104500000D01*
X147250000Y-104642857D01*
X147226190Y-104757142D01*
X147202380Y-104814285D01*
X147178571Y-104842857D01*
X147130952Y-104871428D01*
X147083333Y-104871428D01*
X147035714Y-104842857D01*
X147011904Y-104814285D01*
X146988095Y-104757142D01*
X146964285Y-104642857D01*
X146964285Y-104500000D01*
X146988095Y-104385714D01*
X147011904Y-104328571D01*
X147035714Y-104300000D01*
X147083333Y-104271428D01*
X147821428Y-104700000D02*
X148059523Y-104700000D01*
X147773809Y-104871428D02*
X147940476Y-104271428D01*
X148107142Y-104871428D01*
X148535714Y-104871428D02*
X148250000Y-104871428D01*
X148392857Y-104871428D02*
X148392857Y-104271428D01*
X148345238Y-104357142D01*
X148297619Y-104414285D01*
X148250000Y-104442857D01*
X149107142Y-104700000D02*
X149345238Y-104700000D01*
X149059523Y-104871428D02*
X149226190Y-104271428D01*
X149392857Y-104871428D01*
X149535714Y-104328571D02*
X149559523Y-104300000D01*
X149607142Y-104271428D01*
X149726190Y-104271428D01*
X149773809Y-104300000D01*
X149797619Y-104328571D01*
X149821428Y-104385714D01*
X149821428Y-104442857D01*
X149797619Y-104528571D01*
X149511904Y-104871428D01*
X149821428Y-104871428D01*
D11*
X143859523Y-87502380D02*
X143288095Y-87502380D01*
X143573809Y-87502380D02*
X143573809Y-86502380D01*
X143478571Y-86645238D01*
X143383333Y-86740476D01*
X143288095Y-86788095D01*
X144192857Y-86502380D02*
X144811904Y-86502380D01*
X144478571Y-86883333D01*
X144621428Y-86883333D01*
X144716666Y-86930952D01*
X144764285Y-86978571D01*
X144811904Y-87073809D01*
X144811904Y-87311904D01*
X144764285Y-87407142D01*
X144716666Y-87454761D01*
X144621428Y-87502380D01*
X144335714Y-87502380D01*
X144240476Y-87454761D01*
X144192857Y-87407142D01*
X141309523Y-87502380D02*
X140738095Y-87502380D01*
X141023809Y-87502380D02*
X141023809Y-86502380D01*
X140928571Y-86645238D01*
X140833333Y-86740476D01*
X140738095Y-86788095D01*
X142214285Y-86502380D02*
X141738095Y-86502380D01*
X141690476Y-86978571D01*
X141738095Y-86930952D01*
X141833333Y-86883333D01*
X142071428Y-86883333D01*
X142166666Y-86930952D01*
X142214285Y-86978571D01*
X142261904Y-87073809D01*
X142261904Y-87311904D01*
X142214285Y-87407142D01*
X142166666Y-87454761D01*
X142071428Y-87502380D01*
X141833333Y-87502380D01*
X141738095Y-87454761D01*
X141690476Y-87407142D01*
X138759523Y-87552380D02*
X138188095Y-87552380D01*
X138473809Y-87552380D02*
X138473809Y-86552380D01*
X138378571Y-86695238D01*
X138283333Y-86790476D01*
X138188095Y-86838095D01*
X139092857Y-86552380D02*
X139759523Y-86552380D01*
X139330952Y-87552380D01*
X138809523Y-93552380D02*
X138238095Y-93552380D01*
X138523809Y-93552380D02*
X138523809Y-92552380D01*
X138428571Y-92695238D01*
X138333333Y-92790476D01*
X138238095Y-92838095D01*
X139666666Y-92552380D02*
X139476190Y-92552380D01*
X139380952Y-92600000D01*
X139333333Y-92647619D01*
X139238095Y-92790476D01*
X139190476Y-92980952D01*
X139190476Y-93361904D01*
X139238095Y-93457142D01*
X139285714Y-93504761D01*
X139380952Y-93552380D01*
X139571428Y-93552380D01*
X139666666Y-93504761D01*
X139714285Y-93457142D01*
X139761904Y-93361904D01*
X139761904Y-93123809D01*
X139714285Y-93028571D01*
X139666666Y-92980952D01*
X139571428Y-92933333D01*
X139380952Y-92933333D01*
X139285714Y-92980952D01*
X139238095Y-93028571D01*
X139190476Y-93123809D01*
X141309523Y-93502380D02*
X140738095Y-93502380D01*
X141023809Y-93502380D02*
X141023809Y-92502380D01*
X140928571Y-92645238D01*
X140833333Y-92740476D01*
X140738095Y-92788095D01*
X142166666Y-92835714D02*
X142166666Y-93502380D01*
X141928571Y-92454761D02*
X141690476Y-93169047D01*
X142309523Y-93169047D01*
X143859523Y-93452380D02*
X143288095Y-93452380D01*
X143573809Y-93452380D02*
X143573809Y-92452380D01*
X143478571Y-92595238D01*
X143383333Y-92690476D01*
X143288095Y-92738095D01*
X144240476Y-92547619D02*
X144288095Y-92500000D01*
X144383333Y-92452380D01*
X144621428Y-92452380D01*
X144716666Y-92500000D01*
X144764285Y-92547619D01*
X144811904Y-92642857D01*
X144811904Y-92738095D01*
X144764285Y-92880952D01*
X144192857Y-93452380D01*
X144811904Y-93452380D01*
X146219047Y-87321428D02*
X146980952Y-87321428D01*
X146219047Y-93071428D02*
X146980952Y-93071428D01*
X146600000Y-93452380D02*
X146600000Y-92690476D01*
D12*
X157128571Y-91707142D02*
X158271428Y-91707142D01*
X157814285Y-94778571D02*
X156957142Y-94778571D01*
X157385714Y-94778571D02*
X157385714Y-93278571D01*
X157242857Y-93492857D01*
X157100000Y-93635714D01*
X156957142Y-93707142D01*
X159242857Y-94778571D02*
X158385714Y-94778571D01*
X158814285Y-94778571D02*
X158814285Y-93278571D01*
X158671428Y-93492857D01*
X158528571Y-93635714D01*
X158385714Y-93707142D01*
X157000000Y-95778571D02*
X158000000Y-95778571D01*
X157357142Y-97278571D01*
X157857142Y-98378571D02*
X157142857Y-98378571D01*
X157071428Y-99092857D01*
X157142857Y-99021428D01*
X157285714Y-98950000D01*
X157642857Y-98950000D01*
X157785714Y-99021428D01*
X157857142Y-99092857D01*
X157928571Y-99235714D01*
X157928571Y-99592857D01*
X157857142Y-99735714D01*
X157785714Y-99807142D01*
X157642857Y-99878571D01*
X157285714Y-99878571D01*
X157142857Y-99807142D01*
X157071428Y-99735714D01*
X157000000Y-100878571D02*
X157928571Y-100878571D01*
X157428571Y-101450000D01*
X157642857Y-101450000D01*
X157785714Y-101521428D01*
X157857142Y-101592857D01*
X157928571Y-101735714D01*
X157928571Y-102092857D01*
X157857142Y-102235714D01*
X157785714Y-102307142D01*
X157642857Y-102378571D01*
X157214285Y-102378571D01*
X157071428Y-102307142D01*
X157000000Y-102235714D01*
X157928571Y-104878571D02*
X157071428Y-104878571D01*
X157500000Y-104878571D02*
X157500000Y-103378571D01*
X157357142Y-103592857D01*
X157214285Y-103735714D01*
X157071428Y-103807142D01*
X157028571Y-106907142D02*
X158171428Y-106907142D01*
X150828571Y-91607142D02*
X151971428Y-91607142D01*
X150464285Y-94678571D02*
X149607142Y-94678571D01*
X150035714Y-94678571D02*
X150035714Y-93178571D01*
X149892857Y-93392857D01*
X149750000Y-93535714D01*
X149607142Y-93607142D01*
X151392857Y-93178571D02*
X151535714Y-93178571D01*
X151678571Y-93250000D01*
X151750000Y-93321428D01*
X151821428Y-93464285D01*
X151892857Y-93750000D01*
X151892857Y-94107142D01*
X151821428Y-94392857D01*
X151750000Y-94535714D01*
X151678571Y-94607142D01*
X151535714Y-94678571D01*
X151392857Y-94678571D01*
X151250000Y-94607142D01*
X151178571Y-94535714D01*
X151107142Y-94392857D01*
X151035714Y-94107142D01*
X151035714Y-93750000D01*
X151107142Y-93464285D01*
X151178571Y-93321428D01*
X151250000Y-93250000D01*
X151392857Y-93178571D01*
X151785714Y-95778571D02*
X151500000Y-95778571D01*
X151357142Y-95850000D01*
X151285714Y-95921428D01*
X151142857Y-96135714D01*
X151071428Y-96421428D01*
X151071428Y-96992857D01*
X151142857Y-97135714D01*
X151214285Y-97207142D01*
X151357142Y-97278571D01*
X151642857Y-97278571D01*
X151785714Y-97207142D01*
X151857142Y-97135714D01*
X151928571Y-96992857D01*
X151928571Y-96635714D01*
X151857142Y-96492857D01*
X151785714Y-96421428D01*
X151642857Y-96350000D01*
X151357142Y-96350000D01*
X151214285Y-96421428D01*
X151142857Y-96492857D01*
X151071428Y-96635714D01*
X151785714Y-98878571D02*
X151785714Y-99878571D01*
X151428571Y-98307142D02*
X151071428Y-99378571D01*
X152000000Y-99378571D01*
X151071428Y-101021428D02*
X151142857Y-100950000D01*
X151285714Y-100878571D01*
X151642857Y-100878571D01*
X151785714Y-100950000D01*
X151857142Y-101021428D01*
X151928571Y-101164285D01*
X151928571Y-101307142D01*
X151857142Y-101521428D01*
X151000000Y-102378571D01*
X151928571Y-102378571D01*
X151428571Y-103378571D02*
X151571428Y-103378571D01*
X151714285Y-103450000D01*
X151785714Y-103521428D01*
X151857142Y-103664285D01*
X151928571Y-103950000D01*
X151928571Y-104307142D01*
X151857142Y-104592857D01*
X151785714Y-104735714D01*
X151714285Y-104807142D01*
X151571428Y-104878571D01*
X151428571Y-104878571D01*
X151285714Y-104807142D01*
X151214285Y-104735714D01*
X151142857Y-104592857D01*
X151071428Y-104307142D01*
X151071428Y-103950000D01*
X151142857Y-103664285D01*
X151214285Y-103521428D01*
X151285714Y-103450000D01*
X151428571Y-103378571D01*
X150928571Y-106907142D02*
X152071428Y-106907142D01*
X151500000Y-107478571D02*
X151500000Y-106335714D01*
D10*
X135092857Y-109721428D02*
X135092857Y-110330952D01*
X134788095Y-110026190D02*
X135397619Y-110026190D01*
X135588095Y-110635714D02*
X135588095Y-111130952D01*
X135283333Y-110864285D01*
X135283333Y-110978571D01*
X135245238Y-111054761D01*
X135207142Y-111092857D01*
X135130952Y-111130952D01*
X134940476Y-111130952D01*
X134864285Y-111092857D01*
X134826190Y-111054761D01*
X134788095Y-110978571D01*
X134788095Y-110750000D01*
X134826190Y-110673809D01*
X134864285Y-110635714D01*
X135588095Y-111359523D02*
X134788095Y-111626190D01*
X135588095Y-111892857D01*
X134826190Y-107228571D02*
X134788095Y-107342857D01*
X134788095Y-107533333D01*
X134826190Y-107609523D01*
X134864285Y-107647619D01*
X134940476Y-107685714D01*
X135016666Y-107685714D01*
X135092857Y-107647619D01*
X135130952Y-107609523D01*
X135169047Y-107533333D01*
X135207142Y-107380952D01*
X135245238Y-107304761D01*
X135283333Y-107266666D01*
X135359523Y-107228571D01*
X135435714Y-107228571D01*
X135511904Y-107266666D01*
X135550000Y-107304761D01*
X135588095Y-107380952D01*
X135588095Y-107571428D01*
X135550000Y-107685714D01*
X134788095Y-108028571D02*
X135588095Y-108028571D01*
X135588095Y-108219047D01*
X135550000Y-108333333D01*
X135473809Y-108409523D01*
X135397619Y-108447619D01*
X135245238Y-108485714D01*
X135130952Y-108485714D01*
X134978571Y-108447619D01*
X134902380Y-108409523D01*
X134826190Y-108333333D01*
X134788095Y-108219047D01*
X134788095Y-108028571D01*
X135016666Y-108790476D02*
X135016666Y-109171428D01*
X134788095Y-108714285D02*
X135588095Y-108980952D01*
X134788095Y-109247619D01*
X134676190Y-104697619D02*
X134638095Y-104811904D01*
X134638095Y-105002380D01*
X134676190Y-105078571D01*
X134714285Y-105116666D01*
X134790476Y-105154761D01*
X134866666Y-105154761D01*
X134942857Y-105116666D01*
X134980952Y-105078571D01*
X135019047Y-105002380D01*
X135057142Y-104850000D01*
X135095238Y-104773809D01*
X135133333Y-104735714D01*
X135209523Y-104697619D01*
X135285714Y-104697619D01*
X135361904Y-104735714D01*
X135400000Y-104773809D01*
X135438095Y-104850000D01*
X135438095Y-105040476D01*
X135400000Y-105154761D01*
X134714285Y-105954761D02*
X134676190Y-105916666D01*
X134638095Y-105802380D01*
X134638095Y-105726190D01*
X134676190Y-105611904D01*
X134752380Y-105535714D01*
X134828571Y-105497619D01*
X134980952Y-105459523D01*
X135095238Y-105459523D01*
X135247619Y-105497619D01*
X135323809Y-105535714D01*
X135400000Y-105611904D01*
X135438095Y-105726190D01*
X135438095Y-105802380D01*
X135400000Y-105916666D01*
X135361904Y-105954761D01*
X134638095Y-106678571D02*
X134638095Y-106297619D01*
X135438095Y-106297619D01*
X135856000Y-102235714D02*
X135856000Y-102616666D01*
X134788095Y-102426190D02*
X135588095Y-102426190D01*
X135856000Y-102616666D02*
X135856000Y-103454761D01*
X134788095Y-102807142D02*
X135588095Y-102807142D01*
X134788095Y-103264285D01*
X135588095Y-103264285D01*
X135856000Y-103454761D02*
X135856000Y-104064285D01*
X135588095Y-103530952D02*
X135588095Y-103988095D01*
X134788095Y-103759523D02*
X135588095Y-103759523D01*
X135756000Y-89485714D02*
X135756000Y-89866666D01*
X134688095Y-89676190D02*
X135488095Y-89676190D01*
X135756000Y-89866666D02*
X135756000Y-90704761D01*
X134688095Y-90057142D02*
X135488095Y-90057142D01*
X134688095Y-90514285D01*
X135488095Y-90514285D01*
X135756000Y-90704761D02*
X135756000Y-91314285D01*
X135488095Y-90780952D02*
X135488095Y-91238095D01*
X134688095Y-91009523D02*
X135488095Y-91009523D01*
D12*
X141628571Y-113678571D02*
X140771428Y-113678571D01*
X141200000Y-113678571D02*
X141200000Y-112178571D01*
X141057142Y-112392857D01*
X140914285Y-112535714D01*
X140771428Y-112607142D01*
D10*
X144609523Y-85535714D02*
X144571428Y-85573809D01*
X144457142Y-85611904D01*
X144380952Y-85611904D01*
X144266666Y-85573809D01*
X144190476Y-85497619D01*
X144152380Y-85421428D01*
X144114285Y-85269047D01*
X144114285Y-85154761D01*
X144152380Y-85002380D01*
X144190476Y-84926190D01*
X144266666Y-84850000D01*
X144380952Y-84811904D01*
X144457142Y-84811904D01*
X144571428Y-84850000D01*
X144609523Y-84888095D01*
X145066666Y-85611904D02*
X144990476Y-85573809D01*
X144952380Y-85535714D01*
X144914285Y-85459523D01*
X144914285Y-85230952D01*
X144952380Y-85154761D01*
X144990476Y-85116666D01*
X145066666Y-85078571D01*
X145180952Y-85078571D01*
X145257142Y-85116666D01*
X145295238Y-85154761D01*
X145333333Y-85230952D01*
X145333333Y-85459523D01*
X145295238Y-85535714D01*
X145257142Y-85573809D01*
X145180952Y-85611904D01*
X145066666Y-85611904D01*
X145676190Y-85078571D02*
X145676190Y-85878571D01*
X145676190Y-85116666D02*
X145752380Y-85078571D01*
X145904761Y-85078571D01*
X145980952Y-85116666D01*
X146019047Y-85154761D01*
X146057142Y-85230952D01*
X146057142Y-85459523D01*
X146019047Y-85535714D01*
X145980952Y-85573809D01*
X145904761Y-85611904D01*
X145752380Y-85611904D01*
X145676190Y-85573809D01*
X146323809Y-85078571D02*
X146514285Y-85611904D01*
X146704761Y-85078571D02*
X146514285Y-85611904D01*
X146438095Y-85802380D01*
X146400000Y-85840476D01*
X146323809Y-85878571D01*
X147009523Y-85611904D02*
X147009523Y-85078571D01*
X147009523Y-85230952D02*
X147047619Y-85154761D01*
X147085714Y-85116666D01*
X147161904Y-85078571D01*
X147238095Y-85078571D01*
X147504761Y-85611904D02*
X147504761Y-85078571D01*
X147504761Y-84811904D02*
X147466666Y-84850000D01*
X147504761Y-84888095D01*
X147542857Y-84850000D01*
X147504761Y-84811904D01*
X147504761Y-84888095D01*
X148228571Y-85078571D02*
X148228571Y-85726190D01*
X148190476Y-85802380D01*
X148152380Y-85840476D01*
X148076190Y-85878571D01*
X147961904Y-85878571D01*
X147885714Y-85840476D01*
X148228571Y-85573809D02*
X148152380Y-85611904D01*
X148000000Y-85611904D01*
X147923809Y-85573809D01*
X147885714Y-85535714D01*
X147847619Y-85459523D01*
X147847619Y-85230952D01*
X147885714Y-85154761D01*
X147923809Y-85116666D01*
X148000000Y-85078571D01*
X148152380Y-85078571D01*
X148228571Y-85116666D01*
X148609523Y-85611904D02*
X148609523Y-84811904D01*
X148952380Y-85611904D02*
X148952380Y-85192857D01*
X148914285Y-85116666D01*
X148838095Y-85078571D01*
X148723809Y-85078571D01*
X148647619Y-85116666D01*
X148609523Y-85154761D01*
X149219047Y-85078571D02*
X149523809Y-85078571D01*
X149333333Y-84811904D02*
X149333333Y-85497619D01*
X149371428Y-85573809D01*
X149447619Y-85611904D01*
X149523809Y-85611904D01*
X151047619Y-85002380D02*
X150971428Y-84964285D01*
X150819047Y-84964285D01*
X150742857Y-85002380D01*
X150666666Y-85078571D01*
X150628571Y-85154761D01*
X150628571Y-85307142D01*
X150666666Y-85383333D01*
X150742857Y-85459523D01*
X150819047Y-85497619D01*
X150971428Y-85497619D01*
X151047619Y-85459523D01*
X150895238Y-84697619D02*
X150704761Y-84735714D01*
X150514285Y-84850000D01*
X150400000Y-85040476D01*
X150361904Y-85230952D01*
X150400000Y-85421428D01*
X150514285Y-85611904D01*
X150704761Y-85726190D01*
X150895238Y-85764285D01*
X151085714Y-85726190D01*
X151276190Y-85611904D01*
X151390476Y-85421428D01*
X151428571Y-85230952D01*
X151390476Y-85040476D01*
X151276190Y-84850000D01*
X151085714Y-84735714D01*
X150895238Y-84697619D01*
X152342857Y-84888095D02*
X152380952Y-84850000D01*
X152457142Y-84811904D01*
X152647619Y-84811904D01*
X152723809Y-84850000D01*
X152761904Y-84888095D01*
X152800000Y-84964285D01*
X152800000Y-85040476D01*
X152761904Y-85154761D01*
X152304761Y-85611904D01*
X152800000Y-85611904D01*
X153295238Y-84811904D02*
X153371428Y-84811904D01*
X153447619Y-84850000D01*
X153485714Y-84888095D01*
X153523809Y-84964285D01*
X153561904Y-85116666D01*
X153561904Y-85307142D01*
X153523809Y-85459523D01*
X153485714Y-85535714D01*
X153447619Y-85573809D01*
X153371428Y-85611904D01*
X153295238Y-85611904D01*
X153219047Y-85573809D01*
X153180952Y-85535714D01*
X153142857Y-85459523D01*
X153104761Y-85307142D01*
X153104761Y-85116666D01*
X153142857Y-84964285D01*
X153180952Y-84888095D01*
X153219047Y-84850000D01*
X153295238Y-84811904D01*
X154323809Y-85611904D02*
X153866666Y-85611904D01*
X154095238Y-85611904D02*
X154095238Y-84811904D01*
X154019047Y-84926190D01*
X153942857Y-85002380D01*
X153866666Y-85040476D01*
X154780952Y-85154761D02*
X154704761Y-85116666D01*
X154666666Y-85078571D01*
X154628571Y-85002380D01*
X154628571Y-84964285D01*
X154666666Y-84888095D01*
X154704761Y-84850000D01*
X154780952Y-84811904D01*
X154933333Y-84811904D01*
X155009523Y-84850000D01*
X155047619Y-84888095D01*
X155085714Y-84964285D01*
X155085714Y-85002380D01*
X155047619Y-85078571D01*
X155009523Y-85116666D01*
X154933333Y-85154761D01*
X154780952Y-85154761D01*
X154704761Y-85192857D01*
X154666666Y-85230952D01*
X154628571Y-85307142D01*
X154628571Y-85459523D01*
X154666666Y-85535714D01*
X154704761Y-85573809D01*
X154780952Y-85611904D01*
X154933333Y-85611904D01*
X155009523Y-85573809D01*
X155047619Y-85535714D01*
X155085714Y-85459523D01*
X155085714Y-85307142D01*
X155047619Y-85230952D01*
X155009523Y-85192857D01*
X154933333Y-85154761D01*
X145295238Y-86683333D02*
X145676190Y-86683333D01*
X145219047Y-86911904D02*
X145485714Y-86111904D01*
X145752380Y-86911904D01*
X146361904Y-86911904D02*
X146361904Y-86492857D01*
X146323809Y-86416666D01*
X146247619Y-86378571D01*
X146095238Y-86378571D01*
X146019047Y-86416666D01*
X146361904Y-86873809D02*
X146285714Y-86911904D01*
X146095238Y-86911904D01*
X146019047Y-86873809D01*
X145980952Y-86797619D01*
X145980952Y-86721428D01*
X146019047Y-86645238D01*
X146095238Y-86607142D01*
X146285714Y-86607142D01*
X146361904Y-86569047D01*
X146742857Y-86911904D02*
X146742857Y-86378571D01*
X146742857Y-86530952D02*
X146780952Y-86454761D01*
X146819047Y-86416666D01*
X146895238Y-86378571D01*
X146971428Y-86378571D01*
X147352380Y-86911904D02*
X147276190Y-86873809D01*
X147238095Y-86835714D01*
X147200000Y-86759523D01*
X147200000Y-86530952D01*
X147238095Y-86454761D01*
X147276190Y-86416666D01*
X147352380Y-86378571D01*
X147466666Y-86378571D01*
X147542857Y-86416666D01*
X147580952Y-86454761D01*
X147619047Y-86530952D01*
X147619047Y-86759523D01*
X147580952Y-86835714D01*
X147542857Y-86873809D01*
X147466666Y-86911904D01*
X147352380Y-86911904D01*
X147961904Y-86378571D02*
X147961904Y-86911904D01*
X147961904Y-86454761D02*
X148000000Y-86416666D01*
X148076190Y-86378571D01*
X148190476Y-86378571D01*
X148266666Y-86416666D01*
X148304761Y-86492857D01*
X148304761Y-86911904D01*
X149219047Y-86111904D02*
X149409523Y-86911904D01*
X149561904Y-86340476D01*
X149714285Y-86911904D01*
X149904761Y-86111904D01*
X150209523Y-86911904D02*
X150209523Y-86378571D01*
X150209523Y-86111904D02*
X150171428Y-86150000D01*
X150209523Y-86188095D01*
X150247619Y-86150000D01*
X150209523Y-86111904D01*
X150209523Y-86188095D01*
X150704761Y-86911904D02*
X150628571Y-86873809D01*
X150590476Y-86797619D01*
X150590476Y-86111904D01*
X151123809Y-86911904D02*
X151047619Y-86873809D01*
X151009523Y-86797619D01*
X151009523Y-86111904D01*
X151428571Y-86911904D02*
X151428571Y-86378571D01*
X151428571Y-86111904D02*
X151390476Y-86150000D01*
X151428571Y-86188095D01*
X151466666Y-86150000D01*
X151428571Y-86111904D01*
X151428571Y-86188095D01*
X152152380Y-86911904D02*
X152152380Y-86492857D01*
X152114285Y-86416666D01*
X152038095Y-86378571D01*
X151885714Y-86378571D01*
X151809523Y-86416666D01*
X152152380Y-86873809D02*
X152076190Y-86911904D01*
X151885714Y-86911904D01*
X151809523Y-86873809D01*
X151771428Y-86797619D01*
X151771428Y-86721428D01*
X151809523Y-86645238D01*
X151885714Y-86607142D01*
X152076190Y-86607142D01*
X152152380Y-86569047D01*
X152533333Y-86911904D02*
X152533333Y-86378571D01*
X152533333Y-86454761D02*
X152571428Y-86416666D01*
X152647619Y-86378571D01*
X152761904Y-86378571D01*
X152838095Y-86416666D01*
X152876190Y-86492857D01*
X152876190Y-86911904D01*
X152876190Y-86492857D02*
X152914285Y-86416666D01*
X152990476Y-86378571D01*
X153104761Y-86378571D01*
X153180952Y-86416666D01*
X153219047Y-86492857D01*
X153219047Y-86911904D01*
X153561904Y-86873809D02*
X153638095Y-86911904D01*
X153790476Y-86911904D01*
X153866666Y-86873809D01*
X153904761Y-86797619D01*
X153904761Y-86759523D01*
X153866666Y-86683333D01*
X153790476Y-86645238D01*
X153676190Y-86645238D01*
X153600000Y-86607142D01*
X153561904Y-86530952D01*
X153561904Y-86492857D01*
X153600000Y-86416666D01*
X153676190Y-86378571D01*
X153790476Y-86378571D01*
X153866666Y-86416666D01*
D11*
X142680952Y-93702380D02*
X143252380Y-93702380D01*
X142966666Y-94702380D02*
X142966666Y-93702380D01*
X144157142Y-94607142D02*
X144109523Y-94654761D01*
X143966666Y-94702380D01*
X143871428Y-94702380D01*
X143728571Y-94654761D01*
X143633333Y-94559523D01*
X143585714Y-94464285D01*
X143538095Y-94273809D01*
X143538095Y-94130952D01*
X143585714Y-93940476D01*
X143633333Y-93845238D01*
X143728571Y-93750000D01*
X143871428Y-93702380D01*
X143966666Y-93702380D01*
X144109523Y-93750000D01*
X144157142Y-93797619D01*
X144538095Y-94416666D02*
X145014285Y-94416666D01*
X144442857Y-94702380D02*
X144776190Y-93702380D01*
X145109523Y-94702380D01*
X145490476Y-94702380D02*
X145680952Y-94702380D01*
X145776190Y-94654761D01*
X145823809Y-94607142D01*
X145919047Y-94464285D01*
X145966666Y-94273809D01*
X145966666Y-93892857D01*
X145919047Y-93797619D01*
X145871428Y-93750000D01*
X145776190Y-93702380D01*
X145585714Y-93702380D01*
X145490476Y-93750000D01*
X145442857Y-93797619D01*
X145395238Y-93892857D01*
X145395238Y-94130952D01*
X145442857Y-94226190D01*
X145490476Y-94273809D01*
X145585714Y-94321428D01*
X145776190Y-94321428D01*
X145871428Y-94273809D01*
X145919047Y-94226190D01*
X145966666Y-94130952D01*
X146871428Y-93702380D02*
X146395238Y-93702380D01*
X146347619Y-94178571D01*
X146395238Y-94130952D01*
X146490476Y-94083333D01*
X146728571Y-94083333D01*
X146823809Y-94130952D01*
X146871428Y-94178571D01*
X146919047Y-94273809D01*
X146919047Y-94511904D01*
X146871428Y-94607142D01*
X146823809Y-94654761D01*
X146728571Y-94702380D01*
X146490476Y-94702380D01*
X146395238Y-94654761D01*
X146347619Y-94607142D01*
X147823809Y-93702380D02*
X147347619Y-93702380D01*
X147300000Y-94178571D01*
X147347619Y-94130952D01*
X147442857Y-94083333D01*
X147680952Y-94083333D01*
X147776190Y-94130952D01*
X147823809Y-94178571D01*
X147871428Y-94273809D01*
X147871428Y-94511904D01*
X147823809Y-94607142D01*
X147776190Y-94654761D01*
X147680952Y-94702380D01*
X147442857Y-94702380D01*
X147347619Y-94654761D01*
X147300000Y-94607142D01*
X148776190Y-93702380D02*
X148300000Y-93702380D01*
X148252380Y-94178571D01*
X148300000Y-94130952D01*
X148395238Y-94083333D01*
X148633333Y-94083333D01*
X148728571Y-94130952D01*
X148776190Y-94178571D01*
X148823809Y-94273809D01*
X148823809Y-94511904D01*
X148776190Y-94607142D01*
X148728571Y-94654761D01*
X148633333Y-94702380D01*
X148395238Y-94702380D01*
X148300000Y-94654761D01*
X148252380Y-94607142D01*
D10*
X135092857Y-96971428D02*
X135092857Y-97580952D01*
X134788095Y-97276190D02*
X135397619Y-97276190D01*
X135588095Y-97885714D02*
X135588095Y-98380952D01*
X135283333Y-98114285D01*
X135283333Y-98228571D01*
X135245238Y-98304761D01*
X135207142Y-98342857D01*
X135130952Y-98380952D01*
X134940476Y-98380952D01*
X134864285Y-98342857D01*
X134826190Y-98304761D01*
X134788095Y-98228571D01*
X134788095Y-98000000D01*
X134826190Y-97923809D01*
X134864285Y-97885714D01*
X135588095Y-98609523D02*
X134788095Y-98876190D01*
X135588095Y-99142857D01*
X134826190Y-94528571D02*
X134788095Y-94642857D01*
X134788095Y-94833333D01*
X134826190Y-94909523D01*
X134864285Y-94947619D01*
X134940476Y-94985714D01*
X135016666Y-94985714D01*
X135092857Y-94947619D01*
X135130952Y-94909523D01*
X135169047Y-94833333D01*
X135207142Y-94680952D01*
X135245238Y-94604761D01*
X135283333Y-94566666D01*
X135359523Y-94528571D01*
X135435714Y-94528571D01*
X135511904Y-94566666D01*
X135550000Y-94604761D01*
X135588095Y-94680952D01*
X135588095Y-94871428D01*
X135550000Y-94985714D01*
X134788095Y-95328571D02*
X135588095Y-95328571D01*
X135588095Y-95519047D01*
X135550000Y-95633333D01*
X135473809Y-95709523D01*
X135397619Y-95747619D01*
X135245238Y-95785714D01*
X135130952Y-95785714D01*
X134978571Y-95747619D01*
X134902380Y-95709523D01*
X134826190Y-95633333D01*
X134788095Y-95519047D01*
X134788095Y-95328571D01*
X135016666Y-96090476D02*
X135016666Y-96471428D01*
X134788095Y-96014285D02*
X135588095Y-96280952D01*
X134788095Y-96547619D01*
X134826190Y-91947619D02*
X134788095Y-92061904D01*
X134788095Y-92252380D01*
X134826190Y-92328571D01*
X134864285Y-92366666D01*
X134940476Y-92404761D01*
X135016666Y-92404761D01*
X135092857Y-92366666D01*
X135130952Y-92328571D01*
X135169047Y-92252380D01*
X135207142Y-92100000D01*
X135245238Y-92023809D01*
X135283333Y-91985714D01*
X135359523Y-91947619D01*
X135435714Y-91947619D01*
X135511904Y-91985714D01*
X135550000Y-92023809D01*
X135588095Y-92100000D01*
X135588095Y-92290476D01*
X135550000Y-92404761D01*
X134864285Y-93204761D02*
X134826190Y-93166666D01*
X134788095Y-93052380D01*
X134788095Y-92976190D01*
X134826190Y-92861904D01*
X134902380Y-92785714D01*
X134978571Y-92747619D01*
X135130952Y-92709523D01*
X135245238Y-92709523D01*
X135397619Y-92747619D01*
X135473809Y-92785714D01*
X135550000Y-92861904D01*
X135588095Y-92976190D01*
X135588095Y-93052380D01*
X135550000Y-93166666D01*
X135511904Y-93204761D01*
X134788095Y-93928571D02*
X134788095Y-93547619D01*
X135588095Y-93547619D01*
X135550000Y-99890476D02*
X135588095Y-99814285D01*
X135588095Y-99700000D01*
X135550000Y-99585714D01*
X135473809Y-99509523D01*
X135397619Y-99471428D01*
X135245238Y-99433333D01*
X135130952Y-99433333D01*
X134978571Y-99471428D01*
X134902380Y-99509523D01*
X134826190Y-99585714D01*
X134788095Y-99700000D01*
X134788095Y-99776190D01*
X134826190Y-99890476D01*
X134864285Y-99928571D01*
X135130952Y-99928571D01*
X135130952Y-99776190D01*
X134788095Y-100271428D02*
X135588095Y-100271428D01*
X134788095Y-100728571D01*
X135588095Y-100728571D01*
X134788095Y-101109523D02*
X135588095Y-101109523D01*
X135588095Y-101300000D01*
X135550000Y-101414285D01*
X135473809Y-101490476D01*
X135397619Y-101528571D01*
X135245238Y-101566666D01*
X135130952Y-101566666D01*
X134978571Y-101528571D01*
X134902380Y-101490476D01*
X134826190Y-101414285D01*
X134788095Y-101300000D01*
X134788095Y-101109523D01*
X135500000Y-87240476D02*
X135538095Y-87164285D01*
X135538095Y-87050000D01*
X135500000Y-86935714D01*
X135423809Y-86859523D01*
X135347619Y-86821428D01*
X135195238Y-86783333D01*
X135080952Y-86783333D01*
X134928571Y-86821428D01*
X134852380Y-86859523D01*
X134776190Y-86935714D01*
X134738095Y-87050000D01*
X134738095Y-87126190D01*
X134776190Y-87240476D01*
X134814285Y-87278571D01*
X135080952Y-87278571D01*
X135080952Y-87126190D01*
X134738095Y-87621428D02*
X135538095Y-87621428D01*
X134738095Y-88078571D01*
X135538095Y-88078571D01*
X134738095Y-88459523D02*
X135538095Y-88459523D01*
X135538095Y-88650000D01*
X135500000Y-88764285D01*
X135423809Y-88840476D01*
X135347619Y-88878571D01*
X135195238Y-88916666D01*
X135080952Y-88916666D01*
X134928571Y-88878571D01*
X134852380Y-88840476D01*
X134776190Y-88764285D01*
X134738095Y-88650000D01*
X134738095Y-88459523D01*
D13*
G04 #@! TO.C,RN1*
X139530000Y-106150000D02*
X139530000Y-105350000D01*
X141370000Y-106150000D02*
X141370000Y-105350000D01*
D11*
G04 #@! TO.C,U1*
X143675000Y-103200000D02*
X143675000Y-103175000D01*
X143675000Y-95150000D02*
X143675000Y-95175000D01*
X148325000Y-95150000D02*
X148325000Y-95175000D01*
X149400000Y-103250000D02*
X143675000Y-103250000D01*
X148325000Y-95150000D02*
X143675000Y-95150000D01*
G04 #@! TO.C,SW1*
X142495000Y-113440000D02*
X141695000Y-112640000D01*
X141695000Y-112640000D02*
X141695000Y-105040000D01*
X141695000Y-105040000D02*
X150695000Y-105040000D01*
X150695000Y-105040000D02*
X150695000Y-113440000D01*
X150695000Y-113440000D02*
X142495000Y-113440000D01*
D13*
G04 #@! TO.C,C4*
X150310000Y-90458578D02*
X150310000Y-89941422D01*
X148890000Y-90458578D02*
X148890000Y-89941422D01*
G04 #@! TO.C,C3*
X137708578Y-101540000D02*
X137191422Y-101540000D01*
X137708578Y-102960000D02*
X137191422Y-102960000D01*
G04 #@! TO.C,C1*
X137362779Y-100040000D02*
X137037221Y-100040000D01*
X137362779Y-101060000D02*
X137037221Y-101060000D01*
G04 #@! TO.C,C2*
X152291422Y-110260000D02*
X152808578Y-110260000D01*
X152291422Y-108840000D02*
X152808578Y-108840000D01*
G04 #@! TO.C,RN2*
X139100000Y-110830000D02*
X140100000Y-110830000D01*
X139100000Y-107470000D02*
X140100000Y-107470000D01*
G04 #@! TO.C,RN1*
D11*
X139759523Y-104052380D02*
X139426190Y-103576190D01*
X139188095Y-104052380D02*
X139188095Y-103052380D01*
X139569047Y-103052380D01*
X139664285Y-103100000D01*
X139711904Y-103147619D01*
X139759523Y-103242857D01*
X139759523Y-103385714D01*
X139711904Y-103480952D01*
X139664285Y-103528571D01*
X139569047Y-103576190D01*
X139188095Y-103576190D01*
X140188095Y-104052380D02*
X140188095Y-103052380D01*
X140759523Y-104052380D01*
X140759523Y-103052380D01*
X141759523Y-104052380D02*
X141188095Y-104052380D01*
X141473809Y-104052380D02*
X141473809Y-103052380D01*
X141378571Y-103195238D01*
X141283333Y-103290476D01*
X141188095Y-103338095D01*
G04 #@! TO.C,U1*
X140638095Y-95102380D02*
X140638095Y-95911904D01*
X140685714Y-96007142D01*
X140733333Y-96054761D01*
X140828571Y-96102380D01*
X141019047Y-96102380D01*
X141114285Y-96054761D01*
X141161904Y-96007142D01*
X141209523Y-95911904D01*
X141209523Y-95102380D01*
X142209523Y-96102380D02*
X141638095Y-96102380D01*
X141923809Y-96102380D02*
X141923809Y-95102380D01*
X141828571Y-95245238D01*
X141733333Y-95340476D01*
X141638095Y-95388095D01*
G04 #@! TO.C,MH1*
X155616666Y-109352380D02*
X155616666Y-108352380D01*
X155950000Y-109066666D01*
X156283333Y-108352380D01*
X156283333Y-109352380D01*
X156759523Y-109352380D02*
X156759523Y-108352380D01*
X156759523Y-108828571D02*
X157330952Y-108828571D01*
X157330952Y-109352380D02*
X157330952Y-108352380D01*
X158330952Y-109352380D02*
X157759523Y-109352380D01*
X158045238Y-109352380D02*
X158045238Y-108352380D01*
X157950000Y-108495238D01*
X157854761Y-108590476D01*
X157759523Y-108638095D01*
G04 #@! TO.C,MH2*
X155666666Y-90102380D02*
X155666666Y-89102380D01*
X156000000Y-89816666D01*
X156333333Y-89102380D01*
X156333333Y-90102380D01*
X156809523Y-90102380D02*
X156809523Y-89102380D01*
X156809523Y-89578571D02*
X157380952Y-89578571D01*
X157380952Y-90102380D02*
X157380952Y-89102380D01*
X157809523Y-89197619D02*
X157857142Y-89150000D01*
X157952380Y-89102380D01*
X158190476Y-89102380D01*
X158285714Y-89150000D01*
X158333333Y-89197619D01*
X158380952Y-89292857D01*
X158380952Y-89388095D01*
X158333333Y-89530952D01*
X157761904Y-90102380D01*
X158380952Y-90102380D01*
G04 #@! TO.C,FID4*
X129478571Y-112821428D02*
X129478571Y-113154761D01*
X130002380Y-113154761D02*
X129002380Y-113154761D01*
X129002380Y-112678571D01*
X130002380Y-112297619D02*
X129002380Y-112297619D01*
X130002380Y-111821428D02*
X129002380Y-111821428D01*
X129002380Y-111583333D01*
X129050000Y-111440476D01*
X129145238Y-111345238D01*
X129240476Y-111297619D01*
X129430952Y-111250000D01*
X129573809Y-111250000D01*
X129764285Y-111297619D01*
X129859523Y-111345238D01*
X129954761Y-111440476D01*
X130002380Y-111583333D01*
X130002380Y-111821428D01*
X129335714Y-110392857D02*
X130002380Y-110392857D01*
X128954761Y-110630952D02*
X129669047Y-110869047D01*
X129669047Y-110250000D01*
G04 #@! TO.C,FID3*
X129378571Y-116171428D02*
X129378571Y-116504761D01*
X129902380Y-116504761D02*
X128902380Y-116504761D01*
X128902380Y-116028571D01*
X129902380Y-115647619D02*
X128902380Y-115647619D01*
X129902380Y-115171428D02*
X128902380Y-115171428D01*
X128902380Y-114933333D01*
X128950000Y-114790476D01*
X129045238Y-114695238D01*
X129140476Y-114647619D01*
X129330952Y-114600000D01*
X129473809Y-114600000D01*
X129664285Y-114647619D01*
X129759523Y-114695238D01*
X129854761Y-114790476D01*
X129902380Y-114933333D01*
X129902380Y-115171428D01*
X128902380Y-114266666D02*
X128902380Y-113647619D01*
X129283333Y-113980952D01*
X129283333Y-113838095D01*
X129330952Y-113742857D01*
X129378571Y-113695238D01*
X129473809Y-113647619D01*
X129711904Y-113647619D01*
X129807142Y-113695238D01*
X129854761Y-113742857D01*
X129902380Y-113838095D01*
X129902380Y-114123809D01*
X129854761Y-114219047D01*
X129807142Y-114266666D01*
G04 #@! TO.C,FID2*
X153578571Y-83728571D02*
X153245238Y-83728571D01*
X153245238Y-84252380D02*
X153245238Y-83252380D01*
X153721428Y-83252380D01*
X154102380Y-84252380D02*
X154102380Y-83252380D01*
X154578571Y-84252380D02*
X154578571Y-83252380D01*
X154816666Y-83252380D01*
X154959523Y-83300000D01*
X155054761Y-83395238D01*
X155102380Y-83490476D01*
X155150000Y-83680952D01*
X155150000Y-83823809D01*
X155102380Y-84014285D01*
X155054761Y-84109523D01*
X154959523Y-84204761D01*
X154816666Y-84252380D01*
X154578571Y-84252380D01*
X155530952Y-83347619D02*
X155578571Y-83300000D01*
X155673809Y-83252380D01*
X155911904Y-83252380D01*
X156007142Y-83300000D01*
X156054761Y-83347619D01*
X156102380Y-83442857D01*
X156102380Y-83538095D01*
X156054761Y-83680952D01*
X155483333Y-84252380D01*
X156102380Y-84252380D01*
G04 #@! TO.C,FID1*
X150578571Y-83678571D02*
X150245238Y-83678571D01*
X150245238Y-84202380D02*
X150245238Y-83202380D01*
X150721428Y-83202380D01*
X151102380Y-84202380D02*
X151102380Y-83202380D01*
X151578571Y-84202380D02*
X151578571Y-83202380D01*
X151816666Y-83202380D01*
X151959523Y-83250000D01*
X152054761Y-83345238D01*
X152102380Y-83440476D01*
X152150000Y-83630952D01*
X152150000Y-83773809D01*
X152102380Y-83964285D01*
X152054761Y-84059523D01*
X151959523Y-84154761D01*
X151816666Y-84202380D01*
X151578571Y-84202380D01*
X153102380Y-84202380D02*
X152530952Y-84202380D01*
X152816666Y-84202380D02*
X152816666Y-83202380D01*
X152721428Y-83345238D01*
X152626190Y-83440476D01*
X152530952Y-83488095D01*
G04 #@! TO.C,SW1*
X150866666Y-113454761D02*
X151009523Y-113502380D01*
X151247619Y-113502380D01*
X151342857Y-113454761D01*
X151390476Y-113407142D01*
X151438095Y-113311904D01*
X151438095Y-113216666D01*
X151390476Y-113121428D01*
X151342857Y-113073809D01*
X151247619Y-113026190D01*
X151057142Y-112978571D01*
X150961904Y-112930952D01*
X150914285Y-112883333D01*
X150866666Y-112788095D01*
X150866666Y-112692857D01*
X150914285Y-112597619D01*
X150961904Y-112550000D01*
X151057142Y-112502380D01*
X151295238Y-112502380D01*
X151438095Y-112550000D01*
X151771428Y-112502380D02*
X152009523Y-113502380D01*
X152200000Y-112788095D01*
X152390476Y-113502380D01*
X152628571Y-112502380D01*
X153533333Y-113502380D02*
X152961904Y-113502380D01*
X153247619Y-113502380D02*
X153247619Y-112502380D01*
X153152380Y-112645238D01*
X153057142Y-112740476D01*
X152961904Y-112788095D01*
G04 #@! TO.C,C4*
X151283333Y-90557142D02*
X151235714Y-90604761D01*
X151092857Y-90652380D01*
X150997619Y-90652380D01*
X150854761Y-90604761D01*
X150759523Y-90509523D01*
X150711904Y-90414285D01*
X150664285Y-90223809D01*
X150664285Y-90080952D01*
X150711904Y-89890476D01*
X150759523Y-89795238D01*
X150854761Y-89700000D01*
X150997619Y-89652380D01*
X151092857Y-89652380D01*
X151235714Y-89700000D01*
X151283333Y-89747619D01*
X152140476Y-89985714D02*
X152140476Y-90652380D01*
X151902380Y-89604761D02*
X151664285Y-90319047D01*
X152283333Y-90319047D01*
G04 #@! TO.C,C3*
X137283333Y-104257142D02*
X137235714Y-104304761D01*
X137092857Y-104352380D01*
X136997619Y-104352380D01*
X136854761Y-104304761D01*
X136759523Y-104209523D01*
X136711904Y-104114285D01*
X136664285Y-103923809D01*
X136664285Y-103780952D01*
X136711904Y-103590476D01*
X136759523Y-103495238D01*
X136854761Y-103400000D01*
X136997619Y-103352380D01*
X137092857Y-103352380D01*
X137235714Y-103400000D01*
X137283333Y-103447619D01*
X137616666Y-103352380D02*
X138235714Y-103352380D01*
X137902380Y-103733333D01*
X138045238Y-103733333D01*
X138140476Y-103780952D01*
X138188095Y-103828571D01*
X138235714Y-103923809D01*
X138235714Y-104161904D01*
X138188095Y-104257142D01*
X138140476Y-104304761D01*
X138045238Y-104352380D01*
X137759523Y-104352380D01*
X137664285Y-104304761D01*
X137616666Y-104257142D01*
G04 #@! TO.C,C1*
X136983333Y-99707142D02*
X136935714Y-99754761D01*
X136792857Y-99802380D01*
X136697619Y-99802380D01*
X136554761Y-99754761D01*
X136459523Y-99659523D01*
X136411904Y-99564285D01*
X136364285Y-99373809D01*
X136364285Y-99230952D01*
X136411904Y-99040476D01*
X136459523Y-98945238D01*
X136554761Y-98850000D01*
X136697619Y-98802380D01*
X136792857Y-98802380D01*
X136935714Y-98850000D01*
X136983333Y-98897619D01*
X137935714Y-99802380D02*
X137364285Y-99802380D01*
X137650000Y-99802380D02*
X137650000Y-98802380D01*
X137554761Y-98945238D01*
X137459523Y-99040476D01*
X137364285Y-99088095D01*
G04 #@! TO.C,C2*
X152445833Y-111557142D02*
X152398214Y-111604761D01*
X152255357Y-111652380D01*
X152160119Y-111652380D01*
X152017261Y-111604761D01*
X151922023Y-111509523D01*
X151874404Y-111414285D01*
X151826785Y-111223809D01*
X151826785Y-111080952D01*
X151874404Y-110890476D01*
X151922023Y-110795238D01*
X152017261Y-110700000D01*
X152160119Y-110652380D01*
X152255357Y-110652380D01*
X152398214Y-110700000D01*
X152445833Y-110747619D01*
X152826785Y-110747619D02*
X152874404Y-110700000D01*
X152969642Y-110652380D01*
X153207738Y-110652380D01*
X153302976Y-110700000D01*
X153350595Y-110747619D01*
X153398214Y-110842857D01*
X153398214Y-110938095D01*
X153350595Y-111080952D01*
X152779166Y-111652380D01*
X153398214Y-111652380D01*
G04 #@! TO.C,RN2*
X138959523Y-112002380D02*
X138626190Y-111526190D01*
X138388095Y-112002380D02*
X138388095Y-111002380D01*
X138769047Y-111002380D01*
X138864285Y-111050000D01*
X138911904Y-111097619D01*
X138959523Y-111192857D01*
X138959523Y-111335714D01*
X138911904Y-111430952D01*
X138864285Y-111478571D01*
X138769047Y-111526190D01*
X138388095Y-111526190D01*
X139388095Y-112002380D02*
X139388095Y-111002380D01*
X139959523Y-112002380D01*
X139959523Y-111002380D01*
X140388095Y-111097619D02*
X140435714Y-111050000D01*
X140530952Y-111002380D01*
X140769047Y-111002380D01*
X140864285Y-111050000D01*
X140911904Y-111097619D01*
X140959523Y-111192857D01*
X140959523Y-111288095D01*
X140911904Y-111430952D01*
X140340476Y-112002380D01*
X140959523Y-112002380D01*
G04 #@! TD*
M02*
