M48
;DRILL file {KiCad 5.0.0-5.0.0} date Tue Oct  2 18:17:18 2018
;FORMAT={3:3/ absolute / metric / suppress leading zeros}
FMAT,2
METRIC,TZ
T1C0.400
T2C1.000
T3C2.500
%
G90
G05
M71
T1
X135500Y-98925
X136675Y-97511
X137645Y-97267
X138300Y-103400
X138645Y-97288
X141000Y-110600
X143000Y-105000
X144266Y-105017
X144500Y-103900
X144700Y-99750
X147100Y-95600
X148012Y-103712
X149000Y-107400
X149700Y-104700
X150300Y-102900
T2
X138980Y-88860
X138980Y-91400
X141520Y-88860
X141520Y-91400
X144060Y-88860
X144060Y-91400
X146600Y-88860
X146600Y-91400
X153200Y-91560
X153200Y-94100
X153200Y-96640
X153200Y-99180
X153200Y-101720
X153200Y-104260
X153200Y-106800
X155740Y-91560
X155740Y-94100
X155740Y-96640
X155740Y-99180
X155740Y-101720
X155740Y-104260
X155740Y-106800
X133250Y-87850
X133250Y-90390
X133250Y-92930
X133250Y-95470
X133250Y-98010
X133250Y-100550
X133250Y-103090
X133250Y-105630
X133250Y-108170
X133250Y-110710
T3
X157000Y-87500
X157000Y-111000
T0
M30
