G04 #@! TF.GenerationSoftware,KiCad,Pcbnew,5.0.0-5.0.0*
G04 #@! TF.CreationDate,2018-10-11T16:36:41-07:00*
G04 #@! TF.ProjectId,gpio-expander,6770696F2D657870616E6465722E6B69,rev?*
G04 #@! TF.SameCoordinates,Original*
G04 #@! TF.FileFunction,Legend,Bot*
G04 #@! TF.FilePolarity,Positive*
%FSLAX46Y46*%
G04 Gerber Fmt 4.6, Leading zero omitted, Abs format (unit mm)*
G04 Created by KiCad (PCBNEW 5.0.0-5.0.0) date Thu Oct 11 16:36:41 2018*
%MOMM*%
%LPD*%
G01*
G04 APERTURE LIST*
%ADD10C,0.250000*%
%ADD11C,0.300000*%
%ADD12C,0.200000*%
%ADD13C,0.120000*%
%ADD14C,0.150000*%
G04 APERTURE END LIST*
D10*
X150558928Y-94885714D02*
X150387500Y-94942857D01*
X150101785Y-94942857D01*
X149987500Y-94885714D01*
X149930357Y-94828571D01*
X149873214Y-94714285D01*
X149873214Y-94600000D01*
X149930357Y-94485714D01*
X149987500Y-94428571D01*
X150101785Y-94371428D01*
X150330357Y-94314285D01*
X150444642Y-94257142D01*
X150501785Y-94200000D01*
X150558928Y-94085714D01*
X150558928Y-93971428D01*
X150501785Y-93857142D01*
X150444642Y-93800000D01*
X150330357Y-93742857D01*
X150044642Y-93742857D01*
X149873214Y-93800000D01*
X149473214Y-94142857D02*
X149244642Y-94942857D01*
X149016071Y-94371428D01*
X148787500Y-94942857D01*
X148558928Y-94142857D01*
X148101785Y-94942857D02*
X148101785Y-94142857D01*
X148101785Y-93742857D02*
X148158928Y-93800000D01*
X148101785Y-93857142D01*
X148044642Y-93800000D01*
X148101785Y-93742857D01*
X148101785Y-93857142D01*
X147701785Y-94142857D02*
X147244642Y-94142857D01*
X147530357Y-93742857D02*
X147530357Y-94771428D01*
X147473214Y-94885714D01*
X147358928Y-94942857D01*
X147244642Y-94942857D01*
X146330357Y-94885714D02*
X146444642Y-94942857D01*
X146673214Y-94942857D01*
X146787500Y-94885714D01*
X146844642Y-94828571D01*
X146901785Y-94714285D01*
X146901785Y-94371428D01*
X146844642Y-94257142D01*
X146787500Y-94200000D01*
X146673214Y-94142857D01*
X146444642Y-94142857D01*
X146330357Y-94200000D01*
X145816071Y-94942857D02*
X145816071Y-93742857D01*
X145301785Y-94942857D02*
X145301785Y-94314285D01*
X145358928Y-94200000D01*
X145473214Y-94142857D01*
X145644642Y-94142857D01*
X145758928Y-94200000D01*
X145816071Y-94257142D01*
X143873214Y-94885714D02*
X143701785Y-94942857D01*
X143416071Y-94942857D01*
X143301785Y-94885714D01*
X143244642Y-94828571D01*
X143187500Y-94714285D01*
X143187500Y-94600000D01*
X143244642Y-94485714D01*
X143301785Y-94428571D01*
X143416071Y-94371428D01*
X143644642Y-94314285D01*
X143758928Y-94257142D01*
X143816071Y-94200000D01*
X143873214Y-94085714D01*
X143873214Y-93971428D01*
X143816071Y-93857142D01*
X143758928Y-93800000D01*
X143644642Y-93742857D01*
X143358928Y-93742857D01*
X143187500Y-93800000D01*
X142787500Y-93742857D02*
X142501785Y-94942857D01*
X142273214Y-94085714D01*
X142044642Y-94942857D01*
X141758928Y-93742857D01*
X140673214Y-94942857D02*
X141358928Y-94942857D01*
X141016071Y-94942857D02*
X141016071Y-93742857D01*
X141130357Y-93914285D01*
X141244642Y-94028571D01*
X141358928Y-94085714D01*
X140158928Y-94828571D02*
X140101785Y-94885714D01*
X140158928Y-94942857D01*
X140216071Y-94885714D01*
X140158928Y-94828571D01*
X140158928Y-94942857D01*
X140158928Y-94200000D02*
X140101785Y-94257142D01*
X140158928Y-94314285D01*
X140216071Y-94257142D01*
X140158928Y-94200000D01*
X140158928Y-94314285D01*
X149873214Y-96992857D02*
X150558928Y-96992857D01*
X150216071Y-96992857D02*
X150216071Y-95792857D01*
X150330357Y-95964285D01*
X150444642Y-96078571D01*
X150558928Y-96135714D01*
X149358928Y-96878571D02*
X149301785Y-96935714D01*
X149358928Y-96992857D01*
X149416071Y-96935714D01*
X149358928Y-96878571D01*
X149358928Y-96992857D01*
X149358928Y-96250000D02*
X149301785Y-96307142D01*
X149358928Y-96364285D01*
X149416071Y-96307142D01*
X149358928Y-96250000D01*
X149358928Y-96364285D01*
X147873214Y-96992857D02*
X147873214Y-95792857D01*
X147301785Y-96992857D02*
X147301785Y-95792857D01*
X146616071Y-96992857D01*
X146616071Y-95792857D01*
X146216071Y-95792857D02*
X145530357Y-95792857D01*
X145873214Y-96992857D02*
X145873214Y-95792857D01*
X144216071Y-96992857D02*
X144216071Y-95792857D01*
X143758928Y-95792857D01*
X143644642Y-95850000D01*
X143587500Y-95907142D01*
X143530357Y-96021428D01*
X143530357Y-96192857D01*
X143587500Y-96307142D01*
X143644642Y-96364285D01*
X143758928Y-96421428D01*
X144216071Y-96421428D01*
X143016071Y-95792857D02*
X143016071Y-96764285D01*
X142958928Y-96878571D01*
X142901785Y-96935714D01*
X142787500Y-96992857D01*
X142558928Y-96992857D01*
X142444642Y-96935714D01*
X142387500Y-96878571D01*
X142330357Y-96764285D01*
X142330357Y-95792857D01*
X150558928Y-97957142D02*
X150501785Y-97900000D01*
X150387500Y-97842857D01*
X150101785Y-97842857D01*
X149987500Y-97900000D01*
X149930357Y-97957142D01*
X149873214Y-98071428D01*
X149873214Y-98185714D01*
X149930357Y-98357142D01*
X150616071Y-99042857D01*
X149873214Y-99042857D01*
X149358928Y-98928571D02*
X149301785Y-98985714D01*
X149358928Y-99042857D01*
X149416071Y-98985714D01*
X149358928Y-98928571D01*
X149358928Y-99042857D01*
X149358928Y-98300000D02*
X149301785Y-98357142D01*
X149358928Y-98414285D01*
X149416071Y-98357142D01*
X149358928Y-98300000D01*
X149358928Y-98414285D01*
X147930357Y-98985714D02*
X147758928Y-99042857D01*
X147473214Y-99042857D01*
X147358928Y-98985714D01*
X147301785Y-98928571D01*
X147244642Y-98814285D01*
X147244642Y-98700000D01*
X147301785Y-98585714D01*
X147358928Y-98528571D01*
X147473214Y-98471428D01*
X147701785Y-98414285D01*
X147816071Y-98357142D01*
X147873214Y-98300000D01*
X147930357Y-98185714D01*
X147930357Y-98071428D01*
X147873214Y-97957142D01*
X147816071Y-97900000D01*
X147701785Y-97842857D01*
X147416071Y-97842857D01*
X147244642Y-97900000D01*
X146730357Y-99042857D02*
X146730357Y-97842857D01*
X146444642Y-97842857D01*
X146273214Y-97900000D01*
X146158928Y-98014285D01*
X146101785Y-98128571D01*
X146044642Y-98357142D01*
X146044642Y-98528571D01*
X146101785Y-98757142D01*
X146158928Y-98871428D01*
X146273214Y-98985714D01*
X146444642Y-99042857D01*
X146730357Y-99042857D01*
X145587500Y-98700000D02*
X145016071Y-98700000D01*
X145701785Y-99042857D02*
X145301785Y-97842857D01*
X144901785Y-99042857D01*
X143587500Y-99042857D02*
X143587500Y-97842857D01*
X143130357Y-97842857D01*
X143016071Y-97900000D01*
X142958928Y-97957142D01*
X142901785Y-98071428D01*
X142901785Y-98242857D01*
X142958928Y-98357142D01*
X143016071Y-98414285D01*
X143130357Y-98471428D01*
X143587500Y-98471428D01*
X142387500Y-97842857D02*
X142387500Y-98814285D01*
X142330357Y-98928571D01*
X142273214Y-98985714D01*
X142158928Y-99042857D01*
X141930357Y-99042857D01*
X141816071Y-98985714D01*
X141758928Y-98928571D01*
X141701785Y-98814285D01*
X141701785Y-97842857D01*
X150616071Y-99892857D02*
X149873214Y-99892857D01*
X150273214Y-100350000D01*
X150101785Y-100350000D01*
X149987500Y-100407142D01*
X149930357Y-100464285D01*
X149873214Y-100578571D01*
X149873214Y-100864285D01*
X149930357Y-100978571D01*
X149987500Y-101035714D01*
X150101785Y-101092857D01*
X150444642Y-101092857D01*
X150558928Y-101035714D01*
X150616071Y-100978571D01*
X149358928Y-100978571D02*
X149301785Y-101035714D01*
X149358928Y-101092857D01*
X149416071Y-101035714D01*
X149358928Y-100978571D01*
X149358928Y-101092857D01*
X149358928Y-100350000D02*
X149301785Y-100407142D01*
X149358928Y-100464285D01*
X149416071Y-100407142D01*
X149358928Y-100350000D01*
X149358928Y-100464285D01*
X147930357Y-101035714D02*
X147758928Y-101092857D01*
X147473214Y-101092857D01*
X147358928Y-101035714D01*
X147301785Y-100978571D01*
X147244642Y-100864285D01*
X147244642Y-100750000D01*
X147301785Y-100635714D01*
X147358928Y-100578571D01*
X147473214Y-100521428D01*
X147701785Y-100464285D01*
X147816071Y-100407142D01*
X147873214Y-100350000D01*
X147930357Y-100235714D01*
X147930357Y-100121428D01*
X147873214Y-100007142D01*
X147816071Y-99950000D01*
X147701785Y-99892857D01*
X147416071Y-99892857D01*
X147244642Y-99950000D01*
X146044642Y-100978571D02*
X146101785Y-101035714D01*
X146273214Y-101092857D01*
X146387500Y-101092857D01*
X146558928Y-101035714D01*
X146673214Y-100921428D01*
X146730357Y-100807142D01*
X146787500Y-100578571D01*
X146787500Y-100407142D01*
X146730357Y-100178571D01*
X146673214Y-100064285D01*
X146558928Y-99950000D01*
X146387500Y-99892857D01*
X146273214Y-99892857D01*
X146101785Y-99950000D01*
X146044642Y-100007142D01*
X144958928Y-101092857D02*
X145530357Y-101092857D01*
X145530357Y-99892857D01*
X143644642Y-101092857D02*
X143644642Y-99892857D01*
X143187500Y-99892857D01*
X143073214Y-99950000D01*
X143016071Y-100007142D01*
X142958928Y-100121428D01*
X142958928Y-100292857D01*
X143016071Y-100407142D01*
X143073214Y-100464285D01*
X143187500Y-100521428D01*
X143644642Y-100521428D01*
X142444642Y-99892857D02*
X142444642Y-100864285D01*
X142387500Y-100978571D01*
X142330357Y-101035714D01*
X142216071Y-101092857D01*
X141987500Y-101092857D01*
X141873214Y-101035714D01*
X141816071Y-100978571D01*
X141758928Y-100864285D01*
X141758928Y-99892857D01*
X149987500Y-102342857D02*
X149987500Y-103142857D01*
X150273214Y-101885714D02*
X150558928Y-102742857D01*
X149816071Y-102742857D01*
X149358928Y-103028571D02*
X149301785Y-103085714D01*
X149358928Y-103142857D01*
X149416071Y-103085714D01*
X149358928Y-103028571D01*
X149358928Y-103142857D01*
X149358928Y-102400000D02*
X149301785Y-102457142D01*
X149358928Y-102514285D01*
X149416071Y-102457142D01*
X149358928Y-102400000D01*
X149358928Y-102514285D01*
X147930357Y-102800000D02*
X147358928Y-102800000D01*
X148044642Y-103142857D02*
X147644642Y-101942857D01*
X147244642Y-103142857D01*
X146616071Y-101942857D02*
X146501785Y-101942857D01*
X146387500Y-102000000D01*
X146330357Y-102057142D01*
X146273214Y-102171428D01*
X146216071Y-102400000D01*
X146216071Y-102685714D01*
X146273214Y-102914285D01*
X146330357Y-103028571D01*
X146387500Y-103085714D01*
X146501785Y-103142857D01*
X146616071Y-103142857D01*
X146730357Y-103085714D01*
X146787500Y-103028571D01*
X146844642Y-102914285D01*
X146901785Y-102685714D01*
X146901785Y-102400000D01*
X146844642Y-102171428D01*
X146787500Y-102057142D01*
X146730357Y-102000000D01*
X146616071Y-101942857D01*
X149930357Y-103992857D02*
X150501785Y-103992857D01*
X150558928Y-104564285D01*
X150501785Y-104507142D01*
X150387500Y-104450000D01*
X150101785Y-104450000D01*
X149987500Y-104507142D01*
X149930357Y-104564285D01*
X149873214Y-104678571D01*
X149873214Y-104964285D01*
X149930357Y-105078571D01*
X149987500Y-105135714D01*
X150101785Y-105192857D01*
X150387500Y-105192857D01*
X150501785Y-105135714D01*
X150558928Y-105078571D01*
X149358928Y-105078571D02*
X149301785Y-105135714D01*
X149358928Y-105192857D01*
X149416071Y-105135714D01*
X149358928Y-105078571D01*
X149358928Y-105192857D01*
X149358928Y-104450000D02*
X149301785Y-104507142D01*
X149358928Y-104564285D01*
X149416071Y-104507142D01*
X149358928Y-104450000D01*
X149358928Y-104564285D01*
X147930357Y-104850000D02*
X147358928Y-104850000D01*
X148044642Y-105192857D02*
X147644642Y-103992857D01*
X147244642Y-105192857D01*
X146216071Y-105192857D02*
X146901785Y-105192857D01*
X146558928Y-105192857D02*
X146558928Y-103992857D01*
X146673214Y-104164285D01*
X146787500Y-104278571D01*
X146901785Y-104335714D01*
X149987500Y-106042857D02*
X150216071Y-106042857D01*
X150330357Y-106100000D01*
X150387500Y-106157142D01*
X150501785Y-106328571D01*
X150558928Y-106557142D01*
X150558928Y-107014285D01*
X150501785Y-107128571D01*
X150444642Y-107185714D01*
X150330357Y-107242857D01*
X150101785Y-107242857D01*
X149987500Y-107185714D01*
X149930357Y-107128571D01*
X149873214Y-107014285D01*
X149873214Y-106728571D01*
X149930357Y-106614285D01*
X149987500Y-106557142D01*
X150101785Y-106500000D01*
X150330357Y-106500000D01*
X150444642Y-106557142D01*
X150501785Y-106614285D01*
X150558928Y-106728571D01*
X149358928Y-107128571D02*
X149301785Y-107185714D01*
X149358928Y-107242857D01*
X149416071Y-107185714D01*
X149358928Y-107128571D01*
X149358928Y-107242857D01*
X149358928Y-106500000D02*
X149301785Y-106557142D01*
X149358928Y-106614285D01*
X149416071Y-106557142D01*
X149358928Y-106500000D01*
X149358928Y-106614285D01*
X147930357Y-106900000D02*
X147358928Y-106900000D01*
X148044642Y-107242857D02*
X147644642Y-106042857D01*
X147244642Y-107242857D01*
X146901785Y-106157142D02*
X146844642Y-106100000D01*
X146730357Y-106042857D01*
X146444642Y-106042857D01*
X146330357Y-106100000D01*
X146273214Y-106157142D01*
X146216071Y-106271428D01*
X146216071Y-106385714D01*
X146273214Y-106557142D01*
X146958928Y-107242857D01*
X146216071Y-107242857D01*
D11*
X143007142Y-108728571D02*
X143507142Y-108014285D01*
X143864285Y-108728571D02*
X143864285Y-107228571D01*
X143292857Y-107228571D01*
X143150000Y-107300000D01*
X143078571Y-107371428D01*
X143007142Y-107514285D01*
X143007142Y-107728571D01*
X143078571Y-107871428D01*
X143150000Y-107942857D01*
X143292857Y-108014285D01*
X143864285Y-108014285D01*
X141792857Y-108657142D02*
X141935714Y-108728571D01*
X142221428Y-108728571D01*
X142364285Y-108657142D01*
X142435714Y-108514285D01*
X142435714Y-107942857D01*
X142364285Y-107800000D01*
X142221428Y-107728571D01*
X141935714Y-107728571D01*
X141792857Y-107800000D01*
X141721428Y-107942857D01*
X141721428Y-108085714D01*
X142435714Y-108228571D01*
X141221428Y-107728571D02*
X140864285Y-108728571D01*
X140507142Y-107728571D01*
X138007142Y-108728571D02*
X138864285Y-108728571D01*
X138435714Y-108728571D02*
X138435714Y-107228571D01*
X138578571Y-107442857D01*
X138721428Y-107585714D01*
X138864285Y-107657142D01*
X137364285Y-108585714D02*
X137292857Y-108657142D01*
X137364285Y-108728571D01*
X137435714Y-108657142D01*
X137364285Y-108585714D01*
X137364285Y-108728571D01*
X136792857Y-107228571D02*
X135864285Y-107228571D01*
X136364285Y-107800000D01*
X136150000Y-107800000D01*
X136007142Y-107871428D01*
X135935714Y-107942857D01*
X135864285Y-108085714D01*
X135864285Y-108442857D01*
X135935714Y-108585714D01*
X136007142Y-108657142D01*
X136150000Y-108728571D01*
X136578571Y-108728571D01*
X136721428Y-108657142D01*
X136792857Y-108585714D01*
D12*
X136492857Y-93515714D02*
X135292857Y-93515714D01*
X135407142Y-94030000D02*
X135350000Y-94087142D01*
X135292857Y-94201428D01*
X135292857Y-94487142D01*
X135350000Y-94601428D01*
X135407142Y-94658571D01*
X135521428Y-94715714D01*
X135635714Y-94715714D01*
X135807142Y-94658571D01*
X136492857Y-93972857D01*
X136492857Y-94715714D01*
X136378571Y-95915714D02*
X136435714Y-95858571D01*
X136492857Y-95687142D01*
X136492857Y-95572857D01*
X136435714Y-95401428D01*
X136321428Y-95287142D01*
X136207142Y-95230000D01*
X135978571Y-95172857D01*
X135807142Y-95172857D01*
X135578571Y-95230000D01*
X135464285Y-95287142D01*
X135350000Y-95401428D01*
X135292857Y-95572857D01*
X135292857Y-95687142D01*
X135350000Y-95858571D01*
X135407142Y-95915714D01*
X136150000Y-97287142D02*
X136150000Y-97858571D01*
X136492857Y-97172857D02*
X135292857Y-97572857D01*
X136492857Y-97972857D01*
X136492857Y-98887142D02*
X135292857Y-98887142D01*
X136435714Y-98887142D02*
X136492857Y-98772857D01*
X136492857Y-98544285D01*
X136435714Y-98430000D01*
X136378571Y-98372857D01*
X136264285Y-98315714D01*
X135921428Y-98315714D01*
X135807142Y-98372857D01*
X135750000Y-98430000D01*
X135692857Y-98544285D01*
X135692857Y-98772857D01*
X135750000Y-98887142D01*
X136492857Y-99972857D02*
X135292857Y-99972857D01*
X136435714Y-99972857D02*
X136492857Y-99858571D01*
X136492857Y-99630000D01*
X136435714Y-99515714D01*
X136378571Y-99458571D01*
X136264285Y-99401428D01*
X135921428Y-99401428D01*
X135807142Y-99458571D01*
X135750000Y-99515714D01*
X135692857Y-99630000D01*
X135692857Y-99858571D01*
X135750000Y-99972857D01*
X136492857Y-100544285D02*
X135692857Y-100544285D01*
X135921428Y-100544285D02*
X135807142Y-100601428D01*
X135750000Y-100658571D01*
X135692857Y-100772857D01*
X135692857Y-100887142D01*
X136435714Y-101744285D02*
X136492857Y-101630000D01*
X136492857Y-101401428D01*
X136435714Y-101287142D01*
X136321428Y-101230000D01*
X135864285Y-101230000D01*
X135750000Y-101287142D01*
X135692857Y-101401428D01*
X135692857Y-101630000D01*
X135750000Y-101744285D01*
X135864285Y-101801428D01*
X135978571Y-101801428D01*
X136092857Y-101230000D01*
X136435714Y-102258571D02*
X136492857Y-102372857D01*
X136492857Y-102601428D01*
X136435714Y-102715714D01*
X136321428Y-102772857D01*
X136264285Y-102772857D01*
X136150000Y-102715714D01*
X136092857Y-102601428D01*
X136092857Y-102430000D01*
X136035714Y-102315714D01*
X135921428Y-102258571D01*
X135864285Y-102258571D01*
X135750000Y-102315714D01*
X135692857Y-102430000D01*
X135692857Y-102601428D01*
X135750000Y-102715714D01*
X136435714Y-103230000D02*
X136492857Y-103344285D01*
X136492857Y-103572857D01*
X136435714Y-103687142D01*
X136321428Y-103744285D01*
X136264285Y-103744285D01*
X136150000Y-103687142D01*
X136092857Y-103572857D01*
X136092857Y-103401428D01*
X136035714Y-103287142D01*
X135921428Y-103230000D01*
X135864285Y-103230000D01*
X135750000Y-103287142D01*
X135692857Y-103401428D01*
X135692857Y-103572857D01*
X135750000Y-103687142D01*
X136378571Y-104258571D02*
X136435714Y-104315714D01*
X136492857Y-104258571D01*
X136435714Y-104201428D01*
X136378571Y-104258571D01*
X136492857Y-104258571D01*
X135750000Y-104258571D02*
X135807142Y-104315714D01*
X135864285Y-104258571D01*
X135807142Y-104201428D01*
X135750000Y-104258571D01*
X135864285Y-104258571D01*
X137292857Y-93744285D02*
X137292857Y-93858571D01*
X137350000Y-93972857D01*
X137407142Y-94030000D01*
X137521428Y-94087142D01*
X137750000Y-94144285D01*
X138035714Y-94144285D01*
X138264285Y-94087142D01*
X138378571Y-94030000D01*
X138435714Y-93972857D01*
X138492857Y-93858571D01*
X138492857Y-93744285D01*
X138435714Y-93630000D01*
X138378571Y-93572857D01*
X138264285Y-93515714D01*
X138035714Y-93458571D01*
X137750000Y-93458571D01*
X137521428Y-93515714D01*
X137407142Y-93572857D01*
X137350000Y-93630000D01*
X137292857Y-93744285D01*
X138492857Y-94544285D02*
X137692857Y-95172857D01*
X137692857Y-94544285D02*
X138492857Y-95172857D01*
X137407142Y-95572857D02*
X137350000Y-95630000D01*
X137292857Y-95744285D01*
X137292857Y-96030000D01*
X137350000Y-96144285D01*
X137407142Y-96201428D01*
X137521428Y-96258571D01*
X137635714Y-96258571D01*
X137807142Y-96201428D01*
X138492857Y-95515714D01*
X138492857Y-96258571D01*
X137292857Y-97001428D02*
X137292857Y-97115714D01*
X137350000Y-97230000D01*
X137407142Y-97287142D01*
X137521428Y-97344285D01*
X137750000Y-97401428D01*
X138035714Y-97401428D01*
X138264285Y-97344285D01*
X138378571Y-97287142D01*
X138435714Y-97230000D01*
X138492857Y-97115714D01*
X138492857Y-97001428D01*
X138435714Y-96887142D01*
X138378571Y-96830000D01*
X138264285Y-96772857D01*
X138035714Y-96715714D01*
X137750000Y-96715714D01*
X137521428Y-96772857D01*
X137407142Y-96830000D01*
X137350000Y-96887142D01*
X137292857Y-97001428D01*
X138035714Y-97915714D02*
X138035714Y-98830000D01*
X137292857Y-99630000D02*
X137292857Y-99744285D01*
X137350000Y-99858571D01*
X137407142Y-99915714D01*
X137521428Y-99972857D01*
X137750000Y-100030000D01*
X138035714Y-100030000D01*
X138264285Y-99972857D01*
X138378571Y-99915714D01*
X138435714Y-99858571D01*
X138492857Y-99744285D01*
X138492857Y-99630000D01*
X138435714Y-99515714D01*
X138378571Y-99458571D01*
X138264285Y-99401428D01*
X138035714Y-99344285D01*
X137750000Y-99344285D01*
X137521428Y-99401428D01*
X137407142Y-99458571D01*
X137350000Y-99515714D01*
X137292857Y-99630000D01*
X138492857Y-100430000D02*
X137692857Y-101058571D01*
X137692857Y-100430000D02*
X138492857Y-101058571D01*
X137407142Y-101458571D02*
X137350000Y-101515714D01*
X137292857Y-101630000D01*
X137292857Y-101915714D01*
X137350000Y-102030000D01*
X137407142Y-102087142D01*
X137521428Y-102144285D01*
X137635714Y-102144285D01*
X137807142Y-102087142D01*
X138492857Y-101401428D01*
X138492857Y-102144285D01*
X137292857Y-102544285D02*
X137292857Y-103344285D01*
X138492857Y-102830000D01*
X150885714Y-111142857D02*
X151571428Y-111142857D01*
X151228571Y-111142857D02*
X151228571Y-109942857D01*
X151342857Y-110114285D01*
X151457142Y-110228571D01*
X151571428Y-110285714D01*
X150371428Y-111028571D02*
X150314285Y-111085714D01*
X150371428Y-111142857D01*
X150428571Y-111085714D01*
X150371428Y-111028571D01*
X150371428Y-111142857D01*
X149285714Y-109942857D02*
X149514285Y-109942857D01*
X149628571Y-110000000D01*
X149685714Y-110057142D01*
X149800000Y-110228571D01*
X149857142Y-110457142D01*
X149857142Y-110914285D01*
X149800000Y-111028571D01*
X149742857Y-111085714D01*
X149628571Y-111142857D01*
X149400000Y-111142857D01*
X149285714Y-111085714D01*
X149228571Y-111028571D01*
X149171428Y-110914285D01*
X149171428Y-110628571D01*
X149228571Y-110514285D01*
X149285714Y-110457142D01*
X149400000Y-110400000D01*
X149628571Y-110400000D01*
X149742857Y-110457142D01*
X149800000Y-110514285D01*
X149857142Y-110628571D01*
X148085714Y-109942857D02*
X148657142Y-109942857D01*
X148714285Y-110514285D01*
X148657142Y-110457142D01*
X148542857Y-110400000D01*
X148257142Y-110400000D01*
X148142857Y-110457142D01*
X148085714Y-110514285D01*
X148028571Y-110628571D01*
X148028571Y-110914285D01*
X148085714Y-111028571D01*
X148142857Y-111085714D01*
X148257142Y-111142857D01*
X148542857Y-111142857D01*
X148657142Y-111085714D01*
X148714285Y-111028571D01*
X147514285Y-110685714D02*
X146600000Y-110685714D01*
X145514285Y-109942857D02*
X145742857Y-109942857D01*
X145857142Y-110000000D01*
X145914285Y-110057142D01*
X146028571Y-110228571D01*
X146085714Y-110457142D01*
X146085714Y-110914285D01*
X146028571Y-111028571D01*
X145971428Y-111085714D01*
X145857142Y-111142857D01*
X145628571Y-111142857D01*
X145514285Y-111085714D01*
X145457142Y-111028571D01*
X145400000Y-110914285D01*
X145400000Y-110628571D01*
X145457142Y-110514285D01*
X145514285Y-110457142D01*
X145628571Y-110400000D01*
X145857142Y-110400000D01*
X145971428Y-110457142D01*
X146028571Y-110514285D01*
X146085714Y-110628571D01*
X145057142Y-109942857D02*
X144657142Y-111142857D01*
X144257142Y-109942857D01*
X142942857Y-111142857D02*
X142942857Y-109942857D01*
X142428571Y-110057142D02*
X142371428Y-110000000D01*
X142257142Y-109942857D01*
X141971428Y-109942857D01*
X141857142Y-110000000D01*
X141800000Y-110057142D01*
X141742857Y-110171428D01*
X141742857Y-110285714D01*
X141800000Y-110457142D01*
X142485714Y-111142857D01*
X141742857Y-111142857D01*
X140542857Y-111028571D02*
X140600000Y-111085714D01*
X140771428Y-111142857D01*
X140885714Y-111142857D01*
X141057142Y-111085714D01*
X141171428Y-110971428D01*
X141228571Y-110857142D01*
X141285714Y-110628571D01*
X141285714Y-110457142D01*
X141228571Y-110228571D01*
X141171428Y-110114285D01*
X141057142Y-110000000D01*
X140885714Y-109942857D01*
X140771428Y-109942857D01*
X140600000Y-110000000D01*
X140542857Y-110057142D01*
X151342857Y-112000000D02*
X151457142Y-111942857D01*
X151628571Y-111942857D01*
X151800000Y-112000000D01*
X151914285Y-112114285D01*
X151971428Y-112228571D01*
X152028571Y-112457142D01*
X152028571Y-112628571D01*
X151971428Y-112857142D01*
X151914285Y-112971428D01*
X151800000Y-113085714D01*
X151628571Y-113142857D01*
X151514285Y-113142857D01*
X151342857Y-113085714D01*
X151285714Y-113028571D01*
X151285714Y-112628571D01*
X151514285Y-112628571D01*
X150771428Y-113142857D02*
X150771428Y-111942857D01*
X150314285Y-111942857D01*
X150200000Y-112000000D01*
X150142857Y-112057142D01*
X150085714Y-112171428D01*
X150085714Y-112342857D01*
X150142857Y-112457142D01*
X150200000Y-112514285D01*
X150314285Y-112571428D01*
X150771428Y-112571428D01*
X149571428Y-113142857D02*
X149571428Y-111942857D01*
X148771428Y-111942857D02*
X148542857Y-111942857D01*
X148428571Y-112000000D01*
X148314285Y-112114285D01*
X148257142Y-112342857D01*
X148257142Y-112742857D01*
X148314285Y-112971428D01*
X148428571Y-113085714D01*
X148542857Y-113142857D01*
X148771428Y-113142857D01*
X148885714Y-113085714D01*
X149000000Y-112971428D01*
X149057142Y-112742857D01*
X149057142Y-112342857D01*
X149000000Y-112114285D01*
X148885714Y-112000000D01*
X148771428Y-111942857D01*
X146828571Y-112514285D02*
X146428571Y-112514285D01*
X146257142Y-113142857D02*
X146828571Y-113142857D01*
X146828571Y-111942857D01*
X146257142Y-111942857D01*
X145857142Y-113142857D02*
X145228571Y-112342857D01*
X145857142Y-112342857D02*
X145228571Y-113142857D01*
X144771428Y-112342857D02*
X144771428Y-113542857D01*
X144771428Y-112400000D02*
X144657142Y-112342857D01*
X144428571Y-112342857D01*
X144314285Y-112400000D01*
X144257142Y-112457142D01*
X144200000Y-112571428D01*
X144200000Y-112914285D01*
X144257142Y-113028571D01*
X144314285Y-113085714D01*
X144428571Y-113142857D01*
X144657142Y-113142857D01*
X144771428Y-113085714D01*
X143171428Y-113142857D02*
X143171428Y-112514285D01*
X143228571Y-112400000D01*
X143342857Y-112342857D01*
X143571428Y-112342857D01*
X143685714Y-112400000D01*
X143171428Y-113085714D02*
X143285714Y-113142857D01*
X143571428Y-113142857D01*
X143685714Y-113085714D01*
X143742857Y-112971428D01*
X143742857Y-112857142D01*
X143685714Y-112742857D01*
X143571428Y-112685714D01*
X143285714Y-112685714D01*
X143171428Y-112628571D01*
X142600000Y-112342857D02*
X142600000Y-113142857D01*
X142600000Y-112457142D02*
X142542857Y-112400000D01*
X142428571Y-112342857D01*
X142257142Y-112342857D01*
X142142857Y-112400000D01*
X142085714Y-112514285D01*
X142085714Y-113142857D01*
X141000000Y-113142857D02*
X141000000Y-111942857D01*
X141000000Y-113085714D02*
X141114285Y-113142857D01*
X141342857Y-113142857D01*
X141457142Y-113085714D01*
X141514285Y-113028571D01*
X141571428Y-112914285D01*
X141571428Y-112571428D01*
X141514285Y-112457142D01*
X141457142Y-112400000D01*
X141342857Y-112342857D01*
X141114285Y-112342857D01*
X141000000Y-112400000D01*
X139971428Y-113085714D02*
X140085714Y-113142857D01*
X140314285Y-113142857D01*
X140428571Y-113085714D01*
X140485714Y-112971428D01*
X140485714Y-112514285D01*
X140428571Y-112400000D01*
X140314285Y-112342857D01*
X140085714Y-112342857D01*
X139971428Y-112400000D01*
X139914285Y-112514285D01*
X139914285Y-112628571D01*
X140485714Y-112742857D01*
X139400000Y-113142857D02*
X139400000Y-112342857D01*
X139400000Y-112571428D02*
X139342857Y-112457142D01*
X139285714Y-112400000D01*
X139171428Y-112342857D01*
X139057142Y-112342857D01*
D13*
G04 #@! TO.C,J1*
X134520000Y-86580000D02*
X133250000Y-86580000D01*
X134520000Y-87850000D02*
X134520000Y-86580000D01*
X132207071Y-111090000D02*
X131810000Y-111090000D01*
X132207071Y-110330000D02*
X131810000Y-110330000D01*
X123150000Y-111090000D02*
X129150000Y-111090000D01*
X123150000Y-110330000D02*
X123150000Y-111090000D01*
X129150000Y-110330000D02*
X123150000Y-110330000D01*
X131810000Y-109440000D02*
X129150000Y-109440000D01*
X132207071Y-108550000D02*
X131810000Y-108550000D01*
X132207071Y-107790000D02*
X131810000Y-107790000D01*
X123150000Y-108550000D02*
X129150000Y-108550000D01*
X123150000Y-107790000D02*
X123150000Y-108550000D01*
X129150000Y-107790000D02*
X123150000Y-107790000D01*
X131810000Y-106900000D02*
X129150000Y-106900000D01*
X132207071Y-106010000D02*
X131810000Y-106010000D01*
X132207071Y-105250000D02*
X131810000Y-105250000D01*
X123150000Y-106010000D02*
X129150000Y-106010000D01*
X123150000Y-105250000D02*
X123150000Y-106010000D01*
X129150000Y-105250000D02*
X123150000Y-105250000D01*
X131810000Y-104360000D02*
X129150000Y-104360000D01*
X132207071Y-103470000D02*
X131810000Y-103470000D01*
X132207071Y-102710000D02*
X131810000Y-102710000D01*
X123150000Y-103470000D02*
X129150000Y-103470000D01*
X123150000Y-102710000D02*
X123150000Y-103470000D01*
X129150000Y-102710000D02*
X123150000Y-102710000D01*
X131810000Y-101820000D02*
X129150000Y-101820000D01*
X132207071Y-100930000D02*
X131810000Y-100930000D01*
X132207071Y-100170000D02*
X131810000Y-100170000D01*
X123150000Y-100930000D02*
X129150000Y-100930000D01*
X123150000Y-100170000D02*
X123150000Y-100930000D01*
X129150000Y-100170000D02*
X123150000Y-100170000D01*
X131810000Y-99280000D02*
X129150000Y-99280000D01*
X132207071Y-98390000D02*
X131810000Y-98390000D01*
X132207071Y-97630000D02*
X131810000Y-97630000D01*
X123150000Y-98390000D02*
X129150000Y-98390000D01*
X123150000Y-97630000D02*
X123150000Y-98390000D01*
X129150000Y-97630000D02*
X123150000Y-97630000D01*
X131810000Y-96740000D02*
X129150000Y-96740000D01*
X132207071Y-95850000D02*
X131810000Y-95850000D01*
X132207071Y-95090000D02*
X131810000Y-95090000D01*
X123150000Y-95850000D02*
X129150000Y-95850000D01*
X123150000Y-95090000D02*
X123150000Y-95850000D01*
X129150000Y-95090000D02*
X123150000Y-95090000D01*
X131810000Y-94200000D02*
X129150000Y-94200000D01*
X132207071Y-93310000D02*
X131810000Y-93310000D01*
X132207071Y-92550000D02*
X131810000Y-92550000D01*
X123150000Y-93310000D02*
X129150000Y-93310000D01*
X123150000Y-92550000D02*
X123150000Y-93310000D01*
X129150000Y-92550000D02*
X123150000Y-92550000D01*
X131810000Y-91660000D02*
X129150000Y-91660000D01*
X132207071Y-90770000D02*
X131810000Y-90770000D01*
X132207071Y-90010000D02*
X131810000Y-90010000D01*
X123150000Y-90770000D02*
X129150000Y-90770000D01*
X123150000Y-90010000D02*
X123150000Y-90770000D01*
X129150000Y-90010000D02*
X123150000Y-90010000D01*
X131810000Y-89120000D02*
X129150000Y-89120000D01*
X132140000Y-88230000D02*
X131810000Y-88230000D01*
X132140000Y-87470000D02*
X131810000Y-87470000D01*
X129150000Y-88130000D02*
X123150000Y-88130000D01*
X129150000Y-88010000D02*
X123150000Y-88010000D01*
X129150000Y-87890000D02*
X123150000Y-87890000D01*
X129150000Y-87770000D02*
X123150000Y-87770000D01*
X129150000Y-87650000D02*
X123150000Y-87650000D01*
X129150000Y-87530000D02*
X123150000Y-87530000D01*
X123150000Y-88230000D02*
X129150000Y-88230000D01*
X123150000Y-87470000D02*
X123150000Y-88230000D01*
X129150000Y-87470000D02*
X123150000Y-87470000D01*
X129150000Y-86520000D02*
X131810000Y-86520000D01*
X129150000Y-112040000D02*
X129150000Y-86520000D01*
X131810000Y-112040000D02*
X129150000Y-112040000D01*
X131810000Y-86520000D02*
X131810000Y-112040000D01*
G04 #@! TO.C,J2*
X151930000Y-108070000D02*
X153200000Y-108070000D01*
X151930000Y-106800000D02*
X151930000Y-108070000D01*
X154242929Y-91180000D02*
X154697071Y-91180000D01*
X154242929Y-91940000D02*
X154697071Y-91940000D01*
X156782929Y-91180000D02*
X157180000Y-91180000D01*
X156782929Y-91940000D02*
X157180000Y-91940000D01*
X165840000Y-91180000D02*
X159840000Y-91180000D01*
X165840000Y-91940000D02*
X165840000Y-91180000D01*
X159840000Y-91940000D02*
X165840000Y-91940000D01*
X157180000Y-92830000D02*
X159840000Y-92830000D01*
X154242929Y-93720000D02*
X154697071Y-93720000D01*
X154242929Y-94480000D02*
X154697071Y-94480000D01*
X156782929Y-93720000D02*
X157180000Y-93720000D01*
X156782929Y-94480000D02*
X157180000Y-94480000D01*
X165840000Y-93720000D02*
X159840000Y-93720000D01*
X165840000Y-94480000D02*
X165840000Y-93720000D01*
X159840000Y-94480000D02*
X165840000Y-94480000D01*
X157180000Y-95370000D02*
X159840000Y-95370000D01*
X154242929Y-96260000D02*
X154697071Y-96260000D01*
X154242929Y-97020000D02*
X154697071Y-97020000D01*
X156782929Y-96260000D02*
X157180000Y-96260000D01*
X156782929Y-97020000D02*
X157180000Y-97020000D01*
X165840000Y-96260000D02*
X159840000Y-96260000D01*
X165840000Y-97020000D02*
X165840000Y-96260000D01*
X159840000Y-97020000D02*
X165840000Y-97020000D01*
X157180000Y-97910000D02*
X159840000Y-97910000D01*
X154242929Y-98800000D02*
X154697071Y-98800000D01*
X154242929Y-99560000D02*
X154697071Y-99560000D01*
X156782929Y-98800000D02*
X157180000Y-98800000D01*
X156782929Y-99560000D02*
X157180000Y-99560000D01*
X165840000Y-98800000D02*
X159840000Y-98800000D01*
X165840000Y-99560000D02*
X165840000Y-98800000D01*
X159840000Y-99560000D02*
X165840000Y-99560000D01*
X157180000Y-100450000D02*
X159840000Y-100450000D01*
X154242929Y-101340000D02*
X154697071Y-101340000D01*
X154242929Y-102100000D02*
X154697071Y-102100000D01*
X156782929Y-101340000D02*
X157180000Y-101340000D01*
X156782929Y-102100000D02*
X157180000Y-102100000D01*
X165840000Y-101340000D02*
X159840000Y-101340000D01*
X165840000Y-102100000D02*
X165840000Y-101340000D01*
X159840000Y-102100000D02*
X165840000Y-102100000D01*
X157180000Y-102990000D02*
X159840000Y-102990000D01*
X154242929Y-103880000D02*
X154697071Y-103880000D01*
X154242929Y-104640000D02*
X154697071Y-104640000D01*
X156782929Y-103880000D02*
X157180000Y-103880000D01*
X156782929Y-104640000D02*
X157180000Y-104640000D01*
X165840000Y-103880000D02*
X159840000Y-103880000D01*
X165840000Y-104640000D02*
X165840000Y-103880000D01*
X159840000Y-104640000D02*
X165840000Y-104640000D01*
X157180000Y-105530000D02*
X159840000Y-105530000D01*
X154310000Y-106420000D02*
X154697071Y-106420000D01*
X154310000Y-107180000D02*
X154697071Y-107180000D01*
X156782929Y-106420000D02*
X157180000Y-106420000D01*
X156782929Y-107180000D02*
X157180000Y-107180000D01*
X159840000Y-106520000D02*
X165840000Y-106520000D01*
X159840000Y-106640000D02*
X165840000Y-106640000D01*
X159840000Y-106760000D02*
X165840000Y-106760000D01*
X159840000Y-106880000D02*
X165840000Y-106880000D01*
X159840000Y-107000000D02*
X165840000Y-107000000D01*
X159840000Y-107120000D02*
X165840000Y-107120000D01*
X165840000Y-106420000D02*
X159840000Y-106420000D01*
X165840000Y-107180000D02*
X165840000Y-106420000D01*
X159840000Y-107180000D02*
X165840000Y-107180000D01*
X159840000Y-108130000D02*
X157180000Y-108130000D01*
X159840000Y-90230000D02*
X159840000Y-108130000D01*
X157180000Y-90230000D02*
X159840000Y-90230000D01*
X157180000Y-108130000D02*
X157180000Y-90230000D01*
G04 #@! TO.C,J3*
X147870000Y-92670000D02*
X147870000Y-91400000D01*
X146600000Y-92670000D02*
X147870000Y-92670000D01*
X138600000Y-90357071D02*
X138600000Y-89902929D01*
X139360000Y-90357071D02*
X139360000Y-89902929D01*
X138600000Y-87817071D02*
X138600000Y-87420000D01*
X139360000Y-87817071D02*
X139360000Y-87420000D01*
X138600000Y-78760000D02*
X138600000Y-84760000D01*
X139360000Y-78760000D02*
X138600000Y-78760000D01*
X139360000Y-84760000D02*
X139360000Y-78760000D01*
X140250000Y-87420000D02*
X140250000Y-84760000D01*
X141140000Y-90357071D02*
X141140000Y-89902929D01*
X141900000Y-90357071D02*
X141900000Y-89902929D01*
X141140000Y-87817071D02*
X141140000Y-87420000D01*
X141900000Y-87817071D02*
X141900000Y-87420000D01*
X141140000Y-78760000D02*
X141140000Y-84760000D01*
X141900000Y-78760000D02*
X141140000Y-78760000D01*
X141900000Y-84760000D02*
X141900000Y-78760000D01*
X142790000Y-87420000D02*
X142790000Y-84760000D01*
X143680000Y-90357071D02*
X143680000Y-89902929D01*
X144440000Y-90357071D02*
X144440000Y-89902929D01*
X143680000Y-87817071D02*
X143680000Y-87420000D01*
X144440000Y-87817071D02*
X144440000Y-87420000D01*
X143680000Y-78760000D02*
X143680000Y-84760000D01*
X144440000Y-78760000D02*
X143680000Y-78760000D01*
X144440000Y-84760000D02*
X144440000Y-78760000D01*
X145330000Y-87420000D02*
X145330000Y-84760000D01*
X146220000Y-90290000D02*
X146220000Y-89902929D01*
X146980000Y-90290000D02*
X146980000Y-89902929D01*
X146220000Y-87817071D02*
X146220000Y-87420000D01*
X146980000Y-87817071D02*
X146980000Y-87420000D01*
X146320000Y-84760000D02*
X146320000Y-78760000D01*
X146440000Y-84760000D02*
X146440000Y-78760000D01*
X146560000Y-84760000D02*
X146560000Y-78760000D01*
X146680000Y-84760000D02*
X146680000Y-78760000D01*
X146800000Y-84760000D02*
X146800000Y-78760000D01*
X146920000Y-84760000D02*
X146920000Y-78760000D01*
X146220000Y-78760000D02*
X146220000Y-84760000D01*
X146980000Y-78760000D02*
X146220000Y-78760000D01*
X146980000Y-84760000D02*
X146980000Y-78760000D01*
X147930000Y-84760000D02*
X147930000Y-87420000D01*
X137650000Y-84760000D02*
X147930000Y-84760000D01*
X137650000Y-87420000D02*
X137650000Y-84760000D01*
X147930000Y-87420000D02*
X137650000Y-87420000D01*
G04 #@! TO.C,J1*
D14*
X133933333Y-85402380D02*
X133933333Y-86116666D01*
X133980952Y-86259523D01*
X134076190Y-86354761D01*
X134219047Y-86402380D01*
X134314285Y-86402380D01*
X132933333Y-86402380D02*
X133504761Y-86402380D01*
X133219047Y-86402380D02*
X133219047Y-85402380D01*
X133314285Y-85545238D01*
X133409523Y-85640476D01*
X133504761Y-85688095D01*
G04 #@! TO.C,J2*
X152652380Y-108766666D02*
X153366666Y-108766666D01*
X153509523Y-108719047D01*
X153604761Y-108623809D01*
X153652380Y-108480952D01*
X153652380Y-108385714D01*
X152747619Y-109195238D02*
X152700000Y-109242857D01*
X152652380Y-109338095D01*
X152652380Y-109576190D01*
X152700000Y-109671428D01*
X152747619Y-109719047D01*
X152842857Y-109766666D01*
X152938095Y-109766666D01*
X153080952Y-109719047D01*
X153652380Y-109147619D01*
X153652380Y-109766666D01*
G04 #@! TO.C,J3*
X149433333Y-87952380D02*
X149433333Y-88666666D01*
X149480952Y-88809523D01*
X149576190Y-88904761D01*
X149719047Y-88952380D01*
X149814285Y-88952380D01*
X149052380Y-87952380D02*
X148433333Y-87952380D01*
X148766666Y-88333333D01*
X148623809Y-88333333D01*
X148528571Y-88380952D01*
X148480952Y-88428571D01*
X148433333Y-88523809D01*
X148433333Y-88761904D01*
X148480952Y-88857142D01*
X148528571Y-88904761D01*
X148623809Y-88952380D01*
X148909523Y-88952380D01*
X149004761Y-88904761D01*
X149052380Y-88857142D01*
G04 #@! TD*
M02*
