G04 #@! TF.GenerationSoftware,KiCad,Pcbnew,5.0.0*
G04 #@! TF.CreationDate,2018-09-18T18:54:09-07:00*
G04 #@! TF.ProjectId,gpio-expander,6770696F2D657870616E6465722E6B69,rev?*
G04 #@! TF.SameCoordinates,Original*
G04 #@! TF.FileFunction,Soldermask,Top*
G04 #@! TF.FilePolarity,Negative*
%FSLAX46Y46*%
G04 Gerber Fmt 4.6, Leading zero omitted, Abs format (unit mm)*
G04 Created by KiCad (PCBNEW 5.0.0) date Tue Sep 18 18:54:09 2018*
%MOMM*%
%LPD*%
G01*
G04 APERTURE LIST*
%ADD10R,1.650000X1.900000*%
%ADD11R,2.100000X2.100000*%
%ADD12O,2.100000X2.100000*%
%ADD13R,1.600000X1.150000*%
%ADD14R,1.900000X1.650000*%
%ADD15R,1.750000X1.750000*%
%ADD16O,1.750000X1.750000*%
%ADD17R,2.000000X0.700000*%
%ADD18R,1.200000X0.900000*%
%ADD19R,1.200000X0.800000*%
%ADD20R,0.900000X1.200000*%
%ADD21R,0.800000X1.200000*%
%ADD22C,0.300000*%
%ADD23C,0.100000*%
G04 APERTURE END LIST*
D10*
G04 #@! TO.C,C4*
X149600000Y-91450000D03*
X149600000Y-88950000D03*
G04 #@! TD*
D11*
G04 #@! TO.C,J2*
X153200000Y-106800000D03*
D12*
X155740000Y-106800000D03*
X153200000Y-104260000D03*
X155740000Y-104260000D03*
X153200000Y-101720000D03*
X155740000Y-101720000D03*
X153200000Y-99180000D03*
X155740000Y-99180000D03*
X153200000Y-96640000D03*
X155740000Y-96640000D03*
X153200000Y-94100000D03*
X155740000Y-94100000D03*
X153200000Y-91560000D03*
X155740000Y-91560000D03*
G04 #@! TD*
D13*
G04 #@! TO.C,C1*
X139900000Y-103200000D03*
X138000000Y-103200000D03*
G04 #@! TD*
D10*
G04 #@! TO.C,C3*
X137200000Y-107800000D03*
X137200000Y-105300000D03*
G04 #@! TD*
D14*
G04 #@! TO.C,C2*
X153200000Y-109600000D03*
X155700000Y-109600000D03*
G04 #@! TD*
D15*
G04 #@! TO.C,J1*
X133600000Y-93800000D03*
D16*
X133600000Y-95800000D03*
X133600000Y-97800000D03*
X133600000Y-99800000D03*
X133600000Y-101800000D03*
X133600000Y-103800000D03*
G04 #@! TD*
D17*
G04 #@! TO.C,U1*
X143200000Y-102750000D03*
X148800000Y-102750000D03*
X143200000Y-102100000D03*
X148800000Y-102100000D03*
X143200000Y-101450000D03*
X148800000Y-101450000D03*
X143200000Y-100800000D03*
X148800000Y-100800000D03*
X143200000Y-100150000D03*
X148800000Y-100150000D03*
X143200000Y-99500000D03*
X148800000Y-99500000D03*
X143200000Y-98850000D03*
X148800000Y-98850000D03*
X143200000Y-98200000D03*
X148800000Y-98200000D03*
X143200000Y-97550000D03*
X148800000Y-97550000D03*
X143200000Y-96900000D03*
X148800000Y-96900000D03*
X143200000Y-96250000D03*
X148800000Y-96250000D03*
X143200000Y-95600000D03*
X148800000Y-95600000D03*
G04 #@! TD*
D11*
G04 #@! TO.C,J3*
X146600000Y-91400000D03*
D12*
X146600000Y-88860000D03*
X144060000Y-91400000D03*
X144060000Y-88860000D03*
X141520000Y-91400000D03*
X141520000Y-88860000D03*
X138980000Y-91400000D03*
X138980000Y-88860000D03*
G04 #@! TD*
D18*
G04 #@! TO.C,RN2*
X141100000Y-107200000D03*
D19*
X141100000Y-106400000D03*
D18*
X141100000Y-104800000D03*
D19*
X141100000Y-105600000D03*
D18*
X139300000Y-107200000D03*
D19*
X139300000Y-105600000D03*
X139300000Y-106400000D03*
D18*
X139300000Y-104800000D03*
G04 #@! TD*
D20*
G04 #@! TO.C,RN1*
X136600000Y-100500000D03*
D21*
X138200000Y-100500000D03*
X137400000Y-100500000D03*
D20*
X139000000Y-100500000D03*
D21*
X137400000Y-98700000D03*
D20*
X136600000Y-98700000D03*
D21*
X138200000Y-98700000D03*
D20*
X139000000Y-98700000D03*
G04 #@! TD*
D22*
G04 #@! TO.C,JP3*
X143400000Y-108200000D03*
D23*
G36*
X142453843Y-107660982D02*
X142465224Y-107623463D01*
X142483706Y-107588886D01*
X142508579Y-107558579D01*
X142538886Y-107533706D01*
X142573463Y-107515224D01*
X142610982Y-107503843D01*
X142650000Y-107500000D01*
X144150000Y-107500000D01*
X144189018Y-107503843D01*
X144226537Y-107515224D01*
X144261114Y-107533706D01*
X144291421Y-107558579D01*
X144316294Y-107588886D01*
X144334776Y-107623463D01*
X144346157Y-107660982D01*
X144350000Y-107700000D01*
X144350000Y-108850000D01*
X144346157Y-108889018D01*
X144334776Y-108926537D01*
X144316294Y-108961114D01*
X144291421Y-108991421D01*
X144261114Y-109016294D01*
X144226537Y-109034776D01*
X144189018Y-109046157D01*
X144150000Y-109050000D01*
X144110982Y-109046157D01*
X144073463Y-109034776D01*
X144039060Y-109016410D01*
X143400000Y-108590370D01*
X142760940Y-109016410D01*
X142726343Y-109034856D01*
X142688813Y-109046198D01*
X142649791Y-109050000D01*
X142610777Y-109046116D01*
X142573270Y-109034696D01*
X142538712Y-109016178D01*
X142508431Y-108991273D01*
X142483590Y-108960940D01*
X142465144Y-108926343D01*
X142453802Y-108888813D01*
X142450000Y-108850000D01*
X142450000Y-107700000D01*
X142453843Y-107660982D01*
X142453843Y-107660982D01*
G37*
D22*
X143400000Y-109650000D03*
D23*
G36*
X142453843Y-109110982D02*
X142465224Y-109073463D01*
X142483706Y-109038886D01*
X142508579Y-109008579D01*
X142539060Y-108983590D01*
X143289060Y-108483590D01*
X143323657Y-108465144D01*
X143361187Y-108453802D01*
X143400209Y-108450000D01*
X143439223Y-108453884D01*
X143476730Y-108465304D01*
X143510940Y-108483590D01*
X144260940Y-108983590D01*
X144291273Y-109008431D01*
X144316178Y-109038712D01*
X144334696Y-109073270D01*
X144346116Y-109110777D01*
X144350000Y-109150000D01*
X144350000Y-110150000D01*
X144346157Y-110189018D01*
X144334776Y-110226537D01*
X144316294Y-110261114D01*
X144291421Y-110291421D01*
X144261114Y-110316294D01*
X144226537Y-110334776D01*
X144189018Y-110346157D01*
X144150000Y-110350000D01*
X142650000Y-110350000D01*
X142610982Y-110346157D01*
X142573463Y-110334776D01*
X142538886Y-110316294D01*
X142508579Y-110291421D01*
X142483706Y-110261114D01*
X142465224Y-110226537D01*
X142453843Y-110189018D01*
X142450000Y-110150000D01*
X142450000Y-109150000D01*
X142453843Y-109110982D01*
X142453843Y-109110982D01*
G37*
G04 #@! TD*
D22*
G04 #@! TO.C,JP2*
X146800000Y-109525000D03*
D23*
G36*
X145853843Y-108985982D02*
X145865224Y-108948463D01*
X145883706Y-108913886D01*
X145908579Y-108883579D01*
X145939060Y-108858590D01*
X146689060Y-108358590D01*
X146723657Y-108340144D01*
X146761187Y-108328802D01*
X146800209Y-108325000D01*
X146839223Y-108328884D01*
X146876730Y-108340304D01*
X146910940Y-108358590D01*
X147660940Y-108858590D01*
X147691273Y-108883431D01*
X147716178Y-108913712D01*
X147734696Y-108948270D01*
X147746116Y-108985777D01*
X147750000Y-109025000D01*
X147750000Y-110025000D01*
X147746157Y-110064018D01*
X147734776Y-110101537D01*
X147716294Y-110136114D01*
X147691421Y-110166421D01*
X147661114Y-110191294D01*
X147626537Y-110209776D01*
X147589018Y-110221157D01*
X147550000Y-110225000D01*
X146050000Y-110225000D01*
X146010982Y-110221157D01*
X145973463Y-110209776D01*
X145938886Y-110191294D01*
X145908579Y-110166421D01*
X145883706Y-110136114D01*
X145865224Y-110101537D01*
X145853843Y-110064018D01*
X145850000Y-110025000D01*
X145850000Y-109025000D01*
X145853843Y-108985982D01*
X145853843Y-108985982D01*
G37*
D22*
X146800000Y-108075000D03*
D23*
G36*
X145853843Y-107535982D02*
X145865224Y-107498463D01*
X145883706Y-107463886D01*
X145908579Y-107433579D01*
X145938886Y-107408706D01*
X145973463Y-107390224D01*
X146010982Y-107378843D01*
X146050000Y-107375000D01*
X147550000Y-107375000D01*
X147589018Y-107378843D01*
X147626537Y-107390224D01*
X147661114Y-107408706D01*
X147691421Y-107433579D01*
X147716294Y-107463886D01*
X147734776Y-107498463D01*
X147746157Y-107535982D01*
X147750000Y-107575000D01*
X147750000Y-108725000D01*
X147746157Y-108764018D01*
X147734776Y-108801537D01*
X147716294Y-108836114D01*
X147691421Y-108866421D01*
X147661114Y-108891294D01*
X147626537Y-108909776D01*
X147589018Y-108921157D01*
X147550000Y-108925000D01*
X147510982Y-108921157D01*
X147473463Y-108909776D01*
X147439060Y-108891410D01*
X146800000Y-108465370D01*
X146160940Y-108891410D01*
X146126343Y-108909856D01*
X146088813Y-108921198D01*
X146049791Y-108925000D01*
X146010777Y-108921116D01*
X145973270Y-108909696D01*
X145938712Y-108891178D01*
X145908431Y-108866273D01*
X145883590Y-108835940D01*
X145865144Y-108801343D01*
X145853802Y-108763813D01*
X145850000Y-108725000D01*
X145850000Y-107575000D01*
X145853843Y-107535982D01*
X145853843Y-107535982D01*
G37*
G04 #@! TD*
D22*
G04 #@! TO.C,JP1*
X150000000Y-108075000D03*
D23*
G36*
X149053843Y-107535982D02*
X149065224Y-107498463D01*
X149083706Y-107463886D01*
X149108579Y-107433579D01*
X149138886Y-107408706D01*
X149173463Y-107390224D01*
X149210982Y-107378843D01*
X149250000Y-107375000D01*
X150750000Y-107375000D01*
X150789018Y-107378843D01*
X150826537Y-107390224D01*
X150861114Y-107408706D01*
X150891421Y-107433579D01*
X150916294Y-107463886D01*
X150934776Y-107498463D01*
X150946157Y-107535982D01*
X150950000Y-107575000D01*
X150950000Y-108725000D01*
X150946157Y-108764018D01*
X150934776Y-108801537D01*
X150916294Y-108836114D01*
X150891421Y-108866421D01*
X150861114Y-108891294D01*
X150826537Y-108909776D01*
X150789018Y-108921157D01*
X150750000Y-108925000D01*
X150710982Y-108921157D01*
X150673463Y-108909776D01*
X150639060Y-108891410D01*
X150000000Y-108465370D01*
X149360940Y-108891410D01*
X149326343Y-108909856D01*
X149288813Y-108921198D01*
X149249791Y-108925000D01*
X149210777Y-108921116D01*
X149173270Y-108909696D01*
X149138712Y-108891178D01*
X149108431Y-108866273D01*
X149083590Y-108835940D01*
X149065144Y-108801343D01*
X149053802Y-108763813D01*
X149050000Y-108725000D01*
X149050000Y-107575000D01*
X149053843Y-107535982D01*
X149053843Y-107535982D01*
G37*
D22*
X150000000Y-109525000D03*
D23*
G36*
X149053843Y-108985982D02*
X149065224Y-108948463D01*
X149083706Y-108913886D01*
X149108579Y-108883579D01*
X149139060Y-108858590D01*
X149889060Y-108358590D01*
X149923657Y-108340144D01*
X149961187Y-108328802D01*
X150000209Y-108325000D01*
X150039223Y-108328884D01*
X150076730Y-108340304D01*
X150110940Y-108358590D01*
X150860940Y-108858590D01*
X150891273Y-108883431D01*
X150916178Y-108913712D01*
X150934696Y-108948270D01*
X150946116Y-108985777D01*
X150950000Y-109025000D01*
X150950000Y-110025000D01*
X150946157Y-110064018D01*
X150934776Y-110101537D01*
X150916294Y-110136114D01*
X150891421Y-110166421D01*
X150861114Y-110191294D01*
X150826537Y-110209776D01*
X150789018Y-110221157D01*
X150750000Y-110225000D01*
X149250000Y-110225000D01*
X149210982Y-110221157D01*
X149173463Y-110209776D01*
X149138886Y-110191294D01*
X149108579Y-110166421D01*
X149083706Y-110136114D01*
X149065224Y-110101537D01*
X149053843Y-110064018D01*
X149050000Y-110025000D01*
X149050000Y-109025000D01*
X149053843Y-108985982D01*
X149053843Y-108985982D01*
G37*
G04 #@! TD*
M02*
