G04 #@! TF.GenerationSoftware,KiCad,Pcbnew,5.0.0-5.0.0*
G04 #@! TF.CreationDate,2018-10-02T18:17:12-07:00*
G04 #@! TF.ProjectId,gpio-expander,6770696F2D657870616E6465722E6B69,rev?*
G04 #@! TF.SameCoordinates,Original*
G04 #@! TF.FileFunction,Copper,L1,Top,Signal*
G04 #@! TF.FilePolarity,Positive*
%FSLAX46Y46*%
G04 Gerber Fmt 4.6, Leading zero omitted, Abs format (unit mm)*
G04 Created by KiCad (PCBNEW 5.0.0-5.0.0) date Tue Oct  2 18:17:12 2018*
%MOMM*%
%LPD*%
G01*
G04 APERTURE LIST*
G04 #@! TA.AperFunction,ComponentPad*
%ADD10R,1.700000X1.700000*%
G04 #@! TD*
G04 #@! TA.AperFunction,ComponentPad*
%ADD11O,1.700000X1.700000*%
G04 #@! TD*
G04 #@! TA.AperFunction,BGAPad,CuDef*
%ADD12C,1.000000*%
G04 #@! TD*
G04 #@! TA.AperFunction,SMDPad,CuDef*
%ADD13R,0.760000X1.250000*%
G04 #@! TD*
G04 #@! TA.AperFunction,Conductor*
%ADD14C,0.100000*%
G04 #@! TD*
G04 #@! TA.AperFunction,SMDPad,CuDef*
%ADD15C,0.975000*%
G04 #@! TD*
G04 #@! TA.AperFunction,SMDPad,CuDef*
%ADD16C,0.875000*%
G04 #@! TD*
G04 #@! TA.AperFunction,SMDPad,CuDef*
%ADD17R,0.500000X0.800000*%
G04 #@! TD*
G04 #@! TA.AperFunction,SMDPad,CuDef*
%ADD18R,0.400000X0.800000*%
G04 #@! TD*
G04 #@! TA.AperFunction,SMDPad,CuDef*
%ADD19R,1.600000X0.300000*%
G04 #@! TD*
G04 #@! TA.AperFunction,ViaPad*
%ADD20C,0.800000*%
G04 #@! TD*
G04 #@! TA.AperFunction,Conductor*
%ADD21C,0.500000*%
G04 #@! TD*
G04 #@! TA.AperFunction,Conductor*
%ADD22C,0.250000*%
G04 #@! TD*
G04 #@! TA.AperFunction,Conductor*
%ADD23C,0.254000*%
G04 #@! TD*
G04 APERTURE END LIST*
D10*
G04 #@! TO.P,J1,1*
G04 #@! TO.N,GND*
X133250000Y-87850000D03*
D11*
G04 #@! TO.P,J1,2*
G04 #@! TO.N,/~INT*
X133250000Y-90390000D03*
G04 #@! TO.P,J1,3*
G04 #@! TO.N,/SCL*
X133250000Y-92930000D03*
G04 #@! TO.P,J1,4*
G04 #@! TO.N,/SDA*
X133250000Y-95470000D03*
G04 #@! TO.P,J1,5*
G04 #@! TO.N,+3V3*
X133250000Y-98010000D03*
G04 #@! TO.P,J1,6*
G04 #@! TO.N,GND*
X133250000Y-100550000D03*
G04 #@! TO.P,J1,7*
G04 #@! TO.N,/~INT*
X133250000Y-103090000D03*
G04 #@! TO.P,J1,8*
G04 #@! TO.N,/SCL*
X133250000Y-105630000D03*
G04 #@! TO.P,J1,9*
G04 #@! TO.N,/SDA*
X133250000Y-108170000D03*
G04 #@! TO.P,J1,10*
G04 #@! TO.N,+3V3*
X133250000Y-110710000D03*
G04 #@! TD*
D12*
G04 #@! TO.P,FID4,~*
G04 #@! TO.N,N/C*
X136800000Y-106500000D03*
G04 #@! TD*
G04 #@! TO.P,FID1,~*
G04 #@! TO.N,N/C*
X152650000Y-88150000D03*
G04 #@! TD*
D13*
G04 #@! TO.P,SW1,6*
G04 #@! TO.N,+3V3*
X149370000Y-112315000D03*
G04 #@! TO.P,SW1,7*
G04 #@! TO.N,/A0*
X149370000Y-106165000D03*
G04 #@! TO.P,SW1,5*
G04 #@! TO.N,+3V3*
X148100000Y-112315000D03*
G04 #@! TO.P,SW1,8*
G04 #@! TO.N,/A1*
X148100000Y-106165000D03*
G04 #@! TO.P,SW1,4*
G04 #@! TO.N,+3V3*
X146830000Y-112315000D03*
G04 #@! TO.P,SW1,9*
G04 #@! TO.N,/A2*
X146830000Y-106165000D03*
G04 #@! TO.P,SW1,3*
G04 #@! TO.N,+3V3*
X145560000Y-112315000D03*
G04 #@! TO.P,SW1,10*
G04 #@! TO.N,/SDA_PU*
X145560000Y-106165000D03*
G04 #@! TO.P,SW1,2*
G04 #@! TO.N,+3V3*
X144290000Y-112315000D03*
G04 #@! TO.P,SW1,11*
G04 #@! TO.N,/SCL_PU*
X144290000Y-106165000D03*
G04 #@! TO.P,SW1,1*
G04 #@! TO.N,+3V3*
X143020000Y-112315000D03*
G04 #@! TO.P,SW1,12*
G04 #@! TO.N,/~INT_PU*
X143020000Y-106165000D03*
G04 #@! TD*
D14*
G04 #@! TO.N,GND*
G04 #@! TO.C,C4*
G36*
X150080142Y-88776174D02*
X150103803Y-88779684D01*
X150127007Y-88785496D01*
X150149529Y-88793554D01*
X150171153Y-88803782D01*
X150191670Y-88816079D01*
X150210883Y-88830329D01*
X150228607Y-88846393D01*
X150244671Y-88864117D01*
X150258921Y-88883330D01*
X150271218Y-88903847D01*
X150281446Y-88925471D01*
X150289504Y-88947993D01*
X150295316Y-88971197D01*
X150298826Y-88994858D01*
X150300000Y-89018750D01*
X150300000Y-89506250D01*
X150298826Y-89530142D01*
X150295316Y-89553803D01*
X150289504Y-89577007D01*
X150281446Y-89599529D01*
X150271218Y-89621153D01*
X150258921Y-89641670D01*
X150244671Y-89660883D01*
X150228607Y-89678607D01*
X150210883Y-89694671D01*
X150191670Y-89708921D01*
X150171153Y-89721218D01*
X150149529Y-89731446D01*
X150127007Y-89739504D01*
X150103803Y-89745316D01*
X150080142Y-89748826D01*
X150056250Y-89750000D01*
X149143750Y-89750000D01*
X149119858Y-89748826D01*
X149096197Y-89745316D01*
X149072993Y-89739504D01*
X149050471Y-89731446D01*
X149028847Y-89721218D01*
X149008330Y-89708921D01*
X148989117Y-89694671D01*
X148971393Y-89678607D01*
X148955329Y-89660883D01*
X148941079Y-89641670D01*
X148928782Y-89621153D01*
X148918554Y-89599529D01*
X148910496Y-89577007D01*
X148904684Y-89553803D01*
X148901174Y-89530142D01*
X148900000Y-89506250D01*
X148900000Y-89018750D01*
X148901174Y-88994858D01*
X148904684Y-88971197D01*
X148910496Y-88947993D01*
X148918554Y-88925471D01*
X148928782Y-88903847D01*
X148941079Y-88883330D01*
X148955329Y-88864117D01*
X148971393Y-88846393D01*
X148989117Y-88830329D01*
X149008330Y-88816079D01*
X149028847Y-88803782D01*
X149050471Y-88793554D01*
X149072993Y-88785496D01*
X149096197Y-88779684D01*
X149119858Y-88776174D01*
X149143750Y-88775000D01*
X150056250Y-88775000D01*
X150080142Y-88776174D01*
X150080142Y-88776174D01*
G37*
D15*
G04 #@! TD*
G04 #@! TO.P,C4,2*
G04 #@! TO.N,GND*
X149600000Y-89262500D03*
D14*
G04 #@! TO.N,+3V3*
G04 #@! TO.C,C4*
G36*
X150080142Y-90651174D02*
X150103803Y-90654684D01*
X150127007Y-90660496D01*
X150149529Y-90668554D01*
X150171153Y-90678782D01*
X150191670Y-90691079D01*
X150210883Y-90705329D01*
X150228607Y-90721393D01*
X150244671Y-90739117D01*
X150258921Y-90758330D01*
X150271218Y-90778847D01*
X150281446Y-90800471D01*
X150289504Y-90822993D01*
X150295316Y-90846197D01*
X150298826Y-90869858D01*
X150300000Y-90893750D01*
X150300000Y-91381250D01*
X150298826Y-91405142D01*
X150295316Y-91428803D01*
X150289504Y-91452007D01*
X150281446Y-91474529D01*
X150271218Y-91496153D01*
X150258921Y-91516670D01*
X150244671Y-91535883D01*
X150228607Y-91553607D01*
X150210883Y-91569671D01*
X150191670Y-91583921D01*
X150171153Y-91596218D01*
X150149529Y-91606446D01*
X150127007Y-91614504D01*
X150103803Y-91620316D01*
X150080142Y-91623826D01*
X150056250Y-91625000D01*
X149143750Y-91625000D01*
X149119858Y-91623826D01*
X149096197Y-91620316D01*
X149072993Y-91614504D01*
X149050471Y-91606446D01*
X149028847Y-91596218D01*
X149008330Y-91583921D01*
X148989117Y-91569671D01*
X148971393Y-91553607D01*
X148955329Y-91535883D01*
X148941079Y-91516670D01*
X148928782Y-91496153D01*
X148918554Y-91474529D01*
X148910496Y-91452007D01*
X148904684Y-91428803D01*
X148901174Y-91405142D01*
X148900000Y-91381250D01*
X148900000Y-90893750D01*
X148901174Y-90869858D01*
X148904684Y-90846197D01*
X148910496Y-90822993D01*
X148918554Y-90800471D01*
X148928782Y-90778847D01*
X148941079Y-90758330D01*
X148955329Y-90739117D01*
X148971393Y-90721393D01*
X148989117Y-90705329D01*
X149008330Y-90691079D01*
X149028847Y-90678782D01*
X149050471Y-90668554D01*
X149072993Y-90660496D01*
X149096197Y-90654684D01*
X149119858Y-90651174D01*
X149143750Y-90650000D01*
X150056250Y-90650000D01*
X150080142Y-90651174D01*
X150080142Y-90651174D01*
G37*
D15*
G04 #@! TD*
G04 #@! TO.P,C4,1*
G04 #@! TO.N,+3V3*
X149600000Y-91137500D03*
D14*
G04 #@! TO.N,GND*
G04 #@! TO.C,C3*
G36*
X139180142Y-104001174D02*
X139203803Y-104004684D01*
X139227007Y-104010496D01*
X139249529Y-104018554D01*
X139271153Y-104028782D01*
X139291670Y-104041079D01*
X139310883Y-104055329D01*
X139328607Y-104071393D01*
X139344671Y-104089117D01*
X139358921Y-104108330D01*
X139371218Y-104128847D01*
X139381446Y-104150471D01*
X139389504Y-104172993D01*
X139395316Y-104196197D01*
X139398826Y-104219858D01*
X139400000Y-104243750D01*
X139400000Y-105156250D01*
X139398826Y-105180142D01*
X139395316Y-105203803D01*
X139389504Y-105227007D01*
X139381446Y-105249529D01*
X139371218Y-105271153D01*
X139358921Y-105291670D01*
X139344671Y-105310883D01*
X139328607Y-105328607D01*
X139310883Y-105344671D01*
X139291670Y-105358921D01*
X139271153Y-105371218D01*
X139249529Y-105381446D01*
X139227007Y-105389504D01*
X139203803Y-105395316D01*
X139180142Y-105398826D01*
X139156250Y-105400000D01*
X138668750Y-105400000D01*
X138644858Y-105398826D01*
X138621197Y-105395316D01*
X138597993Y-105389504D01*
X138575471Y-105381446D01*
X138553847Y-105371218D01*
X138533330Y-105358921D01*
X138514117Y-105344671D01*
X138496393Y-105328607D01*
X138480329Y-105310883D01*
X138466079Y-105291670D01*
X138453782Y-105271153D01*
X138443554Y-105249529D01*
X138435496Y-105227007D01*
X138429684Y-105203803D01*
X138426174Y-105180142D01*
X138425000Y-105156250D01*
X138425000Y-104243750D01*
X138426174Y-104219858D01*
X138429684Y-104196197D01*
X138435496Y-104172993D01*
X138443554Y-104150471D01*
X138453782Y-104128847D01*
X138466079Y-104108330D01*
X138480329Y-104089117D01*
X138496393Y-104071393D01*
X138514117Y-104055329D01*
X138533330Y-104041079D01*
X138553847Y-104028782D01*
X138575471Y-104018554D01*
X138597993Y-104010496D01*
X138621197Y-104004684D01*
X138644858Y-104001174D01*
X138668750Y-104000000D01*
X139156250Y-104000000D01*
X139180142Y-104001174D01*
X139180142Y-104001174D01*
G37*
D15*
G04 #@! TD*
G04 #@! TO.P,C3,2*
G04 #@! TO.N,GND*
X138912500Y-104700000D03*
D14*
G04 #@! TO.N,+3V3*
G04 #@! TO.C,C3*
G36*
X141055142Y-104001174D02*
X141078803Y-104004684D01*
X141102007Y-104010496D01*
X141124529Y-104018554D01*
X141146153Y-104028782D01*
X141166670Y-104041079D01*
X141185883Y-104055329D01*
X141203607Y-104071393D01*
X141219671Y-104089117D01*
X141233921Y-104108330D01*
X141246218Y-104128847D01*
X141256446Y-104150471D01*
X141264504Y-104172993D01*
X141270316Y-104196197D01*
X141273826Y-104219858D01*
X141275000Y-104243750D01*
X141275000Y-105156250D01*
X141273826Y-105180142D01*
X141270316Y-105203803D01*
X141264504Y-105227007D01*
X141256446Y-105249529D01*
X141246218Y-105271153D01*
X141233921Y-105291670D01*
X141219671Y-105310883D01*
X141203607Y-105328607D01*
X141185883Y-105344671D01*
X141166670Y-105358921D01*
X141146153Y-105371218D01*
X141124529Y-105381446D01*
X141102007Y-105389504D01*
X141078803Y-105395316D01*
X141055142Y-105398826D01*
X141031250Y-105400000D01*
X140543750Y-105400000D01*
X140519858Y-105398826D01*
X140496197Y-105395316D01*
X140472993Y-105389504D01*
X140450471Y-105381446D01*
X140428847Y-105371218D01*
X140408330Y-105358921D01*
X140389117Y-105344671D01*
X140371393Y-105328607D01*
X140355329Y-105310883D01*
X140341079Y-105291670D01*
X140328782Y-105271153D01*
X140318554Y-105249529D01*
X140310496Y-105227007D01*
X140304684Y-105203803D01*
X140301174Y-105180142D01*
X140300000Y-105156250D01*
X140300000Y-104243750D01*
X140301174Y-104219858D01*
X140304684Y-104196197D01*
X140310496Y-104172993D01*
X140318554Y-104150471D01*
X140328782Y-104128847D01*
X140341079Y-104108330D01*
X140355329Y-104089117D01*
X140371393Y-104071393D01*
X140389117Y-104055329D01*
X140408330Y-104041079D01*
X140428847Y-104028782D01*
X140450471Y-104018554D01*
X140472993Y-104010496D01*
X140496197Y-104004684D01*
X140519858Y-104001174D01*
X140543750Y-104000000D01*
X141031250Y-104000000D01*
X141055142Y-104001174D01*
X141055142Y-104001174D01*
G37*
D15*
G04 #@! TD*
G04 #@! TO.P,C3,1*
G04 #@! TO.N,+3V3*
X140787500Y-104700000D03*
D14*
G04 #@! TO.N,GND*
G04 #@! TO.C,C1*
G36*
X139665191Y-102526053D02*
X139686426Y-102529203D01*
X139707250Y-102534419D01*
X139727462Y-102541651D01*
X139746868Y-102550830D01*
X139765281Y-102561866D01*
X139782524Y-102574654D01*
X139798430Y-102589070D01*
X139812846Y-102604976D01*
X139825634Y-102622219D01*
X139836670Y-102640632D01*
X139845849Y-102660038D01*
X139853081Y-102680250D01*
X139858297Y-102701074D01*
X139861447Y-102722309D01*
X139862500Y-102743750D01*
X139862500Y-103256250D01*
X139861447Y-103277691D01*
X139858297Y-103298926D01*
X139853081Y-103319750D01*
X139845849Y-103339962D01*
X139836670Y-103359368D01*
X139825634Y-103377781D01*
X139812846Y-103395024D01*
X139798430Y-103410930D01*
X139782524Y-103425346D01*
X139765281Y-103438134D01*
X139746868Y-103449170D01*
X139727462Y-103458349D01*
X139707250Y-103465581D01*
X139686426Y-103470797D01*
X139665191Y-103473947D01*
X139643750Y-103475000D01*
X139206250Y-103475000D01*
X139184809Y-103473947D01*
X139163574Y-103470797D01*
X139142750Y-103465581D01*
X139122538Y-103458349D01*
X139103132Y-103449170D01*
X139084719Y-103438134D01*
X139067476Y-103425346D01*
X139051570Y-103410930D01*
X139037154Y-103395024D01*
X139024366Y-103377781D01*
X139013330Y-103359368D01*
X139004151Y-103339962D01*
X138996919Y-103319750D01*
X138991703Y-103298926D01*
X138988553Y-103277691D01*
X138987500Y-103256250D01*
X138987500Y-102743750D01*
X138988553Y-102722309D01*
X138991703Y-102701074D01*
X138996919Y-102680250D01*
X139004151Y-102660038D01*
X139013330Y-102640632D01*
X139024366Y-102622219D01*
X139037154Y-102604976D01*
X139051570Y-102589070D01*
X139067476Y-102574654D01*
X139084719Y-102561866D01*
X139103132Y-102550830D01*
X139122538Y-102541651D01*
X139142750Y-102534419D01*
X139163574Y-102529203D01*
X139184809Y-102526053D01*
X139206250Y-102525000D01*
X139643750Y-102525000D01*
X139665191Y-102526053D01*
X139665191Y-102526053D01*
G37*
D16*
G04 #@! TD*
G04 #@! TO.P,C1,2*
G04 #@! TO.N,GND*
X139425000Y-103000000D03*
D14*
G04 #@! TO.N,+3V3*
G04 #@! TO.C,C1*
G36*
X141240191Y-102526053D02*
X141261426Y-102529203D01*
X141282250Y-102534419D01*
X141302462Y-102541651D01*
X141321868Y-102550830D01*
X141340281Y-102561866D01*
X141357524Y-102574654D01*
X141373430Y-102589070D01*
X141387846Y-102604976D01*
X141400634Y-102622219D01*
X141411670Y-102640632D01*
X141420849Y-102660038D01*
X141428081Y-102680250D01*
X141433297Y-102701074D01*
X141436447Y-102722309D01*
X141437500Y-102743750D01*
X141437500Y-103256250D01*
X141436447Y-103277691D01*
X141433297Y-103298926D01*
X141428081Y-103319750D01*
X141420849Y-103339962D01*
X141411670Y-103359368D01*
X141400634Y-103377781D01*
X141387846Y-103395024D01*
X141373430Y-103410930D01*
X141357524Y-103425346D01*
X141340281Y-103438134D01*
X141321868Y-103449170D01*
X141302462Y-103458349D01*
X141282250Y-103465581D01*
X141261426Y-103470797D01*
X141240191Y-103473947D01*
X141218750Y-103475000D01*
X140781250Y-103475000D01*
X140759809Y-103473947D01*
X140738574Y-103470797D01*
X140717750Y-103465581D01*
X140697538Y-103458349D01*
X140678132Y-103449170D01*
X140659719Y-103438134D01*
X140642476Y-103425346D01*
X140626570Y-103410930D01*
X140612154Y-103395024D01*
X140599366Y-103377781D01*
X140588330Y-103359368D01*
X140579151Y-103339962D01*
X140571919Y-103319750D01*
X140566703Y-103298926D01*
X140563553Y-103277691D01*
X140562500Y-103256250D01*
X140562500Y-102743750D01*
X140563553Y-102722309D01*
X140566703Y-102701074D01*
X140571919Y-102680250D01*
X140579151Y-102660038D01*
X140588330Y-102640632D01*
X140599366Y-102622219D01*
X140612154Y-102604976D01*
X140626570Y-102589070D01*
X140642476Y-102574654D01*
X140659719Y-102561866D01*
X140678132Y-102550830D01*
X140697538Y-102541651D01*
X140717750Y-102534419D01*
X140738574Y-102529203D01*
X140759809Y-102526053D01*
X140781250Y-102525000D01*
X141218750Y-102525000D01*
X141240191Y-102526053D01*
X141240191Y-102526053D01*
G37*
D16*
G04 #@! TD*
G04 #@! TO.P,C1,1*
G04 #@! TO.N,+3V3*
X141000000Y-103000000D03*
D14*
G04 #@! TO.N,GND*
G04 #@! TO.C,C2*
G36*
X153767642Y-108901174D02*
X153791303Y-108904684D01*
X153814507Y-108910496D01*
X153837029Y-108918554D01*
X153858653Y-108928782D01*
X153879170Y-108941079D01*
X153898383Y-108955329D01*
X153916107Y-108971393D01*
X153932171Y-108989117D01*
X153946421Y-109008330D01*
X153958718Y-109028847D01*
X153968946Y-109050471D01*
X153977004Y-109072993D01*
X153982816Y-109096197D01*
X153986326Y-109119858D01*
X153987500Y-109143750D01*
X153987500Y-110056250D01*
X153986326Y-110080142D01*
X153982816Y-110103803D01*
X153977004Y-110127007D01*
X153968946Y-110149529D01*
X153958718Y-110171153D01*
X153946421Y-110191670D01*
X153932171Y-110210883D01*
X153916107Y-110228607D01*
X153898383Y-110244671D01*
X153879170Y-110258921D01*
X153858653Y-110271218D01*
X153837029Y-110281446D01*
X153814507Y-110289504D01*
X153791303Y-110295316D01*
X153767642Y-110298826D01*
X153743750Y-110300000D01*
X153256250Y-110300000D01*
X153232358Y-110298826D01*
X153208697Y-110295316D01*
X153185493Y-110289504D01*
X153162971Y-110281446D01*
X153141347Y-110271218D01*
X153120830Y-110258921D01*
X153101617Y-110244671D01*
X153083893Y-110228607D01*
X153067829Y-110210883D01*
X153053579Y-110191670D01*
X153041282Y-110171153D01*
X153031054Y-110149529D01*
X153022996Y-110127007D01*
X153017184Y-110103803D01*
X153013674Y-110080142D01*
X153012500Y-110056250D01*
X153012500Y-109143750D01*
X153013674Y-109119858D01*
X153017184Y-109096197D01*
X153022996Y-109072993D01*
X153031054Y-109050471D01*
X153041282Y-109028847D01*
X153053579Y-109008330D01*
X153067829Y-108989117D01*
X153083893Y-108971393D01*
X153101617Y-108955329D01*
X153120830Y-108941079D01*
X153141347Y-108928782D01*
X153162971Y-108918554D01*
X153185493Y-108910496D01*
X153208697Y-108904684D01*
X153232358Y-108901174D01*
X153256250Y-108900000D01*
X153743750Y-108900000D01*
X153767642Y-108901174D01*
X153767642Y-108901174D01*
G37*
D15*
G04 #@! TD*
G04 #@! TO.P,C2,2*
G04 #@! TO.N,GND*
X153500000Y-109600000D03*
D14*
G04 #@! TO.N,+3V3*
G04 #@! TO.C,C2*
G36*
X151892642Y-108901174D02*
X151916303Y-108904684D01*
X151939507Y-108910496D01*
X151962029Y-108918554D01*
X151983653Y-108928782D01*
X152004170Y-108941079D01*
X152023383Y-108955329D01*
X152041107Y-108971393D01*
X152057171Y-108989117D01*
X152071421Y-109008330D01*
X152083718Y-109028847D01*
X152093946Y-109050471D01*
X152102004Y-109072993D01*
X152107816Y-109096197D01*
X152111326Y-109119858D01*
X152112500Y-109143750D01*
X152112500Y-110056250D01*
X152111326Y-110080142D01*
X152107816Y-110103803D01*
X152102004Y-110127007D01*
X152093946Y-110149529D01*
X152083718Y-110171153D01*
X152071421Y-110191670D01*
X152057171Y-110210883D01*
X152041107Y-110228607D01*
X152023383Y-110244671D01*
X152004170Y-110258921D01*
X151983653Y-110271218D01*
X151962029Y-110281446D01*
X151939507Y-110289504D01*
X151916303Y-110295316D01*
X151892642Y-110298826D01*
X151868750Y-110300000D01*
X151381250Y-110300000D01*
X151357358Y-110298826D01*
X151333697Y-110295316D01*
X151310493Y-110289504D01*
X151287971Y-110281446D01*
X151266347Y-110271218D01*
X151245830Y-110258921D01*
X151226617Y-110244671D01*
X151208893Y-110228607D01*
X151192829Y-110210883D01*
X151178579Y-110191670D01*
X151166282Y-110171153D01*
X151156054Y-110149529D01*
X151147996Y-110127007D01*
X151142184Y-110103803D01*
X151138674Y-110080142D01*
X151137500Y-110056250D01*
X151137500Y-109143750D01*
X151138674Y-109119858D01*
X151142184Y-109096197D01*
X151147996Y-109072993D01*
X151156054Y-109050471D01*
X151166282Y-109028847D01*
X151178579Y-109008330D01*
X151192829Y-108989117D01*
X151208893Y-108971393D01*
X151226617Y-108955329D01*
X151245830Y-108941079D01*
X151266347Y-108928782D01*
X151287971Y-108918554D01*
X151310493Y-108910496D01*
X151333697Y-108904684D01*
X151357358Y-108901174D01*
X151381250Y-108900000D01*
X151868750Y-108900000D01*
X151892642Y-108901174D01*
X151892642Y-108901174D01*
G37*
D15*
G04 #@! TD*
G04 #@! TO.P,C2,1*
G04 #@! TO.N,+3V3*
X151625000Y-109600000D03*
D17*
G04 #@! TO.P,RN2,5*
G04 #@! TO.N,Net-(RN2-Pad5)*
X138000000Y-111500000D03*
D18*
G04 #@! TO.P,RN2,6*
G04 #@! TO.N,GND*
X138800000Y-111500000D03*
D17*
G04 #@! TO.P,RN2,8*
X140400000Y-111500000D03*
D18*
G04 #@! TO.P,RN2,7*
X139600000Y-111500000D03*
D17*
G04 #@! TO.P,RN2,4*
G04 #@! TO.N,Net-(RN2-Pad4)*
X138000000Y-109700000D03*
D18*
G04 #@! TO.P,RN2,2*
G04 #@! TO.N,/A1*
X139600000Y-109700000D03*
G04 #@! TO.P,RN2,3*
G04 #@! TO.N,/A2*
X138800000Y-109700000D03*
D17*
G04 #@! TO.P,RN2,1*
G04 #@! TO.N,/A0*
X140400000Y-109700000D03*
G04 #@! TD*
G04 #@! TO.P,RN1,5*
G04 #@! TO.N,Net-(RN1-Pad5)*
X139000000Y-98700000D03*
D18*
G04 #@! TO.P,RN1,6*
G04 #@! TO.N,/SDA_PU*
X138200000Y-98700000D03*
D17*
G04 #@! TO.P,RN1,8*
G04 #@! TO.N,/~INT_PU*
X136600000Y-98700000D03*
D18*
G04 #@! TO.P,RN1,7*
G04 #@! TO.N,/SCL_PU*
X137400000Y-98700000D03*
D17*
G04 #@! TO.P,RN1,4*
G04 #@! TO.N,Net-(RN1-Pad4)*
X139000000Y-100500000D03*
D18*
G04 #@! TO.P,RN1,2*
G04 #@! TO.N,/SDA*
X137400000Y-100500000D03*
G04 #@! TO.P,RN1,3*
G04 #@! TO.N,/SCL*
X138200000Y-100500000D03*
D17*
G04 #@! TO.P,RN1,1*
G04 #@! TO.N,/~INT*
X136600000Y-100500000D03*
G04 #@! TD*
D11*
G04 #@! TO.P,J2,14*
G04 #@! TO.N,GND*
X155740000Y-91560000D03*
G04 #@! TO.P,J2,13*
X153200000Y-91560000D03*
G04 #@! TO.P,J2,12*
G04 #@! TO.N,/P11*
X155740000Y-94100000D03*
G04 #@! TO.P,J2,11*
G04 #@! TO.N,/P10*
X153200000Y-94100000D03*
G04 #@! TO.P,J2,10*
G04 #@! TO.N,/P07*
X155740000Y-96640000D03*
G04 #@! TO.P,J2,9*
G04 #@! TO.N,/P06*
X153200000Y-96640000D03*
G04 #@! TO.P,J2,8*
G04 #@! TO.N,/P05*
X155740000Y-99180000D03*
G04 #@! TO.P,J2,7*
G04 #@! TO.N,/P04*
X153200000Y-99180000D03*
G04 #@! TO.P,J2,6*
G04 #@! TO.N,/P03*
X155740000Y-101720000D03*
G04 #@! TO.P,J2,5*
G04 #@! TO.N,/P02*
X153200000Y-101720000D03*
G04 #@! TO.P,J2,4*
G04 #@! TO.N,/P01*
X155740000Y-104260000D03*
G04 #@! TO.P,J2,3*
G04 #@! TO.N,/P00*
X153200000Y-104260000D03*
G04 #@! TO.P,J2,2*
G04 #@! TO.N,GND*
X155740000Y-106800000D03*
D10*
G04 #@! TO.P,J2,1*
G04 #@! TO.N,+3V3*
X153200000Y-106800000D03*
G04 #@! TD*
D19*
G04 #@! TO.P,U1,12*
G04 #@! TO.N,GND*
X148800000Y-95600000D03*
G04 #@! TO.P,U1,13*
G04 #@! TO.N,/P10*
X143200000Y-95600000D03*
G04 #@! TO.P,U1,11*
G04 #@! TO.N,/P07*
X148800000Y-96250000D03*
G04 #@! TO.P,U1,14*
G04 #@! TO.N,/P11*
X143200000Y-96250000D03*
G04 #@! TO.P,U1,10*
G04 #@! TO.N,/P06*
X148800000Y-96900000D03*
G04 #@! TO.P,U1,15*
G04 #@! TO.N,/P12*
X143200000Y-96900000D03*
G04 #@! TO.P,U1,9*
G04 #@! TO.N,/P05*
X148800000Y-97550000D03*
G04 #@! TO.P,U1,16*
G04 #@! TO.N,/P13*
X143200000Y-97550000D03*
G04 #@! TO.P,U1,8*
G04 #@! TO.N,/P04*
X148800000Y-98200000D03*
G04 #@! TO.P,U1,17*
G04 #@! TO.N,/P14*
X143200000Y-98200000D03*
G04 #@! TO.P,U1,7*
G04 #@! TO.N,/P03*
X148800000Y-98850000D03*
G04 #@! TO.P,U1,18*
G04 #@! TO.N,/P15*
X143200000Y-98850000D03*
G04 #@! TO.P,U1,6*
G04 #@! TO.N,/P02*
X148800000Y-99500000D03*
G04 #@! TO.P,U1,19*
G04 #@! TO.N,/P16*
X143200000Y-99500000D03*
G04 #@! TO.P,U1,5*
G04 #@! TO.N,/P01*
X148800000Y-100150000D03*
G04 #@! TO.P,U1,20*
G04 #@! TO.N,/P17*
X143200000Y-100150000D03*
G04 #@! TO.P,U1,4*
G04 #@! TO.N,/P00*
X148800000Y-100800000D03*
G04 #@! TO.P,U1,21*
G04 #@! TO.N,/A0*
X143200000Y-100800000D03*
G04 #@! TO.P,U1,3*
G04 #@! TO.N,/A2*
X148800000Y-101450000D03*
G04 #@! TO.P,U1,22*
G04 #@! TO.N,/SCL*
X143200000Y-101450000D03*
G04 #@! TO.P,U1,2*
G04 #@! TO.N,/A1*
X148800000Y-102100000D03*
G04 #@! TO.P,U1,23*
G04 #@! TO.N,/SDA*
X143200000Y-102100000D03*
G04 #@! TO.P,U1,1*
G04 #@! TO.N,/~INT*
X148800000Y-102750000D03*
G04 #@! TO.P,U1,24*
G04 #@! TO.N,+3V3*
X143200000Y-102750000D03*
G04 #@! TD*
D11*
G04 #@! TO.P,J3,8*
G04 #@! TO.N,/P17*
X138980000Y-88860000D03*
G04 #@! TO.P,J3,7*
G04 #@! TO.N,/P16*
X138980000Y-91400000D03*
G04 #@! TO.P,J3,6*
G04 #@! TO.N,/P15*
X141520000Y-88860000D03*
G04 #@! TO.P,J3,5*
G04 #@! TO.N,/P14*
X141520000Y-91400000D03*
G04 #@! TO.P,J3,4*
G04 #@! TO.N,/P13*
X144060000Y-88860000D03*
G04 #@! TO.P,J3,3*
G04 #@! TO.N,/P12*
X144060000Y-91400000D03*
G04 #@! TO.P,J3,2*
G04 #@! TO.N,GND*
X146600000Y-88860000D03*
D10*
G04 #@! TO.P,J3,1*
G04 #@! TO.N,+3V3*
X146600000Y-91400000D03*
G04 #@! TD*
D20*
G04 #@! TO.N,GND*
X147100000Y-95600002D03*
X141000002Y-110599998D03*
X138300000Y-103400000D03*
G04 #@! TO.N,/~INT*
X144700000Y-99750000D03*
G04 #@! TO.N,/SCL*
X135500000Y-98924990D03*
G04 #@! TO.N,/A1*
X150299998Y-102900000D03*
X149699990Y-104700000D03*
G04 #@! TO.N,/A0*
X148012340Y-103712340D03*
X149000000Y-107400002D03*
G04 #@! TO.N,/SCL_PU*
X137644870Y-97267061D03*
X144265500Y-105016567D03*
G04 #@! TO.N,/~INT_PU*
X143000000Y-105000014D03*
X136675010Y-97510773D03*
G04 #@! TO.N,/SDA_PU*
X138644673Y-97287545D03*
X144499998Y-103900000D03*
G04 #@! TD*
D21*
G04 #@! TO.N,GND*
X155700000Y-106840000D02*
X155740000Y-106800000D01*
X138800000Y-111500000D02*
X139600000Y-111500000D01*
X148800000Y-95600000D02*
X147100002Y-95600000D01*
X147100002Y-95600000D02*
X147100000Y-95600002D01*
X140400000Y-111500000D02*
X139600000Y-111500000D01*
X140400000Y-111500000D02*
X140400000Y-110600000D01*
X140400002Y-110599998D02*
X141000002Y-110599998D01*
X140400000Y-110600000D02*
X140400002Y-110599998D01*
X149197500Y-88860000D02*
X149600000Y-89262500D01*
X146600000Y-88860000D02*
X149197500Y-88860000D01*
X138912500Y-104012500D02*
X138300000Y-103400000D01*
X138912500Y-104700000D02*
X138912500Y-104012500D01*
X139025000Y-103400000D02*
X139425000Y-103000000D01*
X138300000Y-103400000D02*
X139025000Y-103400000D01*
X153500000Y-109040000D02*
X155740000Y-106800000D01*
X153500000Y-109600000D02*
X153500000Y-109040000D01*
G04 #@! TO.N,+3V3*
X141250000Y-102750000D02*
X141000000Y-103000000D01*
X143200000Y-102750000D02*
X141250000Y-102750000D01*
X141000000Y-104487500D02*
X140787500Y-104700000D01*
X141000000Y-103000000D02*
X141000000Y-104487500D01*
D22*
G04 #@! TO.N,/P00*
X149800000Y-100800000D02*
X148800000Y-100800000D01*
X149850000Y-100800000D02*
X149800000Y-100800000D01*
X149909415Y-100800000D02*
X149800000Y-100800000D01*
X153200000Y-104260000D02*
X153200000Y-104090585D01*
X153200000Y-104090585D02*
X149909415Y-100800000D01*
G04 #@! TO.N,/P01*
X149922822Y-100150000D02*
X148800000Y-100150000D01*
X152772822Y-103000000D02*
X149922822Y-100150000D01*
X155740000Y-104260000D02*
X154480000Y-103000000D01*
X154480000Y-103000000D02*
X152772822Y-103000000D01*
G04 #@! TO.N,/P02*
X150345643Y-99500000D02*
X148800000Y-99500000D01*
X152545643Y-101700000D02*
X150345643Y-99500000D01*
X153200000Y-101720000D02*
X153180000Y-101700000D01*
X153180000Y-101700000D02*
X152545643Y-101700000D01*
G04 #@! TO.N,/P03*
X150332054Y-98850000D02*
X148800000Y-98850000D01*
X151882054Y-100400000D02*
X150332054Y-98850000D01*
X155740000Y-101720000D02*
X154420000Y-100400000D01*
X154420000Y-100400000D02*
X151882054Y-100400000D01*
G04 #@! TO.N,/P04*
X152220000Y-98200000D02*
X148800000Y-98200000D01*
X153200000Y-99180000D02*
X152220000Y-98200000D01*
G04 #@! TO.N,/P05*
X152556411Y-97900000D02*
X152206411Y-97550000D01*
X155740000Y-99180000D02*
X154460000Y-97900000D01*
X152206411Y-97550000D02*
X148800000Y-97550000D01*
X154460000Y-97900000D02*
X152556411Y-97900000D01*
G04 #@! TO.N,/P06*
X151737919Y-96900000D02*
X148800000Y-96900000D01*
X151997919Y-96640000D02*
X151737919Y-96900000D01*
X153200000Y-96640000D02*
X151997919Y-96640000D01*
G04 #@! TO.N,/P07*
X149850000Y-96250000D02*
X148800000Y-96250000D01*
X150700000Y-95400000D02*
X149850000Y-96250000D01*
X155740000Y-96640000D02*
X154500000Y-95400000D01*
X154500000Y-95400000D02*
X150700000Y-95400000D01*
G04 #@! TO.N,/P10*
X143200000Y-95600000D02*
X144250000Y-95600000D01*
X151997919Y-94100000D02*
X153200000Y-94100000D01*
X151222921Y-94874998D02*
X151997919Y-94100000D01*
X144975002Y-94874998D02*
X151222921Y-94874998D01*
X144250000Y-95600000D02*
X144975002Y-94874998D01*
G04 #@! TO.N,/P11*
X142074999Y-95974966D02*
X142350033Y-96250000D01*
X142864998Y-94400000D02*
X142074999Y-95189999D01*
X142350033Y-96250000D02*
X143200000Y-96250000D01*
X154490000Y-92850000D02*
X152150000Y-92850000D01*
X155740000Y-94100000D02*
X154490000Y-92850000D01*
X152150000Y-92850000D02*
X150600000Y-94400000D01*
X150600000Y-94400000D02*
X142864998Y-94400000D01*
X142074999Y-95189999D02*
X142074999Y-95974966D01*
G04 #@! TO.N,/P12*
X141625122Y-96007572D02*
X141624988Y-96007438D01*
X143210001Y-93418586D02*
X143210001Y-92249999D01*
X141624988Y-95003599D02*
X143210001Y-93418586D01*
X143210001Y-92249999D02*
X144060000Y-91400000D01*
X141624988Y-96007438D02*
X141624988Y-95003599D01*
X141625122Y-96375122D02*
X141625122Y-96007572D01*
X142150000Y-96900000D02*
X141625122Y-96375122D01*
X143200000Y-96900000D02*
X142150000Y-96900000D01*
G04 #@! TO.N,/P13*
X141175111Y-96193972D02*
X141174977Y-96193838D01*
X141174977Y-96193838D02*
X141174977Y-94388612D01*
X141175111Y-96575111D02*
X141175111Y-96193972D01*
X143200000Y-97550000D02*
X142150000Y-97550000D01*
X142150000Y-97550000D02*
X141175111Y-96575111D01*
X142695001Y-90224999D02*
X143210001Y-89709999D01*
X143210001Y-89709999D02*
X144060000Y-88860000D01*
X141174977Y-94388612D02*
X142695001Y-92868588D01*
X142695001Y-92868588D02*
X142695001Y-90224999D01*
G04 #@! TO.N,/P14*
X140719707Y-93402374D02*
X141520000Y-92602081D01*
X141520000Y-92602081D02*
X141520000Y-91400000D01*
X142150000Y-98200000D02*
X140719707Y-96769707D01*
X140719707Y-96769707D02*
X140719707Y-93402374D01*
X143200000Y-98200000D02*
X142150000Y-98200000D01*
G04 #@! TO.N,/P15*
X143200000Y-98850000D02*
X142369338Y-98850000D01*
X142150000Y-98850000D02*
X143200000Y-98850000D01*
X141520000Y-88860000D02*
X140269696Y-90110304D01*
X140269696Y-96969696D02*
X142150000Y-98850000D01*
X140269696Y-90110304D02*
X140269696Y-96969696D01*
G04 #@! TO.N,/P16*
X143200000Y-99500000D02*
X142150000Y-99500000D01*
X139819685Y-93441766D02*
X138980000Y-92602081D01*
X139819685Y-97169685D02*
X139819685Y-93441766D01*
X142150000Y-99500000D02*
X139819685Y-97169685D01*
X138980000Y-92602081D02*
X138980000Y-91400000D01*
G04 #@! TO.N,/P17*
X139369674Y-96934179D02*
X137804999Y-95369504D01*
X142150000Y-100150000D02*
X139369674Y-97369674D01*
X137804999Y-90035001D02*
X138130001Y-89709999D01*
X138130001Y-89709999D02*
X138980000Y-88860000D01*
X137804999Y-95369504D02*
X137804999Y-90035001D01*
X143200000Y-100150000D02*
X142150000Y-100150000D01*
X139369674Y-97369674D02*
X139369674Y-96934179D01*
G04 #@! TO.N,/~INT*
X133610000Y-103640000D02*
X133400000Y-103640000D01*
X132550001Y-90689999D02*
X133400000Y-89840000D01*
X132450001Y-90979999D02*
X133300000Y-90130000D01*
X136600000Y-100500000D02*
X135850012Y-100500000D01*
X133520012Y-102830000D02*
X135850012Y-100500000D01*
X133300000Y-102830000D02*
X133520012Y-102830000D01*
X145099999Y-100149999D02*
X144700000Y-99750000D01*
X147700000Y-102750000D02*
X145099999Y-100149999D01*
X148800000Y-102750000D02*
X147700000Y-102750000D01*
G04 #@! TO.N,/SDA*
X137400000Y-102050000D02*
X137350000Y-102100000D01*
X143200000Y-102100000D02*
X137350000Y-102100000D01*
X137400000Y-100500000D02*
X137400000Y-102050000D01*
X134650000Y-106770000D02*
X133250000Y-108170000D01*
X134650000Y-103950000D02*
X134650000Y-106770000D01*
X137350000Y-102100000D02*
X136500000Y-102100000D01*
X136500000Y-102100000D02*
X134650000Y-103950000D01*
G04 #@! TO.N,/SCL*
X138200000Y-101150000D02*
X138200000Y-100500000D01*
X138500000Y-101450000D02*
X138200000Y-101150000D01*
X143200000Y-101450000D02*
X138500000Y-101450000D01*
X136075009Y-99499999D02*
X135899999Y-99324989D01*
X137849999Y-99499999D02*
X136075009Y-99499999D01*
X138200000Y-99850000D02*
X137849999Y-99499999D01*
X138200000Y-100500000D02*
X138200000Y-99850000D01*
X135899999Y-99324989D02*
X135500000Y-98924990D01*
X132400001Y-104780001D02*
X133250000Y-105630000D01*
X131650000Y-104030000D02*
X132400001Y-104780001D01*
X133250000Y-92930000D02*
X131650000Y-94530000D01*
X131650000Y-94530000D02*
X131650000Y-104030000D01*
G04 #@! TO.N,/A2*
X146830000Y-106280000D02*
X146830000Y-106700000D01*
X146830000Y-107120000D02*
X146050022Y-107899978D01*
X146830000Y-105920000D02*
X146830000Y-106165000D01*
X151100000Y-102626996D02*
X151100000Y-103300000D01*
X150600000Y-103800000D02*
X148950000Y-103800000D01*
X148950000Y-103800000D02*
X146830000Y-105920000D01*
X148800000Y-101450000D02*
X149923004Y-101450000D01*
X149923004Y-101450000D02*
X151100000Y-102626996D01*
X151100000Y-103300000D02*
X150600000Y-103800000D01*
X146830000Y-107120000D02*
X146830000Y-106165000D01*
X138800000Y-109050000D02*
X139950022Y-107899978D01*
X139950022Y-107899978D02*
X146050022Y-107899978D01*
X138800000Y-109700000D02*
X138800000Y-109050000D01*
G04 #@! TO.N,/A1*
X149850000Y-102100000D02*
X150299998Y-102549998D01*
X148800000Y-102100000D02*
X149850000Y-102100000D01*
X150299998Y-102549998D02*
X150299998Y-102900000D01*
X149680000Y-104700000D02*
X149699990Y-104700000D01*
X148100000Y-107120000D02*
X146870011Y-108349989D01*
X148100000Y-105920000D02*
X149320000Y-104700000D01*
X149320000Y-104700000D02*
X149699990Y-104700000D01*
X148100000Y-106165000D02*
X148100000Y-105920000D01*
X148100000Y-107120000D02*
X148100000Y-106165000D01*
X140300011Y-108349989D02*
X146870011Y-108349989D01*
X139600000Y-109050000D02*
X140300011Y-108349989D01*
X139600000Y-109700000D02*
X139600000Y-109050000D01*
G04 #@! TO.N,/A0*
X149370000Y-107120000D02*
X147690000Y-108800000D01*
X149370000Y-107120000D02*
X149370000Y-106165000D01*
X145100000Y-100800000D02*
X148012340Y-103712340D01*
X143200000Y-100800000D02*
X145100000Y-100800000D01*
X140400000Y-109050000D02*
X140650000Y-108800000D01*
X140400000Y-109700000D02*
X140400000Y-109050000D01*
X140650000Y-108800000D02*
X147690000Y-108800000D01*
X149009998Y-107400002D02*
X149000000Y-107400002D01*
X149370000Y-107040000D02*
X149009998Y-107400002D01*
X149370000Y-106165000D02*
X149370000Y-107040000D01*
G04 #@! TO.N,/SCL_PU*
X137400000Y-98700000D02*
X137400000Y-98050000D01*
X137400000Y-98050000D02*
X137644870Y-97805130D01*
X137644870Y-97805130D02*
X137644870Y-97267061D01*
X144265500Y-105582252D02*
X144265500Y-105016567D01*
X144290000Y-106700000D02*
X144265500Y-106675500D01*
X144265500Y-106675500D02*
X144265500Y-105582252D01*
G04 #@! TO.N,/~INT_PU*
X143020000Y-106700000D02*
X143020000Y-105020014D01*
X143020000Y-105020014D02*
X143000000Y-105000014D01*
X136600000Y-97585783D02*
X136675010Y-97510773D01*
X136600000Y-98700000D02*
X136600000Y-97585783D01*
G04 #@! TO.N,/SDA_PU*
X138200000Y-98050000D02*
X138644673Y-97605327D01*
X138644673Y-97605327D02*
X138644673Y-97287545D01*
X138200000Y-98700000D02*
X138200000Y-98050000D01*
X145560000Y-106700000D02*
X145560000Y-104960002D01*
X145560000Y-104960002D02*
X144899997Y-104299999D01*
X144899997Y-104299999D02*
X144499998Y-103900000D01*
G04 #@! TD*
D23*
G04 #@! TO.N,+3V3*
G36*
X155559192Y-85380578D02*
X156294389Y-85581705D01*
X156496671Y-85678189D01*
X156450166Y-85687439D01*
X156107118Y-85829534D01*
X155798382Y-86035825D01*
X155535825Y-86298382D01*
X155329534Y-86607118D01*
X155187439Y-86950166D01*
X155115000Y-87314344D01*
X155115000Y-87685656D01*
X155187439Y-88049834D01*
X155329534Y-88392882D01*
X155535825Y-88701618D01*
X155798382Y-88964175D01*
X156107118Y-89170466D01*
X156450166Y-89312561D01*
X156814344Y-89385000D01*
X157185656Y-89385000D01*
X157549834Y-89312561D01*
X157892882Y-89170466D01*
X158201618Y-88964175D01*
X158464175Y-88701618D01*
X158670466Y-88392882D01*
X158798228Y-88084436D01*
X158863251Y-88232561D01*
X159042499Y-88979183D01*
X159090001Y-89626044D01*
X159090000Y-108968382D01*
X159019422Y-109759193D01*
X158820068Y-110487907D01*
X158812561Y-110450166D01*
X158670466Y-110107118D01*
X158464175Y-109798382D01*
X158201618Y-109535825D01*
X157892882Y-109329534D01*
X157549834Y-109187439D01*
X157185656Y-109115000D01*
X156814344Y-109115000D01*
X156450166Y-109187439D01*
X156107118Y-109329534D01*
X155798382Y-109535825D01*
X155535825Y-109798382D01*
X155329534Y-110107118D01*
X155187439Y-110450166D01*
X155115000Y-110814344D01*
X155115000Y-111185656D01*
X155187439Y-111549834D01*
X155329534Y-111892882D01*
X155535825Y-112201618D01*
X155798382Y-112464175D01*
X156107118Y-112670466D01*
X156450166Y-112812561D01*
X156648605Y-112852033D01*
X156167439Y-113063251D01*
X155420819Y-113242499D01*
X154773970Y-113290000D01*
X150279846Y-113290000D01*
X150312730Y-113240785D01*
X150360597Y-113125223D01*
X150385000Y-113002542D01*
X150385000Y-112600750D01*
X150226250Y-112442000D01*
X149497000Y-112442000D01*
X149497000Y-112462000D01*
X149243000Y-112462000D01*
X149243000Y-112442000D01*
X148227000Y-112442000D01*
X148227000Y-112462000D01*
X147973000Y-112462000D01*
X147973000Y-112442000D01*
X146957000Y-112442000D01*
X146957000Y-112462000D01*
X146703000Y-112462000D01*
X146703000Y-112442000D01*
X145687000Y-112442000D01*
X145687000Y-112462000D01*
X145433000Y-112462000D01*
X145433000Y-112442000D01*
X144417000Y-112442000D01*
X144417000Y-112462000D01*
X144163000Y-112462000D01*
X144163000Y-112442000D01*
X143147000Y-112442000D01*
X143147000Y-112462000D01*
X142893000Y-112462000D01*
X142893000Y-112442000D01*
X142163750Y-112442000D01*
X142005000Y-112600750D01*
X142005000Y-113002542D01*
X142029403Y-113125223D01*
X142077270Y-113240785D01*
X142110154Y-113290000D01*
X135631618Y-113290000D01*
X134840807Y-113219422D01*
X134105611Y-113018295D01*
X133417645Y-112690152D01*
X132798672Y-112245374D01*
X132606024Y-112046578D01*
X132618748Y-112054157D01*
X132893109Y-112151481D01*
X133123000Y-112030814D01*
X133123000Y-110837000D01*
X133377000Y-110837000D01*
X133377000Y-112030814D01*
X133606891Y-112151481D01*
X133881252Y-112054157D01*
X134131355Y-111905178D01*
X134347588Y-111710269D01*
X134521641Y-111476920D01*
X134646825Y-111214099D01*
X134691476Y-111066890D01*
X134570155Y-110837000D01*
X133377000Y-110837000D01*
X133123000Y-110837000D01*
X131929845Y-110837000D01*
X131827775Y-111030412D01*
X131536749Y-110367439D01*
X131357501Y-109620819D01*
X131310000Y-108973970D01*
X131310000Y-104764801D01*
X131809203Y-105264005D01*
X131786487Y-105338889D01*
X131757815Y-105630000D01*
X131786487Y-105921111D01*
X131871401Y-106201034D01*
X132009294Y-106459014D01*
X132194866Y-106685134D01*
X132420986Y-106870706D01*
X132475791Y-106900000D01*
X132420986Y-106929294D01*
X132194866Y-107114866D01*
X132009294Y-107340986D01*
X131871401Y-107598966D01*
X131786487Y-107878889D01*
X131757815Y-108170000D01*
X131786487Y-108461111D01*
X131871401Y-108741034D01*
X132009294Y-108999014D01*
X132194866Y-109225134D01*
X132420986Y-109410706D01*
X132485523Y-109445201D01*
X132368645Y-109514822D01*
X132152412Y-109709731D01*
X131978359Y-109943080D01*
X131853175Y-110205901D01*
X131808524Y-110353110D01*
X131929845Y-110583000D01*
X133123000Y-110583000D01*
X133123000Y-110563000D01*
X133377000Y-110563000D01*
X133377000Y-110583000D01*
X134570155Y-110583000D01*
X134691476Y-110353110D01*
X134646825Y-110205901D01*
X134521641Y-109943080D01*
X134347588Y-109709731D01*
X134131355Y-109514822D01*
X134014477Y-109445201D01*
X134079014Y-109410706D01*
X134305134Y-109225134D01*
X134490706Y-108999014D01*
X134628599Y-108741034D01*
X134713513Y-108461111D01*
X134742185Y-108170000D01*
X134713513Y-107878889D01*
X134690797Y-107804005D01*
X135161003Y-107333799D01*
X135190001Y-107310001D01*
X135246477Y-107241185D01*
X135284974Y-107194277D01*
X135355546Y-107062247D01*
X135370336Y-107013490D01*
X135399003Y-106918986D01*
X135410000Y-106807333D01*
X135410000Y-106807323D01*
X135413676Y-106770000D01*
X135410000Y-106732678D01*
X135410000Y-106672783D01*
X135456686Y-106907490D01*
X135561995Y-107161727D01*
X135714880Y-107390535D01*
X135909465Y-107585120D01*
X136138273Y-107738005D01*
X136392510Y-107843314D01*
X136662408Y-107897000D01*
X136937592Y-107897000D01*
X137207490Y-107843314D01*
X137461727Y-107738005D01*
X137690535Y-107585120D01*
X137885120Y-107390535D01*
X138038005Y-107161727D01*
X138143314Y-106907490D01*
X138197000Y-106637592D01*
X138197000Y-106362408D01*
X138143314Y-106092510D01*
X138038005Y-105838273D01*
X137885120Y-105609465D01*
X137690535Y-105414880D01*
X137461727Y-105261995D01*
X137207490Y-105156686D01*
X136937592Y-105103000D01*
X136662408Y-105103000D01*
X136392510Y-105156686D01*
X136138273Y-105261995D01*
X135909465Y-105414880D01*
X135714880Y-105609465D01*
X135561995Y-105838273D01*
X135456686Y-106092510D01*
X135410000Y-106327217D01*
X135410000Y-104264801D01*
X136814802Y-102860000D01*
X137312678Y-102860000D01*
X137350000Y-102863676D01*
X137387322Y-102860000D01*
X137416033Y-102860000D01*
X137382795Y-102909744D01*
X137304774Y-103098102D01*
X137265000Y-103298061D01*
X137265000Y-103501939D01*
X137304774Y-103701898D01*
X137382795Y-103890256D01*
X137496063Y-104059774D01*
X137640226Y-104203937D01*
X137786928Y-104301960D01*
X137786928Y-105156250D01*
X137803872Y-105328285D01*
X137854053Y-105493709D01*
X137935542Y-105646164D01*
X138045208Y-105779792D01*
X138178836Y-105889458D01*
X138331291Y-105970947D01*
X138496715Y-106021128D01*
X138668750Y-106038072D01*
X139156250Y-106038072D01*
X139328285Y-106021128D01*
X139493709Y-105970947D01*
X139646164Y-105889458D01*
X139779792Y-105779792D01*
X139785452Y-105772895D01*
X139806763Y-105804789D01*
X139895211Y-105893237D01*
X139999215Y-105962730D01*
X140114777Y-106010597D01*
X140237458Y-106035000D01*
X140501750Y-106035000D01*
X140660500Y-105876250D01*
X140660500Y-104827000D01*
X140914500Y-104827000D01*
X140914500Y-105876250D01*
X141073250Y-106035000D01*
X141337542Y-106035000D01*
X141460223Y-106010597D01*
X141575785Y-105962730D01*
X141679789Y-105893237D01*
X141768237Y-105804789D01*
X141837730Y-105700785D01*
X141885597Y-105585223D01*
X141910000Y-105462542D01*
X141910000Y-104985750D01*
X141751250Y-104827000D01*
X140914500Y-104827000D01*
X140660500Y-104827000D01*
X140640500Y-104827000D01*
X140640500Y-104573000D01*
X140660500Y-104573000D01*
X140660500Y-104553000D01*
X140914500Y-104553000D01*
X140914500Y-104573000D01*
X141751250Y-104573000D01*
X141910000Y-104414250D01*
X141910000Y-103937458D01*
X141903873Y-103906653D01*
X141930737Y-103879789D01*
X142000230Y-103775785D01*
X142048097Y-103660223D01*
X142072500Y-103537542D01*
X142072500Y-103444880D01*
X142099215Y-103462730D01*
X142214777Y-103510597D01*
X142337458Y-103535000D01*
X142914250Y-103535000D01*
X143073000Y-103376250D01*
X143073000Y-102888072D01*
X143327000Y-102888072D01*
X143327000Y-103376250D01*
X143485750Y-103535000D01*
X143530910Y-103535000D01*
X143504772Y-103598102D01*
X143464998Y-103798061D01*
X143464998Y-104001939D01*
X143480260Y-104078669D01*
X143301898Y-104004788D01*
X143101939Y-103965014D01*
X142898061Y-103965014D01*
X142698102Y-104004788D01*
X142509744Y-104082809D01*
X142340226Y-104196077D01*
X142196063Y-104340240D01*
X142082795Y-104509758D01*
X142004774Y-104698116D01*
X141965000Y-104898075D01*
X141965000Y-105101953D01*
X142004774Y-105301912D01*
X142030102Y-105363058D01*
X142014188Y-105415518D01*
X142001928Y-105540000D01*
X142001928Y-106790000D01*
X142014188Y-106914482D01*
X142050498Y-107034180D01*
X142107049Y-107139978D01*
X139987347Y-107139978D01*
X139950022Y-107136302D01*
X139912697Y-107139978D01*
X139912689Y-107139978D01*
X139801036Y-107150975D01*
X139657775Y-107194432D01*
X139525746Y-107265004D01*
X139410021Y-107359977D01*
X139386223Y-107388975D01*
X138288998Y-108486201D01*
X138260000Y-108509999D01*
X138236202Y-108538997D01*
X138236201Y-108538998D01*
X138165026Y-108625724D01*
X138145674Y-108661928D01*
X137750000Y-108661928D01*
X137625518Y-108674188D01*
X137505820Y-108710498D01*
X137395506Y-108769463D01*
X137298815Y-108848815D01*
X137219463Y-108945506D01*
X137160498Y-109055820D01*
X137124188Y-109175518D01*
X137111928Y-109300000D01*
X137111928Y-110100000D01*
X137124188Y-110224482D01*
X137160498Y-110344180D01*
X137219463Y-110454494D01*
X137298815Y-110551185D01*
X137358296Y-110600000D01*
X137298815Y-110648815D01*
X137219463Y-110745506D01*
X137160498Y-110855820D01*
X137124188Y-110975518D01*
X137111928Y-111100000D01*
X137111928Y-111900000D01*
X137124188Y-112024482D01*
X137160498Y-112144180D01*
X137219463Y-112254494D01*
X137298815Y-112351185D01*
X137395506Y-112430537D01*
X137505820Y-112489502D01*
X137625518Y-112525812D01*
X137750000Y-112538072D01*
X138250000Y-112538072D01*
X138374482Y-112525812D01*
X138425000Y-112510488D01*
X138475518Y-112525812D01*
X138600000Y-112538072D01*
X139000000Y-112538072D01*
X139124482Y-112525812D01*
X139200000Y-112502904D01*
X139275518Y-112525812D01*
X139400000Y-112538072D01*
X139800000Y-112538072D01*
X139924482Y-112525812D01*
X139975000Y-112510488D01*
X140025518Y-112525812D01*
X140150000Y-112538072D01*
X140650000Y-112538072D01*
X140774482Y-112525812D01*
X140894180Y-112489502D01*
X141004494Y-112430537D01*
X141101185Y-112351185D01*
X141180537Y-112254494D01*
X141239502Y-112144180D01*
X141275812Y-112024482D01*
X141288072Y-111900000D01*
X141288072Y-111627458D01*
X142005000Y-111627458D01*
X142005000Y-112029250D01*
X142163750Y-112188000D01*
X142893000Y-112188000D01*
X142893000Y-111213750D01*
X143147000Y-111213750D01*
X143147000Y-112188000D01*
X144163000Y-112188000D01*
X144163000Y-111213750D01*
X144417000Y-111213750D01*
X144417000Y-112188000D01*
X145433000Y-112188000D01*
X145433000Y-111213750D01*
X145687000Y-111213750D01*
X145687000Y-112188000D01*
X146703000Y-112188000D01*
X146703000Y-111213750D01*
X146957000Y-111213750D01*
X146957000Y-112188000D01*
X147973000Y-112188000D01*
X147973000Y-111213750D01*
X148227000Y-111213750D01*
X148227000Y-112188000D01*
X149243000Y-112188000D01*
X149243000Y-111213750D01*
X149497000Y-111213750D01*
X149497000Y-112188000D01*
X150226250Y-112188000D01*
X150385000Y-112029250D01*
X150385000Y-111627458D01*
X150360597Y-111504777D01*
X150312730Y-111389215D01*
X150243237Y-111285211D01*
X150154789Y-111196763D01*
X150050785Y-111127270D01*
X149935223Y-111079403D01*
X149812542Y-111055000D01*
X149655750Y-111055000D01*
X149497000Y-111213750D01*
X149243000Y-111213750D01*
X149084250Y-111055000D01*
X148927458Y-111055000D01*
X148804777Y-111079403D01*
X148735000Y-111108305D01*
X148665223Y-111079403D01*
X148542542Y-111055000D01*
X148385750Y-111055000D01*
X148227000Y-111213750D01*
X147973000Y-111213750D01*
X147814250Y-111055000D01*
X147657458Y-111055000D01*
X147534777Y-111079403D01*
X147465000Y-111108305D01*
X147395223Y-111079403D01*
X147272542Y-111055000D01*
X147115750Y-111055000D01*
X146957000Y-111213750D01*
X146703000Y-111213750D01*
X146544250Y-111055000D01*
X146387458Y-111055000D01*
X146264777Y-111079403D01*
X146195000Y-111108305D01*
X146125223Y-111079403D01*
X146002542Y-111055000D01*
X145845750Y-111055000D01*
X145687000Y-111213750D01*
X145433000Y-111213750D01*
X145274250Y-111055000D01*
X145117458Y-111055000D01*
X144994777Y-111079403D01*
X144925000Y-111108305D01*
X144855223Y-111079403D01*
X144732542Y-111055000D01*
X144575750Y-111055000D01*
X144417000Y-111213750D01*
X144163000Y-111213750D01*
X144004250Y-111055000D01*
X143847458Y-111055000D01*
X143724777Y-111079403D01*
X143655000Y-111108305D01*
X143585223Y-111079403D01*
X143462542Y-111055000D01*
X143305750Y-111055000D01*
X143147000Y-111213750D01*
X142893000Y-111213750D01*
X142734250Y-111055000D01*
X142577458Y-111055000D01*
X142454777Y-111079403D01*
X142339215Y-111127270D01*
X142235211Y-111196763D01*
X142146763Y-111285211D01*
X142077270Y-111389215D01*
X142029403Y-111504777D01*
X142005000Y-111627458D01*
X141288072Y-111627458D01*
X141288072Y-111597975D01*
X141301900Y-111595224D01*
X141490258Y-111517203D01*
X141659776Y-111403935D01*
X141803939Y-111259772D01*
X141917207Y-111090254D01*
X141995228Y-110901896D01*
X142035002Y-110701937D01*
X142035002Y-110498059D01*
X141995228Y-110298100D01*
X141917207Y-110109742D01*
X141803939Y-109940224D01*
X141749465Y-109885750D01*
X150502500Y-109885750D01*
X150502500Y-110362542D01*
X150526903Y-110485223D01*
X150574770Y-110600785D01*
X150644263Y-110704789D01*
X150732711Y-110793237D01*
X150836715Y-110862730D01*
X150952277Y-110910597D01*
X151074958Y-110935000D01*
X151339250Y-110935000D01*
X151498000Y-110776250D01*
X151498000Y-109727000D01*
X150661250Y-109727000D01*
X150502500Y-109885750D01*
X141749465Y-109885750D01*
X141659776Y-109796061D01*
X141490258Y-109682793D01*
X141301900Y-109604772D01*
X141288072Y-109602021D01*
X141288072Y-109560000D01*
X147652678Y-109560000D01*
X147690000Y-109563676D01*
X147727322Y-109560000D01*
X147727333Y-109560000D01*
X147838986Y-109549003D01*
X147982247Y-109505546D01*
X148114276Y-109434974D01*
X148230001Y-109340001D01*
X148253804Y-109310997D01*
X148727343Y-108837458D01*
X150502500Y-108837458D01*
X150502500Y-109314250D01*
X150661250Y-109473000D01*
X151498000Y-109473000D01*
X151498000Y-108423750D01*
X151339250Y-108265000D01*
X151074958Y-108265000D01*
X150952277Y-108289403D01*
X150836715Y-108337270D01*
X150732711Y-108406763D01*
X150644263Y-108495211D01*
X150574770Y-108599215D01*
X150526903Y-108714777D01*
X150502500Y-108837458D01*
X148727343Y-108837458D01*
X149136717Y-108428084D01*
X149301898Y-108395228D01*
X149490256Y-108317207D01*
X149659774Y-108203939D01*
X149803937Y-108059776D01*
X149917205Y-107890258D01*
X149995226Y-107701900D01*
X150035000Y-107501941D01*
X150035000Y-107488102D01*
X150075546Y-107412247D01*
X150103147Y-107321257D01*
X150104494Y-107320537D01*
X150201185Y-107241185D01*
X150280537Y-107144494D01*
X150339502Y-107034180D01*
X150375812Y-106914482D01*
X150388072Y-106790000D01*
X150388072Y-105540000D01*
X150382301Y-105481400D01*
X150503927Y-105359774D01*
X150617195Y-105190256D01*
X150695216Y-105001898D01*
X150734990Y-104801939D01*
X150734990Y-104598061D01*
X150725688Y-104551298D01*
X150748986Y-104549003D01*
X150892247Y-104505546D01*
X151024276Y-104434974D01*
X151140001Y-104340001D01*
X151163804Y-104310997D01*
X151610997Y-103863804D01*
X151640001Y-103840001D01*
X151734974Y-103724276D01*
X151743304Y-103708691D01*
X151798633Y-103764020D01*
X151736487Y-103968889D01*
X151707815Y-104260000D01*
X151736487Y-104551111D01*
X151821401Y-104831034D01*
X151959294Y-105089014D01*
X152144866Y-105315134D01*
X152172553Y-105337856D01*
X152164777Y-105339403D01*
X152049215Y-105387270D01*
X151945211Y-105456763D01*
X151856763Y-105545211D01*
X151787270Y-105649215D01*
X151739403Y-105764777D01*
X151715000Y-105887458D01*
X151715000Y-106514250D01*
X151873750Y-106673000D01*
X153073000Y-106673000D01*
X153073000Y-106653000D01*
X153327000Y-106653000D01*
X153327000Y-106673000D01*
X153347000Y-106673000D01*
X153347000Y-106927000D01*
X153327000Y-106927000D01*
X153327000Y-106947000D01*
X153073000Y-106947000D01*
X153073000Y-106927000D01*
X151873750Y-106927000D01*
X151715000Y-107085750D01*
X151715000Y-107712542D01*
X151739403Y-107835223D01*
X151787270Y-107950785D01*
X151856763Y-108054789D01*
X151945211Y-108143237D01*
X152049215Y-108212730D01*
X152164777Y-108260597D01*
X152287458Y-108285000D01*
X152914250Y-108285000D01*
X153072998Y-108126252D01*
X153072998Y-108215424D01*
X152977038Y-108311384D01*
X152918791Y-108329053D01*
X152766336Y-108410542D01*
X152632708Y-108520208D01*
X152627048Y-108527105D01*
X152605737Y-108495211D01*
X152517289Y-108406763D01*
X152413285Y-108337270D01*
X152297723Y-108289403D01*
X152175042Y-108265000D01*
X151910750Y-108265000D01*
X151752000Y-108423750D01*
X151752000Y-109473000D01*
X151772000Y-109473000D01*
X151772000Y-109727000D01*
X151752000Y-109727000D01*
X151752000Y-110776250D01*
X151910750Y-110935000D01*
X152175042Y-110935000D01*
X152297723Y-110910597D01*
X152413285Y-110862730D01*
X152517289Y-110793237D01*
X152605737Y-110704789D01*
X152627048Y-110672895D01*
X152632708Y-110679792D01*
X152766336Y-110789458D01*
X152918791Y-110870947D01*
X153084215Y-110921128D01*
X153256250Y-110938072D01*
X153743750Y-110938072D01*
X153915785Y-110921128D01*
X154081209Y-110870947D01*
X154233664Y-110789458D01*
X154367292Y-110679792D01*
X154476958Y-110546164D01*
X154558447Y-110393709D01*
X154608628Y-110228285D01*
X154625572Y-110056250D01*
X154625572Y-109166006D01*
X155520967Y-108270612D01*
X155667050Y-108285000D01*
X155812950Y-108285000D01*
X156031111Y-108263513D01*
X156311034Y-108178599D01*
X156569014Y-108040706D01*
X156795134Y-107855134D01*
X156980706Y-107629014D01*
X157118599Y-107371034D01*
X157203513Y-107091111D01*
X157232185Y-106800000D01*
X157203513Y-106508889D01*
X157118599Y-106228966D01*
X156980706Y-105970986D01*
X156795134Y-105744866D01*
X156569014Y-105559294D01*
X156514209Y-105530000D01*
X156569014Y-105500706D01*
X156795134Y-105315134D01*
X156980706Y-105089014D01*
X157118599Y-104831034D01*
X157203513Y-104551111D01*
X157232185Y-104260000D01*
X157203513Y-103968889D01*
X157118599Y-103688966D01*
X156980706Y-103430986D01*
X156795134Y-103204866D01*
X156569014Y-103019294D01*
X156514209Y-102990000D01*
X156569014Y-102960706D01*
X156795134Y-102775134D01*
X156980706Y-102549014D01*
X157118599Y-102291034D01*
X157203513Y-102011111D01*
X157232185Y-101720000D01*
X157203513Y-101428889D01*
X157118599Y-101148966D01*
X156980706Y-100890986D01*
X156795134Y-100664866D01*
X156569014Y-100479294D01*
X156514209Y-100450000D01*
X156569014Y-100420706D01*
X156795134Y-100235134D01*
X156980706Y-100009014D01*
X157118599Y-99751034D01*
X157203513Y-99471111D01*
X157232185Y-99180000D01*
X157203513Y-98888889D01*
X157118599Y-98608966D01*
X156980706Y-98350986D01*
X156795134Y-98124866D01*
X156569014Y-97939294D01*
X156514209Y-97910000D01*
X156569014Y-97880706D01*
X156795134Y-97695134D01*
X156980706Y-97469014D01*
X157118599Y-97211034D01*
X157203513Y-96931111D01*
X157232185Y-96640000D01*
X157203513Y-96348889D01*
X157118599Y-96068966D01*
X156980706Y-95810986D01*
X156795134Y-95584866D01*
X156569014Y-95399294D01*
X156514209Y-95370000D01*
X156569014Y-95340706D01*
X156795134Y-95155134D01*
X156980706Y-94929014D01*
X157118599Y-94671034D01*
X157203513Y-94391111D01*
X157232185Y-94100000D01*
X157203513Y-93808889D01*
X157118599Y-93528966D01*
X156980706Y-93270986D01*
X156795134Y-93044866D01*
X156569014Y-92859294D01*
X156514209Y-92830000D01*
X156569014Y-92800706D01*
X156795134Y-92615134D01*
X156980706Y-92389014D01*
X157118599Y-92131034D01*
X157203513Y-91851111D01*
X157232185Y-91560000D01*
X157203513Y-91268889D01*
X157118599Y-90988966D01*
X156980706Y-90730986D01*
X156795134Y-90504866D01*
X156569014Y-90319294D01*
X156311034Y-90181401D01*
X156031111Y-90096487D01*
X155812950Y-90075000D01*
X155667050Y-90075000D01*
X155448889Y-90096487D01*
X155168966Y-90181401D01*
X154910986Y-90319294D01*
X154684866Y-90504866D01*
X154499294Y-90730986D01*
X154470000Y-90785791D01*
X154440706Y-90730986D01*
X154255134Y-90504866D01*
X154029014Y-90319294D01*
X153771034Y-90181401D01*
X153491111Y-90096487D01*
X153272950Y-90075000D01*
X153127050Y-90075000D01*
X152908889Y-90096487D01*
X152628966Y-90181401D01*
X152370986Y-90319294D01*
X152144866Y-90504866D01*
X151959294Y-90730986D01*
X151821401Y-90988966D01*
X151736487Y-91268889D01*
X151707815Y-91560000D01*
X151736487Y-91851111D01*
X151821401Y-92131034D01*
X151835058Y-92156585D01*
X151725723Y-92215026D01*
X151683109Y-92249999D01*
X151609999Y-92309999D01*
X151586201Y-92338997D01*
X150285199Y-93640000D01*
X143937034Y-93640000D01*
X143959004Y-93567572D01*
X143970001Y-93455919D01*
X143970001Y-93455909D01*
X143973677Y-93418586D01*
X143970001Y-93381263D01*
X143970001Y-92883321D01*
X143987050Y-92885000D01*
X144132950Y-92885000D01*
X144351111Y-92863513D01*
X144631034Y-92778599D01*
X144889014Y-92640706D01*
X145115134Y-92455134D01*
X145137856Y-92427447D01*
X145139403Y-92435223D01*
X145187270Y-92550785D01*
X145256763Y-92654789D01*
X145345211Y-92743237D01*
X145449215Y-92812730D01*
X145564777Y-92860597D01*
X145687458Y-92885000D01*
X146314250Y-92885000D01*
X146473000Y-92726250D01*
X146473000Y-91527000D01*
X146727000Y-91527000D01*
X146727000Y-92726250D01*
X146885750Y-92885000D01*
X147512542Y-92885000D01*
X147635223Y-92860597D01*
X147750785Y-92812730D01*
X147854789Y-92743237D01*
X147943237Y-92654789D01*
X148012730Y-92550785D01*
X148060597Y-92435223D01*
X148085000Y-92312542D01*
X148085000Y-91685750D01*
X147926250Y-91527000D01*
X146727000Y-91527000D01*
X146473000Y-91527000D01*
X146453000Y-91527000D01*
X146453000Y-91423250D01*
X148265000Y-91423250D01*
X148265000Y-91687542D01*
X148289403Y-91810223D01*
X148337270Y-91925785D01*
X148406763Y-92029789D01*
X148495211Y-92118237D01*
X148599215Y-92187730D01*
X148714777Y-92235597D01*
X148837458Y-92260000D01*
X149314250Y-92260000D01*
X149473000Y-92101250D01*
X149473000Y-91264500D01*
X149727000Y-91264500D01*
X149727000Y-92101250D01*
X149885750Y-92260000D01*
X150362542Y-92260000D01*
X150485223Y-92235597D01*
X150600785Y-92187730D01*
X150704789Y-92118237D01*
X150793237Y-92029789D01*
X150862730Y-91925785D01*
X150910597Y-91810223D01*
X150935000Y-91687542D01*
X150935000Y-91423250D01*
X150776250Y-91264500D01*
X149727000Y-91264500D01*
X149473000Y-91264500D01*
X148423750Y-91264500D01*
X148265000Y-91423250D01*
X146453000Y-91423250D01*
X146453000Y-91273000D01*
X146473000Y-91273000D01*
X146473000Y-91253000D01*
X146727000Y-91253000D01*
X146727000Y-91273000D01*
X147926250Y-91273000D01*
X148085000Y-91114250D01*
X148085000Y-90487458D01*
X148060597Y-90364777D01*
X148012730Y-90249215D01*
X147943237Y-90145211D01*
X147854789Y-90056763D01*
X147750785Y-89987270D01*
X147635223Y-89939403D01*
X147627447Y-89937856D01*
X147655134Y-89915134D01*
X147794759Y-89745000D01*
X148299110Y-89745000D01*
X148329053Y-89843709D01*
X148410542Y-89996164D01*
X148520208Y-90129792D01*
X148527105Y-90135452D01*
X148495211Y-90156763D01*
X148406763Y-90245211D01*
X148337270Y-90349215D01*
X148289403Y-90464777D01*
X148265000Y-90587458D01*
X148265000Y-90851750D01*
X148423750Y-91010500D01*
X149473000Y-91010500D01*
X149473000Y-90990500D01*
X149727000Y-90990500D01*
X149727000Y-91010500D01*
X150776250Y-91010500D01*
X150935000Y-90851750D01*
X150935000Y-90587458D01*
X150910597Y-90464777D01*
X150862730Y-90349215D01*
X150793237Y-90245211D01*
X150704789Y-90156763D01*
X150672895Y-90135452D01*
X150679792Y-90129792D01*
X150789458Y-89996164D01*
X150870947Y-89843709D01*
X150921128Y-89678285D01*
X150938072Y-89506250D01*
X150938072Y-89018750D01*
X150921128Y-88846715D01*
X150870947Y-88681291D01*
X150789458Y-88528836D01*
X150679792Y-88395208D01*
X150546164Y-88285542D01*
X150393709Y-88204053D01*
X150228285Y-88153872D01*
X150056250Y-88136928D01*
X149711468Y-88136928D01*
X149691559Y-88120589D01*
X149537813Y-88038411D01*
X149452094Y-88012408D01*
X151253000Y-88012408D01*
X151253000Y-88287592D01*
X151306686Y-88557490D01*
X151411995Y-88811727D01*
X151564880Y-89040535D01*
X151759465Y-89235120D01*
X151988273Y-89388005D01*
X152242510Y-89493314D01*
X152512408Y-89547000D01*
X152787592Y-89547000D01*
X153057490Y-89493314D01*
X153311727Y-89388005D01*
X153540535Y-89235120D01*
X153735120Y-89040535D01*
X153888005Y-88811727D01*
X153993314Y-88557490D01*
X154047000Y-88287592D01*
X154047000Y-88012408D01*
X153993314Y-87742510D01*
X153888005Y-87488273D01*
X153735120Y-87259465D01*
X153540535Y-87064880D01*
X153311727Y-86911995D01*
X153057490Y-86806686D01*
X152787592Y-86753000D01*
X152512408Y-86753000D01*
X152242510Y-86806686D01*
X151988273Y-86911995D01*
X151759465Y-87064880D01*
X151564880Y-87259465D01*
X151411995Y-87488273D01*
X151306686Y-87742510D01*
X151253000Y-88012408D01*
X149452094Y-88012408D01*
X149370990Y-87987805D01*
X149240977Y-87975000D01*
X149240969Y-87975000D01*
X149197500Y-87970719D01*
X149154031Y-87975000D01*
X147794759Y-87975000D01*
X147655134Y-87804866D01*
X147429014Y-87619294D01*
X147171034Y-87481401D01*
X146891111Y-87396487D01*
X146672950Y-87375000D01*
X146527050Y-87375000D01*
X146308889Y-87396487D01*
X146028966Y-87481401D01*
X145770986Y-87619294D01*
X145544866Y-87804866D01*
X145359294Y-88030986D01*
X145330000Y-88085791D01*
X145300706Y-88030986D01*
X145115134Y-87804866D01*
X144889014Y-87619294D01*
X144631034Y-87481401D01*
X144351111Y-87396487D01*
X144132950Y-87375000D01*
X143987050Y-87375000D01*
X143768889Y-87396487D01*
X143488966Y-87481401D01*
X143230986Y-87619294D01*
X143004866Y-87804866D01*
X142819294Y-88030986D01*
X142790000Y-88085791D01*
X142760706Y-88030986D01*
X142575134Y-87804866D01*
X142349014Y-87619294D01*
X142091034Y-87481401D01*
X141811111Y-87396487D01*
X141592950Y-87375000D01*
X141447050Y-87375000D01*
X141228889Y-87396487D01*
X140948966Y-87481401D01*
X140690986Y-87619294D01*
X140464866Y-87804866D01*
X140279294Y-88030986D01*
X140250000Y-88085791D01*
X140220706Y-88030986D01*
X140035134Y-87804866D01*
X139809014Y-87619294D01*
X139551034Y-87481401D01*
X139271111Y-87396487D01*
X139052950Y-87375000D01*
X138907050Y-87375000D01*
X138688889Y-87396487D01*
X138408966Y-87481401D01*
X138150986Y-87619294D01*
X137924866Y-87804866D01*
X137739294Y-88030986D01*
X137601401Y-88288966D01*
X137516487Y-88568889D01*
X137487815Y-88860000D01*
X137516487Y-89151111D01*
X137539203Y-89225996D01*
X137293997Y-89471202D01*
X137264999Y-89495000D01*
X137241201Y-89523998D01*
X137241200Y-89523999D01*
X137170025Y-89610725D01*
X137099453Y-89742755D01*
X137055997Y-89886016D01*
X137041323Y-90035001D01*
X137045000Y-90072333D01*
X137044999Y-95332181D01*
X137041323Y-95369504D01*
X137044999Y-95406826D01*
X137044999Y-95406836D01*
X137055996Y-95518489D01*
X137092453Y-95638674D01*
X137099453Y-95661750D01*
X137170025Y-95793780D01*
X137195053Y-95824276D01*
X137264998Y-95909505D01*
X137294002Y-95933308D01*
X137592755Y-96232061D01*
X137542931Y-96232061D01*
X137342972Y-96271835D01*
X137154614Y-96349856D01*
X136985096Y-96463124D01*
X136940012Y-96508208D01*
X136776949Y-96475773D01*
X136573071Y-96475773D01*
X136373112Y-96515547D01*
X136184754Y-96593568D01*
X136015236Y-96706836D01*
X135871073Y-96850999D01*
X135757805Y-97020517D01*
X135679784Y-97208875D01*
X135640010Y-97408834D01*
X135640010Y-97612712D01*
X135679784Y-97812671D01*
X135721676Y-97913807D01*
X135601939Y-97889990D01*
X135398061Y-97889990D01*
X135198102Y-97929764D01*
X135009744Y-98007785D01*
X134840226Y-98121053D01*
X134696063Y-98265216D01*
X134663521Y-98313919D01*
X134570155Y-98137000D01*
X133377000Y-98137000D01*
X133377000Y-98157000D01*
X133123000Y-98157000D01*
X133123000Y-98137000D01*
X133103000Y-98137000D01*
X133103000Y-97883000D01*
X133123000Y-97883000D01*
X133123000Y-97863000D01*
X133377000Y-97863000D01*
X133377000Y-97883000D01*
X134570155Y-97883000D01*
X134691476Y-97653110D01*
X134646825Y-97505901D01*
X134521641Y-97243080D01*
X134347588Y-97009731D01*
X134131355Y-96814822D01*
X134014477Y-96745201D01*
X134079014Y-96710706D01*
X134305134Y-96525134D01*
X134490706Y-96299014D01*
X134628599Y-96041034D01*
X134713513Y-95761111D01*
X134742185Y-95470000D01*
X134713513Y-95178889D01*
X134628599Y-94898966D01*
X134490706Y-94640986D01*
X134305134Y-94414866D01*
X134079014Y-94229294D01*
X134024209Y-94200000D01*
X134079014Y-94170706D01*
X134305134Y-93985134D01*
X134490706Y-93759014D01*
X134628599Y-93501034D01*
X134713513Y-93221111D01*
X134742185Y-92930000D01*
X134713513Y-92638889D01*
X134628599Y-92358966D01*
X134490706Y-92100986D01*
X134305134Y-91874866D01*
X134079014Y-91689294D01*
X134024209Y-91660000D01*
X134079014Y-91630706D01*
X134305134Y-91445134D01*
X134490706Y-91219014D01*
X134628599Y-90961034D01*
X134713513Y-90681111D01*
X134742185Y-90390000D01*
X134713513Y-90098889D01*
X134628599Y-89818966D01*
X134490706Y-89560986D01*
X134305134Y-89334866D01*
X134275313Y-89310393D01*
X134344180Y-89289502D01*
X134454494Y-89230537D01*
X134551185Y-89151185D01*
X134630537Y-89054494D01*
X134689502Y-88944180D01*
X134725812Y-88824482D01*
X134738072Y-88700000D01*
X134738072Y-87000000D01*
X134725812Y-86875518D01*
X134689502Y-86755820D01*
X134630537Y-86645506D01*
X134551185Y-86548815D01*
X134454494Y-86469463D01*
X134344180Y-86410498D01*
X134224482Y-86374188D01*
X134100000Y-86361928D01*
X132805309Y-86361928D01*
X132901988Y-86268239D01*
X133534639Y-85843116D01*
X134232561Y-85536749D01*
X134979183Y-85357501D01*
X135626030Y-85310000D01*
X154768382Y-85310000D01*
X155559192Y-85380578D01*
X155559192Y-85380578D01*
G37*
X155559192Y-85380578D02*
X156294389Y-85581705D01*
X156496671Y-85678189D01*
X156450166Y-85687439D01*
X156107118Y-85829534D01*
X155798382Y-86035825D01*
X155535825Y-86298382D01*
X155329534Y-86607118D01*
X155187439Y-86950166D01*
X155115000Y-87314344D01*
X155115000Y-87685656D01*
X155187439Y-88049834D01*
X155329534Y-88392882D01*
X155535825Y-88701618D01*
X155798382Y-88964175D01*
X156107118Y-89170466D01*
X156450166Y-89312561D01*
X156814344Y-89385000D01*
X157185656Y-89385000D01*
X157549834Y-89312561D01*
X157892882Y-89170466D01*
X158201618Y-88964175D01*
X158464175Y-88701618D01*
X158670466Y-88392882D01*
X158798228Y-88084436D01*
X158863251Y-88232561D01*
X159042499Y-88979183D01*
X159090001Y-89626044D01*
X159090000Y-108968382D01*
X159019422Y-109759193D01*
X158820068Y-110487907D01*
X158812561Y-110450166D01*
X158670466Y-110107118D01*
X158464175Y-109798382D01*
X158201618Y-109535825D01*
X157892882Y-109329534D01*
X157549834Y-109187439D01*
X157185656Y-109115000D01*
X156814344Y-109115000D01*
X156450166Y-109187439D01*
X156107118Y-109329534D01*
X155798382Y-109535825D01*
X155535825Y-109798382D01*
X155329534Y-110107118D01*
X155187439Y-110450166D01*
X155115000Y-110814344D01*
X155115000Y-111185656D01*
X155187439Y-111549834D01*
X155329534Y-111892882D01*
X155535825Y-112201618D01*
X155798382Y-112464175D01*
X156107118Y-112670466D01*
X156450166Y-112812561D01*
X156648605Y-112852033D01*
X156167439Y-113063251D01*
X155420819Y-113242499D01*
X154773970Y-113290000D01*
X150279846Y-113290000D01*
X150312730Y-113240785D01*
X150360597Y-113125223D01*
X150385000Y-113002542D01*
X150385000Y-112600750D01*
X150226250Y-112442000D01*
X149497000Y-112442000D01*
X149497000Y-112462000D01*
X149243000Y-112462000D01*
X149243000Y-112442000D01*
X148227000Y-112442000D01*
X148227000Y-112462000D01*
X147973000Y-112462000D01*
X147973000Y-112442000D01*
X146957000Y-112442000D01*
X146957000Y-112462000D01*
X146703000Y-112462000D01*
X146703000Y-112442000D01*
X145687000Y-112442000D01*
X145687000Y-112462000D01*
X145433000Y-112462000D01*
X145433000Y-112442000D01*
X144417000Y-112442000D01*
X144417000Y-112462000D01*
X144163000Y-112462000D01*
X144163000Y-112442000D01*
X143147000Y-112442000D01*
X143147000Y-112462000D01*
X142893000Y-112462000D01*
X142893000Y-112442000D01*
X142163750Y-112442000D01*
X142005000Y-112600750D01*
X142005000Y-113002542D01*
X142029403Y-113125223D01*
X142077270Y-113240785D01*
X142110154Y-113290000D01*
X135631618Y-113290000D01*
X134840807Y-113219422D01*
X134105611Y-113018295D01*
X133417645Y-112690152D01*
X132798672Y-112245374D01*
X132606024Y-112046578D01*
X132618748Y-112054157D01*
X132893109Y-112151481D01*
X133123000Y-112030814D01*
X133123000Y-110837000D01*
X133377000Y-110837000D01*
X133377000Y-112030814D01*
X133606891Y-112151481D01*
X133881252Y-112054157D01*
X134131355Y-111905178D01*
X134347588Y-111710269D01*
X134521641Y-111476920D01*
X134646825Y-111214099D01*
X134691476Y-111066890D01*
X134570155Y-110837000D01*
X133377000Y-110837000D01*
X133123000Y-110837000D01*
X131929845Y-110837000D01*
X131827775Y-111030412D01*
X131536749Y-110367439D01*
X131357501Y-109620819D01*
X131310000Y-108973970D01*
X131310000Y-104764801D01*
X131809203Y-105264005D01*
X131786487Y-105338889D01*
X131757815Y-105630000D01*
X131786487Y-105921111D01*
X131871401Y-106201034D01*
X132009294Y-106459014D01*
X132194866Y-106685134D01*
X132420986Y-106870706D01*
X132475791Y-106900000D01*
X132420986Y-106929294D01*
X132194866Y-107114866D01*
X132009294Y-107340986D01*
X131871401Y-107598966D01*
X131786487Y-107878889D01*
X131757815Y-108170000D01*
X131786487Y-108461111D01*
X131871401Y-108741034D01*
X132009294Y-108999014D01*
X132194866Y-109225134D01*
X132420986Y-109410706D01*
X132485523Y-109445201D01*
X132368645Y-109514822D01*
X132152412Y-109709731D01*
X131978359Y-109943080D01*
X131853175Y-110205901D01*
X131808524Y-110353110D01*
X131929845Y-110583000D01*
X133123000Y-110583000D01*
X133123000Y-110563000D01*
X133377000Y-110563000D01*
X133377000Y-110583000D01*
X134570155Y-110583000D01*
X134691476Y-110353110D01*
X134646825Y-110205901D01*
X134521641Y-109943080D01*
X134347588Y-109709731D01*
X134131355Y-109514822D01*
X134014477Y-109445201D01*
X134079014Y-109410706D01*
X134305134Y-109225134D01*
X134490706Y-108999014D01*
X134628599Y-108741034D01*
X134713513Y-108461111D01*
X134742185Y-108170000D01*
X134713513Y-107878889D01*
X134690797Y-107804005D01*
X135161003Y-107333799D01*
X135190001Y-107310001D01*
X135246477Y-107241185D01*
X135284974Y-107194277D01*
X135355546Y-107062247D01*
X135370336Y-107013490D01*
X135399003Y-106918986D01*
X135410000Y-106807333D01*
X135410000Y-106807323D01*
X135413676Y-106770000D01*
X135410000Y-106732678D01*
X135410000Y-106672783D01*
X135456686Y-106907490D01*
X135561995Y-107161727D01*
X135714880Y-107390535D01*
X135909465Y-107585120D01*
X136138273Y-107738005D01*
X136392510Y-107843314D01*
X136662408Y-107897000D01*
X136937592Y-107897000D01*
X137207490Y-107843314D01*
X137461727Y-107738005D01*
X137690535Y-107585120D01*
X137885120Y-107390535D01*
X138038005Y-107161727D01*
X138143314Y-106907490D01*
X138197000Y-106637592D01*
X138197000Y-106362408D01*
X138143314Y-106092510D01*
X138038005Y-105838273D01*
X137885120Y-105609465D01*
X137690535Y-105414880D01*
X137461727Y-105261995D01*
X137207490Y-105156686D01*
X136937592Y-105103000D01*
X136662408Y-105103000D01*
X136392510Y-105156686D01*
X136138273Y-105261995D01*
X135909465Y-105414880D01*
X135714880Y-105609465D01*
X135561995Y-105838273D01*
X135456686Y-106092510D01*
X135410000Y-106327217D01*
X135410000Y-104264801D01*
X136814802Y-102860000D01*
X137312678Y-102860000D01*
X137350000Y-102863676D01*
X137387322Y-102860000D01*
X137416033Y-102860000D01*
X137382795Y-102909744D01*
X137304774Y-103098102D01*
X137265000Y-103298061D01*
X137265000Y-103501939D01*
X137304774Y-103701898D01*
X137382795Y-103890256D01*
X137496063Y-104059774D01*
X137640226Y-104203937D01*
X137786928Y-104301960D01*
X137786928Y-105156250D01*
X137803872Y-105328285D01*
X137854053Y-105493709D01*
X137935542Y-105646164D01*
X138045208Y-105779792D01*
X138178836Y-105889458D01*
X138331291Y-105970947D01*
X138496715Y-106021128D01*
X138668750Y-106038072D01*
X139156250Y-106038072D01*
X139328285Y-106021128D01*
X139493709Y-105970947D01*
X139646164Y-105889458D01*
X139779792Y-105779792D01*
X139785452Y-105772895D01*
X139806763Y-105804789D01*
X139895211Y-105893237D01*
X139999215Y-105962730D01*
X140114777Y-106010597D01*
X140237458Y-106035000D01*
X140501750Y-106035000D01*
X140660500Y-105876250D01*
X140660500Y-104827000D01*
X140914500Y-104827000D01*
X140914500Y-105876250D01*
X141073250Y-106035000D01*
X141337542Y-106035000D01*
X141460223Y-106010597D01*
X141575785Y-105962730D01*
X141679789Y-105893237D01*
X141768237Y-105804789D01*
X141837730Y-105700785D01*
X141885597Y-105585223D01*
X141910000Y-105462542D01*
X141910000Y-104985750D01*
X141751250Y-104827000D01*
X140914500Y-104827000D01*
X140660500Y-104827000D01*
X140640500Y-104827000D01*
X140640500Y-104573000D01*
X140660500Y-104573000D01*
X140660500Y-104553000D01*
X140914500Y-104553000D01*
X140914500Y-104573000D01*
X141751250Y-104573000D01*
X141910000Y-104414250D01*
X141910000Y-103937458D01*
X141903873Y-103906653D01*
X141930737Y-103879789D01*
X142000230Y-103775785D01*
X142048097Y-103660223D01*
X142072500Y-103537542D01*
X142072500Y-103444880D01*
X142099215Y-103462730D01*
X142214777Y-103510597D01*
X142337458Y-103535000D01*
X142914250Y-103535000D01*
X143073000Y-103376250D01*
X143073000Y-102888072D01*
X143327000Y-102888072D01*
X143327000Y-103376250D01*
X143485750Y-103535000D01*
X143530910Y-103535000D01*
X143504772Y-103598102D01*
X143464998Y-103798061D01*
X143464998Y-104001939D01*
X143480260Y-104078669D01*
X143301898Y-104004788D01*
X143101939Y-103965014D01*
X142898061Y-103965014D01*
X142698102Y-104004788D01*
X142509744Y-104082809D01*
X142340226Y-104196077D01*
X142196063Y-104340240D01*
X142082795Y-104509758D01*
X142004774Y-104698116D01*
X141965000Y-104898075D01*
X141965000Y-105101953D01*
X142004774Y-105301912D01*
X142030102Y-105363058D01*
X142014188Y-105415518D01*
X142001928Y-105540000D01*
X142001928Y-106790000D01*
X142014188Y-106914482D01*
X142050498Y-107034180D01*
X142107049Y-107139978D01*
X139987347Y-107139978D01*
X139950022Y-107136302D01*
X139912697Y-107139978D01*
X139912689Y-107139978D01*
X139801036Y-107150975D01*
X139657775Y-107194432D01*
X139525746Y-107265004D01*
X139410021Y-107359977D01*
X139386223Y-107388975D01*
X138288998Y-108486201D01*
X138260000Y-108509999D01*
X138236202Y-108538997D01*
X138236201Y-108538998D01*
X138165026Y-108625724D01*
X138145674Y-108661928D01*
X137750000Y-108661928D01*
X137625518Y-108674188D01*
X137505820Y-108710498D01*
X137395506Y-108769463D01*
X137298815Y-108848815D01*
X137219463Y-108945506D01*
X137160498Y-109055820D01*
X137124188Y-109175518D01*
X137111928Y-109300000D01*
X137111928Y-110100000D01*
X137124188Y-110224482D01*
X137160498Y-110344180D01*
X137219463Y-110454494D01*
X137298815Y-110551185D01*
X137358296Y-110600000D01*
X137298815Y-110648815D01*
X137219463Y-110745506D01*
X137160498Y-110855820D01*
X137124188Y-110975518D01*
X137111928Y-111100000D01*
X137111928Y-111900000D01*
X137124188Y-112024482D01*
X137160498Y-112144180D01*
X137219463Y-112254494D01*
X137298815Y-112351185D01*
X137395506Y-112430537D01*
X137505820Y-112489502D01*
X137625518Y-112525812D01*
X137750000Y-112538072D01*
X138250000Y-112538072D01*
X138374482Y-112525812D01*
X138425000Y-112510488D01*
X138475518Y-112525812D01*
X138600000Y-112538072D01*
X139000000Y-112538072D01*
X139124482Y-112525812D01*
X139200000Y-112502904D01*
X139275518Y-112525812D01*
X139400000Y-112538072D01*
X139800000Y-112538072D01*
X139924482Y-112525812D01*
X139975000Y-112510488D01*
X140025518Y-112525812D01*
X140150000Y-112538072D01*
X140650000Y-112538072D01*
X140774482Y-112525812D01*
X140894180Y-112489502D01*
X141004494Y-112430537D01*
X141101185Y-112351185D01*
X141180537Y-112254494D01*
X141239502Y-112144180D01*
X141275812Y-112024482D01*
X141288072Y-111900000D01*
X141288072Y-111627458D01*
X142005000Y-111627458D01*
X142005000Y-112029250D01*
X142163750Y-112188000D01*
X142893000Y-112188000D01*
X142893000Y-111213750D01*
X143147000Y-111213750D01*
X143147000Y-112188000D01*
X144163000Y-112188000D01*
X144163000Y-111213750D01*
X144417000Y-111213750D01*
X144417000Y-112188000D01*
X145433000Y-112188000D01*
X145433000Y-111213750D01*
X145687000Y-111213750D01*
X145687000Y-112188000D01*
X146703000Y-112188000D01*
X146703000Y-111213750D01*
X146957000Y-111213750D01*
X146957000Y-112188000D01*
X147973000Y-112188000D01*
X147973000Y-111213750D01*
X148227000Y-111213750D01*
X148227000Y-112188000D01*
X149243000Y-112188000D01*
X149243000Y-111213750D01*
X149497000Y-111213750D01*
X149497000Y-112188000D01*
X150226250Y-112188000D01*
X150385000Y-112029250D01*
X150385000Y-111627458D01*
X150360597Y-111504777D01*
X150312730Y-111389215D01*
X150243237Y-111285211D01*
X150154789Y-111196763D01*
X150050785Y-111127270D01*
X149935223Y-111079403D01*
X149812542Y-111055000D01*
X149655750Y-111055000D01*
X149497000Y-111213750D01*
X149243000Y-111213750D01*
X149084250Y-111055000D01*
X148927458Y-111055000D01*
X148804777Y-111079403D01*
X148735000Y-111108305D01*
X148665223Y-111079403D01*
X148542542Y-111055000D01*
X148385750Y-111055000D01*
X148227000Y-111213750D01*
X147973000Y-111213750D01*
X147814250Y-111055000D01*
X147657458Y-111055000D01*
X147534777Y-111079403D01*
X147465000Y-111108305D01*
X147395223Y-111079403D01*
X147272542Y-111055000D01*
X147115750Y-111055000D01*
X146957000Y-111213750D01*
X146703000Y-111213750D01*
X146544250Y-111055000D01*
X146387458Y-111055000D01*
X146264777Y-111079403D01*
X146195000Y-111108305D01*
X146125223Y-111079403D01*
X146002542Y-111055000D01*
X145845750Y-111055000D01*
X145687000Y-111213750D01*
X145433000Y-111213750D01*
X145274250Y-111055000D01*
X145117458Y-111055000D01*
X144994777Y-111079403D01*
X144925000Y-111108305D01*
X144855223Y-111079403D01*
X144732542Y-111055000D01*
X144575750Y-111055000D01*
X144417000Y-111213750D01*
X144163000Y-111213750D01*
X144004250Y-111055000D01*
X143847458Y-111055000D01*
X143724777Y-111079403D01*
X143655000Y-111108305D01*
X143585223Y-111079403D01*
X143462542Y-111055000D01*
X143305750Y-111055000D01*
X143147000Y-111213750D01*
X142893000Y-111213750D01*
X142734250Y-111055000D01*
X142577458Y-111055000D01*
X142454777Y-111079403D01*
X142339215Y-111127270D01*
X142235211Y-111196763D01*
X142146763Y-111285211D01*
X142077270Y-111389215D01*
X142029403Y-111504777D01*
X142005000Y-111627458D01*
X141288072Y-111627458D01*
X141288072Y-111597975D01*
X141301900Y-111595224D01*
X141490258Y-111517203D01*
X141659776Y-111403935D01*
X141803939Y-111259772D01*
X141917207Y-111090254D01*
X141995228Y-110901896D01*
X142035002Y-110701937D01*
X142035002Y-110498059D01*
X141995228Y-110298100D01*
X141917207Y-110109742D01*
X141803939Y-109940224D01*
X141749465Y-109885750D01*
X150502500Y-109885750D01*
X150502500Y-110362542D01*
X150526903Y-110485223D01*
X150574770Y-110600785D01*
X150644263Y-110704789D01*
X150732711Y-110793237D01*
X150836715Y-110862730D01*
X150952277Y-110910597D01*
X151074958Y-110935000D01*
X151339250Y-110935000D01*
X151498000Y-110776250D01*
X151498000Y-109727000D01*
X150661250Y-109727000D01*
X150502500Y-109885750D01*
X141749465Y-109885750D01*
X141659776Y-109796061D01*
X141490258Y-109682793D01*
X141301900Y-109604772D01*
X141288072Y-109602021D01*
X141288072Y-109560000D01*
X147652678Y-109560000D01*
X147690000Y-109563676D01*
X147727322Y-109560000D01*
X147727333Y-109560000D01*
X147838986Y-109549003D01*
X147982247Y-109505546D01*
X148114276Y-109434974D01*
X148230001Y-109340001D01*
X148253804Y-109310997D01*
X148727343Y-108837458D01*
X150502500Y-108837458D01*
X150502500Y-109314250D01*
X150661250Y-109473000D01*
X151498000Y-109473000D01*
X151498000Y-108423750D01*
X151339250Y-108265000D01*
X151074958Y-108265000D01*
X150952277Y-108289403D01*
X150836715Y-108337270D01*
X150732711Y-108406763D01*
X150644263Y-108495211D01*
X150574770Y-108599215D01*
X150526903Y-108714777D01*
X150502500Y-108837458D01*
X148727343Y-108837458D01*
X149136717Y-108428084D01*
X149301898Y-108395228D01*
X149490256Y-108317207D01*
X149659774Y-108203939D01*
X149803937Y-108059776D01*
X149917205Y-107890258D01*
X149995226Y-107701900D01*
X150035000Y-107501941D01*
X150035000Y-107488102D01*
X150075546Y-107412247D01*
X150103147Y-107321257D01*
X150104494Y-107320537D01*
X150201185Y-107241185D01*
X150280537Y-107144494D01*
X150339502Y-107034180D01*
X150375812Y-106914482D01*
X150388072Y-106790000D01*
X150388072Y-105540000D01*
X150382301Y-105481400D01*
X150503927Y-105359774D01*
X150617195Y-105190256D01*
X150695216Y-105001898D01*
X150734990Y-104801939D01*
X150734990Y-104598061D01*
X150725688Y-104551298D01*
X150748986Y-104549003D01*
X150892247Y-104505546D01*
X151024276Y-104434974D01*
X151140001Y-104340001D01*
X151163804Y-104310997D01*
X151610997Y-103863804D01*
X151640001Y-103840001D01*
X151734974Y-103724276D01*
X151743304Y-103708691D01*
X151798633Y-103764020D01*
X151736487Y-103968889D01*
X151707815Y-104260000D01*
X151736487Y-104551111D01*
X151821401Y-104831034D01*
X151959294Y-105089014D01*
X152144866Y-105315134D01*
X152172553Y-105337856D01*
X152164777Y-105339403D01*
X152049215Y-105387270D01*
X151945211Y-105456763D01*
X151856763Y-105545211D01*
X151787270Y-105649215D01*
X151739403Y-105764777D01*
X151715000Y-105887458D01*
X151715000Y-106514250D01*
X151873750Y-106673000D01*
X153073000Y-106673000D01*
X153073000Y-106653000D01*
X153327000Y-106653000D01*
X153327000Y-106673000D01*
X153347000Y-106673000D01*
X153347000Y-106927000D01*
X153327000Y-106927000D01*
X153327000Y-106947000D01*
X153073000Y-106947000D01*
X153073000Y-106927000D01*
X151873750Y-106927000D01*
X151715000Y-107085750D01*
X151715000Y-107712542D01*
X151739403Y-107835223D01*
X151787270Y-107950785D01*
X151856763Y-108054789D01*
X151945211Y-108143237D01*
X152049215Y-108212730D01*
X152164777Y-108260597D01*
X152287458Y-108285000D01*
X152914250Y-108285000D01*
X153072998Y-108126252D01*
X153072998Y-108215424D01*
X152977038Y-108311384D01*
X152918791Y-108329053D01*
X152766336Y-108410542D01*
X152632708Y-108520208D01*
X152627048Y-108527105D01*
X152605737Y-108495211D01*
X152517289Y-108406763D01*
X152413285Y-108337270D01*
X152297723Y-108289403D01*
X152175042Y-108265000D01*
X151910750Y-108265000D01*
X151752000Y-108423750D01*
X151752000Y-109473000D01*
X151772000Y-109473000D01*
X151772000Y-109727000D01*
X151752000Y-109727000D01*
X151752000Y-110776250D01*
X151910750Y-110935000D01*
X152175042Y-110935000D01*
X152297723Y-110910597D01*
X152413285Y-110862730D01*
X152517289Y-110793237D01*
X152605737Y-110704789D01*
X152627048Y-110672895D01*
X152632708Y-110679792D01*
X152766336Y-110789458D01*
X152918791Y-110870947D01*
X153084215Y-110921128D01*
X153256250Y-110938072D01*
X153743750Y-110938072D01*
X153915785Y-110921128D01*
X154081209Y-110870947D01*
X154233664Y-110789458D01*
X154367292Y-110679792D01*
X154476958Y-110546164D01*
X154558447Y-110393709D01*
X154608628Y-110228285D01*
X154625572Y-110056250D01*
X154625572Y-109166006D01*
X155520967Y-108270612D01*
X155667050Y-108285000D01*
X155812950Y-108285000D01*
X156031111Y-108263513D01*
X156311034Y-108178599D01*
X156569014Y-108040706D01*
X156795134Y-107855134D01*
X156980706Y-107629014D01*
X157118599Y-107371034D01*
X157203513Y-107091111D01*
X157232185Y-106800000D01*
X157203513Y-106508889D01*
X157118599Y-106228966D01*
X156980706Y-105970986D01*
X156795134Y-105744866D01*
X156569014Y-105559294D01*
X156514209Y-105530000D01*
X156569014Y-105500706D01*
X156795134Y-105315134D01*
X156980706Y-105089014D01*
X157118599Y-104831034D01*
X157203513Y-104551111D01*
X157232185Y-104260000D01*
X157203513Y-103968889D01*
X157118599Y-103688966D01*
X156980706Y-103430986D01*
X156795134Y-103204866D01*
X156569014Y-103019294D01*
X156514209Y-102990000D01*
X156569014Y-102960706D01*
X156795134Y-102775134D01*
X156980706Y-102549014D01*
X157118599Y-102291034D01*
X157203513Y-102011111D01*
X157232185Y-101720000D01*
X157203513Y-101428889D01*
X157118599Y-101148966D01*
X156980706Y-100890986D01*
X156795134Y-100664866D01*
X156569014Y-100479294D01*
X156514209Y-100450000D01*
X156569014Y-100420706D01*
X156795134Y-100235134D01*
X156980706Y-100009014D01*
X157118599Y-99751034D01*
X157203513Y-99471111D01*
X157232185Y-99180000D01*
X157203513Y-98888889D01*
X157118599Y-98608966D01*
X156980706Y-98350986D01*
X156795134Y-98124866D01*
X156569014Y-97939294D01*
X156514209Y-97910000D01*
X156569014Y-97880706D01*
X156795134Y-97695134D01*
X156980706Y-97469014D01*
X157118599Y-97211034D01*
X157203513Y-96931111D01*
X157232185Y-96640000D01*
X157203513Y-96348889D01*
X157118599Y-96068966D01*
X156980706Y-95810986D01*
X156795134Y-95584866D01*
X156569014Y-95399294D01*
X156514209Y-95370000D01*
X156569014Y-95340706D01*
X156795134Y-95155134D01*
X156980706Y-94929014D01*
X157118599Y-94671034D01*
X157203513Y-94391111D01*
X157232185Y-94100000D01*
X157203513Y-93808889D01*
X157118599Y-93528966D01*
X156980706Y-93270986D01*
X156795134Y-93044866D01*
X156569014Y-92859294D01*
X156514209Y-92830000D01*
X156569014Y-92800706D01*
X156795134Y-92615134D01*
X156980706Y-92389014D01*
X157118599Y-92131034D01*
X157203513Y-91851111D01*
X157232185Y-91560000D01*
X157203513Y-91268889D01*
X157118599Y-90988966D01*
X156980706Y-90730986D01*
X156795134Y-90504866D01*
X156569014Y-90319294D01*
X156311034Y-90181401D01*
X156031111Y-90096487D01*
X155812950Y-90075000D01*
X155667050Y-90075000D01*
X155448889Y-90096487D01*
X155168966Y-90181401D01*
X154910986Y-90319294D01*
X154684866Y-90504866D01*
X154499294Y-90730986D01*
X154470000Y-90785791D01*
X154440706Y-90730986D01*
X154255134Y-90504866D01*
X154029014Y-90319294D01*
X153771034Y-90181401D01*
X153491111Y-90096487D01*
X153272950Y-90075000D01*
X153127050Y-90075000D01*
X152908889Y-90096487D01*
X152628966Y-90181401D01*
X152370986Y-90319294D01*
X152144866Y-90504866D01*
X151959294Y-90730986D01*
X151821401Y-90988966D01*
X151736487Y-91268889D01*
X151707815Y-91560000D01*
X151736487Y-91851111D01*
X151821401Y-92131034D01*
X151835058Y-92156585D01*
X151725723Y-92215026D01*
X151683109Y-92249999D01*
X151609999Y-92309999D01*
X151586201Y-92338997D01*
X150285199Y-93640000D01*
X143937034Y-93640000D01*
X143959004Y-93567572D01*
X143970001Y-93455919D01*
X143970001Y-93455909D01*
X143973677Y-93418586D01*
X143970001Y-93381263D01*
X143970001Y-92883321D01*
X143987050Y-92885000D01*
X144132950Y-92885000D01*
X144351111Y-92863513D01*
X144631034Y-92778599D01*
X144889014Y-92640706D01*
X145115134Y-92455134D01*
X145137856Y-92427447D01*
X145139403Y-92435223D01*
X145187270Y-92550785D01*
X145256763Y-92654789D01*
X145345211Y-92743237D01*
X145449215Y-92812730D01*
X145564777Y-92860597D01*
X145687458Y-92885000D01*
X146314250Y-92885000D01*
X146473000Y-92726250D01*
X146473000Y-91527000D01*
X146727000Y-91527000D01*
X146727000Y-92726250D01*
X146885750Y-92885000D01*
X147512542Y-92885000D01*
X147635223Y-92860597D01*
X147750785Y-92812730D01*
X147854789Y-92743237D01*
X147943237Y-92654789D01*
X148012730Y-92550785D01*
X148060597Y-92435223D01*
X148085000Y-92312542D01*
X148085000Y-91685750D01*
X147926250Y-91527000D01*
X146727000Y-91527000D01*
X146473000Y-91527000D01*
X146453000Y-91527000D01*
X146453000Y-91423250D01*
X148265000Y-91423250D01*
X148265000Y-91687542D01*
X148289403Y-91810223D01*
X148337270Y-91925785D01*
X148406763Y-92029789D01*
X148495211Y-92118237D01*
X148599215Y-92187730D01*
X148714777Y-92235597D01*
X148837458Y-92260000D01*
X149314250Y-92260000D01*
X149473000Y-92101250D01*
X149473000Y-91264500D01*
X149727000Y-91264500D01*
X149727000Y-92101250D01*
X149885750Y-92260000D01*
X150362542Y-92260000D01*
X150485223Y-92235597D01*
X150600785Y-92187730D01*
X150704789Y-92118237D01*
X150793237Y-92029789D01*
X150862730Y-91925785D01*
X150910597Y-91810223D01*
X150935000Y-91687542D01*
X150935000Y-91423250D01*
X150776250Y-91264500D01*
X149727000Y-91264500D01*
X149473000Y-91264500D01*
X148423750Y-91264500D01*
X148265000Y-91423250D01*
X146453000Y-91423250D01*
X146453000Y-91273000D01*
X146473000Y-91273000D01*
X146473000Y-91253000D01*
X146727000Y-91253000D01*
X146727000Y-91273000D01*
X147926250Y-91273000D01*
X148085000Y-91114250D01*
X148085000Y-90487458D01*
X148060597Y-90364777D01*
X148012730Y-90249215D01*
X147943237Y-90145211D01*
X147854789Y-90056763D01*
X147750785Y-89987270D01*
X147635223Y-89939403D01*
X147627447Y-89937856D01*
X147655134Y-89915134D01*
X147794759Y-89745000D01*
X148299110Y-89745000D01*
X148329053Y-89843709D01*
X148410542Y-89996164D01*
X148520208Y-90129792D01*
X148527105Y-90135452D01*
X148495211Y-90156763D01*
X148406763Y-90245211D01*
X148337270Y-90349215D01*
X148289403Y-90464777D01*
X148265000Y-90587458D01*
X148265000Y-90851750D01*
X148423750Y-91010500D01*
X149473000Y-91010500D01*
X149473000Y-90990500D01*
X149727000Y-90990500D01*
X149727000Y-91010500D01*
X150776250Y-91010500D01*
X150935000Y-90851750D01*
X150935000Y-90587458D01*
X150910597Y-90464777D01*
X150862730Y-90349215D01*
X150793237Y-90245211D01*
X150704789Y-90156763D01*
X150672895Y-90135452D01*
X150679792Y-90129792D01*
X150789458Y-89996164D01*
X150870947Y-89843709D01*
X150921128Y-89678285D01*
X150938072Y-89506250D01*
X150938072Y-89018750D01*
X150921128Y-88846715D01*
X150870947Y-88681291D01*
X150789458Y-88528836D01*
X150679792Y-88395208D01*
X150546164Y-88285542D01*
X150393709Y-88204053D01*
X150228285Y-88153872D01*
X150056250Y-88136928D01*
X149711468Y-88136928D01*
X149691559Y-88120589D01*
X149537813Y-88038411D01*
X149452094Y-88012408D01*
X151253000Y-88012408D01*
X151253000Y-88287592D01*
X151306686Y-88557490D01*
X151411995Y-88811727D01*
X151564880Y-89040535D01*
X151759465Y-89235120D01*
X151988273Y-89388005D01*
X152242510Y-89493314D01*
X152512408Y-89547000D01*
X152787592Y-89547000D01*
X153057490Y-89493314D01*
X153311727Y-89388005D01*
X153540535Y-89235120D01*
X153735120Y-89040535D01*
X153888005Y-88811727D01*
X153993314Y-88557490D01*
X154047000Y-88287592D01*
X154047000Y-88012408D01*
X153993314Y-87742510D01*
X153888005Y-87488273D01*
X153735120Y-87259465D01*
X153540535Y-87064880D01*
X153311727Y-86911995D01*
X153057490Y-86806686D01*
X152787592Y-86753000D01*
X152512408Y-86753000D01*
X152242510Y-86806686D01*
X151988273Y-86911995D01*
X151759465Y-87064880D01*
X151564880Y-87259465D01*
X151411995Y-87488273D01*
X151306686Y-87742510D01*
X151253000Y-88012408D01*
X149452094Y-88012408D01*
X149370990Y-87987805D01*
X149240977Y-87975000D01*
X149240969Y-87975000D01*
X149197500Y-87970719D01*
X149154031Y-87975000D01*
X147794759Y-87975000D01*
X147655134Y-87804866D01*
X147429014Y-87619294D01*
X147171034Y-87481401D01*
X146891111Y-87396487D01*
X146672950Y-87375000D01*
X146527050Y-87375000D01*
X146308889Y-87396487D01*
X146028966Y-87481401D01*
X145770986Y-87619294D01*
X145544866Y-87804866D01*
X145359294Y-88030986D01*
X145330000Y-88085791D01*
X145300706Y-88030986D01*
X145115134Y-87804866D01*
X144889014Y-87619294D01*
X144631034Y-87481401D01*
X144351111Y-87396487D01*
X144132950Y-87375000D01*
X143987050Y-87375000D01*
X143768889Y-87396487D01*
X143488966Y-87481401D01*
X143230986Y-87619294D01*
X143004866Y-87804866D01*
X142819294Y-88030986D01*
X142790000Y-88085791D01*
X142760706Y-88030986D01*
X142575134Y-87804866D01*
X142349014Y-87619294D01*
X142091034Y-87481401D01*
X141811111Y-87396487D01*
X141592950Y-87375000D01*
X141447050Y-87375000D01*
X141228889Y-87396487D01*
X140948966Y-87481401D01*
X140690986Y-87619294D01*
X140464866Y-87804866D01*
X140279294Y-88030986D01*
X140250000Y-88085791D01*
X140220706Y-88030986D01*
X140035134Y-87804866D01*
X139809014Y-87619294D01*
X139551034Y-87481401D01*
X139271111Y-87396487D01*
X139052950Y-87375000D01*
X138907050Y-87375000D01*
X138688889Y-87396487D01*
X138408966Y-87481401D01*
X138150986Y-87619294D01*
X137924866Y-87804866D01*
X137739294Y-88030986D01*
X137601401Y-88288966D01*
X137516487Y-88568889D01*
X137487815Y-88860000D01*
X137516487Y-89151111D01*
X137539203Y-89225996D01*
X137293997Y-89471202D01*
X137264999Y-89495000D01*
X137241201Y-89523998D01*
X137241200Y-89523999D01*
X137170025Y-89610725D01*
X137099453Y-89742755D01*
X137055997Y-89886016D01*
X137041323Y-90035001D01*
X137045000Y-90072333D01*
X137044999Y-95332181D01*
X137041323Y-95369504D01*
X137044999Y-95406826D01*
X137044999Y-95406836D01*
X137055996Y-95518489D01*
X137092453Y-95638674D01*
X137099453Y-95661750D01*
X137170025Y-95793780D01*
X137195053Y-95824276D01*
X137264998Y-95909505D01*
X137294002Y-95933308D01*
X137592755Y-96232061D01*
X137542931Y-96232061D01*
X137342972Y-96271835D01*
X137154614Y-96349856D01*
X136985096Y-96463124D01*
X136940012Y-96508208D01*
X136776949Y-96475773D01*
X136573071Y-96475773D01*
X136373112Y-96515547D01*
X136184754Y-96593568D01*
X136015236Y-96706836D01*
X135871073Y-96850999D01*
X135757805Y-97020517D01*
X135679784Y-97208875D01*
X135640010Y-97408834D01*
X135640010Y-97612712D01*
X135679784Y-97812671D01*
X135721676Y-97913807D01*
X135601939Y-97889990D01*
X135398061Y-97889990D01*
X135198102Y-97929764D01*
X135009744Y-98007785D01*
X134840226Y-98121053D01*
X134696063Y-98265216D01*
X134663521Y-98313919D01*
X134570155Y-98137000D01*
X133377000Y-98137000D01*
X133377000Y-98157000D01*
X133123000Y-98157000D01*
X133123000Y-98137000D01*
X133103000Y-98137000D01*
X133103000Y-97883000D01*
X133123000Y-97883000D01*
X133123000Y-97863000D01*
X133377000Y-97863000D01*
X133377000Y-97883000D01*
X134570155Y-97883000D01*
X134691476Y-97653110D01*
X134646825Y-97505901D01*
X134521641Y-97243080D01*
X134347588Y-97009731D01*
X134131355Y-96814822D01*
X134014477Y-96745201D01*
X134079014Y-96710706D01*
X134305134Y-96525134D01*
X134490706Y-96299014D01*
X134628599Y-96041034D01*
X134713513Y-95761111D01*
X134742185Y-95470000D01*
X134713513Y-95178889D01*
X134628599Y-94898966D01*
X134490706Y-94640986D01*
X134305134Y-94414866D01*
X134079014Y-94229294D01*
X134024209Y-94200000D01*
X134079014Y-94170706D01*
X134305134Y-93985134D01*
X134490706Y-93759014D01*
X134628599Y-93501034D01*
X134713513Y-93221111D01*
X134742185Y-92930000D01*
X134713513Y-92638889D01*
X134628599Y-92358966D01*
X134490706Y-92100986D01*
X134305134Y-91874866D01*
X134079014Y-91689294D01*
X134024209Y-91660000D01*
X134079014Y-91630706D01*
X134305134Y-91445134D01*
X134490706Y-91219014D01*
X134628599Y-90961034D01*
X134713513Y-90681111D01*
X134742185Y-90390000D01*
X134713513Y-90098889D01*
X134628599Y-89818966D01*
X134490706Y-89560986D01*
X134305134Y-89334866D01*
X134275313Y-89310393D01*
X134344180Y-89289502D01*
X134454494Y-89230537D01*
X134551185Y-89151185D01*
X134630537Y-89054494D01*
X134689502Y-88944180D01*
X134725812Y-88824482D01*
X134738072Y-88700000D01*
X134738072Y-87000000D01*
X134725812Y-86875518D01*
X134689502Y-86755820D01*
X134630537Y-86645506D01*
X134551185Y-86548815D01*
X134454494Y-86469463D01*
X134344180Y-86410498D01*
X134224482Y-86374188D01*
X134100000Y-86361928D01*
X132805309Y-86361928D01*
X132901988Y-86268239D01*
X133534639Y-85843116D01*
X134232561Y-85536749D01*
X134979183Y-85357501D01*
X135626030Y-85310000D01*
X154768382Y-85310000D01*
X155559192Y-85380578D01*
G36*
X141127000Y-102873000D02*
X141147000Y-102873000D01*
X141147000Y-103127000D01*
X141127000Y-103127000D01*
X141127000Y-103147000D01*
X140873000Y-103147000D01*
X140873000Y-103127000D01*
X140853000Y-103127000D01*
X140853000Y-102873000D01*
X140873000Y-102873000D01*
X140873000Y-102860000D01*
X141127000Y-102860000D01*
X141127000Y-102873000D01*
X141127000Y-102873000D01*
G37*
X141127000Y-102873000D02*
X141147000Y-102873000D01*
X141147000Y-103127000D01*
X141127000Y-103127000D01*
X141127000Y-103147000D01*
X140873000Y-103147000D01*
X140873000Y-103127000D01*
X140853000Y-103127000D01*
X140853000Y-102873000D01*
X140873000Y-102873000D01*
X140873000Y-102860000D01*
X141127000Y-102860000D01*
X141127000Y-102873000D01*
G04 #@! TD*
M02*
