G04 #@! TF.GenerationSoftware,KiCad,Pcbnew,5.0.0-5.0.0*
G04 #@! TF.CreationDate,2018-10-11T16:36:41-07:00*
G04 #@! TF.ProjectId,gpio-expander,6770696F2D657870616E6465722E6B69,rev?*
G04 #@! TF.SameCoordinates,Original*
G04 #@! TF.FileFunction,Paste,Top*
G04 #@! TF.FilePolarity,Positive*
%FSLAX46Y46*%
G04 Gerber Fmt 4.6, Leading zero omitted, Abs format (unit mm)*
G04 Created by KiCad (PCBNEW 5.0.0-5.0.0) date Thu Oct 11 16:36:41 2018*
%MOMM*%
%LPD*%
G01*
G04 APERTURE LIST*
%ADD10R,0.400000X0.900000*%
%ADD11R,1.100000X0.400000*%
%ADD12R,0.760000X1.250000*%
%ADD13C,0.100000*%
%ADD14C,0.975000*%
%ADD15C,0.875000*%
%ADD16R,0.800000X0.500000*%
%ADD17R,0.800000X0.400000*%
G04 APERTURE END LIST*
D10*
G04 #@! TO.C,RN1*
X140850000Y-104900000D03*
X140050000Y-104900000D03*
X140050000Y-106600000D03*
X140850000Y-106600000D03*
G04 #@! TD*
D11*
G04 #@! TO.C,U1*
X148850000Y-102750000D03*
X148850000Y-102100000D03*
X148850000Y-101450000D03*
X148850000Y-100800000D03*
X148850000Y-100150000D03*
X148850000Y-99500000D03*
X148850000Y-98850000D03*
X148850000Y-98200000D03*
X148850000Y-97550000D03*
X148850000Y-96900000D03*
X148850000Y-96250000D03*
X148850000Y-95600000D03*
X143150000Y-95600000D03*
X143150000Y-96250000D03*
X143150000Y-96900000D03*
X143150000Y-97550000D03*
X143150000Y-98200000D03*
X143150000Y-98850000D03*
X143150000Y-99500000D03*
X143150000Y-100150000D03*
X143150000Y-100800000D03*
X143150000Y-101450000D03*
X143150000Y-102100000D03*
X143150000Y-102750000D03*
G04 #@! TD*
D12*
G04 #@! TO.C,SW1*
X143020000Y-106165000D03*
X143020000Y-112315000D03*
X144290000Y-106165000D03*
X144290000Y-112315000D03*
X145560000Y-106165000D03*
X145560000Y-112315000D03*
X146830000Y-106165000D03*
X146830000Y-112315000D03*
X148100000Y-106165000D03*
X148100000Y-112315000D03*
X149370000Y-106165000D03*
X149370000Y-112315000D03*
G04 #@! TD*
D13*
G04 #@! TO.C,C4*
G36*
X150080142Y-88776174D02*
X150103803Y-88779684D01*
X150127007Y-88785496D01*
X150149529Y-88793554D01*
X150171153Y-88803782D01*
X150191670Y-88816079D01*
X150210883Y-88830329D01*
X150228607Y-88846393D01*
X150244671Y-88864117D01*
X150258921Y-88883330D01*
X150271218Y-88903847D01*
X150281446Y-88925471D01*
X150289504Y-88947993D01*
X150295316Y-88971197D01*
X150298826Y-88994858D01*
X150300000Y-89018750D01*
X150300000Y-89506250D01*
X150298826Y-89530142D01*
X150295316Y-89553803D01*
X150289504Y-89577007D01*
X150281446Y-89599529D01*
X150271218Y-89621153D01*
X150258921Y-89641670D01*
X150244671Y-89660883D01*
X150228607Y-89678607D01*
X150210883Y-89694671D01*
X150191670Y-89708921D01*
X150171153Y-89721218D01*
X150149529Y-89731446D01*
X150127007Y-89739504D01*
X150103803Y-89745316D01*
X150080142Y-89748826D01*
X150056250Y-89750000D01*
X149143750Y-89750000D01*
X149119858Y-89748826D01*
X149096197Y-89745316D01*
X149072993Y-89739504D01*
X149050471Y-89731446D01*
X149028847Y-89721218D01*
X149008330Y-89708921D01*
X148989117Y-89694671D01*
X148971393Y-89678607D01*
X148955329Y-89660883D01*
X148941079Y-89641670D01*
X148928782Y-89621153D01*
X148918554Y-89599529D01*
X148910496Y-89577007D01*
X148904684Y-89553803D01*
X148901174Y-89530142D01*
X148900000Y-89506250D01*
X148900000Y-89018750D01*
X148901174Y-88994858D01*
X148904684Y-88971197D01*
X148910496Y-88947993D01*
X148918554Y-88925471D01*
X148928782Y-88903847D01*
X148941079Y-88883330D01*
X148955329Y-88864117D01*
X148971393Y-88846393D01*
X148989117Y-88830329D01*
X149008330Y-88816079D01*
X149028847Y-88803782D01*
X149050471Y-88793554D01*
X149072993Y-88785496D01*
X149096197Y-88779684D01*
X149119858Y-88776174D01*
X149143750Y-88775000D01*
X150056250Y-88775000D01*
X150080142Y-88776174D01*
X150080142Y-88776174D01*
G37*
D14*
X149600000Y-89262500D03*
D13*
G36*
X150080142Y-90651174D02*
X150103803Y-90654684D01*
X150127007Y-90660496D01*
X150149529Y-90668554D01*
X150171153Y-90678782D01*
X150191670Y-90691079D01*
X150210883Y-90705329D01*
X150228607Y-90721393D01*
X150244671Y-90739117D01*
X150258921Y-90758330D01*
X150271218Y-90778847D01*
X150281446Y-90800471D01*
X150289504Y-90822993D01*
X150295316Y-90846197D01*
X150298826Y-90869858D01*
X150300000Y-90893750D01*
X150300000Y-91381250D01*
X150298826Y-91405142D01*
X150295316Y-91428803D01*
X150289504Y-91452007D01*
X150281446Y-91474529D01*
X150271218Y-91496153D01*
X150258921Y-91516670D01*
X150244671Y-91535883D01*
X150228607Y-91553607D01*
X150210883Y-91569671D01*
X150191670Y-91583921D01*
X150171153Y-91596218D01*
X150149529Y-91606446D01*
X150127007Y-91614504D01*
X150103803Y-91620316D01*
X150080142Y-91623826D01*
X150056250Y-91625000D01*
X149143750Y-91625000D01*
X149119858Y-91623826D01*
X149096197Y-91620316D01*
X149072993Y-91614504D01*
X149050471Y-91606446D01*
X149028847Y-91596218D01*
X149008330Y-91583921D01*
X148989117Y-91569671D01*
X148971393Y-91553607D01*
X148955329Y-91535883D01*
X148941079Y-91516670D01*
X148928782Y-91496153D01*
X148918554Y-91474529D01*
X148910496Y-91452007D01*
X148904684Y-91428803D01*
X148901174Y-91405142D01*
X148900000Y-91381250D01*
X148900000Y-90893750D01*
X148901174Y-90869858D01*
X148904684Y-90846197D01*
X148910496Y-90822993D01*
X148918554Y-90800471D01*
X148928782Y-90778847D01*
X148941079Y-90758330D01*
X148955329Y-90739117D01*
X148971393Y-90721393D01*
X148989117Y-90705329D01*
X149008330Y-90691079D01*
X149028847Y-90678782D01*
X149050471Y-90668554D01*
X149072993Y-90660496D01*
X149096197Y-90654684D01*
X149119858Y-90651174D01*
X149143750Y-90650000D01*
X150056250Y-90650000D01*
X150080142Y-90651174D01*
X150080142Y-90651174D01*
G37*
D14*
X149600000Y-91137500D03*
G04 #@! TD*
D13*
G04 #@! TO.C,C3*
G36*
X136780142Y-101551174D02*
X136803803Y-101554684D01*
X136827007Y-101560496D01*
X136849529Y-101568554D01*
X136871153Y-101578782D01*
X136891670Y-101591079D01*
X136910883Y-101605329D01*
X136928607Y-101621393D01*
X136944671Y-101639117D01*
X136958921Y-101658330D01*
X136971218Y-101678847D01*
X136981446Y-101700471D01*
X136989504Y-101722993D01*
X136995316Y-101746197D01*
X136998826Y-101769858D01*
X137000000Y-101793750D01*
X137000000Y-102706250D01*
X136998826Y-102730142D01*
X136995316Y-102753803D01*
X136989504Y-102777007D01*
X136981446Y-102799529D01*
X136971218Y-102821153D01*
X136958921Y-102841670D01*
X136944671Y-102860883D01*
X136928607Y-102878607D01*
X136910883Y-102894671D01*
X136891670Y-102908921D01*
X136871153Y-102921218D01*
X136849529Y-102931446D01*
X136827007Y-102939504D01*
X136803803Y-102945316D01*
X136780142Y-102948826D01*
X136756250Y-102950000D01*
X136268750Y-102950000D01*
X136244858Y-102948826D01*
X136221197Y-102945316D01*
X136197993Y-102939504D01*
X136175471Y-102931446D01*
X136153847Y-102921218D01*
X136133330Y-102908921D01*
X136114117Y-102894671D01*
X136096393Y-102878607D01*
X136080329Y-102860883D01*
X136066079Y-102841670D01*
X136053782Y-102821153D01*
X136043554Y-102799529D01*
X136035496Y-102777007D01*
X136029684Y-102753803D01*
X136026174Y-102730142D01*
X136025000Y-102706250D01*
X136025000Y-101793750D01*
X136026174Y-101769858D01*
X136029684Y-101746197D01*
X136035496Y-101722993D01*
X136043554Y-101700471D01*
X136053782Y-101678847D01*
X136066079Y-101658330D01*
X136080329Y-101639117D01*
X136096393Y-101621393D01*
X136114117Y-101605329D01*
X136133330Y-101591079D01*
X136153847Y-101578782D01*
X136175471Y-101568554D01*
X136197993Y-101560496D01*
X136221197Y-101554684D01*
X136244858Y-101551174D01*
X136268750Y-101550000D01*
X136756250Y-101550000D01*
X136780142Y-101551174D01*
X136780142Y-101551174D01*
G37*
D14*
X136512500Y-102250000D03*
D13*
G36*
X138655142Y-101551174D02*
X138678803Y-101554684D01*
X138702007Y-101560496D01*
X138724529Y-101568554D01*
X138746153Y-101578782D01*
X138766670Y-101591079D01*
X138785883Y-101605329D01*
X138803607Y-101621393D01*
X138819671Y-101639117D01*
X138833921Y-101658330D01*
X138846218Y-101678847D01*
X138856446Y-101700471D01*
X138864504Y-101722993D01*
X138870316Y-101746197D01*
X138873826Y-101769858D01*
X138875000Y-101793750D01*
X138875000Y-102706250D01*
X138873826Y-102730142D01*
X138870316Y-102753803D01*
X138864504Y-102777007D01*
X138856446Y-102799529D01*
X138846218Y-102821153D01*
X138833921Y-102841670D01*
X138819671Y-102860883D01*
X138803607Y-102878607D01*
X138785883Y-102894671D01*
X138766670Y-102908921D01*
X138746153Y-102921218D01*
X138724529Y-102931446D01*
X138702007Y-102939504D01*
X138678803Y-102945316D01*
X138655142Y-102948826D01*
X138631250Y-102950000D01*
X138143750Y-102950000D01*
X138119858Y-102948826D01*
X138096197Y-102945316D01*
X138072993Y-102939504D01*
X138050471Y-102931446D01*
X138028847Y-102921218D01*
X138008330Y-102908921D01*
X137989117Y-102894671D01*
X137971393Y-102878607D01*
X137955329Y-102860883D01*
X137941079Y-102841670D01*
X137928782Y-102821153D01*
X137918554Y-102799529D01*
X137910496Y-102777007D01*
X137904684Y-102753803D01*
X137901174Y-102730142D01*
X137900000Y-102706250D01*
X137900000Y-101793750D01*
X137901174Y-101769858D01*
X137904684Y-101746197D01*
X137910496Y-101722993D01*
X137918554Y-101700471D01*
X137928782Y-101678847D01*
X137941079Y-101658330D01*
X137955329Y-101639117D01*
X137971393Y-101621393D01*
X137989117Y-101605329D01*
X138008330Y-101591079D01*
X138028847Y-101578782D01*
X138050471Y-101568554D01*
X138072993Y-101560496D01*
X138096197Y-101554684D01*
X138119858Y-101551174D01*
X138143750Y-101550000D01*
X138631250Y-101550000D01*
X138655142Y-101551174D01*
X138655142Y-101551174D01*
G37*
D14*
X138387500Y-102250000D03*
G04 #@! TD*
D13*
G04 #@! TO.C,C1*
G36*
X136652691Y-100076053D02*
X136673926Y-100079203D01*
X136694750Y-100084419D01*
X136714962Y-100091651D01*
X136734368Y-100100830D01*
X136752781Y-100111866D01*
X136770024Y-100124654D01*
X136785930Y-100139070D01*
X136800346Y-100154976D01*
X136813134Y-100172219D01*
X136824170Y-100190632D01*
X136833349Y-100210038D01*
X136840581Y-100230250D01*
X136845797Y-100251074D01*
X136848947Y-100272309D01*
X136850000Y-100293750D01*
X136850000Y-100806250D01*
X136848947Y-100827691D01*
X136845797Y-100848926D01*
X136840581Y-100869750D01*
X136833349Y-100889962D01*
X136824170Y-100909368D01*
X136813134Y-100927781D01*
X136800346Y-100945024D01*
X136785930Y-100960930D01*
X136770024Y-100975346D01*
X136752781Y-100988134D01*
X136734368Y-100999170D01*
X136714962Y-101008349D01*
X136694750Y-101015581D01*
X136673926Y-101020797D01*
X136652691Y-101023947D01*
X136631250Y-101025000D01*
X136193750Y-101025000D01*
X136172309Y-101023947D01*
X136151074Y-101020797D01*
X136130250Y-101015581D01*
X136110038Y-101008349D01*
X136090632Y-100999170D01*
X136072219Y-100988134D01*
X136054976Y-100975346D01*
X136039070Y-100960930D01*
X136024654Y-100945024D01*
X136011866Y-100927781D01*
X136000830Y-100909368D01*
X135991651Y-100889962D01*
X135984419Y-100869750D01*
X135979203Y-100848926D01*
X135976053Y-100827691D01*
X135975000Y-100806250D01*
X135975000Y-100293750D01*
X135976053Y-100272309D01*
X135979203Y-100251074D01*
X135984419Y-100230250D01*
X135991651Y-100210038D01*
X136000830Y-100190632D01*
X136011866Y-100172219D01*
X136024654Y-100154976D01*
X136039070Y-100139070D01*
X136054976Y-100124654D01*
X136072219Y-100111866D01*
X136090632Y-100100830D01*
X136110038Y-100091651D01*
X136130250Y-100084419D01*
X136151074Y-100079203D01*
X136172309Y-100076053D01*
X136193750Y-100075000D01*
X136631250Y-100075000D01*
X136652691Y-100076053D01*
X136652691Y-100076053D01*
G37*
D15*
X136412500Y-100550000D03*
D13*
G36*
X138227691Y-100076053D02*
X138248926Y-100079203D01*
X138269750Y-100084419D01*
X138289962Y-100091651D01*
X138309368Y-100100830D01*
X138327781Y-100111866D01*
X138345024Y-100124654D01*
X138360930Y-100139070D01*
X138375346Y-100154976D01*
X138388134Y-100172219D01*
X138399170Y-100190632D01*
X138408349Y-100210038D01*
X138415581Y-100230250D01*
X138420797Y-100251074D01*
X138423947Y-100272309D01*
X138425000Y-100293750D01*
X138425000Y-100806250D01*
X138423947Y-100827691D01*
X138420797Y-100848926D01*
X138415581Y-100869750D01*
X138408349Y-100889962D01*
X138399170Y-100909368D01*
X138388134Y-100927781D01*
X138375346Y-100945024D01*
X138360930Y-100960930D01*
X138345024Y-100975346D01*
X138327781Y-100988134D01*
X138309368Y-100999170D01*
X138289962Y-101008349D01*
X138269750Y-101015581D01*
X138248926Y-101020797D01*
X138227691Y-101023947D01*
X138206250Y-101025000D01*
X137768750Y-101025000D01*
X137747309Y-101023947D01*
X137726074Y-101020797D01*
X137705250Y-101015581D01*
X137685038Y-101008349D01*
X137665632Y-100999170D01*
X137647219Y-100988134D01*
X137629976Y-100975346D01*
X137614070Y-100960930D01*
X137599654Y-100945024D01*
X137586866Y-100927781D01*
X137575830Y-100909368D01*
X137566651Y-100889962D01*
X137559419Y-100869750D01*
X137554203Y-100848926D01*
X137551053Y-100827691D01*
X137550000Y-100806250D01*
X137550000Y-100293750D01*
X137551053Y-100272309D01*
X137554203Y-100251074D01*
X137559419Y-100230250D01*
X137566651Y-100210038D01*
X137575830Y-100190632D01*
X137586866Y-100172219D01*
X137599654Y-100154976D01*
X137614070Y-100139070D01*
X137629976Y-100124654D01*
X137647219Y-100111866D01*
X137665632Y-100100830D01*
X137685038Y-100091651D01*
X137705250Y-100084419D01*
X137726074Y-100079203D01*
X137747309Y-100076053D01*
X137768750Y-100075000D01*
X138206250Y-100075000D01*
X138227691Y-100076053D01*
X138227691Y-100076053D01*
G37*
D15*
X137987500Y-100550000D03*
G04 #@! TD*
D13*
G04 #@! TO.C,C2*
G36*
X153755142Y-108851174D02*
X153778803Y-108854684D01*
X153802007Y-108860496D01*
X153824529Y-108868554D01*
X153846153Y-108878782D01*
X153866670Y-108891079D01*
X153885883Y-108905329D01*
X153903607Y-108921393D01*
X153919671Y-108939117D01*
X153933921Y-108958330D01*
X153946218Y-108978847D01*
X153956446Y-109000471D01*
X153964504Y-109022993D01*
X153970316Y-109046197D01*
X153973826Y-109069858D01*
X153975000Y-109093750D01*
X153975000Y-110006250D01*
X153973826Y-110030142D01*
X153970316Y-110053803D01*
X153964504Y-110077007D01*
X153956446Y-110099529D01*
X153946218Y-110121153D01*
X153933921Y-110141670D01*
X153919671Y-110160883D01*
X153903607Y-110178607D01*
X153885883Y-110194671D01*
X153866670Y-110208921D01*
X153846153Y-110221218D01*
X153824529Y-110231446D01*
X153802007Y-110239504D01*
X153778803Y-110245316D01*
X153755142Y-110248826D01*
X153731250Y-110250000D01*
X153243750Y-110250000D01*
X153219858Y-110248826D01*
X153196197Y-110245316D01*
X153172993Y-110239504D01*
X153150471Y-110231446D01*
X153128847Y-110221218D01*
X153108330Y-110208921D01*
X153089117Y-110194671D01*
X153071393Y-110178607D01*
X153055329Y-110160883D01*
X153041079Y-110141670D01*
X153028782Y-110121153D01*
X153018554Y-110099529D01*
X153010496Y-110077007D01*
X153004684Y-110053803D01*
X153001174Y-110030142D01*
X153000000Y-110006250D01*
X153000000Y-109093750D01*
X153001174Y-109069858D01*
X153004684Y-109046197D01*
X153010496Y-109022993D01*
X153018554Y-109000471D01*
X153028782Y-108978847D01*
X153041079Y-108958330D01*
X153055329Y-108939117D01*
X153071393Y-108921393D01*
X153089117Y-108905329D01*
X153108330Y-108891079D01*
X153128847Y-108878782D01*
X153150471Y-108868554D01*
X153172993Y-108860496D01*
X153196197Y-108854684D01*
X153219858Y-108851174D01*
X153243750Y-108850000D01*
X153731250Y-108850000D01*
X153755142Y-108851174D01*
X153755142Y-108851174D01*
G37*
D14*
X153487500Y-109550000D03*
D13*
G36*
X151880142Y-108851174D02*
X151903803Y-108854684D01*
X151927007Y-108860496D01*
X151949529Y-108868554D01*
X151971153Y-108878782D01*
X151991670Y-108891079D01*
X152010883Y-108905329D01*
X152028607Y-108921393D01*
X152044671Y-108939117D01*
X152058921Y-108958330D01*
X152071218Y-108978847D01*
X152081446Y-109000471D01*
X152089504Y-109022993D01*
X152095316Y-109046197D01*
X152098826Y-109069858D01*
X152100000Y-109093750D01*
X152100000Y-110006250D01*
X152098826Y-110030142D01*
X152095316Y-110053803D01*
X152089504Y-110077007D01*
X152081446Y-110099529D01*
X152071218Y-110121153D01*
X152058921Y-110141670D01*
X152044671Y-110160883D01*
X152028607Y-110178607D01*
X152010883Y-110194671D01*
X151991670Y-110208921D01*
X151971153Y-110221218D01*
X151949529Y-110231446D01*
X151927007Y-110239504D01*
X151903803Y-110245316D01*
X151880142Y-110248826D01*
X151856250Y-110250000D01*
X151368750Y-110250000D01*
X151344858Y-110248826D01*
X151321197Y-110245316D01*
X151297993Y-110239504D01*
X151275471Y-110231446D01*
X151253847Y-110221218D01*
X151233330Y-110208921D01*
X151214117Y-110194671D01*
X151196393Y-110178607D01*
X151180329Y-110160883D01*
X151166079Y-110141670D01*
X151153782Y-110121153D01*
X151143554Y-110099529D01*
X151135496Y-110077007D01*
X151129684Y-110053803D01*
X151126174Y-110030142D01*
X151125000Y-110006250D01*
X151125000Y-109093750D01*
X151126174Y-109069858D01*
X151129684Y-109046197D01*
X151135496Y-109022993D01*
X151143554Y-109000471D01*
X151153782Y-108978847D01*
X151166079Y-108958330D01*
X151180329Y-108939117D01*
X151196393Y-108921393D01*
X151214117Y-108905329D01*
X151233330Y-108891079D01*
X151253847Y-108878782D01*
X151275471Y-108868554D01*
X151297993Y-108860496D01*
X151321197Y-108854684D01*
X151344858Y-108851174D01*
X151368750Y-108850000D01*
X151856250Y-108850000D01*
X151880142Y-108851174D01*
X151880142Y-108851174D01*
G37*
D14*
X151612500Y-109550000D03*
G04 #@! TD*
D16*
G04 #@! TO.C,RN2*
X138700000Y-107950000D03*
D17*
X138700000Y-108750000D03*
D16*
X138700000Y-110350000D03*
D17*
X138700000Y-109550000D03*
D16*
X140500000Y-107950000D03*
D17*
X140500000Y-109550000D03*
X140500000Y-108750000D03*
D16*
X140500000Y-110350000D03*
G04 #@! TD*
M02*
