M48
;DRILL file {KiCad 5.0.0} date Tue Sep 18 18:54:12 2018
;FORMAT={3:3/ absolute / metric / suppress leading zeros}
FMAT,2
METRIC,TZ
T1C0.400
T2C0.800
T3C1.000
%
G90
G05
M71
T1
X135719Y-99322
X136086Y-101746
X136400Y-103400
X137200Y-109400
X144800Y-106800
X145600Y-102000
X146000Y-110600
X147000Y-95800
X150000Y-110600
T2
X133600Y-93800
X133600Y-95800
X133600Y-97800
X133600Y-99800
X133600Y-101800
X133600Y-103800
T3
X138980Y-88860
X138980Y-91400
X141520Y-88860
X141520Y-91400
X144060Y-88860
X144060Y-91400
X146600Y-88860
X146600Y-91400
X153200Y-91560
X153200Y-94100
X153200Y-96640
X153200Y-99180
X153200Y-101720
X153200Y-104260
X153200Y-106800
X155740Y-91560
X155740Y-94100
X155740Y-96640
X155740Y-99180
X155740Y-101720
X155740Y-104260
X155740Y-106800
T0
M30
