G04 #@! TF.GenerationSoftware,KiCad,Pcbnew,5.0.0-5.0.0*
G04 #@! TF.CreationDate,2018-10-02T18:17:12-07:00*
G04 #@! TF.ProjectId,gpio-expander,6770696F2D657870616E6465722E6B69,rev?*
G04 #@! TF.SameCoordinates,Original*
G04 #@! TF.FileFunction,Legend,Top*
G04 #@! TF.FilePolarity,Positive*
%FSLAX46Y46*%
G04 Gerber Fmt 4.6, Leading zero omitted, Abs format (unit mm)*
G04 Created by KiCad (PCBNEW 5.0.0-5.0.0) date Tue Oct  2 18:17:12 2018*
%MOMM*%
%LPD*%
G01*
G04 APERTURE LIST*
%ADD10C,0.150000*%
%ADD11C,0.300000*%
%ADD12C,0.100000*%
%ADD13C,0.120000*%
G04 APERTURE END LIST*
D10*
X143859523Y-87502380D02*
X143288095Y-87502380D01*
X143573809Y-87502380D02*
X143573809Y-86502380D01*
X143478571Y-86645238D01*
X143383333Y-86740476D01*
X143288095Y-86788095D01*
X144192857Y-86502380D02*
X144811904Y-86502380D01*
X144478571Y-86883333D01*
X144621428Y-86883333D01*
X144716666Y-86930952D01*
X144764285Y-86978571D01*
X144811904Y-87073809D01*
X144811904Y-87311904D01*
X144764285Y-87407142D01*
X144716666Y-87454761D01*
X144621428Y-87502380D01*
X144335714Y-87502380D01*
X144240476Y-87454761D01*
X144192857Y-87407142D01*
X141309523Y-87502380D02*
X140738095Y-87502380D01*
X141023809Y-87502380D02*
X141023809Y-86502380D01*
X140928571Y-86645238D01*
X140833333Y-86740476D01*
X140738095Y-86788095D01*
X142214285Y-86502380D02*
X141738095Y-86502380D01*
X141690476Y-86978571D01*
X141738095Y-86930952D01*
X141833333Y-86883333D01*
X142071428Y-86883333D01*
X142166666Y-86930952D01*
X142214285Y-86978571D01*
X142261904Y-87073809D01*
X142261904Y-87311904D01*
X142214285Y-87407142D01*
X142166666Y-87454761D01*
X142071428Y-87502380D01*
X141833333Y-87502380D01*
X141738095Y-87454761D01*
X141690476Y-87407142D01*
X138759523Y-87552380D02*
X138188095Y-87552380D01*
X138473809Y-87552380D02*
X138473809Y-86552380D01*
X138378571Y-86695238D01*
X138283333Y-86790476D01*
X138188095Y-86838095D01*
X139092857Y-86552380D02*
X139759523Y-86552380D01*
X139330952Y-87552380D01*
X138809523Y-93552380D02*
X138238095Y-93552380D01*
X138523809Y-93552380D02*
X138523809Y-92552380D01*
X138428571Y-92695238D01*
X138333333Y-92790476D01*
X138238095Y-92838095D01*
X139666666Y-92552380D02*
X139476190Y-92552380D01*
X139380952Y-92600000D01*
X139333333Y-92647619D01*
X139238095Y-92790476D01*
X139190476Y-92980952D01*
X139190476Y-93361904D01*
X139238095Y-93457142D01*
X139285714Y-93504761D01*
X139380952Y-93552380D01*
X139571428Y-93552380D01*
X139666666Y-93504761D01*
X139714285Y-93457142D01*
X139761904Y-93361904D01*
X139761904Y-93123809D01*
X139714285Y-93028571D01*
X139666666Y-92980952D01*
X139571428Y-92933333D01*
X139380952Y-92933333D01*
X139285714Y-92980952D01*
X139238095Y-93028571D01*
X139190476Y-93123809D01*
X141309523Y-93502380D02*
X140738095Y-93502380D01*
X141023809Y-93502380D02*
X141023809Y-92502380D01*
X140928571Y-92645238D01*
X140833333Y-92740476D01*
X140738095Y-92788095D01*
X142166666Y-92835714D02*
X142166666Y-93502380D01*
X141928571Y-92454761D02*
X141690476Y-93169047D01*
X142309523Y-93169047D01*
X143859523Y-93452380D02*
X143288095Y-93452380D01*
X143573809Y-93452380D02*
X143573809Y-92452380D01*
X143478571Y-92595238D01*
X143383333Y-92690476D01*
X143288095Y-92738095D01*
X144240476Y-92547619D02*
X144288095Y-92500000D01*
X144383333Y-92452380D01*
X144621428Y-92452380D01*
X144716666Y-92500000D01*
X144764285Y-92547619D01*
X144811904Y-92642857D01*
X144811904Y-92738095D01*
X144764285Y-92880952D01*
X144192857Y-93452380D01*
X144811904Y-93452380D01*
X146219047Y-87321428D02*
X146980952Y-87321428D01*
X146219047Y-93071428D02*
X146980952Y-93071428D01*
X146600000Y-93452380D02*
X146600000Y-92690476D01*
D11*
X157128571Y-91707142D02*
X158271428Y-91707142D01*
X157814285Y-94778571D02*
X156957142Y-94778571D01*
X157385714Y-94778571D02*
X157385714Y-93278571D01*
X157242857Y-93492857D01*
X157100000Y-93635714D01*
X156957142Y-93707142D01*
X159242857Y-94778571D02*
X158385714Y-94778571D01*
X158814285Y-94778571D02*
X158814285Y-93278571D01*
X158671428Y-93492857D01*
X158528571Y-93635714D01*
X158385714Y-93707142D01*
X157000000Y-95778571D02*
X158000000Y-95778571D01*
X157357142Y-97278571D01*
X157857142Y-98378571D02*
X157142857Y-98378571D01*
X157071428Y-99092857D01*
X157142857Y-99021428D01*
X157285714Y-98950000D01*
X157642857Y-98950000D01*
X157785714Y-99021428D01*
X157857142Y-99092857D01*
X157928571Y-99235714D01*
X157928571Y-99592857D01*
X157857142Y-99735714D01*
X157785714Y-99807142D01*
X157642857Y-99878571D01*
X157285714Y-99878571D01*
X157142857Y-99807142D01*
X157071428Y-99735714D01*
X157000000Y-100878571D02*
X157928571Y-100878571D01*
X157428571Y-101450000D01*
X157642857Y-101450000D01*
X157785714Y-101521428D01*
X157857142Y-101592857D01*
X157928571Y-101735714D01*
X157928571Y-102092857D01*
X157857142Y-102235714D01*
X157785714Y-102307142D01*
X157642857Y-102378571D01*
X157214285Y-102378571D01*
X157071428Y-102307142D01*
X157000000Y-102235714D01*
X157928571Y-104878571D02*
X157071428Y-104878571D01*
X157500000Y-104878571D02*
X157500000Y-103378571D01*
X157357142Y-103592857D01*
X157214285Y-103735714D01*
X157071428Y-103807142D01*
X157028571Y-106907142D02*
X158171428Y-106907142D01*
X150828571Y-91607142D02*
X151971428Y-91607142D01*
X150464285Y-94678571D02*
X149607142Y-94678571D01*
X150035714Y-94678571D02*
X150035714Y-93178571D01*
X149892857Y-93392857D01*
X149750000Y-93535714D01*
X149607142Y-93607142D01*
X151392857Y-93178571D02*
X151535714Y-93178571D01*
X151678571Y-93250000D01*
X151750000Y-93321428D01*
X151821428Y-93464285D01*
X151892857Y-93750000D01*
X151892857Y-94107142D01*
X151821428Y-94392857D01*
X151750000Y-94535714D01*
X151678571Y-94607142D01*
X151535714Y-94678571D01*
X151392857Y-94678571D01*
X151250000Y-94607142D01*
X151178571Y-94535714D01*
X151107142Y-94392857D01*
X151035714Y-94107142D01*
X151035714Y-93750000D01*
X151107142Y-93464285D01*
X151178571Y-93321428D01*
X151250000Y-93250000D01*
X151392857Y-93178571D01*
X151785714Y-95778571D02*
X151500000Y-95778571D01*
X151357142Y-95850000D01*
X151285714Y-95921428D01*
X151142857Y-96135714D01*
X151071428Y-96421428D01*
X151071428Y-96992857D01*
X151142857Y-97135714D01*
X151214285Y-97207142D01*
X151357142Y-97278571D01*
X151642857Y-97278571D01*
X151785714Y-97207142D01*
X151857142Y-97135714D01*
X151928571Y-96992857D01*
X151928571Y-96635714D01*
X151857142Y-96492857D01*
X151785714Y-96421428D01*
X151642857Y-96350000D01*
X151357142Y-96350000D01*
X151214285Y-96421428D01*
X151142857Y-96492857D01*
X151071428Y-96635714D01*
X151785714Y-98878571D02*
X151785714Y-99878571D01*
X151428571Y-98307142D02*
X151071428Y-99378571D01*
X152000000Y-99378571D01*
X151071428Y-101021428D02*
X151142857Y-100950000D01*
X151285714Y-100878571D01*
X151642857Y-100878571D01*
X151785714Y-100950000D01*
X151857142Y-101021428D01*
X151928571Y-101164285D01*
X151928571Y-101307142D01*
X151857142Y-101521428D01*
X151000000Y-102378571D01*
X151928571Y-102378571D01*
X151428571Y-103378571D02*
X151571428Y-103378571D01*
X151714285Y-103450000D01*
X151785714Y-103521428D01*
X151857142Y-103664285D01*
X151928571Y-103950000D01*
X151928571Y-104307142D01*
X151857142Y-104592857D01*
X151785714Y-104735714D01*
X151714285Y-104807142D01*
X151571428Y-104878571D01*
X151428571Y-104878571D01*
X151285714Y-104807142D01*
X151214285Y-104735714D01*
X151142857Y-104592857D01*
X151071428Y-104307142D01*
X151071428Y-103950000D01*
X151142857Y-103664285D01*
X151214285Y-103521428D01*
X151285714Y-103450000D01*
X151428571Y-103378571D01*
X150928571Y-106907142D02*
X152071428Y-106907142D01*
X151500000Y-107478571D02*
X151500000Y-106335714D01*
D12*
X135092857Y-109721428D02*
X135092857Y-110330952D01*
X134788095Y-110026190D02*
X135397619Y-110026190D01*
X135588095Y-110635714D02*
X135588095Y-111130952D01*
X135283333Y-110864285D01*
X135283333Y-110978571D01*
X135245238Y-111054761D01*
X135207142Y-111092857D01*
X135130952Y-111130952D01*
X134940476Y-111130952D01*
X134864285Y-111092857D01*
X134826190Y-111054761D01*
X134788095Y-110978571D01*
X134788095Y-110750000D01*
X134826190Y-110673809D01*
X134864285Y-110635714D01*
X135588095Y-111359523D02*
X134788095Y-111626190D01*
X135588095Y-111892857D01*
X134826190Y-107228571D02*
X134788095Y-107342857D01*
X134788095Y-107533333D01*
X134826190Y-107609523D01*
X134864285Y-107647619D01*
X134940476Y-107685714D01*
X135016666Y-107685714D01*
X135092857Y-107647619D01*
X135130952Y-107609523D01*
X135169047Y-107533333D01*
X135207142Y-107380952D01*
X135245238Y-107304761D01*
X135283333Y-107266666D01*
X135359523Y-107228571D01*
X135435714Y-107228571D01*
X135511904Y-107266666D01*
X135550000Y-107304761D01*
X135588095Y-107380952D01*
X135588095Y-107571428D01*
X135550000Y-107685714D01*
X134788095Y-108028571D02*
X135588095Y-108028571D01*
X135588095Y-108219047D01*
X135550000Y-108333333D01*
X135473809Y-108409523D01*
X135397619Y-108447619D01*
X135245238Y-108485714D01*
X135130952Y-108485714D01*
X134978571Y-108447619D01*
X134902380Y-108409523D01*
X134826190Y-108333333D01*
X134788095Y-108219047D01*
X134788095Y-108028571D01*
X135016666Y-108790476D02*
X135016666Y-109171428D01*
X134788095Y-108714285D02*
X135588095Y-108980952D01*
X134788095Y-109247619D01*
X134676190Y-104697619D02*
X134638095Y-104811904D01*
X134638095Y-105002380D01*
X134676190Y-105078571D01*
X134714285Y-105116666D01*
X134790476Y-105154761D01*
X134866666Y-105154761D01*
X134942857Y-105116666D01*
X134980952Y-105078571D01*
X135019047Y-105002380D01*
X135057142Y-104850000D01*
X135095238Y-104773809D01*
X135133333Y-104735714D01*
X135209523Y-104697619D01*
X135285714Y-104697619D01*
X135361904Y-104735714D01*
X135400000Y-104773809D01*
X135438095Y-104850000D01*
X135438095Y-105040476D01*
X135400000Y-105154761D01*
X134714285Y-105954761D02*
X134676190Y-105916666D01*
X134638095Y-105802380D01*
X134638095Y-105726190D01*
X134676190Y-105611904D01*
X134752380Y-105535714D01*
X134828571Y-105497619D01*
X134980952Y-105459523D01*
X135095238Y-105459523D01*
X135247619Y-105497619D01*
X135323809Y-105535714D01*
X135400000Y-105611904D01*
X135438095Y-105726190D01*
X135438095Y-105802380D01*
X135400000Y-105916666D01*
X135361904Y-105954761D01*
X134638095Y-106678571D02*
X134638095Y-106297619D01*
X135438095Y-106297619D01*
X135856000Y-102235714D02*
X135856000Y-102616666D01*
X134788095Y-102426190D02*
X135588095Y-102426190D01*
X135856000Y-102616666D02*
X135856000Y-103454761D01*
X134788095Y-102807142D02*
X135588095Y-102807142D01*
X134788095Y-103264285D01*
X135588095Y-103264285D01*
X135856000Y-103454761D02*
X135856000Y-104064285D01*
X135588095Y-103530952D02*
X135588095Y-103988095D01*
X134788095Y-103759523D02*
X135588095Y-103759523D01*
X135756000Y-89485714D02*
X135756000Y-89866666D01*
X134688095Y-89676190D02*
X135488095Y-89676190D01*
X135756000Y-89866666D02*
X135756000Y-90704761D01*
X134688095Y-90057142D02*
X135488095Y-90057142D01*
X134688095Y-90514285D01*
X135488095Y-90514285D01*
X135756000Y-90704761D02*
X135756000Y-91314285D01*
X135488095Y-90780952D02*
X135488095Y-91238095D01*
X134688095Y-91009523D02*
X135488095Y-91009523D01*
D11*
X151785714Y-112078571D02*
X151500000Y-112078571D01*
X151357142Y-112150000D01*
X151285714Y-112221428D01*
X151142857Y-112435714D01*
X151071428Y-112721428D01*
X151071428Y-113292857D01*
X151142857Y-113435714D01*
X151214285Y-113507142D01*
X151357142Y-113578571D01*
X151642857Y-113578571D01*
X151785714Y-113507142D01*
X151857142Y-113435714D01*
X151928571Y-113292857D01*
X151928571Y-112935714D01*
X151857142Y-112792857D01*
X151785714Y-112721428D01*
X151642857Y-112650000D01*
X151357142Y-112650000D01*
X151214285Y-112721428D01*
X151142857Y-112792857D01*
X151071428Y-112935714D01*
X141628571Y-113578571D02*
X140771428Y-113578571D01*
X141200000Y-113578571D02*
X141200000Y-112078571D01*
X141057142Y-112292857D01*
X140914285Y-112435714D01*
X140771428Y-112507142D01*
D12*
X144609523Y-85435714D02*
X144571428Y-85473809D01*
X144457142Y-85511904D01*
X144380952Y-85511904D01*
X144266666Y-85473809D01*
X144190476Y-85397619D01*
X144152380Y-85321428D01*
X144114285Y-85169047D01*
X144114285Y-85054761D01*
X144152380Y-84902380D01*
X144190476Y-84826190D01*
X144266666Y-84750000D01*
X144380952Y-84711904D01*
X144457142Y-84711904D01*
X144571428Y-84750000D01*
X144609523Y-84788095D01*
X145066666Y-85511904D02*
X144990476Y-85473809D01*
X144952380Y-85435714D01*
X144914285Y-85359523D01*
X144914285Y-85130952D01*
X144952380Y-85054761D01*
X144990476Y-85016666D01*
X145066666Y-84978571D01*
X145180952Y-84978571D01*
X145257142Y-85016666D01*
X145295238Y-85054761D01*
X145333333Y-85130952D01*
X145333333Y-85359523D01*
X145295238Y-85435714D01*
X145257142Y-85473809D01*
X145180952Y-85511904D01*
X145066666Y-85511904D01*
X145676190Y-84978571D02*
X145676190Y-85778571D01*
X145676190Y-85016666D02*
X145752380Y-84978571D01*
X145904761Y-84978571D01*
X145980952Y-85016666D01*
X146019047Y-85054761D01*
X146057142Y-85130952D01*
X146057142Y-85359523D01*
X146019047Y-85435714D01*
X145980952Y-85473809D01*
X145904761Y-85511904D01*
X145752380Y-85511904D01*
X145676190Y-85473809D01*
X146323809Y-84978571D02*
X146514285Y-85511904D01*
X146704761Y-84978571D02*
X146514285Y-85511904D01*
X146438095Y-85702380D01*
X146400000Y-85740476D01*
X146323809Y-85778571D01*
X147009523Y-85511904D02*
X147009523Y-84978571D01*
X147009523Y-85130952D02*
X147047619Y-85054761D01*
X147085714Y-85016666D01*
X147161904Y-84978571D01*
X147238095Y-84978571D01*
X147504761Y-85511904D02*
X147504761Y-84978571D01*
X147504761Y-84711904D02*
X147466666Y-84750000D01*
X147504761Y-84788095D01*
X147542857Y-84750000D01*
X147504761Y-84711904D01*
X147504761Y-84788095D01*
X148228571Y-84978571D02*
X148228571Y-85626190D01*
X148190476Y-85702380D01*
X148152380Y-85740476D01*
X148076190Y-85778571D01*
X147961904Y-85778571D01*
X147885714Y-85740476D01*
X148228571Y-85473809D02*
X148152380Y-85511904D01*
X148000000Y-85511904D01*
X147923809Y-85473809D01*
X147885714Y-85435714D01*
X147847619Y-85359523D01*
X147847619Y-85130952D01*
X147885714Y-85054761D01*
X147923809Y-85016666D01*
X148000000Y-84978571D01*
X148152380Y-84978571D01*
X148228571Y-85016666D01*
X148609523Y-85511904D02*
X148609523Y-84711904D01*
X148952380Y-85511904D02*
X148952380Y-85092857D01*
X148914285Y-85016666D01*
X148838095Y-84978571D01*
X148723809Y-84978571D01*
X148647619Y-85016666D01*
X148609523Y-85054761D01*
X149219047Y-84978571D02*
X149523809Y-84978571D01*
X149333333Y-84711904D02*
X149333333Y-85397619D01*
X149371428Y-85473809D01*
X149447619Y-85511904D01*
X149523809Y-85511904D01*
X151047619Y-84902380D02*
X150971428Y-84864285D01*
X150819047Y-84864285D01*
X150742857Y-84902380D01*
X150666666Y-84978571D01*
X150628571Y-85054761D01*
X150628571Y-85207142D01*
X150666666Y-85283333D01*
X150742857Y-85359523D01*
X150819047Y-85397619D01*
X150971428Y-85397619D01*
X151047619Y-85359523D01*
X150895238Y-84597619D02*
X150704761Y-84635714D01*
X150514285Y-84750000D01*
X150400000Y-84940476D01*
X150361904Y-85130952D01*
X150400000Y-85321428D01*
X150514285Y-85511904D01*
X150704761Y-85626190D01*
X150895238Y-85664285D01*
X151085714Y-85626190D01*
X151276190Y-85511904D01*
X151390476Y-85321428D01*
X151428571Y-85130952D01*
X151390476Y-84940476D01*
X151276190Y-84750000D01*
X151085714Y-84635714D01*
X150895238Y-84597619D01*
X152342857Y-84788095D02*
X152380952Y-84750000D01*
X152457142Y-84711904D01*
X152647619Y-84711904D01*
X152723809Y-84750000D01*
X152761904Y-84788095D01*
X152800000Y-84864285D01*
X152800000Y-84940476D01*
X152761904Y-85054761D01*
X152304761Y-85511904D01*
X152800000Y-85511904D01*
X153295238Y-84711904D02*
X153371428Y-84711904D01*
X153447619Y-84750000D01*
X153485714Y-84788095D01*
X153523809Y-84864285D01*
X153561904Y-85016666D01*
X153561904Y-85207142D01*
X153523809Y-85359523D01*
X153485714Y-85435714D01*
X153447619Y-85473809D01*
X153371428Y-85511904D01*
X153295238Y-85511904D01*
X153219047Y-85473809D01*
X153180952Y-85435714D01*
X153142857Y-85359523D01*
X153104761Y-85207142D01*
X153104761Y-85016666D01*
X153142857Y-84864285D01*
X153180952Y-84788095D01*
X153219047Y-84750000D01*
X153295238Y-84711904D01*
X154323809Y-85511904D02*
X153866666Y-85511904D01*
X154095238Y-85511904D02*
X154095238Y-84711904D01*
X154019047Y-84826190D01*
X153942857Y-84902380D01*
X153866666Y-84940476D01*
X154780952Y-85054761D02*
X154704761Y-85016666D01*
X154666666Y-84978571D01*
X154628571Y-84902380D01*
X154628571Y-84864285D01*
X154666666Y-84788095D01*
X154704761Y-84750000D01*
X154780952Y-84711904D01*
X154933333Y-84711904D01*
X155009523Y-84750000D01*
X155047619Y-84788095D01*
X155085714Y-84864285D01*
X155085714Y-84902380D01*
X155047619Y-84978571D01*
X155009523Y-85016666D01*
X154933333Y-85054761D01*
X154780952Y-85054761D01*
X154704761Y-85092857D01*
X154666666Y-85130952D01*
X154628571Y-85207142D01*
X154628571Y-85359523D01*
X154666666Y-85435714D01*
X154704761Y-85473809D01*
X154780952Y-85511904D01*
X154933333Y-85511904D01*
X155009523Y-85473809D01*
X155047619Y-85435714D01*
X155085714Y-85359523D01*
X155085714Y-85207142D01*
X155047619Y-85130952D01*
X155009523Y-85092857D01*
X154933333Y-85054761D01*
X145295238Y-86583333D02*
X145676190Y-86583333D01*
X145219047Y-86811904D02*
X145485714Y-86011904D01*
X145752380Y-86811904D01*
X146361904Y-86811904D02*
X146361904Y-86392857D01*
X146323809Y-86316666D01*
X146247619Y-86278571D01*
X146095238Y-86278571D01*
X146019047Y-86316666D01*
X146361904Y-86773809D02*
X146285714Y-86811904D01*
X146095238Y-86811904D01*
X146019047Y-86773809D01*
X145980952Y-86697619D01*
X145980952Y-86621428D01*
X146019047Y-86545238D01*
X146095238Y-86507142D01*
X146285714Y-86507142D01*
X146361904Y-86469047D01*
X146742857Y-86811904D02*
X146742857Y-86278571D01*
X146742857Y-86430952D02*
X146780952Y-86354761D01*
X146819047Y-86316666D01*
X146895238Y-86278571D01*
X146971428Y-86278571D01*
X147352380Y-86811904D02*
X147276190Y-86773809D01*
X147238095Y-86735714D01*
X147200000Y-86659523D01*
X147200000Y-86430952D01*
X147238095Y-86354761D01*
X147276190Y-86316666D01*
X147352380Y-86278571D01*
X147466666Y-86278571D01*
X147542857Y-86316666D01*
X147580952Y-86354761D01*
X147619047Y-86430952D01*
X147619047Y-86659523D01*
X147580952Y-86735714D01*
X147542857Y-86773809D01*
X147466666Y-86811904D01*
X147352380Y-86811904D01*
X147961904Y-86278571D02*
X147961904Y-86811904D01*
X147961904Y-86354761D02*
X148000000Y-86316666D01*
X148076190Y-86278571D01*
X148190476Y-86278571D01*
X148266666Y-86316666D01*
X148304761Y-86392857D01*
X148304761Y-86811904D01*
X149219047Y-86011904D02*
X149409523Y-86811904D01*
X149561904Y-86240476D01*
X149714285Y-86811904D01*
X149904761Y-86011904D01*
X150209523Y-86811904D02*
X150209523Y-86278571D01*
X150209523Y-86011904D02*
X150171428Y-86050000D01*
X150209523Y-86088095D01*
X150247619Y-86050000D01*
X150209523Y-86011904D01*
X150209523Y-86088095D01*
X150704761Y-86811904D02*
X150628571Y-86773809D01*
X150590476Y-86697619D01*
X150590476Y-86011904D01*
X151123809Y-86811904D02*
X151047619Y-86773809D01*
X151009523Y-86697619D01*
X151009523Y-86011904D01*
X151428571Y-86811904D02*
X151428571Y-86278571D01*
X151428571Y-86011904D02*
X151390476Y-86050000D01*
X151428571Y-86088095D01*
X151466666Y-86050000D01*
X151428571Y-86011904D01*
X151428571Y-86088095D01*
X152152380Y-86811904D02*
X152152380Y-86392857D01*
X152114285Y-86316666D01*
X152038095Y-86278571D01*
X151885714Y-86278571D01*
X151809523Y-86316666D01*
X152152380Y-86773809D02*
X152076190Y-86811904D01*
X151885714Y-86811904D01*
X151809523Y-86773809D01*
X151771428Y-86697619D01*
X151771428Y-86621428D01*
X151809523Y-86545238D01*
X151885714Y-86507142D01*
X152076190Y-86507142D01*
X152152380Y-86469047D01*
X152533333Y-86811904D02*
X152533333Y-86278571D01*
X152533333Y-86354761D02*
X152571428Y-86316666D01*
X152647619Y-86278571D01*
X152761904Y-86278571D01*
X152838095Y-86316666D01*
X152876190Y-86392857D01*
X152876190Y-86811904D01*
X152876190Y-86392857D02*
X152914285Y-86316666D01*
X152990476Y-86278571D01*
X153104761Y-86278571D01*
X153180952Y-86316666D01*
X153219047Y-86392857D01*
X153219047Y-86811904D01*
X153561904Y-86773809D02*
X153638095Y-86811904D01*
X153790476Y-86811904D01*
X153866666Y-86773809D01*
X153904761Y-86697619D01*
X153904761Y-86659523D01*
X153866666Y-86583333D01*
X153790476Y-86545238D01*
X153676190Y-86545238D01*
X153600000Y-86507142D01*
X153561904Y-86430952D01*
X153561904Y-86392857D01*
X153600000Y-86316666D01*
X153676190Y-86278571D01*
X153790476Y-86278571D01*
X153866666Y-86316666D01*
D10*
X142680952Y-93702380D02*
X143252380Y-93702380D01*
X142966666Y-94702380D02*
X142966666Y-93702380D01*
X144157142Y-94607142D02*
X144109523Y-94654761D01*
X143966666Y-94702380D01*
X143871428Y-94702380D01*
X143728571Y-94654761D01*
X143633333Y-94559523D01*
X143585714Y-94464285D01*
X143538095Y-94273809D01*
X143538095Y-94130952D01*
X143585714Y-93940476D01*
X143633333Y-93845238D01*
X143728571Y-93750000D01*
X143871428Y-93702380D01*
X143966666Y-93702380D01*
X144109523Y-93750000D01*
X144157142Y-93797619D01*
X144538095Y-94416666D02*
X145014285Y-94416666D01*
X144442857Y-94702380D02*
X144776190Y-93702380D01*
X145109523Y-94702380D01*
X145490476Y-94702380D02*
X145680952Y-94702380D01*
X145776190Y-94654761D01*
X145823809Y-94607142D01*
X145919047Y-94464285D01*
X145966666Y-94273809D01*
X145966666Y-93892857D01*
X145919047Y-93797619D01*
X145871428Y-93750000D01*
X145776190Y-93702380D01*
X145585714Y-93702380D01*
X145490476Y-93750000D01*
X145442857Y-93797619D01*
X145395238Y-93892857D01*
X145395238Y-94130952D01*
X145442857Y-94226190D01*
X145490476Y-94273809D01*
X145585714Y-94321428D01*
X145776190Y-94321428D01*
X145871428Y-94273809D01*
X145919047Y-94226190D01*
X145966666Y-94130952D01*
X146871428Y-93702380D02*
X146395238Y-93702380D01*
X146347619Y-94178571D01*
X146395238Y-94130952D01*
X146490476Y-94083333D01*
X146728571Y-94083333D01*
X146823809Y-94130952D01*
X146871428Y-94178571D01*
X146919047Y-94273809D01*
X146919047Y-94511904D01*
X146871428Y-94607142D01*
X146823809Y-94654761D01*
X146728571Y-94702380D01*
X146490476Y-94702380D01*
X146395238Y-94654761D01*
X146347619Y-94607142D01*
X147823809Y-93702380D02*
X147347619Y-93702380D01*
X147300000Y-94178571D01*
X147347619Y-94130952D01*
X147442857Y-94083333D01*
X147680952Y-94083333D01*
X147776190Y-94130952D01*
X147823809Y-94178571D01*
X147871428Y-94273809D01*
X147871428Y-94511904D01*
X147823809Y-94607142D01*
X147776190Y-94654761D01*
X147680952Y-94702380D01*
X147442857Y-94702380D01*
X147347619Y-94654761D01*
X147300000Y-94607142D01*
X148776190Y-93702380D02*
X148300000Y-93702380D01*
X148252380Y-94178571D01*
X148300000Y-94130952D01*
X148395238Y-94083333D01*
X148633333Y-94083333D01*
X148728571Y-94130952D01*
X148776190Y-94178571D01*
X148823809Y-94273809D01*
X148823809Y-94511904D01*
X148776190Y-94607142D01*
X148728571Y-94654761D01*
X148633333Y-94702380D01*
X148395238Y-94702380D01*
X148300000Y-94654761D01*
X148252380Y-94607142D01*
D12*
X135092857Y-96971428D02*
X135092857Y-97580952D01*
X134788095Y-97276190D02*
X135397619Y-97276190D01*
X135588095Y-97885714D02*
X135588095Y-98380952D01*
X135283333Y-98114285D01*
X135283333Y-98228571D01*
X135245238Y-98304761D01*
X135207142Y-98342857D01*
X135130952Y-98380952D01*
X134940476Y-98380952D01*
X134864285Y-98342857D01*
X134826190Y-98304761D01*
X134788095Y-98228571D01*
X134788095Y-98000000D01*
X134826190Y-97923809D01*
X134864285Y-97885714D01*
X135588095Y-98609523D02*
X134788095Y-98876190D01*
X135588095Y-99142857D01*
X134826190Y-94528571D02*
X134788095Y-94642857D01*
X134788095Y-94833333D01*
X134826190Y-94909523D01*
X134864285Y-94947619D01*
X134940476Y-94985714D01*
X135016666Y-94985714D01*
X135092857Y-94947619D01*
X135130952Y-94909523D01*
X135169047Y-94833333D01*
X135207142Y-94680952D01*
X135245238Y-94604761D01*
X135283333Y-94566666D01*
X135359523Y-94528571D01*
X135435714Y-94528571D01*
X135511904Y-94566666D01*
X135550000Y-94604761D01*
X135588095Y-94680952D01*
X135588095Y-94871428D01*
X135550000Y-94985714D01*
X134788095Y-95328571D02*
X135588095Y-95328571D01*
X135588095Y-95519047D01*
X135550000Y-95633333D01*
X135473809Y-95709523D01*
X135397619Y-95747619D01*
X135245238Y-95785714D01*
X135130952Y-95785714D01*
X134978571Y-95747619D01*
X134902380Y-95709523D01*
X134826190Y-95633333D01*
X134788095Y-95519047D01*
X134788095Y-95328571D01*
X135016666Y-96090476D02*
X135016666Y-96471428D01*
X134788095Y-96014285D02*
X135588095Y-96280952D01*
X134788095Y-96547619D01*
X134826190Y-91947619D02*
X134788095Y-92061904D01*
X134788095Y-92252380D01*
X134826190Y-92328571D01*
X134864285Y-92366666D01*
X134940476Y-92404761D01*
X135016666Y-92404761D01*
X135092857Y-92366666D01*
X135130952Y-92328571D01*
X135169047Y-92252380D01*
X135207142Y-92100000D01*
X135245238Y-92023809D01*
X135283333Y-91985714D01*
X135359523Y-91947619D01*
X135435714Y-91947619D01*
X135511904Y-91985714D01*
X135550000Y-92023809D01*
X135588095Y-92100000D01*
X135588095Y-92290476D01*
X135550000Y-92404761D01*
X134864285Y-93204761D02*
X134826190Y-93166666D01*
X134788095Y-93052380D01*
X134788095Y-92976190D01*
X134826190Y-92861904D01*
X134902380Y-92785714D01*
X134978571Y-92747619D01*
X135130952Y-92709523D01*
X135245238Y-92709523D01*
X135397619Y-92747619D01*
X135473809Y-92785714D01*
X135550000Y-92861904D01*
X135588095Y-92976190D01*
X135588095Y-93052380D01*
X135550000Y-93166666D01*
X135511904Y-93204761D01*
X134788095Y-93928571D02*
X134788095Y-93547619D01*
X135588095Y-93547619D01*
X135550000Y-99890476D02*
X135588095Y-99814285D01*
X135588095Y-99700000D01*
X135550000Y-99585714D01*
X135473809Y-99509523D01*
X135397619Y-99471428D01*
X135245238Y-99433333D01*
X135130952Y-99433333D01*
X134978571Y-99471428D01*
X134902380Y-99509523D01*
X134826190Y-99585714D01*
X134788095Y-99700000D01*
X134788095Y-99776190D01*
X134826190Y-99890476D01*
X134864285Y-99928571D01*
X135130952Y-99928571D01*
X135130952Y-99776190D01*
X134788095Y-100271428D02*
X135588095Y-100271428D01*
X134788095Y-100728571D01*
X135588095Y-100728571D01*
X134788095Y-101109523D02*
X135588095Y-101109523D01*
X135588095Y-101300000D01*
X135550000Y-101414285D01*
X135473809Y-101490476D01*
X135397619Y-101528571D01*
X135245238Y-101566666D01*
X135130952Y-101566666D01*
X134978571Y-101528571D01*
X134902380Y-101490476D01*
X134826190Y-101414285D01*
X134788095Y-101300000D01*
X134788095Y-101109523D01*
X135500000Y-87240476D02*
X135538095Y-87164285D01*
X135538095Y-87050000D01*
X135500000Y-86935714D01*
X135423809Y-86859523D01*
X135347619Y-86821428D01*
X135195238Y-86783333D01*
X135080952Y-86783333D01*
X134928571Y-86821428D01*
X134852380Y-86859523D01*
X134776190Y-86935714D01*
X134738095Y-87050000D01*
X134738095Y-87126190D01*
X134776190Y-87240476D01*
X134814285Y-87278571D01*
X135080952Y-87278571D01*
X135080952Y-87126190D01*
X134738095Y-87621428D02*
X135538095Y-87621428D01*
X134738095Y-88078571D01*
X135538095Y-88078571D01*
X134738095Y-88459523D02*
X135538095Y-88459523D01*
X135538095Y-88650000D01*
X135500000Y-88764285D01*
X135423809Y-88840476D01*
X135347619Y-88878571D01*
X135195238Y-88916666D01*
X135080952Y-88916666D01*
X134928571Y-88878571D01*
X134852380Y-88840476D01*
X134776190Y-88764285D01*
X134738095Y-88650000D01*
X134738095Y-88459523D01*
D10*
G04 #@! TO.C,SW1*
X150695000Y-113440000D02*
X142495000Y-113440000D01*
X150695000Y-105040000D02*
X150695000Y-113440000D01*
X141695000Y-105040000D02*
X150695000Y-105040000D01*
X141695000Y-112640000D02*
X141695000Y-105040000D01*
X142495000Y-113440000D02*
X141695000Y-112640000D01*
D13*
G04 #@! TO.C,C4*
X150310000Y-90458578D02*
X150310000Y-89941422D01*
X148890000Y-90458578D02*
X148890000Y-89941422D01*
G04 #@! TO.C,C3*
X140108578Y-103990000D02*
X139591422Y-103990000D01*
X140108578Y-105410000D02*
X139591422Y-105410000D01*
G04 #@! TO.C,C1*
X140375279Y-102490000D02*
X140049721Y-102490000D01*
X140375279Y-103510000D02*
X140049721Y-103510000D01*
G04 #@! TO.C,C2*
X152303922Y-110310000D02*
X152821078Y-110310000D01*
X152303922Y-108890000D02*
X152821078Y-108890000D01*
G04 #@! TO.C,RN2*
X140880000Y-111100000D02*
X140880000Y-110100000D01*
X137520000Y-111100000D02*
X137520000Y-110100000D01*
G04 #@! TO.C,RN1*
X136120000Y-99100000D02*
X136120000Y-100100000D01*
X139480000Y-99100000D02*
X139480000Y-100100000D01*
D10*
G04 #@! TO.C,U1*
X150100000Y-94950000D02*
X150100000Y-102600000D01*
X141900000Y-94950000D02*
X150100000Y-94950000D01*
X141900000Y-103400000D02*
X141900000Y-94950000D01*
X149300000Y-103400000D02*
X141900000Y-103400000D01*
X150100000Y-102600000D02*
X149300000Y-103400000D01*
G04 #@! TO.C,MH1*
X153966666Y-113452380D02*
X153966666Y-112452380D01*
X154300000Y-113166666D01*
X154633333Y-112452380D01*
X154633333Y-113452380D01*
X155109523Y-113452380D02*
X155109523Y-112452380D01*
X155109523Y-112928571D02*
X155680952Y-112928571D01*
X155680952Y-113452380D02*
X155680952Y-112452380D01*
X156680952Y-113452380D02*
X156109523Y-113452380D01*
X156395238Y-113452380D02*
X156395238Y-112452380D01*
X156300000Y-112595238D01*
X156204761Y-112690476D01*
X156109523Y-112738095D01*
G04 #@! TO.C,MH2*
X159552380Y-90983333D02*
X158552380Y-90983333D01*
X159266666Y-90650000D01*
X158552380Y-90316666D01*
X159552380Y-90316666D01*
X159552380Y-89840476D02*
X158552380Y-89840476D01*
X159028571Y-89840476D02*
X159028571Y-89269047D01*
X159552380Y-89269047D02*
X158552380Y-89269047D01*
X158647619Y-88840476D02*
X158600000Y-88792857D01*
X158552380Y-88697619D01*
X158552380Y-88459523D01*
X158600000Y-88364285D01*
X158647619Y-88316666D01*
X158742857Y-88269047D01*
X158838095Y-88269047D01*
X158980952Y-88316666D01*
X159552380Y-88888095D01*
X159552380Y-88269047D01*
G04 #@! TO.C,FID4*
X129828571Y-106921428D02*
X129828571Y-107254761D01*
X130352380Y-107254761D02*
X129352380Y-107254761D01*
X129352380Y-106778571D01*
X130352380Y-106397619D02*
X129352380Y-106397619D01*
X130352380Y-105921428D02*
X129352380Y-105921428D01*
X129352380Y-105683333D01*
X129400000Y-105540476D01*
X129495238Y-105445238D01*
X129590476Y-105397619D01*
X129780952Y-105350000D01*
X129923809Y-105350000D01*
X130114285Y-105397619D01*
X130209523Y-105445238D01*
X130304761Y-105540476D01*
X130352380Y-105683333D01*
X130352380Y-105921428D01*
X129685714Y-104492857D02*
X130352380Y-104492857D01*
X129304761Y-104730952D02*
X130019047Y-104969047D01*
X130019047Y-104350000D01*
G04 #@! TO.C,FID3*
X129728571Y-110271428D02*
X129728571Y-110604761D01*
X130252380Y-110604761D02*
X129252380Y-110604761D01*
X129252380Y-110128571D01*
X130252380Y-109747619D02*
X129252380Y-109747619D01*
X130252380Y-109271428D02*
X129252380Y-109271428D01*
X129252380Y-109033333D01*
X129300000Y-108890476D01*
X129395238Y-108795238D01*
X129490476Y-108747619D01*
X129680952Y-108700000D01*
X129823809Y-108700000D01*
X130014285Y-108747619D01*
X130109523Y-108795238D01*
X130204761Y-108890476D01*
X130252380Y-109033333D01*
X130252380Y-109271428D01*
X129252380Y-108366666D02*
X129252380Y-107747619D01*
X129633333Y-108080952D01*
X129633333Y-107938095D01*
X129680952Y-107842857D01*
X129728571Y-107795238D01*
X129823809Y-107747619D01*
X130061904Y-107747619D01*
X130157142Y-107795238D01*
X130204761Y-107842857D01*
X130252380Y-107938095D01*
X130252380Y-108223809D01*
X130204761Y-108319047D01*
X130157142Y-108366666D01*
G04 #@! TO.C,FID2*
X153578571Y-83728571D02*
X153245238Y-83728571D01*
X153245238Y-84252380D02*
X153245238Y-83252380D01*
X153721428Y-83252380D01*
X154102380Y-84252380D02*
X154102380Y-83252380D01*
X154578571Y-84252380D02*
X154578571Y-83252380D01*
X154816666Y-83252380D01*
X154959523Y-83300000D01*
X155054761Y-83395238D01*
X155102380Y-83490476D01*
X155150000Y-83680952D01*
X155150000Y-83823809D01*
X155102380Y-84014285D01*
X155054761Y-84109523D01*
X154959523Y-84204761D01*
X154816666Y-84252380D01*
X154578571Y-84252380D01*
X155530952Y-83347619D02*
X155578571Y-83300000D01*
X155673809Y-83252380D01*
X155911904Y-83252380D01*
X156007142Y-83300000D01*
X156054761Y-83347619D01*
X156102380Y-83442857D01*
X156102380Y-83538095D01*
X156054761Y-83680952D01*
X155483333Y-84252380D01*
X156102380Y-84252380D01*
G04 #@! TO.C,FID1*
X150578571Y-83678571D02*
X150245238Y-83678571D01*
X150245238Y-84202380D02*
X150245238Y-83202380D01*
X150721428Y-83202380D01*
X151102380Y-84202380D02*
X151102380Y-83202380D01*
X151578571Y-84202380D02*
X151578571Y-83202380D01*
X151816666Y-83202380D01*
X151959523Y-83250000D01*
X152054761Y-83345238D01*
X152102380Y-83440476D01*
X152150000Y-83630952D01*
X152150000Y-83773809D01*
X152102380Y-83964285D01*
X152054761Y-84059523D01*
X151959523Y-84154761D01*
X151816666Y-84202380D01*
X151578571Y-84202380D01*
X153102380Y-84202380D02*
X152530952Y-84202380D01*
X152816666Y-84202380D02*
X152816666Y-83202380D01*
X152721428Y-83345238D01*
X152626190Y-83440476D01*
X152530952Y-83488095D01*
G04 #@! TO.C,SW1*
X144866666Y-104704761D02*
X145009523Y-104752380D01*
X145247619Y-104752380D01*
X145342857Y-104704761D01*
X145390476Y-104657142D01*
X145438095Y-104561904D01*
X145438095Y-104466666D01*
X145390476Y-104371428D01*
X145342857Y-104323809D01*
X145247619Y-104276190D01*
X145057142Y-104228571D01*
X144961904Y-104180952D01*
X144914285Y-104133333D01*
X144866666Y-104038095D01*
X144866666Y-103942857D01*
X144914285Y-103847619D01*
X144961904Y-103800000D01*
X145057142Y-103752380D01*
X145295238Y-103752380D01*
X145438095Y-103800000D01*
X145771428Y-103752380D02*
X146009523Y-104752380D01*
X146200000Y-104038095D01*
X146390476Y-104752380D01*
X146628571Y-103752380D01*
X147533333Y-104752380D02*
X146961904Y-104752380D01*
X147247619Y-104752380D02*
X147247619Y-103752380D01*
X147152380Y-103895238D01*
X147057142Y-103990476D01*
X146961904Y-104038095D01*
G04 #@! TO.C,C4*
X151283333Y-90557142D02*
X151235714Y-90604761D01*
X151092857Y-90652380D01*
X150997619Y-90652380D01*
X150854761Y-90604761D01*
X150759523Y-90509523D01*
X150711904Y-90414285D01*
X150664285Y-90223809D01*
X150664285Y-90080952D01*
X150711904Y-89890476D01*
X150759523Y-89795238D01*
X150854761Y-89700000D01*
X150997619Y-89652380D01*
X151092857Y-89652380D01*
X151235714Y-89700000D01*
X151283333Y-89747619D01*
X152140476Y-89985714D02*
X152140476Y-90652380D01*
X151902380Y-89604761D02*
X151664285Y-90319047D01*
X152283333Y-90319047D01*
G04 #@! TO.C,C3*
X139683333Y-106707142D02*
X139635714Y-106754761D01*
X139492857Y-106802380D01*
X139397619Y-106802380D01*
X139254761Y-106754761D01*
X139159523Y-106659523D01*
X139111904Y-106564285D01*
X139064285Y-106373809D01*
X139064285Y-106230952D01*
X139111904Y-106040476D01*
X139159523Y-105945238D01*
X139254761Y-105850000D01*
X139397619Y-105802380D01*
X139492857Y-105802380D01*
X139635714Y-105850000D01*
X139683333Y-105897619D01*
X140016666Y-105802380D02*
X140635714Y-105802380D01*
X140302380Y-106183333D01*
X140445238Y-106183333D01*
X140540476Y-106230952D01*
X140588095Y-106278571D01*
X140635714Y-106373809D01*
X140635714Y-106611904D01*
X140588095Y-106707142D01*
X140540476Y-106754761D01*
X140445238Y-106802380D01*
X140159523Y-106802380D01*
X140064285Y-106754761D01*
X140016666Y-106707142D01*
G04 #@! TO.C,C1*
X139995833Y-102157142D02*
X139948214Y-102204761D01*
X139805357Y-102252380D01*
X139710119Y-102252380D01*
X139567261Y-102204761D01*
X139472023Y-102109523D01*
X139424404Y-102014285D01*
X139376785Y-101823809D01*
X139376785Y-101680952D01*
X139424404Y-101490476D01*
X139472023Y-101395238D01*
X139567261Y-101300000D01*
X139710119Y-101252380D01*
X139805357Y-101252380D01*
X139948214Y-101300000D01*
X139995833Y-101347619D01*
X140948214Y-102252380D02*
X140376785Y-102252380D01*
X140662500Y-102252380D02*
X140662500Y-101252380D01*
X140567261Y-101395238D01*
X140472023Y-101490476D01*
X140376785Y-101538095D01*
G04 #@! TO.C,C2*
X152458333Y-111607142D02*
X152410714Y-111654761D01*
X152267857Y-111702380D01*
X152172619Y-111702380D01*
X152029761Y-111654761D01*
X151934523Y-111559523D01*
X151886904Y-111464285D01*
X151839285Y-111273809D01*
X151839285Y-111130952D01*
X151886904Y-110940476D01*
X151934523Y-110845238D01*
X152029761Y-110750000D01*
X152172619Y-110702380D01*
X152267857Y-110702380D01*
X152410714Y-110750000D01*
X152458333Y-110797619D01*
X152839285Y-110797619D02*
X152886904Y-110750000D01*
X152982142Y-110702380D01*
X153220238Y-110702380D01*
X153315476Y-110750000D01*
X153363095Y-110797619D01*
X153410714Y-110892857D01*
X153410714Y-110988095D01*
X153363095Y-111130952D01*
X152791666Y-111702380D01*
X153410714Y-111702380D01*
G04 #@! TO.C,RN2*
X138509523Y-108852380D02*
X138176190Y-108376190D01*
X137938095Y-108852380D02*
X137938095Y-107852380D01*
X138319047Y-107852380D01*
X138414285Y-107900000D01*
X138461904Y-107947619D01*
X138509523Y-108042857D01*
X138509523Y-108185714D01*
X138461904Y-108280952D01*
X138414285Y-108328571D01*
X138319047Y-108376190D01*
X137938095Y-108376190D01*
X138938095Y-108852380D02*
X138938095Y-107852380D01*
X139509523Y-108852380D01*
X139509523Y-107852380D01*
X139938095Y-107947619D02*
X139985714Y-107900000D01*
X140080952Y-107852380D01*
X140319047Y-107852380D01*
X140414285Y-107900000D01*
X140461904Y-107947619D01*
X140509523Y-108042857D01*
X140509523Y-108138095D01*
X140461904Y-108280952D01*
X139890476Y-108852380D01*
X140509523Y-108852380D01*
G04 #@! TO.C,RN1*
X138959523Y-97952380D02*
X138626190Y-97476190D01*
X138388095Y-97952380D02*
X138388095Y-96952380D01*
X138769047Y-96952380D01*
X138864285Y-97000000D01*
X138911904Y-97047619D01*
X138959523Y-97142857D01*
X138959523Y-97285714D01*
X138911904Y-97380952D01*
X138864285Y-97428571D01*
X138769047Y-97476190D01*
X138388095Y-97476190D01*
X139388095Y-97952380D02*
X139388095Y-96952380D01*
X139959523Y-97952380D01*
X139959523Y-96952380D01*
X140959523Y-97952380D02*
X140388095Y-97952380D01*
X140673809Y-97952380D02*
X140673809Y-96952380D01*
X140578571Y-97095238D01*
X140483333Y-97190476D01*
X140388095Y-97238095D01*
G04 #@! TO.C,U1*
X139938095Y-94252380D02*
X139938095Y-95061904D01*
X139985714Y-95157142D01*
X140033333Y-95204761D01*
X140128571Y-95252380D01*
X140319047Y-95252380D01*
X140414285Y-95204761D01*
X140461904Y-95157142D01*
X140509523Y-95061904D01*
X140509523Y-94252380D01*
X141509523Y-95252380D02*
X140938095Y-95252380D01*
X141223809Y-95252380D02*
X141223809Y-94252380D01*
X141128571Y-94395238D01*
X141033333Y-94490476D01*
X140938095Y-94538095D01*
G04 #@! TD*
M02*
